<svg xmlns="http://www.w3.org/2000/svg" xmlns:xlink="http://www.w3.org/1999/xlink" width="500" zoomAndPan="magnify" viewBox="0 0 375 374.999991" height="500" preserveAspectRatio="xMidYMid meet" version="1.0"><path fill="#000000" d="M 85.238281 249.757812 C 70.929688 256.703125 47.933594 270.167969 26.953125 294.621094 C 10.601562 313.6875 1.332031 332.601562 -3.925781 345.9375 C 123.585938 345.9375 251.09375 345.9375 378.605469 345.9375 C 378.542969 345.742188 378.445312 345.429688 378.328125 345.042969 C 378.328125 345.042969 369.910156 318.09375 354.886719 293.902344 C 343.894531 276.207031 317.660156 244.585938 274.113281 217.175781 C 211.152344 228.035156 148.195312 238.894531 85.238281 249.757812 Z M 85.238281 249.757812 " fill-opacity="1" fill-rule="nonzero"/><path fill="#fff4d1" d="M 104.09375 219.054688 C 98.25 226.15625 91.097656 236.359375 85.238281 249.757812 C 77.992188 266.308594 75.550781 281.253906 74.703125 291.527344 C 99.597656 292.769531 111.027344 289.042969 116.796875 285.070312 C 117.652344 284.480469 120.949219 282.035156 123.015625 283.15625 C 124.605469 284.015625 124.566406 286.5 126.070312 294.921875 C 126.894531 299.535156 127.191406 300.386719 127.765625 300.523438 C 128.753906 300.761719 130.609375 298.910156 134.382812 290.167969 C 135.78125 299.628906 137.3125 301.632812 138.457031 301.710938 C 140.394531 301.84375 141.207031 296.433594 146.941406 289.660156 C 150.375 285.601562 152.296875 283.332031 155.0625 282.914062 C 161.285156 281.976562 164.863281 291.710938 174.199219 298.464844 C 183.15625 304.949219 192.894531 307.046875 200.152344 307.746094 C 210.515625 302.800781 224.648438 294.496094 238.296875 280.761719 C 261.851562 257.058594 270.675781 230.554688 274.113281 217.175781 C 268.480469 193.574219 262.847656 169.976562 257.214844 146.378906 Z M 104.09375 219.054688 " fill-opacity="1" fill-rule="nonzero"/><path fill="#fab89a" d="M 242.269531 136.007812 C 236.59375 137.125 231.222656 139.585938 226.578125 143.023438 C 231.46875 131.570312 235.695312 119.632812 236.59375 107.210938 C 238.183594 85.246094 228.703125 62.953125 212.425781 48.125 C 186.519531 24.527344 148.398438 20.84375 119.261719 40.433594 C 111.171875 45.871094 104.238281 53.0625 99.28125 61.46875 C 91.242188 75.101562 88.398438 91.121094 86.402344 106.820312 C 82.410156 138.21875 81.578125 171.609375 95.847656 199.859375 C 101.894531 211.824219 111.132812 222.910156 123.71875 227.519531 C 133.609375 231.144531 144.757812 230.402344 154.683594 226.871094 C 164.605469 223.335938 173.414062 217.171875 181.265625 210.148438 C 191.96875 200.570312 201.007812 189.363281 208.738281 177.246094 C 208.292969 179.277344 207.828125 181.308594 207.285156 183.308594 C 200.273438 209.1875 179.613281 230.945312 154.132812 239.273438 C 144.507812 242.421875 133.925781 243.949219 126.078125 250.351562 C 132.234375 261.140625 135.453125 273.871094 136.070312 286.277344 C 139.558594 282.238281 144.996094 276.140625 152.007812 269.085938 C 171.300781 249.683594 179.511719 246.191406 201.273438 226.480469 C 228.511719 201.808594 233.382812 191.214844 235.527344 182.390625 C 237.503906 174.265625 237.285156 167.15625 236.785156 162.40625 C 243.320312 156.023438 245.089844 144.695312 242.269531 136.007812 Z M 242.269531 136.007812 " fill-opacity="1" fill-rule="nonzero"/><path fill="#ffffff" d="M 122.917969 134.84375 C 122.46875 135.417969 121.613281 135.425781 121.367188 135.433594 C 118.332031 135.53125 114.945312 138.140625 110.269531 137.886719 C 108.832031 137.816406 105.058594 137.3125 100.832031 133 C 101.203125 132.441406 103.523438 129.054688 107.597656 127.679688 C 108.402344 127.414062 109.285156 127.21875 110.226562 127.140625 C 112.890625 126.929688 115.738281 127.6875 117.601562 128.816406 C 118.003906 129.0625 118.367188 129.328125 118.667969 129.609375 C 119.566406 130.449219 120.105469 131.535156 121.65625 132.222656 C 122.160156 132.441406 122.847656 132.6875 123.121094 133.332031 C 123.316406 133.8125 123.246094 134.4375 122.917969 134.84375 Z M 171.707031 129.285156 C 170.367188 128.492188 168.78125 127.792969 166.945312 127.34375 C 166.390625 127.210938 164.359375 126.71875 162.015625 126.648438 C 159.589844 126.566406 156.820312 126.957031 155.003906 128.660156 C 153.734375 129.839844 152.992188 131.605469 150.734375 132.355469 C 150.019531 132.59375 148.910156 132.804688 148.476562 133.703125 C 148.246094 134.171875 148.195312 134.84375 148.523438 135.265625 C 149.015625 135.929688 150.230469 135.796875 150.542969 135.761719 C 153.453125 135.496094 157.765625 137.542969 160.3125 138.105469 C 162.941406 138.691406 167.808594 138.601562 177.097656 134.101562 C 176.425781 133.210938 174.652344 131.023438 171.707031 129.285156 Z M 171.707031 129.285156 " fill-opacity="1" fill-rule="nonzero"/><path fill="#c74426" d="M 115.570312 197.863281 C 115.792969 197.34375 116.808594 197.699219 118.621094 197.242188 C 121 196.636719 121.421875 195.464844 123.082031 195.09375 C 124.171875 194.851562 125.800781 194.953125 128.109375 196.5625 C 129.28125 195.964844 131.089844 195.21875 133.363281 195.035156 C 138.007812 194.667969 139.730469 197.058594 146.75 198.484375 C 150.710938 199.289062 153.628906 199.230469 153.640625 199.726562 C 153.652344 200.191406 151.089844 200.226562 148.050781 201.363281 C 143.796875 202.957031 143.304688 204.957031 139.980469 206.90625 C 135.398438 209.597656 128.132812 210.621094 124.042969 207.582031 C 122.109375 206.144531 122.527344 205.023438 118.730469 201.480469 C 116.9375 199.800781 115.261719 198.574219 115.570312 197.863281 Z M 115.570312 197.863281 " fill-opacity="1" fill-rule="nonzero"/><path fill="#000000" d="M 128.976562 175.378906 C 128.835938 175.222656 130.933594 172.003906 134.28125 171.015625 C 136.523438 170.359375 139.582031 170.625 140.179688 172.023438 C 140.53125 172.84375 139.894531 173.777344 139.816406 173.890625 C 138.753906 175.402344 135.890625 174.691406 135.578125 174.613281 C 134.003906 174.222656 133.988281 173.5625 132.90625 173.632812 C 131.976562 173.691406 130.992188 174.246094 129.757812 174.945312 C 129.152344 175.289062 129.011719 175.414062 128.976562 175.378906 Z M 128.976562 175.378906 " fill-opacity="1" fill-rule="nonzero"/><path fill="#000000" d="M 134.550781 286.261719 C 134.734375 285.707031 135.296875 285.347656 135.882812 285.507812 C 136.421875 285.65625 136.828125 286.285156 136.640625 286.839844 C 136.355469 287.675781 136.140625 288.695312 135.625 289.421875 C 135.109375 290.148438 133.820312 289.957031 133.84375 288.941406 C 133.867188 288.027344 134.273438 287.121094 134.550781 286.261719 Z M 76.984375 290.625 C 88.132812 289.695312 99.113281 286.660156 109.28125 282.019531 C 114.394531 279.6875 124.902344 272.421875 127.597656 281.730469 C 129.195312 287.246094 126.234375 292.859375 128 298.417969 C 128.296875 299.351562 129.730469 298.96875 129.476562 298.011719 C 127.828125 291.78125 131.75 285.105469 129.042969 279.058594 C 127.09375 274.707031 122.484375 273.726562 118.167969 274.980469 C 111.511719 276.917969 105.40625 281.21875 98.84375 283.582031 C 91.660156 286.171875 84.296875 287.824219 76.769531 289.046875 C 75.882812 289.191406 76.082031 290.699219 76.984375 290.625 Z M 198.039062 303.292969 C 191.027344 300.304688 184.207031 296.9375 177.785156 292.816406 C 171.039062 288.488281 165.460938 283.027344 159.195312 278.136719 C 154.875 274.757812 150.855469 275.113281 146.917969 278.894531 C 142.234375 283.390625 137.945312 289.339844 135.839844 295.503906 C 135.492188 296.519531 136.964844 297.039062 137.507812 296.207031 C 140.882812 291.027344 143.800781 285.59375 148.253906 281.199219 C 152.179688 277.324219 155.714844 278.304688 159.550781 281.539062 C 161.921875 283.535156 164.25 285.554688 166.714844 287.441406 C 176.070312 294.589844 186.4375 300.503906 197.476562 304.625 C 198.242188 304.910156 198.796875 303.617188 198.039062 303.292969 Z M 287.160156 166.652344 C 292.742188 172.230469 297.398438 178.953125 299.464844 186.574219 C 301.53125 194.191406 300.777344 202.777344 296.378906 209.332031 C 291.984375 215.886719 280.699219 221.523438 274.113281 217.175781 C 264.710938 210.96875 258.96875 200.632812 254.078125 190.484375 C 249.332031 180.636719 244.535156 170.078125 236.894531 162.269531 C 233.859375 166.855469 229.070312 170.898438 223.667969 167.199219 C 223.125 166.828125 223.625 165.949219 224.1875 166.308594 C 229.851562 169.945312 234.308594 164.402344 236.9375 159.722656 C 237.402344 158.386719 237.828125 157.011719 238.816406 156.085938 C 240.648438 154.371094 241.765625 151.90625 241.839844 149.390625 C 241.914062 146.878906 240.675781 144.910156 238.945312 143.085938 C 239.464844 144.859375 238.523438 146.554688 237.105469 147.742188 C 237.210938 145.183594 235.546875 141.800781 233.019531 141.382812 C 232.28125 149.445312 224.925781 157.640625 217.105469 159.734375 C 220.015625 161.722656 222.898438 163.902344 222.410156 167.394531 C 218.625 194.421875 203.09375 219.382812 181.460938 236.019531 C 182.289062 234.441406 183.453125 232.167969 184.28125 230.585938 C 173.730469 245.570312 157.753906 256.488281 139.945312 260.796875 C 119.167969 249.84375 103.101562 229.046875 97.089844 206.335938 C 90.167969 205.246094 83.703125 201.480469 79.339844 195.996094 C 74.980469 190.511719 73.917969 183.9375 74.410156 176.945312 C 70.175781 176.183594 66.289062 173.636719 63.902344 170.058594 C 61.511719 166.480469 61.414062 161.902344 62.328125 157.695312 C 58.300781 157.910156 54.433594 155.257812 52.613281 151.65625 C 50.792969 148.050781 50.839844 143.703125 52.109375 139.871094 C 53.378906 136.039062 56.03125 132.941406 58.753906 129.960938 C 53.167969 123.738281 52.164062 113.839844 56.390625 106.621094 C 60.054688 100.375 66.722656 96.65625 72.339844 92.085938 C 82.375 83.921875 87.214844 71.066406 92.984375 59.480469 C 102.027344 41.324219 119.167969 27.398438 138.789062 22.273438 C 153.648438 18.390625 169.285156 19.394531 184.605469 20.433594 C 189.457031 20.757812 194.375 21.101562 198.96875 22.695312 C 203.5625 24.289062 207.871094 27.316406 209.933594 31.722656 C 213.421875 30.78125 216.933594 30.773438 220.15625 32.414062 C 223.378906 34.050781 226.097656 36.523438 228.578125 39.152344 C 237.492188 48.605469 243.679688 60.234375 250.511719 71.285156 C 257.34375 82.339844 265.226562 93.242188 276.3125 100.019531 C 285.011719 105.332031 295.644531 109.65625 300.4375 118.652344 C 301.378906 120.421875 302.183594 122.320312 302.304688 124.320312 C 302.425781 126.320312 300.734375 131.59375 299.179688 132.859375 C 302.953125 135.523438 304.898438 140.34375 304.65625 144.960938 C 304.414062 149.574219 302.179688 153.9375 299.039062 157.328125 C 295.898438 160.71875 291.335938 164.671875 287.160156 166.652344 Z M 223.042969 110.488281 C 220.769531 112.554688 217.761719 113.105469 214.703125 113.398438 C 216.429688 110.332031 217.957031 107.617188 219.582031 104.496094 C 221.3125 101.164062 220.785156 97.078125 219.472656 93.554688 C 218.160156 90.035156 216.132812 86.8125 214.84375 83.285156 C 213.347656 79.195312 212.882812 74.777344 211.296875 70.71875 C 205.953125 57.054688 189.507812 50.421875 184.835938 36.511719 C 167.355469 39.203125 148.824219 32.574219 132.109375 38.359375 C 123.613281 41.304688 116.40625 47.277344 110.773438 54.292969 C 105.140625 61.304688 100.953125 69.351562 97.074219 77.464844 C 88.769531 94.832031 89.859375 118.910156 93.015625 137.898438 C 92.191406 144.832031 91.789062 154.582031 93.738281 165.960938 C 95.550781 176.542969 98.804688 185.0625 101.65625 191.125 C 102.421875 190.21875 103.632812 189 105.382812 188.019531 C 108.226562 186.429688 110.769531 186.441406 112.546875 186.210938 C 115.222656 185.871094 118.886719 184.632812 123.160156 180.695312 C 122.628906 180.300781 122.128906 179.832031 121.621094 179.277344 C 119.257812 176.699219 118.050781 175.34375 115 173.527344 C 112.019531 171.757812 112.332031 169.445312 113.867188 166.648438 C 117.15625 160.65625 118.394531 154.308594 120.542969 147.894531 C 122.570312 141.847656 127.839844 134.839844 124.289062 128.445312 C 124.035156 127.992188 124.726562 127.589844 124.980469 128.039062 C 126.890625 131.421875 126.945312 134.855469 125.757812 138.519531 C 124.054688 143.773438 121.617188 148.667969 120.121094 154.03125 C 119.382812 156.679688 118.652344 159.328125 117.625 161.886719 C 116.820312 163.886719 115.191406 165.828125 114.601562 167.835938 C 113.855469 170.386719 114.898438 171.691406 116.34375 172.710938 C 116.070312 172.078125 115.859375 171.429688 115.699219 170.832031 C 115.5625 170.332031 116.316406 170.128906 116.472656 170.617188 C 116.71875 171.410156 117.085938 172.160156 117.53125 172.863281 C 117.777344 173.25 118.066406 173.601562 118.351562 173.957031 C 118.953125 174.328125 119.527344 174.71875 119.988281 175.1875 C 122.0625 177.300781 123.234375 180.082031 126.410156 180.753906 C 126.621094 180.796875 126.75 180.914062 126.816406 181.058594 C 129.296875 180.691406 131.386719 179.449219 132.6875 176.898438 C 132.902344 176.476562 133.636719 176.785156 133.457031 177.222656 C 133.078125 178.125 132.554688 178.964844 131.925781 179.695312 C 134.007812 179.84375 137.171875 180.253906 140.789062 181.496094 C 150.101562 184.699219 152.832031 190.164062 160.847656 191.816406 C 163.125 192.28125 166.792969 192.644531 171.726562 191.335938 C 170.839844 193.503906 169.148438 196.558594 165.984375 197.976562 C 164.410156 198.683594 162.398438 199.019531 151.40625 195.757812 C 144.683594 193.765625 141.261719 192.734375 138.261719 190.976562 C 133.875 188.410156 130.871094 185.410156 129.058594 183.328125 C 127.632812 185.914062 124.921875 190.042969 120.214844 193.726562 C 116.328125 196.765625 112.535156 198.367188 109.9375 199.226562 C 110.414062 202.238281 111.785156 208.203125 116.390625 213.929688 C 123.441406 222.695312 133.074219 224.703125 135.753906 225.167969 C 149.261719 227.507812 163.039062 219.433594 172.847656 209.851562 C 172.78125 210.699219 172.726562 211.757812 172.660156 212.609375 C 181.882812 205.628906 189.984375 195.710938 193.796875 184.789062 C 193.789062 186.03125 193.914062 187.816406 193.90625 189.058594 C 203.011719 183.824219 209.101562 172.746094 209.152344 162.242188 C 209.179688 157.222656 207.957031 152.289062 206.742188 147.417969 C 205.148438 141.035156 208.972656 133.761719 212.980469 128.550781 C 216.992188 123.335938 222.355469 117.03125 223.042969 110.488281 Z M 120.164062 118.824219 C 117.300781 116.007812 113.75 115.195312 113.230469 115.082031 C 108.316406 114.023438 104.332031 116.09375 102.875 116.851562 C 99.386719 118.660156 97.324219 121.242188 96.285156 122.792969 C 96.296875 123.210938 96.378906 123.742188 96.742188 123.964844 C 97.652344 124.523438 99.582031 122.683594 100.867188 121.75 C 104.101562 119.398438 109.265625 118.421875 112.75 119.660156 C 112.800781 119.679688 112.855469 119.707031 112.90625 119.726562 C 106.191406 118.914062 99.433594 122.039062 95.695312 128.464844 C 95.46875 128.855469 96.046875 129.183594 96.292969 128.816406 C 100.855469 121.941406 108.566406 119.257812 115.9375 121.441406 C 118.894531 123.570312 121.644531 126.59375 123.269531 127.128906 C 123.472656 127.199219 124.023438 127.378906 124.507812 127.128906 C 125.113281 126.808594 125.265625 126 125.308594 125.664062 C 124.609375 124.457031 123.785156 123.269531 122.90625 122.121094 C 122.117188 121.097656 121.175781 119.816406 120.164062 118.824219 Z M 176.101562 113.753906 C 162.308594 106.863281 142.78125 118.023438 143.148438 122.757812 C 143.175781 123.132812 143.335938 123.613281 143.585938 124.058594 C 142.320312 124.238281 141.0625 124.167969 139.804688 123.660156 C 139.320312 123.464844 138.980469 124.273438 139.449219 124.503906 C 140.503906 125.023438 141.625 125.332031 142.753906 125.363281 C 140.8125 126.023438 138.757812 126.136719 137.222656 124.792969 C 136.832031 124.449219 136.296875 124.976562 136.648438 125.363281 C 139.003906 127.953125 143.265625 127.203125 146.066406 125.3125 C 147.136719 125.03125 148.082031 124.253906 148.988281 123.542969 C 151.894531 121.277344 156.367188 119.492188 160.328125 118.347656 C 164.101562 117.929688 167.828125 118.363281 171.222656 120.804688 C 174.675781 123.289062 177.175781 126.800781 180.835938 129.023438 C 181.171875 129.230469 181.476562 128.707031 181.144531 128.496094 C 176.425781 125.503906 173.746094 119.84375 168.421875 117.765625 C 167.621094 117.453125 166.804688 117.234375 165.984375 117.078125 C 166.503906 117.003906 166.980469 116.949219 167.367188 116.925781 C 177.804688 116.347656 185.007812 126.003906 185.917969 124.847656 C 186.632812 123.9375 182.792969 117.097656 176.101562 113.753906 Z M 136.894531 112.984375 C 137.210938 113.453125 137.515625 114.027344 137.957031 114.386719 C 138.335938 114.699219 139.105469 114.421875 138.886719 113.84375 C 138.683594 113.296875 138.277344 112.84375 137.925781 112.382812 C 137.558594 111.894531 137.191406 111.410156 136.824219 110.921875 C 136.40625 110.367188 135.457031 110.882812 135.867188 111.480469 C 136.210938 111.984375 136.554688 112.484375 136.894531 112.984375 Z M 141.804688 163.484375 C 142.0625 166.996094 145.089844 171.460938 142.121094 174.40625 C 140.015625 176.5 136.527344 176.492188 134.101562 178.273438 C 133.730469 178.546875 134.050781 179.140625 134.472656 178.902344 C 137.417969 177.246094 141.6875 177.707031 143.820312 174.660156 C 146.21875 171.222656 143.152344 167.054688 142.84375 163.484375 C 142.789062 162.824219 141.757812 162.8125 141.804688 163.484375 Z M 139.667969 112.972656 C 140.101562 113.351562 140.683594 112.882812 140.445312 112.371094 C 140.226562 111.902344 139.894531 111.507812 139.585938 111.09375 C 139.148438 110.507812 138.152344 111.085938 138.597656 111.671875 C 138.933594 112.121094 139.246094 112.601562 139.667969 112.972656 Z M 154.03125 199.042969 C 148.867188 200.996094 144.15625 199.675781 138.898438 199.050781 C 135.527344 198.648438 132.578125 198.878906 129.910156 201.078125 C 129.464844 201.441406 130.039062 202.171875 130.519531 201.871094 C 137.640625 197.367188 146.726562 203.597656 154.511719 200.183594 C 155.152344 199.902344 154.695312 198.792969 154.03125 199.042969 Z M 137.765625 213.367188 C 133.664062 211.613281 129.046875 211.359375 124.75 212.496094 C 124.054688 212.679688 124.355469 213.679688 125.042969 213.558594 C 129.296875 212.804688 133.195312 213.191406 137.296875 214.480469 C 137.941406 214.683594 138.410156 213.640625 137.765625 213.367188 Z M 96.75 116.9375 C 96.425781 117.402344 97.03125 117.804688 97.441406 117.628906 C 97.816406 117.472656 98.125 117.160156 98.4375 116.90625 C 98.765625 116.644531 99.09375 116.378906 99.417969 116.113281 C 99.988281 115.648438 99.175781 114.84375 98.609375 115.304688 C 97.996094 115.800781 97.203125 116.285156 96.75 116.9375 Z M 96.054688 115.714844 C 96.367188 115.570312 96.609375 115.300781 96.863281 115.074219 C 97.132812 114.835938 97.398438 114.597656 97.667969 114.359375 C 98.125 113.953125 97.453125 113.285156 97 113.6875 C 96.503906 114.128906 95.828125 114.566406 95.480469 115.136719 C 95.238281 115.523438 95.699219 115.882812 96.054688 115.714844 Z M 122.335938 132.203125 C 120.136719 130.054688 117.730469 127.460938 114.582031 126.816406 C 109.28125 125.734375 102.804688 127.027344 99.96875 132.007812 C 99.570312 132.707031 100.605469 133.296875 101.039062 132.632812 C 102.542969 130.347656 104.78125 128.921875 107.28125 128.246094 C 106.90625 129 106.6875 129.84375 106.6875 130.742188 C 106.6875 133.855469 109.210938 136.371094 112.316406 136.371094 C 115.429688 136.371094 117.945312 133.855469 117.945312 130.742188 C 117.945312 130.515625 117.910156 130.304688 117.886719 130.089844 C 118.527344 130.613281 119.144531 131.199219 119.792969 131.828125 C 120.296875 132.316406 123.101562 133.449219 122.570312 134.480469 C 122.410156 134.792969 122.867188 135.0625 123.039062 134.757812 C 123.746094 133.511719 123.273438 133.113281 122.335938 132.203125 Z M 128.855469 202.25 C 129.226562 202.613281 129.777344 202.058594 129.425781 201.679688 C 128.257812 200.417969 127.035156 199.171875 125.207031 199.15625 C 124.015625 199.148438 122.84375 199.503906 121.644531 199.488281 C 119.683594 199.46875 118.015625 198.792969 116.253906 198.03125 C 115.578125 197.738281 115.035156 198.605469 115.667969 199.035156 C 117.1875 200.0625 118.96875 200.605469 120.792969 200.761719 C 123.855469 201.027344 126.316406 199.769531 128.855469 202.25 Z M 112.027344 139.332031 C 108.316406 139.8125 104.949219 138.261719 101.984375 136.199219 C 101.492188 135.851562 100.972656 136.59375 101.363281 137.007812 C 104.199219 140.019531 108.207031 140.574219 112.109375 139.949219 C 112.457031 139.894531 112.378906 139.285156 112.027344 139.332031 Z M 203.546875 171.996094 C 203.445312 172.585938 203.238281 173.253906 203.289062 173.851562 C 203.332031 174.339844 204.085938 174.695312 204.332031 174.136719 C 204.582031 173.574219 204.621094 172.921875 204.71875 172.320312 C 204.84375 171.554688 203.675781 171.222656 203.546875 171.996094 Z M 198.195312 80.804688 C 197.808594 80.277344 196.921875 80.789062 197.308594 81.324219 C 198.144531 82.464844 198.925781 83.683594 199.890625 84.722656 C 200.234375 85.097656 200.824219 84.621094 200.582031 84.191406 C 199.90625 82.996094 199.007812 81.914062 198.195312 80.804688 Z M 196.109375 76.019531 C 195.660156 75.578125 194.972656 76.265625 195.417969 76.710938 C 196.875 78.183594 198.277344 79.863281 199.910156 81.144531 C 200.359375 81.496094 200.894531 80.96875 200.535156 80.515625 C 199.257812 78.882812 197.578125 77.480469 196.109375 76.019531 Z M 141.074219 136.4375 C 141.234375 136.800781 141.390625 137.160156 141.554688 137.519531 C 141.710938 137.875 141.824219 138.210938 142.171875 138.417969 C 142.429688 138.570312 142.863281 138.441406 142.914062 138.113281 C 142.988281 137.675781 142.816406 137.378906 142.632812 136.984375 C 142.453125 136.605469 142.265625 136.226562 142.085938 135.847656 C 141.753906 135.164062 140.777344 135.761719 141.074219 136.4375 Z M 201.160156 78.769531 C 201.507812 79.054688 202.15625 78.675781 201.84375 78.242188 C 199.777344 75.421875 196.917969 73 194.363281 70.628906 C 194.152344 70.429688 193.871094 70.722656 194.050781 70.9375 C 196.253906 73.589844 198.492188 76.574219 201.160156 78.769531 Z M 230.808594 151.125 C 230.570312 151.992188 229.796875 152.800781 230.25 153.746094 C 230.65625 154.585938 231.476562 154.464844 232.25 154.238281 C 234.527344 153.570312 237.53125 151.746094 238.609375 149.558594 C 238.804688 149.167969 238.382812 148.613281 237.957031 148.90625 C 236.59375 149.835938 235.527344 151.089844 234.097656 151.953125 C 233.503906 152.308594 232.679688 152.914062 231.996094 153.03125 C 230.535156 153.28125 231.429688 152.0625 231.578125 151.335938 C 231.675781 150.835938 230.945312 150.625 230.808594 151.125 Z M 201.472656 174.410156 C 201.261719 175.328125 200.929688 176.300781 200.875 177.242188 C 200.835938 177.914062 201.773438 177.949219 201.980469 177.390625 C 202.292969 176.558594 202.363281 175.574219 202.53125 174.703125 C 202.660156 174.019531 201.632812 173.71875 201.472656 174.410156 Z M 173.179688 137.402344 C 168.496094 140.019531 162.605469 140.722656 157.410156 139.457031 C 156.9375 139.339844 156.75 140.03125 157.210938 140.179688 C 163.042969 142.074219 168.375 141.296875 173.539062 138.015625 C 173.921875 137.773438 173.582031 137.179688 173.179688 137.402344 Z M 143.859375 135.558594 C 144 134.925781 143.558594 134.195312 143.347656 133.605469 C 143.125 132.996094 142.160156 133.238281 142.355469 133.878906 C 142.53125 134.453125 142.621094 135.359375 143.089844 135.761719 C 143.335938 135.972656 143.777344 135.921875 143.859375 135.558594 Z M 171.117188 128.628906 C 167.566406 127.289062 162.894531 125.285156 159.011719 126.128906 C 156.039062 126.777344 154.730469 129.339844 152.394531 130.984375 C 150.527344 132.300781 148.191406 132.132812 148 134.769531 C 147.960938 135.304688 148.820312 135.3125 148.839844 134.769531 C 148.871094 133.734375 152.398438 132.683594 153.160156 132.128906 C 154.378906 131.242188 155.191406 129.777344 156.429688 128.953125 C 157.6875 128.113281 159.402344 127.695312 161.308594 127.628906 C 160.839844 128.445312 160.570312 129.390625 160.570312 130.40625 C 160.570312 133.511719 163.089844 136.035156 166.195312 136.035156 C 169.308594 136.035156 171.824219 133.511719 171.824219 130.40625 C 171.824219 130.316406 171.8125 130.230469 171.808594 130.144531 C 174.007812 131.3125 175.777344 132.816406 176.605469 134.523438 C 176.96875 135.273438 178.058594 134.617188 177.71875 133.871094 C 176.390625 130.96875 174 129.714844 171.117188 128.628906 Z M 190.199219 119.460938 C 189.984375 119.109375 189.773438 118.753906 189.5625 118.402344 C 189.234375 117.859375 188.398438 118.347656 188.710938 118.902344 C 188.914062 119.257812 189.117188 119.617188 189.320312 119.972656 C 189.511719 120.3125 189.671875 120.707031 189.96875 120.96875 C 190.324219 121.273438 190.835938 120.976562 190.742188 120.519531 C 190.664062 120.128906 190.398438 119.792969 190.199219 119.460938 Z M 187.550781 119.246094 C 187.226562 118.703125 186.394531 119.1875 186.707031 119.738281 C 187.089844 120.414062 187.425781 121.246094 187.945312 121.824219 C 188.265625 122.179688 188.910156 121.804688 188.753906 121.351562 C 188.507812 120.613281 187.949219 119.910156 187.550781 119.246094 Z M 187.550781 119.246094 " fill-opacity="1" fill-rule="nonzero"/><path fill="#fff4d1" d="M 233.222656 166.128906 C 234.117188 168.457031 233.953125 171.808594 231.742188 173.796875 C 228.917969 176.339844 223.933594 175.585938 223.207031 173.949219 C 222.777344 172.980469 223.660156 171.328125 224.515625 171.199219 C 225.175781 171.101562 225.394531 171.960938 226.519531 172.242188 C 227.902344 172.582031 229.171875 171.683594 229.367188 171.546875 C 229.648438 171.351562 231.042969 170.328125 230.980469 168.878906 C 230.933594 167.816406 230.128906 167.089844 229.59375 166.609375 C 227.652344 164.863281 225.847656 165.421875 225.1875 164.125 C 224.734375 163.242188 224.996094 161.839844 225.742188 161.339844 C 227.277344 160.3125 231.792969 162.429688 233.222656 166.128906 Z M 86.039062 90.332031 C 83.628906 97.09375 79.105469 101.761719 73.546875 106.058594 C 73.085938 106.414062 73.464844 107.132812 74.011719 106.855469 C 78.152344 104.765625 81.417969 101.296875 83.816406 97.316406 C 82.101562 104.34375 78.285156 110.078125 73.101562 115.3125 C 72.707031 115.710938 73.25 116.492188 73.726562 116.125 C 78.054688 112.789062 81.160156 108.242188 83.113281 103.21875 C 82.625 107.464844 81.109375 111.28125 78.820312 115.042969 C 78.457031 115.636719 79.335938 116.109375 79.730469 115.578125 C 82.964844 111.230469 84.335938 105.859375 84.257812 100.5 C 84.253906 100.363281 84.203125 100.265625 84.132812 100.1875 C 84.664062 98.34375 85.058594 96.460938 85.300781 94.566406 C 85.929688 93.257812 86.472656 91.917969 86.929688 90.574219 C 87.117188 90.007812 86.234375 89.777344 86.039062 90.332031 Z M 170.363281 191.671875 C 164.921875 199.636719 155.5 195.230469 148.457031 192.492188 C 148.097656 192.351562 147.890625 192.910156 148.203125 193.097656 C 154.992188 197.226562 166.011719 200.644531 170.984375 192.035156 C 171.21875 191.628906 170.621094 191.292969 170.363281 191.671875 Z M 133.140625 291.34375 C 130.269531 308.5 128.0625 325.945312 127.324219 343.332031 C 127.289062 344.140625 128.503906 344.121094 128.566406 343.332031 C 129.992188 326.023438 131.625 308.832031 134.238281 291.648438 C 134.347656 290.933594 133.261719 290.617188 133.140625 291.34375 Z M 115.421875 193.738281 C 109.695312 196.441406 103.953125 196.59375 97.832031 196 C 98.945312 195.273438 99.953125 194.21875 100.785156 193.277344 C 101.121094 192.890625 100.570312 192.328125 100.214844 192.707031 C 99.65625 193.304688 99.0625 193.871094 98.429688 194.398438 C 97.882812 194.855469 97.273438 195.238281 96.714844 195.679688 C 96.316406 195.65625 95.957031 196.152344 96.320312 196.507812 C 99.722656 199.839844 103.953125 199.40625 108.367188 198.9375 C 108.835938 198.886719 108.847656 198.148438 108.367188 198.191406 C 105.277344 198.457031 101.746094 198.554688 98.910156 197.117188 C 104.625 198.277344 110.574219 196.839844 115.757812 194.316406 C 116.144531 194.125 115.808594 193.558594 115.421875 193.738281 Z M 192.210938 205.144531 C 191.484375 206.914062 190.347656 208.890625 190.046875 210.78125 C 189.964844 211.300781 190.59375 211.601562 190.910156 211.144531 C 191.457031 210.34375 191.742188 209.351562 192.097656 208.453125 C 192.492188 207.449219 192.878906 206.441406 193.265625 205.4375 C 193.523438 204.773438 192.472656 204.503906 192.210938 205.144531 Z M 240.148438 97.847656 C 239.683594 97.386719 238.96875 98.101562 239.429688 98.566406 C 241.101562 100.25 242.726562 102.011719 244.507812 103.578125 C 244.953125 103.96875 245.550781 103.375 245.15625 102.925781 C 243.59375 101.144531 241.832031 99.519531 240.148438 97.847656 Z M 254.402344 98.347656 C 245.972656 90.515625 238.84375 81.882812 233.546875 71.613281 C 233.261719 71.054688 232.425781 71.546875 232.710938 72.101562 C 237.898438 82.292969 244.863281 91.730469 253.714844 99.035156 C 254.191406 99.425781 254.871094 98.78125 254.402344 98.347656 Z M 195.613281 202.074219 C 195.304688 202.921875 194.996094 203.773438 194.683594 204.621094 C 194.40625 205.382812 193.996094 206.167969 193.988281 206.988281 C 193.984375 207.355469 194.523438 207.644531 194.777344 207.316406 C 195.285156 206.671875 195.460938 205.863281 195.722656 205.09375 C 196.035156 204.183594 196.34375 203.273438 196.65625 202.359375 C 196.882812 201.695312 195.851562 201.425781 195.613281 202.074219 Z M 238.660156 89.039062 C 238.296875 88.539062 237.457031 89.015625 237.820312 89.527344 C 241.207031 94.320312 245.019531 99.046875 249.558594 102.796875 C 249.996094 103.160156 250.605469 102.582031 250.195312 102.15625 C 246.105469 97.933594 242.113281 93.820312 238.660156 89.039062 Z M 198.988281 199.953125 C 198.300781 201.390625 197.535156 202.8125 196.953125 204.292969 C 196.71875 204.894531 197.683594 205.28125 197.992188 204.730469 C 198.738281 203.382812 199.324219 201.929688 199.972656 200.53125 C 200.28125 199.871094 199.308594 199.289062 198.988281 199.953125 Z M 198.988281 199.953125 " fill-opacity="1" fill-rule="nonzero"/></svg>