<svg xmlns="http://www.w3.org/2000/svg" xmlns:xlink="http://www.w3.org/1999/xlink" width="500" zoomAndPan="magnify" viewBox="0 0 375 374.999991" height="500" preserveAspectRatio="xMidYMid meet" version="1.0"><defs><clipPath id="f5c3352ede"><path d="M 1.21875 252 L 373.96875 252 L 373.96875 375 L 1.21875 375 Z M 1.21875 252 " clip-rule="nonzero"/></clipPath></defs><g clip-path="url(#f5c3352ede)"><path fill="#000000" d="M 373.753906 384 L 1.425781 384 C 9.027344 363.714844 17.832031 343.304688 34.039062 329.167969 C 39.308594 324.574219 45.941406 320.855469 58.84375 312.972656 C 76.207031 302.371094 90.917969 294.382812 101.0625 289.085938 C 105.300781 284.300781 112.257812 277.457031 122.335938 271.660156 C 134.421875 264.71875 145.265625 262.582031 153.753906 261.105469 C 172.152344 257.902344 190.722656 255.851562 206.128906 254.523438 C 217.082031 253.589844 226.4375 253.027344 232.992188 252.675781 C 233.210938 252.738281 233.441406 252.808594 233.679688 252.894531 C 237.917969 254.222656 245.199219 257.179688 252.058594 263.742188 C 260.664062 271.960938 263.800781 281.257812 264.945312 285.453125 C 301.585938 310.09375 325.914062 323.925781 342.855469 332.335938 C 346.960938 334.375 354.886719 338.386719 361.992188 346.8125 C 370.535156 356.941406 372.765625 370.574219 373.753906 384 Z M 373.753906 384 " fill-opacity="1" fill-rule="nonzero"/></g><path fill="#fff4d1" d="M 240.730469 261.957031 C 226.324219 281.953125 211.46875 301.835938 197.0625 321.832031 C 184.210938 339.671875 171.0625 357.800781 155.300781 372.941406 C 151.441406 376.65625 147.429688 380.191406 143.21875 383.488281 C 143.003906 383.664062 142.792969 383.832031 142.574219 384 L 93.726562 384 C 97.691406 359.175781 103.679688 334.675781 111.625 310.816406 C 115.632812 298.773438 120.136719 286.90625 125.125 275.234375 L 206.128906 254.523438 L 228.742188 248.746094 C 230.492188 249.992188 232.148438 251.382812 233.675781 252.898438 C 236.429688 255.570312 238.804688 258.632812 240.730469 261.957031 Z M 240.730469 261.957031 " fill-opacity="1" fill-rule="nonzero"/><path fill="#fab89a" d="M 231.519531 91.132812 C 246.558594 109.5625 262.203125 131.625 261.6875 155.410156 C 261.257812 175.324219 248.945312 194.761719 231.148438 203.695312 C 228.25 218.585938 229.050781 234.617188 231.917969 249.511719 C 233.113281 255.730469 230.039062 262.140625 225.566406 266.625 C 221.089844 271.105469 215.351562 274.050781 209.789062 277.085938 C 189.148438 288.347656 167.128906 300.234375 147.785156 313.601562 C 142.472656 312.320312 136.964844 311.300781 131.5 311.292969 C 127.457031 303.65625 123.308594 296.222656 123.324219 287.582031 C 123.351562 276.074219 121.585938 264.871094 119.488281 253.558594 C 109.472656 245.804688 105.367188 233.285156 102.863281 220.867188 C 98.472656 199.121094 103.171875 171.640625 91.996094 152.472656 C 87.363281 144.53125 82.640625 136.328125 81.347656 127.21875 C 78.898438 109.917969 89.160156 93.554688 92.132812 76.335938 C 93.199219 70.144531 93.480469 63.398438 97.390625 58.484375 C 102.328125 52.273438 111.199219 51.210938 119.121094 50.804688 C 136.796875 49.902344 154.519531 49.894531 172.195312 50.785156 C 195.953125 51.976562 216.480469 72.703125 231.519531 91.132812 Z M 231.519531 91.132812 " fill-opacity="1" fill-rule="nonzero"/><path fill="#fff4d1" d="M 96.601562 163.457031 C 90.386719 166.128906 81.429688 168.863281 71.296875 168.183594 C 65.246094 167.78125 62.296875 166.140625 59.9375 164.859375 C 56.457031 162.96875 53.488281 159.683594 53.03125 155.746094 C 52.683594 152.765625 53.753906 149.558594 52.5 146.832031 C 50.832031 143.207031 45.800781 142.097656 44.148438 138.464844 C 42.90625 135.738281 44.027344 132.484375 45.753906 130.035156 C 47.480469 127.585938 49.789062 125.566406 51.324219 122.996094 C 55.535156 115.941406 52.941406 106.882812 49.585938 99.382812 C 46.234375 91.882812 43.90625 84.851562 45.421875 76.777344 C 49.628906 77.671875 56.015625 75.6875 59.4375 73.078125 C 54.089844 72.648438 48.226562 69.339844 43.855469 66.226562 C 51.425781 67.273438 58.804688 63.0625 64.34375 57.792969 C 69.882812 52.523438 74.246094 46.097656 79.964844 41.023438 C 85.683594 35.953125 93.457031 32.246094 100.875 34.085938 C 98.582031 32.03125 95.699219 28.769531 92.882812 27.53125 C 101.613281 19.113281 114.972656 12.984375 127.050781 14.050781 C 124.703125 12.964844 121.480469 10.824219 119.132812 9.734375 C 128.539062 4.988281 138.414062 0.332031 148.949219 0.15625 C 159.484375 -0.015625 170.582031 4.289062 176.273438 13.15625 C 188.160156 10.8125 200.378906 16.03125 207.007812 26.167969 C 211.050781 24.484375 214.773438 26.308594 218.460938 28.664062 C 222.152344 31.023438 225.15625 34.300781 228.617188 36.980469 C 239.046875 45.050781 253.824219 47.097656 266.054688 42.164062 C 262.457031 45.917969 258.023438 48.214844 252.847656 48.726562 C 254.632812 55.945312 262.121094 61.34375 268.589844 65.011719 C 275.0625 68.675781 282.152344 72.550781 285.121094 79.371094 C 286.746094 83.109375 286.984375 87.472656 289.371094 90.773438 C 290.957031 92.96875 293.339844 94.457031 295.078125 96.535156 C 297.691406 99.664062 298.632812 103.929688 298.484375 108.007812 C 298.332031 112.085938 297.195312 116.054688 296.066406 119.976562 C 298.765625 124.996094 295.132812 132.148438 291.71875 136.714844 C 288.300781 141.28125 283.816406 145.1875 281.636719 150.457031 C 279.628906 155.320312 279.820312 160.773438 279.003906 165.96875 C 278.183594 171.167969 275.8125 176.746094 270.929688 178.707031 C 270.988281 182.191406 272.996094 185.003906 276.285156 186.152344 C 272.703125 190.332031 268.28125 194.113281 262.898438 195.261719 C 262.527344 200.089844 258.832031 205.777344 254.328125 207.566406 C 252.121094 208.441406 249.695312 208.707031 247.53125 209.6875 C 244.191406 211.199219 241.839844 214.226562 239.328125 216.902344 C 236.816406 219.574219 233.671875 222.121094 230.003906 222.140625 C 230.097656 216.140625 230.90625 208.296875 231.699219 202.347656 C 237.773438 200.402344 241.625 194.425781 243.628906 188.363281 C 245.628906 182.304688 245.683594 175.796875 245.714844 169.414062 C 242.484375 169.839844 238.019531 169.222656 236.074219 166.609375 C 234.125 163.996094 233.167969 160.800781 232.246094 157.675781 C 230.335938 151.210938 227.34375 145.015625 227.488281 138.277344 C 227.644531 131.003906 221.804688 123.8125 221.101562 116.570312 C 222.324219 118.167969 223.425781 118.503906 224.648438 120.101562 C 218.539062 112.347656 219.453125 99.550781 212.613281 92.433594 C 207.683594 87.300781 200.304688 81.734375 195.335938 76.636719 C 191.582031 72.789062 187.039062 67.816406 186.351562 62.480469 C 177.300781 68.210938 164.359375 69.203125 155.148438 63.730469 C 149.78125 70.714844 141.09375 76.5 132.761719 79.355469 C 124.429688 82.207031 114.414062 81.15625 107.960938 75.167969 C 107.855469 73.859375 105.199219 72.921875 104.054688 73.5625 C 102.910156 74.207031 102.339844 75.515625 101.882812 76.742188 C 97.445312 88.628906 97.296875 106.863281 97.296875 106.863281 C 96.554688 117.503906 94.296875 116.96875 92.949219 127.566406 C 91.902344 135.808594 91.769531 147.90625 96.601562 163.457031 Z M 96.601562 163.457031 " fill-opacity="1" fill-rule="nonzero"/><path fill="#c74426" d="M 150.820312 213.058594 C 161.71875 211.796875 170.65625 213.394531 176.164062 214.824219 C 172.757812 219.800781 167.21875 223.261719 161.253906 224.144531 C 155.675781 224.96875 150.015625 223.628906 144.378906 223.683594 C 141.445312 223.714844 138.5 224.121094 135.582031 223.792969 C 132.664062 223.46875 129.65625 222.253906 128.054688 219.792969 C 132.980469 217.355469 140.78125 214.21875 150.820312 213.058594 Z M 159.839844 315.136719 C 146.648438 309.972656 131.878906 308.953125 118.105469 312.261719 C 112.660156 323.617188 110.171875 337.867188 114.753906 349.601562 C 107.527344 359.949219 101.421875 371.578125 99.230469 384 L 142.574219 384 C 142.792969 383.832031 143.003906 383.664062 143.21875 383.488281 C 143.605469 372.679688 143.453125 361.644531 142.152344 350.90625 C 152.558594 343.191406 159.578125 328.085938 159.839844 315.136719 Z M 159.839844 315.136719 " fill-opacity="1" fill-rule="nonzero"/><path fill="#ffffff" d="M 134.96875 149.621094 C 134.90625 149.902344 134.554688 150.007812 134.261719 150.042969 C 133.339844 150.136719 132.40625 150.078125 131.519531 149.867188 C 128.828125 150.9375 126.15625 151.222656 123.402344 151.113281 C 121.921875 151.070312 120.417969 150.914062 118.890625 150.699219 C 118.605469 150.664062 118.328125 150.621094 118.042969 150.585938 C 115.644531 150.253906 113.242188 149.9375 110.839844 149.601562 C 109.847656 149.46875 109.019531 149.082031 108.710938 148.132812 C 110.957031 147.457031 112.625 145.617188 114.589844 144.339844 C 114.957031 144.105469 115.335938 143.882812 115.722656 143.691406 C 118.152344 142.457031 120.972656 142.019531 123.648438 142.484375 C 124.730469 142.679688 125.769531 143.136719 126.769531 143.734375 C 128.632812 144.832031 130.386719 146.398438 132.136719 147.472656 C 132.917969 147.957031 133.691406 148.441406 134.476562 148.914062 C 134.738281 149.074219 135.027344 149.320312 134.96875 149.621094 Z M 194.828125 145.195312 C 193.746094 144.457031 192.578125 143.664062 191.320312 142.960938 C 189.507812 141.921875 187.503906 141.058594 185.257812 140.761719 C 183.96875 140.59375 182.542969 140.539062 180.886719 140.820312 C 178.59375 141.226562 175.867188 142.273438 172.460938 144.550781 C 171.609375 145.125 170.757812 145.695312 169.902344 146.269531 C 169.59375 146.480469 169.261719 146.726562 169.214844 147.085938 C 169.164062 147.5625 169.859375 147.914062 169.910156 147.9375 C 170.660156 148.316406 171.511719 148.035156 171.671875 147.984375 C 173.835938 147.324219 181.039062 149.644531 184.492188 150.066406 C 184.574219 150.078125 184.644531 150.085938 184.722656 150.085938 C 185.066406 150.128906 185.433594 150.15625 185.8125 150.15625 C 188.433594 150.21875 192.015625 149.488281 196.578125 146.480469 C 196.164062 146.152344 195.566406 145.695312 194.828125 145.195312 Z M 194.828125 145.195312 " fill-opacity="1" fill-rule="nonzero"/><path fill="#fff4d1" d="M 122.828125 138.039062 C 103.585938 134.691406 98.820312 136.105469 94.824219 131.101562 C 93.347656 129.25 91.484375 125.90625 90.515625 121.835938 C 89.753906 118.636719 89.757812 115.886719 89.898438 114.023438 C 92.421875 116.945312 96.40625 119.847656 99.960938 121.347656 C 97.578125 118.921875 95.5625 114.949219 94.058594 111.894531 C 101.75 122.371094 109.121094 126.003906 114.617188 127.3125 C 118.367188 128.207031 121.414062 128.054688 128.382812 129.601562 C 134.78125 131.023438 139.882812 132.855469 143.273438 134.226562 C 143.261719 135.4375 143.03125 136.988281 142.007812 138.230469 C 139.273438 141.550781 133.214844 139.847656 122.828125 138.039062 Z M 215.816406 139.734375 C 212.46875 136.054688 209.097656 132.355469 205.140625 129.347656 C 201.179688 126.339844 196.558594 124.027344 191.613281 123.523438 C 180.695312 122.40625 171.019531 130.382812 160.09375 131.4375 C 160.117188 134.015625 160.707031 136.585938 161.816406 138.910156 C 167.9375 139.652344 173.71875 137.421875 179.773438 136.253906 C 189.597656 134.351562 200.074219 136.042969 208.804688 140.933594 C 210.097656 141.660156 211.40625 142.472656 212.882812 142.652344 C 214.355469 142.832031 215.359375 141.144531 215.816406 139.734375 Z M 200.023438 235.238281 C 204.515625 227.699219 203.699219 217.359375 198.078125 210.621094 C 189.113281 199.875 173.164062 197.253906 161.878906 188.980469 C 160.609375 188.050781 158.792969 188.304688 157.40625 189.046875 C 156.015625 189.789062 154.898438 190.945312 153.617188 191.855469 C 148.835938 195.257812 141.65625 194.71875 137.441406 190.636719 C 135.609375 188.863281 131.921875 187.945312 129.566406 188.914062 C 127.210938 189.882812 125.507812 191.941406 123.90625 193.925781 C 115.785156 203.992188 107.476562 214.394531 103.734375 226.777344 C 103.058594 229.011719 102.535156 231.34375 102.757812 233.667969 C 102.980469 235.992188 104.046875 238.324219 105.992188 239.617188 C 108.480469 241.269531 111.910156 241.808594 114.34375 240.070312 C 116.777344 238.332031 118.25 235.582031 119.535156 232.882812 C 120.820312 230.183594 122.042969 227.363281 124.171875 225.265625 C 126.523438 222.945312 129.734375 221.75 132.84375 220.621094 C 136.160156 219.414062 139.480469 218.207031 142.800781 217 C 147.023438 215.464844 152.449219 216.671875 156.921875 216.316406 C 167.378906 215.480469 167.230469 215.398438 169.4375 216.113281 C 174.027344 217.59375 179.257812 221.660156 181.253906 227.144531 C 182.265625 229.921875 182.011719 231.21875 183.535156 233.753906 C 185.050781 236.28125 187.769531 238.042969 190.691406 238.402344 C 193.613281 238.761719 198.515625 237.769531 200.023438 235.238281 Z M 200.023438 235.238281 " fill-opacity="1" fill-rule="nonzero"/><path fill="#fab89a" d="M 116.433594 213.496094 C 116.796875 212.777344 117.863281 213.410156 117.507812 214.125 C 116.777344 215.605469 116.148438 217.46875 115.082031 218.734375 C 114.710938 219.167969 114.070312 218.695312 114.179688 218.210938 C 114.367188 217.398438 114.835938 216.660156 115.207031 215.921875 C 115.617188 215.113281 116.023438 214.304688 116.433594 213.496094 Z M 119.597656 213.121094 C 118.777344 214.324219 117.699219 215.871094 117.539062 217.347656 C 117.480469 217.921875 118.25 217.988281 118.519531 217.613281 C 118.941406 217.027344 119.15625 216.273438 119.488281 215.628906 C 119.828125 214.972656 120.210938 214.339844 120.625 213.726562 C 121.054688 213.085938 120.027344 212.492188 119.597656 213.121094 Z M 124.125 210.84375 C 123.609375 211.984375 123.070312 213.113281 122.613281 214.28125 C 122.382812 214.875 123.351562 215.273438 123.640625 214.714844 C 124.195312 213.648438 124.664062 212.542969 125.160156 211.449219 C 125.472656 210.75 124.441406 210.140625 124.125 210.84375 Z M 143.4375 200.660156 C 143.003906 202.160156 142.3125 203.789062 142.207031 205.351562 C 142.171875 205.878906 142.96875 206.085938 143.207031 205.621094 C 143.917969 204.230469 144.160156 202.476562 144.5625 200.96875 C 144.757812 200.242188 143.644531 199.9375 143.4375 200.660156 Z M 146.261719 200.691406 C 146.117188 201.390625 145.976562 202.085938 145.832031 202.78125 C 145.699219 203.421875 145.488281 204.082031 145.539062 204.734375 C 145.574219 205.199219 146.253906 205.492188 146.496094 204.996094 C 147.058594 203.832031 147.09375 202.25 147.316406 200.980469 C 147.433594 200.300781 146.40625 199.996094 146.261719 200.691406 Z M 150.519531 200.050781 C 150.304688 201.515625 149.917969 203.0625 149.9375 204.542969 C 149.941406 205.15625 150.8125 205.265625 150.988281 204.6875 C 151.40625 203.320312 151.46875 201.785156 151.667969 200.371094 C 151.769531 199.621094 150.632812 199.292969 150.519531 200.050781 Z M 183.742188 214.796875 C 184.261719 216.398438 184.652344 218.191406 185.421875 219.6875 C 185.730469 220.285156 186.535156 219.839844 186.4375 219.261719 C 186.164062 217.652344 185.410156 216.027344 184.886719 214.480469 C 184.644531 213.761719 183.503906 214.066406 183.742188 214.796875 Z M 187.042969 214.800781 C 187.28125 216.332031 187.554688 218.109375 188.320312 219.472656 C 188.628906 220.019531 189.390625 219.632812 189.28125 219.070312 C 188.988281 217.527344 188.390625 216.0625 188.125 214.503906 C 188.003906 213.789062 186.933594 214.097656 187.042969 214.800781 Z M 190.074219 215.472656 C 190.335938 217.421875 190.578125 219.53125 191.433594 221.320312 C 191.644531 221.765625 192.449219 221.566406 192.390625 221.0625 C 192.167969 219.128906 191.578125 217.242188 191.316406 215.308594 C 191.21875 214.609375 189.980469 214.769531 190.074219 215.472656 Z M 81.296875 93.734375 C 77.097656 97.816406 72.253906 99.382812 66.582031 100.121094 C 65.992188 100.195312 65.957031 101.027344 66.582031 101.0625 C 72.371094 101.382812 78.003906 98.449219 82.03125 94.472656 C 82.511719 94 81.777344 93.269531 81.296875 93.734375 Z M 80.453125 98.402344 C 78.144531 100.492188 75.535156 101.773438 72.636719 102.84375 C 72.019531 103.070312 72.257812 103.972656 72.910156 103.832031 C 76.074219 103.167969 78.90625 101.378906 81.238281 99.191406 C 81.765625 98.699219 80.980469 97.925781 80.453125 98.402344 Z M 81.125 102.519531 C 79.632812 103.785156 77.96875 104.652344 76.210938 105.480469 C 75.699219 105.71875 76.0625 106.542969 76.59375 106.382812 C 78.570312 105.789062 80.335938 104.625 81.890625 103.285156 C 82.417969 102.828125 81.652344 102.074219 81.125 102.519531 Z M 213.335938 68.199219 C 218.117188 72.542969 222.054688 77.472656 226.417969 82.1875 C 226.800781 82.601562 227.507812 82.0625 227.203125 81.585938 C 223.777344 76.238281 218.839844 71.601562 214.113281 67.421875 C 213.585938 66.957031 212.808594 67.722656 213.335938 68.199219 Z M 219.679688 66.882812 C 223.886719 69.804688 226.96875 73.382812 230.1875 77.308594 C 230.605469 77.816406 231.402344 77.164062 231.082031 76.621094 C 228.523438 72.265625 224.414062 68.671875 220.277344 65.859375 C 219.640625 65.429688 219.058594 66.449219 219.679688 66.882812 Z M 223.730469 65.375 C 226.855469 68.152344 229.417969 71.292969 232.003906 74.554688 C 232.371094 75.015625 233.121094 74.421875 232.8125 73.929688 C 230.613281 70.402344 227.609375 67.335938 224.484375 64.621094 C 223.96875 64.175781 223.214844 64.917969 223.730469 65.375 Z M 150.710938 43.8125 C 146.304688 37.941406 140.769531 32.652344 134.203125 29.257812 C 133.65625 28.976562 133.199219 29.75 133.71875 30.082031 C 139.917969 34.035156 145.378906 38.433594 149.871094 44.304688 C 150.246094 44.792969 151.089844 44.316406 150.710938 43.8125 Z M 151.738281 38.308594 C 148.355469 33.644531 144.378906 29.230469 139.613281 25.949219 C 139.199219 25.664062 138.695312 26.316406 139.074219 26.644531 C 143.402344 30.390625 147.421875 34.203125 150.804688 38.851562 C 151.210938 39.410156 152.144531 38.871094 151.738281 38.308594 Z M 152.507812 32.5 C 149.070312 28.621094 145.238281 24.792969 140.832031 22.011719 C 140.429688 21.757812 139.9375 22.367188 140.3125 22.6875 C 144.3125 26.074219 148.273438 29.308594 151.789062 33.222656 C 152.226562 33.710938 152.9375 32.988281 152.507812 32.5 Z M 152.507812 32.5 " fill-opacity="1" fill-rule="nonzero"/><path fill="#000000" d="M 135.476562 156.78125 C 136.078125 156.171875 136.574219 155.417969 137.210938 154.851562 C 137.578125 154.527344 138.132812 154.933594 137.890625 155.375 C 137.46875 156.148438 136.707031 156.78125 136.058594 157.363281 C 135.667969 157.714844 135.105469 157.160156 135.476562 156.78125 Z M 189.238281 184.246094 C 188.765625 183.203125 187.882812 182.277344 187.195312 181.363281 C 186.808594 180.851562 185.929688 181.347656 186.320312 181.875 C 187.019531 182.828125 187.675781 183.980469 188.574219 184.761719 C 188.949219 185.082031 189.433594 184.683594 189.238281 184.246094 Z M 133.796875 149.476562 C 133.15625 149.539062 132.507812 149.535156 131.867188 149.601562 C 131.472656 149.640625 131.300781 150.273438 131.765625 150.355469 C 132.394531 150.46875 133.039062 150.472656 133.675781 150.449219 C 134.191406 150.433594 134.917969 150.484375 135.324219 150.097656 C 136.285156 149.183594 134.582031 148.59375 134.011719 148.257812 C 133.617188 148.023438 133.265625 148.628906 133.652344 148.871094 C 133.847656 148.992188 134.246094 149.171875 134.441406 149.363281 C 134.394531 149.375 134.34375 149.394531 134.277344 149.421875 C 134.117188 149.441406 133.957031 149.460938 133.796875 149.476562 Z M 163.769531 187.996094 C 163.183594 185.886719 161.964844 184.023438 159.609375 185.054688 C 157.828125 185.835938 156.15625 188.503906 154.816406 189.828125 C 151.488281 193.113281 147.75 194.515625 143.105469 193.515625 C 142.308594 193.34375 141.96875 194.542969 142.769531 194.742188 C 145.949219 195.535156 149.164062 195.296875 152.066406 193.695312 C 153.445312 192.933594 154.632812 191.855469 155.742188 190.757812 C 157.019531 189.492188 161.339844 183.199219 162.976562 188.214844 C 163.136719 188.71875 163.914062 188.515625 163.769531 187.996094 Z M 152.589844 139.925781 C 153.511719 141.328125 154.933594 142.433594 156.289062 143.394531 C 156.773438 143.738281 157.207031 142.953125 156.75 142.605469 C 155.480469 141.640625 154.460938 140.453125 153.292969 139.386719 C 152.933594 139.058594 152.300781 139.484375 152.589844 139.925781 Z M 158.363281 139.484375 C 151.3125 137.445312 152.492188 127.164062 151.523438 121.230469 C 151.414062 120.566406 150.289062 120.714844 150.34375 121.390625 C 150.679688 125.828125 150.855469 130.847656 152.113281 135.136719 C 153.050781 138.324219 155.164062 139.367188 158.195312 140.082031 C 158.585938 140.171875 158.75 139.59375 158.363281 139.484375 Z M 170.738281 146.105469 C 171.257812 145.847656 170.804688 145.121094 170.292969 145.339844 C 169.355469 145.742188 168.011719 146.207031 168.289062 147.507812 C 168.511719 148.550781 169.839844 149.070312 170.796875 148.773438 C 171.117188 148.675781 171.226562 148.183594 170.894531 148.015625 C 170.496094 147.816406 169.589844 147.808594 169.476562 147.253906 C 169.347656 146.636719 170.335938 146.300781 170.738281 146.105469 Z M 162.039062 154.78125 C 162.222656 153.59375 162.152344 152.378906 162.152344 151.183594 C 162.148438 150.46875 161.046875 150.46875 161.042969 151.183594 C 161.042969 152.378906 160.972656 153.59375 161.15625 154.78125 C 161.222656 155.21875 161.972656 155.21875 162.039062 154.78125 Z M 141.296875 164.699219 C 142.507812 161.335938 142.464844 157.9375 142.570312 154.410156 C 142.703125 149.984375 143.246094 145.613281 143.828125 141.234375 C 143.917969 140.566406 142.773438 140.410156 142.652344 141.074219 C 140.886719 150.746094 142.714844 161.148438 137.265625 169.75 C 135.234375 172.953125 132.25 175.9375 130.535156 179.359375 C 126.546875 185.59375 121.777344 190.769531 116.742188 196.128906 C 116.242188 196.664062 116.976562 197.332031 117.523438 196.910156 C 122.367188 193.152344 126.410156 188.035156 129.628906 182.726562 C 129.660156 184.632812 130.546875 186.433594 131.574219 188.226562 C 131.835938 188.683594 132.527344 188.277344 132.277344 187.816406 C 129.085938 181.921875 132.796875 178.332031 135.980469 173.910156 C 138.058594 171.027344 140.085938 168.0625 141.296875 164.699219 Z M 136.632812 229.777344 C 145.359375 228.238281 153.546875 227.15625 162.359375 228.621094 C 162.933594 228.714844 163.179688 227.910156 162.605469 227.734375 C 154.054688 225.121094 144.871094 226.921875 136.324219 228.652344 C 135.582031 228.800781 135.902344 229.90625 136.632812 229.777344 Z M 186.453125 199.335938 C 182.375 191.308594 177.171875 184.277344 170.667969 178.0625 C 170.558594 177.960938 170.441406 177.925781 170.324219 177.929688 C 169.757812 177.210938 169.175781 176.527344 168.738281 175.921875 C 168.394531 175.445312 167.605469 175.875 167.929688 176.398438 C 168.605469 177.496094 169.453125 178.566406 170.039062 179.714844 C 170.933594 181.46875 171.003906 182.28125 170.097656 184.015625 C 168.863281 186.363281 167.59375 190.167969 164.082031 189.507812 C 163.574219 189.414062 163.355469 190.148438 163.867188 190.292969 C 167.699219 191.386719 169.316406 188.335938 170.839844 185.394531 C 171.480469 184.15625 172.507812 182.871094 172.242188 181.398438 C 172.222656 181.269531 172.171875 181.140625 172.136719 181.011719 C 177.367188 186.714844 181.804688 193.089844 185.316406 200 C 185.699219 200.757812 186.835938 200.09375 186.453125 199.335938 Z M 214.527344 147.804688 C 213.910156 148.039062 213.191406 148.210938 212.683594 148.640625 C 212.386719 148.894531 212.628906 149.425781 213.003906 149.410156 C 213.625 149.382812 214.234375 149.042969 214.804688 148.816406 C 215.421875 148.570312 215.160156 147.5625 214.527344 147.804688 Z M 214.53125 221.949219 C 214.964844 220.910156 215.113281 219.683594 215.367188 218.582031 C 215.535156 217.863281 214.441406 217.558594 214.257812 218.277344 C 213.960938 219.421875 213.523438 220.621094 213.421875 221.800781 C 213.363281 222.492188 214.308594 222.484375 214.53125 221.949219 Z M 235.027344 173.773438 C 236.136719 176.566406 236.113281 178.882812 234.738281 181.59375 C 234.394531 182.277344 235.339844 182.828125 235.761719 182.191406 C 236.882812 180.523438 237.394531 178.589844 237.195312 176.578125 C 237.0625 175.25 233.878906 168.054688 235.929688 168.117188 C 236.457031 168.132812 236.445312 167.339844 235.929688 167.304688 C 234.078125 167.164062 233.960938 169.117188 234.085938 170.5625 C 234.1875 171.714844 234.605469 172.714844 235.027344 173.773438 Z M 212.546875 107.289062 C 213.253906 108.351562 214.03125 109.367188 214.933594 110.265625 C 215.375 110.703125 216.015625 110.046875 215.609375 109.589844 C 214.824219 108.695312 214.058594 107.785156 213.382812 106.800781 C 213.03125 106.292969 212.203125 106.769531 212.546875 107.289062 Z M 162.597656 147.429688 C 162.367188 147.875 163.011719 148.257812 163.269531 147.824219 C 165.425781 144.191406 169.898438 144.046875 173.632812 143.351562 C 172.910156 143.777344 172.21875 144.191406 171.570312 144.5625 C 171.117188 144.820312 171.429688 145.644531 171.9375 145.433594 C 174.671875 144.28125 177.472656 142.527344 180.367188 141.6875 C 179.980469 142.472656 179.753906 143.359375 179.753906 144.296875 C 179.753906 147.234375 181.898438 149.664062 184.722656 150.085938 C 185.011719 150.136719 185.3125 150.164062 185.621094 150.164062 C 185.679688 150.164062 185.75 150.164062 185.8125 150.15625 C 188.960938 150.058594 191.484375 147.480469 191.484375 144.296875 C 191.484375 144.242188 191.476562 144.191406 191.476562 144.136719 C 193.246094 145.152344 194.976562 146.25 196.675781 147.179688 C 197.417969 147.585938 198.085938 146.449219 197.339844 146.042969 C 195.273438 144.914062 192.976562 143.320312 190.59375 142.003906 C 193.0625 142.78125 195.398438 143.863281 197.730469 145.457031 C 200.785156 147.546875 203.636719 149.570312 207.234375 150.59375 C 207.765625 150.746094 207.960938 149.96875 207.460938 149.78125 C 203.003906 148.140625 199.636719 144.800781 195.542969 142.507812 C 192.1875 140.628906 188.472656 139.949219 184.667969 139.742188 C 184.375 139.695312 184.082031 139.664062 183.789062 139.648438 C 182.054688 139.542969 180.25 140.039062 178.480469 140.789062 C 175.382812 141.449219 172.28125 142.128906 169.203125 142.824219 C 166.308594 143.476562 163.996094 144.730469 162.597656 147.429688 Z M 212.636719 102.363281 C 212.171875 101.835938 211.410156 102.605469 211.867188 103.132812 C 212.695312 104.089844 213.5 105.074219 214.40625 105.960938 C 214.792969 106.339844 215.53125 105.828125 215.183594 105.363281 C 214.398438 104.308594 213.503906 103.34375 212.636719 102.363281 Z M 210.980469 147.371094 C 211.386719 147.46875 211.777344 147.34375 212.179688 147.257812 C 212.605469 147.164062 213.03125 147.074219 213.457031 146.984375 C 214.113281 146.839844 213.832031 145.84375 213.175781 145.976562 C 212.777344 146.054688 212.378906 146.132812 211.980469 146.210938 C 211.605469 146.285156 211.1875 146.316406 210.875 146.546875 C 210.585938 146.761719 210.570312 147.273438 210.980469 147.371094 Z M 214.414062 101.480469 C 214.804688 101.847656 215.488281 101.371094 215.179688 100.886719 C 214.410156 99.675781 213.402344 98.601562 212.484375 97.503906 C 212.015625 96.949219 211.234375 97.746094 211.6875 98.300781 C 212.566406 99.375 213.402344 100.527344 214.414062 101.480469 Z M 188.941406 162.503906 C 181.054688 162.039062 175.042969 159.804688 169.140625 154.472656 C 168.757812 154.125 168.191406 154.683594 168.570312 155.046875 C 174.441406 160.671875 180.546875 164.082031 188.941406 163.527344 C 189.597656 163.484375 189.601562 162.542969 188.941406 162.503906 Z M 98.859375 143.027344 C 99.0625 143.375 99.226562 143.773438 99.601562 143.957031 C 99.914062 144.109375 100.269531 143.925781 100.28125 143.566406 C 100.296875 143.140625 100.03125 142.816406 99.816406 142.46875 C 99.59375 142.097656 99.367188 141.726562 99.140625 141.355469 C 98.777344 140.75 97.835938 141.296875 98.195312 141.90625 C 98.417969 142.28125 98.636719 142.652344 98.859375 143.027344 Z M 114.816406 348.144531 C 107.429688 353.398438 100.515625 360.195312 96.363281 368.351562 C 96.117188 368.835938 96.769531 369.207031 97.078125 368.773438 C 102.402344 361.269531 107.898438 354.550781 115.324219 349.011719 C 115.832031 348.632812 115.347656 347.765625 114.816406 348.144531 Z M 144.570312 348.046875 C 144.882812 347.71875 144.421875 347.121094 144.03125 347.398438 C 139.882812 350.320312 135.632812 352.75 130.671875 354.035156 C 126.878906 355.019531 124.378906 354.796875 121.167969 352.023438 C 119.128906 350.261719 117.257812 348.242188 115.320312 346.367188 C 114.886719 345.949219 114.238281 346.597656 114.660156 347.027344 C 118.304688 350.769531 121.65625 356.671875 127.464844 355.96875 C 129.058594 355.773438 130.65625 355.425781 132.234375 354.949219 C 131.386719 355.3125 130.539062 355.675781 129.679688 356.011719 C 126.726562 357.164062 125.011719 357.796875 122.09375 356.027344 C 119.347656 354.359375 118.105469 352.207031 116.308594 349.601562 C 115.945312 349.078125 115.09375 349.5625 115.445312 350.101562 C 118.125 354.183594 119.972656 359.304688 125.648438 358.59375 C 131.957031 357.808594 138.789062 353.34375 143.976562 350.019531 C 144.417969 349.738281 144.027344 349.0625 143.570312 349.316406 C 142.914062 349.683594 142.253906 350.035156 141.59375 350.390625 C 142.464844 349.785156 143.296875 349.140625 144.085938 348.46875 C 144.082031 348.527344 144.085938 348.589844 144.109375 348.65625 C 147.363281 358.027344 148.695312 367.410156 149.507812 377.25 C 149.558594 377.878906 150.472656 377.894531 150.496094 377.25 C 150.859375 367.453125 148.558594 357.484375 145.09375 348.382812 C 145 348.136719 144.78125 348.039062 144.570312 348.046875 Z M 101.269531 143.324219 C 101.6875 143.757812 102.363281 143.207031 102.085938 142.691406 C 101.769531 142.105469 101.332031 141.582031 100.9375 141.046875 C 100.515625 140.472656 99.542969 141.023438 99.964844 141.613281 C 100.382812 142.191406 100.773438 142.808594 101.269531 143.324219 Z M 216.585938 227.609375 C 207.1875 240.933594 194.773438 251.769531 178.726562 255.820312 C 167.824219 258.574219 156.230469 259.460938 145.011719 259.488281 C 139.5625 259.5 133.425781 259.851562 128.347656 257.613281 C 124.046875 255.71875 120.070312 252.753906 116.277344 250.015625 C 115.738281 249.625 115.242188 250.507812 115.761719 250.898438 C 119.5625 253.753906 123.558594 256.914062 127.921875 258.859375 C 132.4375 260.871094 137.691406 260.726562 142.53125 260.789062 C 154.65625 260.945312 167.28125 260.070312 179.074219 257.089844 C 195.394531 252.96875 208.261719 241.925781 217.660156 228.238281 C 218.117188 227.574219 217.042969 226.960938 216.585938 227.609375 Z M 219.988281 215.085938 C 219.496094 216.140625 219.046875 217.261719 218.941406 218.429688 C 218.882812 219.117188 219.886719 219.175781 220.085938 218.585938 C 220.414062 217.621094 220.644531 216.648438 221.070312 215.71875 C 221.40625 214.992188 220.332031 214.351562 219.988281 215.085938 Z M 102.886719 198.203125 C 103.734375 197.496094 104.332031 196.410156 104.976562 195.523438 C 105.414062 194.917969 104.414062 194.347656 103.980469 194.941406 C 103.328125 195.832031 102.515625 196.710938 102.097656 197.742188 C 101.902344 198.226562 102.570312 198.46875 102.886719 198.203125 Z M 241.417969 181.464844 C 240.570312 183.375 239.886719 185.355469 238.835938 187.171875 C 238.296875 188.105469 237.671875 188.984375 236.949219 189.785156 C 235.328125 191.589844 233.359375 190.601562 232.699219 188.511719 C 232.496094 187.875 231.511719 188.136719 231.691406 188.789062 C 232.339844 191.167969 234.679688 193.617188 237.003906 191.585938 C 239.769531 189.164062 241.300781 185.289062 242.285156 181.832031 C 242.425781 181.332031 241.640625 180.964844 241.417969 181.464844 Z M 216.710938 217.082031 C 216.574219 217.667969 216.421875 218.246094 216.242188 218.816406 C 216.074219 219.359375 215.808594 219.890625 215.792969 220.460938 C 215.78125 220.921875 216.433594 221.238281 216.75 220.859375 C 217.484375 219.984375 217.6875 218.507812 217.917969 217.414062 C 218.085938 216.628906 216.890625 216.292969 216.710938 217.082031 Z M 102.507812 191.582031 C 103.296875 191.25 103.785156 190.183594 104.101562 189.441406 C 104.226562 189.148438 104.1875 188.816406 103.890625 188.640625 C 103.644531 188.488281 103.214844 188.558594 103.089844 188.851562 C 102.914062 189.246094 102.707031 189.625 102.46875 189.984375 C 102.230469 190.339844 101.960938 190.648438 101.832031 191.058594 C 101.695312 191.488281 102.167969 191.726562 102.507812 191.582031 Z M 105.414062 147.515625 C 107.40625 147.046875 109.449219 146.601562 111.46875 146.078125 C 110.308594 146.863281 109.117188 147.582031 107.71875 147.949219 C 106.9375 148.152344 107.273438 149.289062 108.046875 149.140625 C 110.789062 148.621094 112.980469 146.738281 115.402344 145.300781 C 115.394531 145.421875 115.371094 145.535156 115.371094 145.660156 C 115.371094 147.726562 116.4375 149.539062 118.046875 150.585938 C 118.328125 150.621094 118.609375 150.664062 118.890625 150.699219 C 120.421875 150.914062 121.921875 151.070312 123.402344 151.113281 C 125.574219 150.261719 127.105469 148.140625 127.105469 145.660156 C 127.105469 145.285156 127.0625 144.921875 126.992188 144.566406 C 127.480469 144.832031 127.960938 145.128906 128.433594 145.492188 C 129.824219 146.550781 131.027344 147.550781 132.65625 148.25 C 133.125 148.453125 133.542969 147.792969 133.066406 147.550781 C 129.90625 145.945312 128.117188 143.570312 125.402344 142.484375 C 125.992188 142.503906 126.570312 142.578125 127.125 142.757812 C 128.730469 143.273438 130.015625 144.449219 131.402344 145.3125 C 134.222656 147.066406 137.101562 148.582031 139.785156 150.574219 C 140.117188 150.820312 140.554688 150.257812 140.230469 149.996094 C 138.773438 148.816406 137.277344 147.710938 135.714844 146.675781 C 133.609375 145.277344 131.691406 143.457031 129.480469 142.269531 C 126.519531 140.671875 123.011719 141.207031 119.917969 142.167969 C 119.054688 142.335938 118.199219 142.578125 117.359375 142.871094 C 113.246094 143.894531 109.253906 145.5 105.160156 146.59375 C 104.5625 146.753906 104.816406 147.65625 105.414062 147.515625 Z M 114.617188 120.285156 C 117.355469 120.578125 120.109375 120.445312 122.855469 120.523438 C 126.296875 120.621094 127.84375 122.097656 130.734375 123.460938 C 131.144531 123.652344 131.503906 123.042969 131.09375 122.84375 C 128.746094 121.722656 126.824219 119.957031 124.195312 119.484375 C 121.160156 118.941406 117.675781 119.0625 114.617188 119.292969 C 113.972656 119.339844 113.988281 120.21875 114.617188 120.285156 Z M 123.59375 112.140625 C 126.550781 112.363281 129.117188 112.683594 131.726562 114.175781 C 133 114.90625 133.820312 115.777344 135.273438 116.136719 C 138.335938 116.894531 142.117188 116.15625 145.203125 115.859375 C 149.347656 115.464844 153.460938 114.75 157.613281 114.40625 C 161.15625 114.109375 165.089844 112.875 168.566406 113.023438 C 169.027344 113.042969 169.027344 112.328125 168.566406 112.304688 C 164.945312 112.125 161.285156 113.382812 157.613281 113.558594 C 153.460938 113.753906 149.339844 114.160156 145.203125 114.546875 C 143.273438 114.726562 141.34375 114.894531 139.40625 114.953125 C 136.605469 115.039062 134.882812 114.246094 132.320312 113.15625 C 129.371094 111.90625 126.816406 111.480469 123.59375 111.34375 C 123.078125 111.324219 123.089844 112.101562 123.59375 112.140625 Z M 195.378906 150.246094 C 192.84375 151.113281 190.898438 152.621094 188.070312 152.757812 C 185.175781 152.902344 182.160156 152.316406 179.390625 151.515625 C 178.832031 151.355469 178.648438 152.160156 179.15625 152.363281 C 182.21875 153.601562 185.332031 154.28125 188.65625 154.054688 C 191.523438 153.855469 193.238281 152.222656 195.757812 151.144531 C 196.269531 150.925781 195.90625 150.0625 195.378906 150.246094 Z M 132.832031 104.253906 C 136.765625 105.675781 140.671875 106.585938 144.871094 106.363281 C 149.484375 106.121094 153.808594 104.410156 158.398438 104.003906 C 159.0625 103.941406 159.078125 102.996094 158.398438 102.960938 C 154.261719 102.757812 150.464844 104.484375 146.382812 104.933594 C 141.898438 105.421875 137.308594 104.933594 133.03125 103.53125 C 132.566406 103.378906 132.382812 104.09375 132.832031 104.253906 Z M 117.71875 152.859375 C 113.9375 152.929688 110.328125 153.132812 107.257812 150.558594 C 106.910156 150.265625 106.28125 150.648438 106.578125 151.082031 C 109.09375 154.726562 113.960938 154.445312 117.832031 153.6875 C 118.300781 153.597656 118.1875 152.851562 117.71875 152.859375 Z M 101.910156 195.867188 C 102.519531 195.339844 102.910156 194.546875 103.328125 193.863281 C 103.789062 193.105469 104.234375 192.339844 104.675781 191.570312 C 104.972656 191.050781 104.222656 190.640625 103.890625 191.109375 C 103.375 191.835938 102.859375 192.5625 102.367188 193.300781 C 101.917969 193.96875 101.378906 194.644531 101.152344 195.425781 C 101.019531 195.886719 101.582031 196.152344 101.910156 195.867188 Z M 124.722656 163.066406 C 125.09375 162.941406 124.9375 162.355469 124.5625 162.480469 C 116.957031 165.035156 109.058594 160.945312 103.257812 156.203125 C 102.742188 155.78125 102.09375 156.417969 102.523438 156.933594 C 107.703125 163.128906 117.207031 165.632812 124.722656 163.066406 Z M 124.722656 163.066406 " fill-opacity="1" fill-rule="nonzero"/><path fill="#ffffff" d="M 99.214844 289.972656 C 99.589844 289.371094 100.53125 289.917969 100.167969 290.53125 C 83.058594 319.320312 70.339844 350.121094 62.480469 382.691406 C 62.296875 383.453125 61.128906 383.128906 61.304688 382.367188 C 68.800781 349.835938 81.601562 318.34375 99.214844 289.972656 Z M 262.335938 287.761719 C 255.070312 304.503906 246.746094 320.789062 237.152344 336.320312 C 227.277344 352.3125 215.949219 367.082031 204.074219 381.621094 C 203.632812 382.160156 204.371094 382.933594 204.855469 382.398438 C 229.59375 355.085938 249.257812 322.140625 263.253906 288.148438 C 263.464844 287.628906 262.5625 287.242188 262.335938 287.761719 Z M 262.335938 287.761719 " fill-opacity="1" fill-rule="nonzero"/></svg>