<svg xmlns="http://www.w3.org/2000/svg" xmlns:xlink="http://www.w3.org/1999/xlink" width="500" zoomAndPan="magnify" viewBox="0 0 375 374.999991" height="500" preserveAspectRatio="xMidYMid meet" version="1.0"><path fill="#caddff" d="M 9.019531 295.8125 C 19.445312 321.261719 43.835938 333.28125 59.421875 340.96875 C 120.871094 371.257812 214.257812 367.640625 281.515625 312.269531 C 297.257812 299.3125 374.835938 231.433594 356.851562 139.601562 C 340.949219 58.417969 260.710938 11.367188 193.113281 5.152344 C 137.113281 0.00390625 63.960938 20.546875 38.074219 70.09375 C 21.800781 101.253906 41.324219 111.132812 27.980469 181.714844 C 16.433594 242.808594 -3.730469 264.6875 9.019531 295.8125 " fill-opacity="1" fill-rule="nonzero"/><path fill="#5479f7" d="M 222.507812 322.648438 L 7.382812 294.898438 C 5.695312 294.683594 4.746094 293.273438 4.769531 291.863281 C 4.785156 290.890625 4.863281 284.042969 4.863281 284.042969 L 118.613281 219 C 124.3125 215.746094 131.6875 214.488281 138.195312 215.324219 L 350.609375 242.730469 C 351.886719 242.894531 352.980469 243.722656 353.492188 244.90625 L 353.832031 245.707031 C 353.832031 245.707031 353.648438 251.421875 353.722656 252.753906 C 353.78125 253.796875 353.3125 254.875 352.21875 255.5 L 241.324219 318.914062 C 235.625 322.171875 229.019531 323.480469 222.507812 322.648438 " fill-opacity="1" fill-rule="nonzero"/><path fill="#ffffff" d="M 33.839844 290.648438 L 8.152344 287.328125 C 5.304688 286.964844 4.554688 283.191406 7.046875 281.765625 L 117.347656 218.757812 C 123.046875 215.503906 129.652344 214.191406 136.160156 215.027344 L 350.523438 242.722656 C 353.367188 243.089844 354.113281 246.863281 351.625 248.285156 L 241.320312 311.292969 C 235.625 314.550781 229.023438 315.859375 222.511719 315.027344 L 33.839844 290.648438 " fill-opacity="1" fill-rule="nonzero"/><path fill="#99b9ff" d="M 264.480469 280.046875 L 78.601562 255.859375 C 76.03125 255.527344 75.355469 252.121094 77.605469 250.835938 L 121.3125 226.117188 C 126.460938 223.179688 132.425781 221.996094 138.304688 222.75 L 324.183594 246.941406 C 326.753906 247.269531 327.429688 250.679688 325.179688 251.964844 L 281.472656 276.679688 C 276.328125 279.621094 270.363281 280.804688 264.480469 280.046875 " fill-opacity="1" fill-rule="nonzero"/><path fill="#000000" d="M 226.300781 315.910156 C 225.007812 315.910156 223.714844 315.828125 222.429688 315.664062 L 97.554688 299.375 C 97.203125 299.328125 96.953125 299.007812 97 298.65625 C 97.046875 298.304688 97.367188 298.050781 97.722656 298.101562 L 222.59375 314.386719 C 228.921875 315.199219 235.460938 313.902344 241.003906 310.734375 C 241.316406 310.558594 241.707031 310.664062 241.882812 310.976562 C 242.058594 311.28125 241.953125 311.675781 241.644531 311.851562 C 236.984375 314.511719 231.648438 315.910156 226.300781 315.910156 " fill-opacity="1" fill-rule="nonzero"/><path fill="#000000" d="M 305.960938 274.945312 C 305.734375 274.945312 305.519531 274.828125 305.398438 274.617188 C 305.222656 274.3125 305.332031 273.917969 305.640625 273.742188 L 351.304688 247.726562 C 352.386719 247.109375 352.601562 246.035156 352.441406 245.234375 C 352.28125 244.433594 351.671875 243.519531 350.4375 243.359375 L 296.332031 236.371094 C 295.980469 236.324219 295.730469 236.003906 295.777344 235.648438 C 295.824219 235.296875 296.144531 235.046875 296.496094 235.09375 L 350.605469 242.085938 C 352.175781 242.285156 353.394531 243.425781 353.707031 244.984375 C 354.011719 246.539062 353.320312 248.054688 351.941406 248.84375 L 306.273438 274.859375 C 306.179688 274.917969 306.066406 274.945312 305.960938 274.945312 " fill-opacity="1" fill-rule="nonzero"/><path fill="#000000" d="M 89.921875 235.074219 C 89.699219 235.074219 89.484375 234.957031 89.363281 234.746094 C 89.1875 234.441406 89.296875 234.046875 89.601562 233.871094 L 117.027344 218.199219 C 122.8125 214.894531 129.636719 213.542969 136.242188 214.390625 L 243.457031 228.21875 C 243.8125 228.261719 244.058594 228.585938 244.015625 228.9375 C 243.96875 229.292969 243.640625 229.539062 243.296875 229.492188 L 136.078125 215.664062 C 129.75 214.851562 123.207031 216.148438 117.667969 219.316406 L 90.242188 234.988281 C 90.140625 235.046875 90.03125 235.074219 89.921875 235.074219 " fill-opacity="1" fill-rule="nonzero"/><path fill="#5479f7" d="M 350.945312 236.039062 L 141.148438 206.859375 C 135.878906 206.183594 131.929688 201.703125 131.929688 196.390625 L 129.050781 50.027344 C 129.050781 50.027344 133.835938 46.578125 136.546875 45.257812 C 137.925781 44.582031 139.511719 44.289062 141.164062 44.5 L 350.339844 71.179688 C 355.609375 71.855469 359.554688 76.335938 359.554688 81.648438 L 359.554688 225.40625 C 359.554688 227.976562 358.382812 230.246094 356.5625 231.738281 C 354.890625 233.117188 350.945312 236.039062 350.945312 236.039062 " fill-opacity="1" fill-rule="nonzero"/><path fill="#99b9ff" d="M 344.542969 237.984375 L 135.367188 211.300781 C 130.101562 210.632812 126.152344 206.148438 126.152344 200.835938 L 126.152344 57.078125 C 126.152344 52.136719 130.488281 48.320312 135.386719 48.945312 L 344.5625 75.625 C 349.832031 76.296875 353.777344 80.78125 353.777344 86.089844 L 353.777344 229.851562 C 353.777344 234.789062 349.441406 238.609375 344.542969 237.984375 " fill-opacity="1" fill-rule="nonzero"/><path fill="#ffffff" d="M 340.097656 232.058594 L 140.367188 206.582031 C 136.535156 206.09375 133.664062 202.835938 133.664062 198.972656 L 133.664062 60.304688 C 133.664062 57.003906 136.558594 54.453125 139.832031 54.871094 L 339.5625 80.347656 C 343.394531 80.835938 346.265625 84.097656 346.265625 87.957031 L 346.265625 226.625 C 346.265625 229.925781 343.371094 232.476562 340.097656 232.058594 " fill-opacity="1" fill-rule="nonzero"/><path fill="#caddff" d="M 346.097656 96.726562 L 346.097656 87.957031 C 346.097656 84.09375 343.308594 80.832031 339.480469 80.347656 L 139.78125 54.871094 C 136.507812 54.453125 133.644531 57 133.644531 60.300781 L 133.644531 70.230469 L 346.097656 96.726562 " fill-opacity="1" fill-rule="nonzero"/><path fill="#99b9ff" d="M 147.667969 63.511719 C 147.542969 65.351562 146.011719 66.742188 144.25 66.621094 C 142.492188 66.5 141.167969 64.910156 141.296875 63.070312 C 141.421875 61.230469 142.953125 59.839844 144.710938 59.960938 C 146.472656 60.082031 147.796875 61.671875 147.667969 63.511719 " fill-opacity="1" fill-rule="nonzero"/><path fill="#99b9ff" d="M 157.296875 65.199219 C 157.167969 67.035156 155.640625 68.429688 153.878906 68.308594 C 152.121094 68.183594 150.796875 66.59375 150.921875 64.757812 C 151.050781 62.914062 152.582031 61.523438 154.339844 61.648438 C 156.101562 61.769531 157.421875 63.359375 157.296875 65.199219 " fill-opacity="1" fill-rule="nonzero"/><path fill="#99b9ff" d="M 166.914062 67.03125 C 166.785156 68.871094 165.253906 70.261719 163.496094 70.140625 C 161.734375 70.015625 160.414062 68.425781 160.542969 66.585938 C 160.667969 64.746094 162.199219 63.355469 163.957031 63.480469 C 165.71875 63.601562 167.039062 65.191406 166.914062 67.03125 " fill-opacity="1" fill-rule="nonzero"/><path fill="#caddff" d="M 138.335938 196.019531 L 138.566406 81.984375 C 138.570312 78.582031 141.5625 75.957031 144.9375 76.390625 L 333.949219 100.679688 C 335.914062 100.929688 337.382812 102.601562 337.378906 104.582031 L 337.105469 220.617188 C 337.101562 222.980469 335.023438 224.804688 332.683594 224.503906 L 141.761719 199.96875 C 139.785156 199.714844 138.308594 198.019531 138.335938 196.019531 " fill-opacity="1" fill-rule="nonzero"/><path fill="#ffffff" d="M 340.546875 198.992188 L 246.332031 187.636719 C 243.074219 187.246094 240.445312 184.242188 240.457031 180.929688 L 241.179688 22.660156 C 241.195312 19.34375 243.851562 16.980469 247.109375 17.371094 L 341.324219 28.722656 C 344.585938 29.117188 347.214844 32.121094 347.203125 35.433594 L 346.476562 193.703125 C 346.464844 197.015625 343.808594 199.382812 340.546875 198.992188 " fill-opacity="1" fill-rule="nonzero"/><path fill="#caddff" d="M 339.449219 50.367188 L 261.367188 40.960938 L 261.394531 35.085938 L 339.472656 44.496094 L 339.449219 50.367188 " fill-opacity="1" fill-rule="nonzero"/><path fill="#caddff" d="M 319 59.472656 L 261.3125 52.519531 L 261.339844 46.648438 L 319.027344 53.601562 L 319 59.472656 " fill-opacity="1" fill-rule="nonzero"/><path fill="#5479f7" d="M 339.304688 81.648438 L 261.222656 72.238281 L 261.25 66.367188 L 339.332031 75.773438 L 339.304688 81.648438 " fill-opacity="1" fill-rule="nonzero"/><path fill="#5479f7" d="M 318.855469 90.75 L 261.167969 83.800781 L 261.195312 77.925781 L 318.886719 84.878906 L 318.855469 90.75 " fill-opacity="1" fill-rule="nonzero"/><path fill="#caddff" d="M 339.164062 112.925781 L 261.078125 103.519531 L 261.105469 97.644531 L 339.1875 107.054688 L 339.164062 112.925781 " fill-opacity="1" fill-rule="nonzero"/><path fill="#caddff" d="M 318.71875 122.03125 L 261.027344 115.078125 L 261.054688 109.207031 L 318.742188 116.15625 L 318.71875 122.03125 " fill-opacity="1" fill-rule="nonzero"/><path fill="#caddff" d="M 339.019531 144.203125 L 260.9375 134.800781 L 260.964844 128.925781 L 339.046875 138.332031 L 339.019531 144.203125 " fill-opacity="1" fill-rule="nonzero"/><path fill="#caddff" d="M 318.570312 153.3125 L 260.886719 146.359375 L 260.910156 140.488281 L 318.601562 147.4375 L 318.570312 153.3125 " fill-opacity="1" fill-rule="nonzero"/><path fill="#caddff" d="M 339.019531 171.5 L 260.9375 162.09375 L 260.964844 156.222656 L 339.046875 165.628906 L 339.019531 171.5 " fill-opacity="1" fill-rule="nonzero"/><path fill="#99b9ff" d="M 318.570312 180.605469 L 260.886719 173.652344 L 260.914062 167.78125 L 318.601562 174.730469 L 318.570312 180.605469 " fill-opacity="1" fill-rule="nonzero"/><path fill="#caddff" d="M 256.410156 43.21875 L 247.980469 42.203125 L 248.019531 33.632812 L 256.449219 34.648438 L 256.410156 43.21875 " fill-opacity="1" fill-rule="nonzero"/><path fill="#5479f7" d="M 255.847656 74.015625 L 247.417969 73 L 247.457031 64.429688 L 255.890625 65.449219 L 255.847656 74.015625 " fill-opacity="1" fill-rule="nonzero"/><path fill="#caddff" d="M 256.128906 105.203125 L 247.695312 104.1875 L 247.734375 95.617188 L 256.167969 96.632812 L 256.128906 105.203125 " fill-opacity="1" fill-rule="nonzero"/><path fill="#caddff" d="M 256.195312 136.71875 L 247.765625 135.703125 L 247.800781 127.136719 L 256.234375 128.148438 L 256.195312 136.71875 " fill-opacity="1" fill-rule="nonzero"/><path fill="#caddff" d="M 255.859375 164.117188 L 247.429688 163.097656 L 247.46875 154.53125 L 255.898438 155.546875 L 255.859375 164.117188 " fill-opacity="1" fill-rule="nonzero"/><path fill="#000000" d="M 346.253906 219.636719 L 346.25 219.636719 C 345.894531 219.636719 345.609375 219.347656 345.609375 218.992188 L 346.554688 35.433594 C 346.570312 32.441406 344.191406 29.71875 341.25 29.363281 L 247.035156 18.011719 C 245.652344 17.84375 244.351562 18.230469 243.375 19.09375 C 242.382812 19.96875 241.828125 21.234375 241.824219 22.664062 L 241.019531 133.683594 C 241.015625 134.035156 240.730469 134.320312 240.378906 134.320312 C 240.375 134.320312 240.375 134.320312 240.371094 134.320312 C 240.015625 134.320312 239.730469 134.027344 239.734375 133.675781 L 240.535156 22.65625 C 240.546875 20.859375 241.25 19.25 242.523438 18.128906 C 243.78125 17.015625 245.4375 16.523438 247.1875 16.734375 L 341.402344 28.085938 C 344.972656 28.515625 347.859375 31.8125 347.84375 35.4375 L 346.894531 219 C 346.890625 219.351562 346.605469 219.636719 346.253906 219.636719 " fill-opacity="1" fill-rule="nonzero"/><path fill="#5479f7" d="M 295.722656 316.703125 C 295.722656 316.703125 301.101562 323.84375 300.71875 328.535156 L 300.824219 330.355469 L 312.054688 320.132812 L 310.484375 319.5 C 308.003906 317.800781 305.378906 316.789062 303.933594 314.148438 L 295.722656 316.703125 " fill-opacity="1" fill-rule="nonzero"/><path fill="#ffffff" d="M 298.792969 326.195312 L 298.964844 328.40625 C 299.3125 332.792969 298.582031 337.191406 296.847656 341.230469 L 295.515625 344.332031 C 295.386719 344.628906 295.417969 344.96875 295.589844 345.238281 L 295.679688 345.378906 C 296.65625 346.910156 300.96875 348.234375 306.421875 344.53125 C 309.800781 342.242188 316.644531 335.890625 321.324219 324.789062 C 321.621094 324.085938 321.425781 323.273438 320.84375 322.785156 C 318.71875 321.003906 313.472656 316.933594 309.382812 316.476562 C 308.929688 316.425781 308.523438 316.769531 308.519531 317.226562 L 308.480469 321.632812 C 308.464844 323.609375 306.839844 325.195312 304.863281 325.167969 L 299.816406 325.101562 C 299.21875 325.09375 298.746094 325.601562 298.792969 326.195312 " fill-opacity="1" fill-rule="nonzero"/><path fill="#000000" d="M 299.429688 326.144531 L 299.605469 328.355469 C 299.953125 332.824219 299.203125 337.363281 297.4375 341.484375 L 296.105469 344.589844 C 296.0625 344.6875 296.070312 344.800781 296.128906 344.894531 L 296.21875 345.03125 C 296.464844 345.417969 297.132812 345.910156 298.28125 346.144531 C 299.601562 346.421875 302.371094 346.503906 306.0625 344 C 307.574219 342.976562 315.382812 337.222656 320.730469 324.539062 C 320.917969 324.09375 320.796875 323.589844 320.429688 323.277344 C 318.394531 321.570312 313.238281 317.554688 309.308594 317.117188 C 309.25 317.109375 309.214844 317.132812 309.199219 317.148438 C 309.160156 317.179688 309.160156 317.21875 309.160156 317.230469 L 309.121094 321.636719 C 309.113281 322.765625 308.664062 323.820312 307.855469 324.609375 C 307.046875 325.398438 305.996094 325.832031 304.855469 325.808594 L 299.804688 325.746094 C 299.664062 325.742188 299.570312 325.816406 299.527344 325.859375 C 299.488281 325.90625 299.417969 326.003906 299.429688 326.144531 Z M 299.632812 347.5625 C 298.980469 347.5625 298.441406 347.492188 298.019531 347.40625 C 296.691406 347.132812 295.640625 346.519531 295.132812 345.722656 L 295.046875 345.585938 C 294.757812 345.136719 294.710938 344.574219 294.925781 344.082031 L 296.253906 340.976562 C 297.941406 337.046875 298.65625 332.71875 298.320312 328.460938 L 298.148438 326.246094 C 298.113281 325.78125 298.273438 325.320312 298.589844 324.980469 C 298.902344 324.648438 299.34375 324.457031 299.800781 324.457031 C 299.808594 324.457031 299.816406 324.457031 299.824219 324.457031 L 304.871094 324.523438 C 305.667969 324.535156 306.394531 324.238281 306.957031 323.691406 C 307.515625 323.144531 307.832031 322.410156 307.835938 321.625 L 307.875 317.21875 C 307.878906 316.824219 308.050781 316.449219 308.34375 316.183594 C 308.644531 315.917969 309.050781 315.792969 309.449219 315.835938 C 313.726562 316.3125 319.132812 320.511719 321.253906 322.292969 C 322.058594 322.96875 322.324219 324.070312 321.914062 325.039062 C 316.429688 338.050781 308.347656 344.003906 306.785156 345.066406 C 303.824219 347.070312 301.351562 347.5625 299.632812 347.5625 " fill-opacity="1" fill-rule="nonzero"/><path fill="#000000" d="M 296.082031 343.851562 C 295.832031 343.851562 295.597656 343.707031 295.492188 343.460938 C 295.351562 343.136719 295.5 342.757812 295.824219 342.617188 L 296.523438 342.316406 C 300.027344 340.792969 302.792969 337.863281 304.109375 334.273438 L 304.574219 333.007812 C 304.78125 332.449219 305.277344 332.078125 305.875 332.042969 C 306.472656 332.007812 307.003906 332.316406 307.273438 332.847656 L 307.875 334.03125 C 307.941406 334.164062 308.054688 334.195312 308.113281 334.203125 C 308.175781 334.214844 308.292969 334.214844 308.394531 334.113281 C 311.648438 330.800781 314.140625 326.921875 315.789062 322.578125 L 316.742188 320.0625 C 316.867188 319.730469 317.242188 319.566406 317.570312 319.691406 C 317.902344 319.816406 318.070312 320.1875 317.945312 320.519531 L 316.988281 323.035156 C 315.277344 327.542969 312.695312 331.574219 309.3125 335.011719 C 308.949219 335.382812 308.425781 335.554688 307.917969 335.476562 C 307.40625 335.394531 306.964844 335.074219 306.730469 334.613281 L 306.125 333.429688 C 306.078125 333.339844 306.003906 333.324219 305.949219 333.328125 C 305.890625 333.332031 305.816406 333.355469 305.78125 333.449219 L 305.316406 334.71875 C 303.878906 338.632812 300.859375 341.832031 297.035156 343.496094 L 296.335938 343.796875 C 296.25 343.832031 296.167969 343.851562 296.082031 343.851562 " fill-opacity="1" fill-rule="nonzero"/><path fill="#5479f7" d="M 254.808594 336.75 C 254.808594 336.75 255.421875 343.777344 252.511719 347.109375 L 251.605469 348.542969 L 265.265625 347.820312 L 264.605469 346.324219 C 263.429688 343.664062 262.527344 339.382812 262.757812 336.585938 L 254.808594 336.75 " fill-opacity="1" fill-rule="nonzero"/><path fill="#ffffff" d="M 252.9375 342.566406 L 251.5625 343.980469 C 248.847656 346.777344 245.492188 348.871094 241.785156 350.082031 L 238.9375 351.011719 C 238.667969 351.101562 238.457031 351.316406 238.378906 351.59375 L 238.335938 351.730469 C 237.890625 353.28125 239.535156 356.929688 245.195312 358.398438 C 248.601562 359.277344 256.488281 360.09375 266.238281 357.027344 C 267.390625 356.660156 268.148438 355.554688 268.09375 354.347656 C 267.96875 351.546875 267.472656 346.5625 265.59375 343.902344 C 265.359375 343.574219 264.910156 343.53125 264.609375 343.792969 C 263.941406 344.371094 262.742188 345.40625 261.648438 346.351562 C 260.324219 347.496094 258.320312 347.34375 257.179688 346.011719 L 254.265625 342.609375 C 253.917969 342.207031 253.304688 342.1875 252.9375 342.566406 " fill-opacity="1" fill-rule="nonzero"/><path fill="#000000" d="M 252.933594 342.570312 L 252.9375 342.570312 Z M 253.578125 342.9375 C 253.535156 342.9375 253.460938 342.949219 253.394531 343.015625 L 252.019531 344.429688 C 249.242188 347.289062 245.769531 349.457031 241.980469 350.695312 L 239.136719 351.625 C 239.066406 351.648438 239.011719 351.703125 238.996094 351.773438 L 238.953125 351.910156 C 238.84375 352.285156 238.90625 353 239.410156 353.882812 C 240 354.914062 241.550781 356.789062 245.355469 357.773438 C 246.851562 358.160156 254.894531 359.921875 266.042969 356.410156 C 266.914062 356.140625 267.492188 355.300781 267.449219 354.375 C 267.328125 351.691406 266.859375 346.808594 265.066406 344.273438 L 262.070312 346.835938 C 261.296875 347.503906 260.316406 347.828125 259.292969 347.753906 C 258.277344 347.675781 257.351562 347.207031 256.6875 346.429688 L 253.773438 343.03125 C 253.710938 342.953125 253.628906 342.941406 253.585938 342.9375 C 253.585938 342.9375 253.582031 342.9375 253.578125 342.9375 Z M 252.617188 359.839844 C 248.558594 359.839844 245.855469 359.230469 245.03125 359.019531 C 240.773438 357.914062 238.984375 355.726562 238.296875 354.519531 C 237.691406 353.457031 237.480469 352.378906 237.71875 351.554688 L 237.757812 351.417969 C 237.894531 350.9375 238.261719 350.558594 238.738281 350.402344 L 241.582031 349.472656 C 245.175781 348.296875 248.464844 346.242188 251.101562 343.53125 L 252.46875 342.121094 C 252.773438 341.808594 253.199219 341.640625 253.628906 341.652344 C 254.058594 341.667969 254.46875 341.863281 254.753906 342.191406 L 257.664062 345.59375 C 258.101562 346.105469 258.71875 346.417969 259.390625 346.46875 C 260.0625 346.519531 260.71875 346.304688 261.226562 345.863281 L 264.1875 343.308594 C 264.472656 343.058594 264.847656 342.945312 265.210938 342.992188 C 265.574219 343.035156 265.902344 343.230469 266.113281 343.53125 C 268.097656 346.335938 268.609375 351.492188 268.734375 354.316406 C 268.800781 355.824219 267.851562 357.191406 266.429688 357.636719 C 260.996094 359.351562 256.261719 359.839844 252.617188 359.839844 " fill-opacity="1" fill-rule="nonzero"/><path fill="#000000" d="M 254.957031 354.867188 C 254.378906 354.867188 253.800781 354.851562 253.21875 354.816406 C 252.738281 354.789062 252.296875 354.53125 252.039062 354.128906 C 251.777344 353.71875 251.730469 353.210938 251.90625 352.761719 L 252.347656 351.667969 C 252.351562 351.652344 252.367188 351.609375 252.324219 351.566406 C 252.28125 351.523438 252.242188 351.539062 252.222656 351.542969 L 251.109375 351.976562 C 247.636719 353.320312 243.71875 353.179688 240.351562 351.597656 L 239.742188 351.3125 C 239.421875 351.160156 239.285156 350.777344 239.4375 350.457031 C 239.585938 350.132812 239.96875 349.996094 240.289062 350.148438 L 240.902344 350.433594 C 243.949219 351.867188 247.5 351.996094 250.644531 350.777344 L 251.757812 350.34375 C 252.28125 350.144531 252.847656 350.265625 253.238281 350.660156 C 253.632812 351.058594 253.746094 351.625 253.539062 352.144531 L 253.105469 353.238281 C 253.070312 353.328125 253.101562 353.398438 253.125 353.433594 C 253.144531 353.46875 253.195312 353.527344 253.292969 353.535156 C 257.398438 353.761719 261.425781 353.144531 265.273438 351.703125 L 267.507812 350.867188 C 267.839844 350.742188 268.210938 350.914062 268.335938 351.246094 C 268.460938 351.578125 268.289062 351.945312 267.957031 352.070312 L 265.726562 352.90625 C 262.253906 354.207031 258.640625 354.867188 254.957031 354.867188 " fill-opacity="1" fill-rule="nonzero"/><path fill="#000000" d="M 279.34375 221.757812 C 279.34375 221.757812 284.859375 240.003906 275.460938 252.953125 C 262.792969 270.398438 270.03125 310.652344 263.691406 337.722656 C 263.570312 338.238281 263.101562 338.601562 262.570312 338.59375 L 254.890625 338.511719 C 254.378906 338.503906 253.933594 338.164062 253.804688 337.667969 C 251.996094 330.921875 239.875 285.234375 240.261719 276.128906 C 240.351562 274.050781 240.613281 271.628906 240.976562 269.082031 C 242.753906 256.742188 246.476562 244.765625 251.890625 233.535156 L 260.332031 216.011719 L 279.34375 221.757812 " fill-opacity="1" fill-rule="nonzero"/><path fill="#000000" d="M 285.292969 219.695312 C 285.292969 219.695312 292.226562 232.585938 289.15625 246.148438 C 286.089844 259.710938 290.703125 270.957031 293.957031 276.253906 C 297.171875 281.488281 303.0625 294.683594 305.128906 314.300781 C 305.183594 314.777344 305.007812 315.253906 304.664062 315.585938 C 303.582031 316.621094 300.898438 318.71875 296.851562 318.894531 C 296.378906 318.914062 295.925781 318.722656 295.613281 318.367188 C 292.421875 314.742188 274.054688 293.449219 267.527344 276.511719 C 260.367188 257.9375 259.027344 227.066406 259.027344 227.066406 C 259.027344 227.066406 276.847656 228.953125 285.292969 219.695312 " fill-opacity="1" fill-rule="nonzero"/><path fill="#caddff" d="M 268.414062 282.207031 C 268.398438 282.207031 268.382812 282.203125 268.367188 282.203125 C 268.011719 282.179688 267.746094 281.871094 267.773438 281.515625 C 268.566406 270.515625 269.988281 259.394531 274.9375 252.574219 C 278.414062 247.785156 280.21875 241.71875 280.304688 234.53125 C 280.308594 234.179688 280.597656 233.894531 280.949219 233.894531 C 280.949219 233.894531 280.953125 233.894531 280.957031 233.894531 C 281.3125 233.898438 281.59375 234.191406 281.589844 234.546875 C 281.503906 242.003906 279.609375 248.324219 275.980469 253.328125 C 271.21875 259.886719 269.835938 270.796875 269.054688 281.609375 C 269.03125 281.949219 268.746094 282.207031 268.414062 282.207031 " fill-opacity="1" fill-rule="nonzero"/><path fill="#ffffff" d="M 219.996094 139.238281 C 219.996094 139.238281 219.386719 136.492188 220.34375 134.695312 C 221.230469 133.03125 223.1875 129.128906 222.179688 126.03125 C 220.875 122.015625 217.09375 119.179688 216.269531 119.847656 C 215.53125 120.449219 218.847656 126.886719 217.101562 129.933594 C 216.730469 130.578125 215.902344 130.8125 215.238281 130.484375 C 214.433594 130.082031 213.292969 129.21875 212.238281 127.355469 C 211.972656 126.882812 211.285156 126.859375 211.007812 127.324219 C 210.621094 127.960938 210.28125 129.03125 210.496094 130.738281 C 210.769531 132.914062 211.933594 134.945312 212.921875 135.910156 C 214 136.964844 214.429688 140.269531 214.429688 140.269531 L 219.996094 139.238281 " fill-opacity="1" fill-rule="nonzero"/><path fill="#000000" d="M 211.605469 127.628906 C 211.570312 127.628906 211.558594 127.644531 211.558594 127.65625 C 211.253906 128.15625 210.933594 129.085938 211.132812 130.660156 C 211.378906 132.613281 212.445312 134.546875 213.371094 135.453125 C 214.289062 136.347656 214.765625 138.421875 214.960938 139.519531 L 219.257812 138.71875 C 219.125 137.730469 219.011719 135.828125 219.777344 134.394531 C 221.609375 130.953125 222.210938 128.207031 221.570312 126.230469 C 220.511719 122.980469 217.8125 120.730469 216.820312 120.425781 C 216.882812 120.859375 217.097656 121.636719 217.277344 122.289062 C 217.957031 124.746094 218.886719 128.105469 217.65625 130.253906 C 217.117188 131.191406 215.929688 131.546875 214.949219 131.058594 C 214.089844 130.632812 212.820312 129.695312 211.679688 127.671875 C 211.660156 127.636719 211.628906 127.632812 211.605469 127.628906 Z M 213.878906 141.027344 L 213.792969 140.355469 C 213.636719 139.160156 213.140625 137.023438 212.472656 136.371094 C 211.421875 135.34375 210.15625 133.171875 209.859375 130.820312 C 209.660156 129.261719 209.863281 127.972656 210.453125 126.992188 C 210.703125 126.578125 211.144531 126.332031 211.625 126.34375 C 212.109375 126.351562 212.5625 126.617188 212.800781 127.039062 C 213.78125 128.777344 214.820312 129.558594 215.523438 129.90625 C 215.886719 130.089844 216.347656 129.957031 216.542969 129.613281 C 217.507812 127.933594 216.625 124.742188 216.039062 122.632812 C 215.523438 120.769531 215.265625 119.835938 215.863281 119.351562 C 216.085938 119.171875 216.484375 119 217.140625 119.195312 C 218.722656 119.660156 221.644531 122.292969 222.792969 125.832031 C 223.929688 129.332031 221.65625 133.59375 220.914062 134.996094 C 220.21875 136.300781 220.46875 138.398438 220.621094 139.097656 L 220.765625 139.746094 L 213.878906 141.027344 " fill-opacity="1" fill-rule="nonzero"/><path fill="#5479f7" d="M 288.351562 201.601562 C 288.171875 188.175781 285.234375 179.300781 280.445312 173.53125 C 276.792969 169.132812 271.550781 166.339844 265.890625 165.503906 C 260.445312 164.695312 251.164062 163.695312 247.875 165.582031 C 245.558594 166.90625 246.957031 167.554688 246.300781 169.492188 C 244.449219 174.167969 244.558594 178.410156 245.292969 181.738281 C 246.007812 185 247.640625 187.984375 249.851562 190.488281 C 252.996094 194.050781 251.964844 202.988281 246.929688 221.925781 C 246.929688 221.925781 268.816406 233.222656 290.804688 226.269531 C 290.804688 226.269531 288.539062 215.613281 288.351562 201.601562 " fill-opacity="1" fill-rule="nonzero"/><path fill="#000000" d="M 247.6875 221.582031 C 250.917969 223.113281 270.507812 231.734375 290.058594 225.828125 C 289.59375 223.414062 287.871094 213.699219 287.707031 201.609375 C 287.539062 189.078125 285.003906 180.03125 279.953125 173.945312 C 276.46875 169.746094 271.4375 166.976562 265.796875 166.140625 C 256.90625 164.824219 250.488281 164.824219 248.191406 166.136719 C 247.0625 166.789062 247.078125 167.050781 247.121094 167.761719 C 247.148438 168.234375 247.1875 168.875 246.90625 169.699219 C 245.363281 173.601562 245.03125 177.597656 245.917969 181.601562 C 246.582031 184.617188 248.109375 187.542969 250.332031 190.0625 C 253.558594 193.71875 252.871094 201.988281 247.6875 221.582031 Z M 275.683594 229.15625 C 259.765625 229.15625 246.800781 222.585938 246.632812 222.5 C 246.363281 222.359375 246.230469 222.054688 246.304688 221.761719 C 251.417969 202.539062 252.25 194.179688 249.367188 190.914062 C 247 188.230469 245.375 185.105469 244.664062 181.878906 C 243.722656 177.617188 244.070312 173.371094 245.703125 169.253906 C 245.890625 168.699219 245.863281 168.261719 245.835938 167.835938 C 245.773438 166.800781 245.863281 165.992188 247.554688 165.023438 C 250.855469 163.128906 259.398438 163.890625 265.984375 164.867188 C 271.941406 165.75 277.253906 168.679688 280.941406 173.125 C 286.1875 179.445312 288.824219 188.757812 288.992188 201.59375 C 289.179688 215.382812 291.410156 226.03125 291.433594 226.136719 C 291.5 226.460938 291.3125 226.785156 290.996094 226.882812 C 285.804688 228.527344 280.601562 229.15625 275.683594 229.15625 " fill-opacity="1" fill-rule="nonzero"/><path fill="#5479f7" d="M 255.136719 164.507812 C 242.164062 165.265625 234.679688 158.601562 229.042969 151.859375 C 225.949219 148.15625 224.054688 145.394531 222.101562 139.796875 C 221.789062 138.910156 220.878906 138.367188 219.949219 138.511719 L 214.167969 139.414062 C 213.15625 139.570312 212.4375 140.476562 212.511719 141.5 C 213.097656 149.359375 217.484375 180.289062 250.460938 184.589844 C 250.460938 184.589844 261.144531 170.695312 255.136719 164.507812 " fill-opacity="1" fill-rule="nonzero"/><path fill="#000000" d="M 249.09375 185.035156 C 249.0625 185.035156 249.027344 185.03125 248.996094 185.027344 C 235.289062 182.882812 225.050781 175.910156 218.558594 164.304688 C 213.359375 155 212.152344 145.289062 211.875 141.542969 C 211.773438 140.199219 212.738281 138.984375 214.070312 138.777344 L 219.847656 137.875 C 221.09375 137.683594 222.292969 138.402344 222.707031 139.585938 C 224.59375 144.976562 226.414062 147.707031 229.535156 151.445312 C 235.023438 158.003906 242.347656 164.613281 255.101562 163.863281 C 255.460938 163.84375 255.757812 164.113281 255.777344 164.46875 C 255.800781 164.824219 255.53125 165.128906 255.175781 165.148438 C 241.855469 165.929688 234.242188 159.074219 228.550781 152.269531 C 225.324219 148.410156 223.445312 145.589844 221.492188 140.011719 C 221.285156 139.410156 220.675781 139.046875 220.046875 139.148438 L 214.265625 140.046875 C 213.582031 140.152344 213.105469 140.757812 213.15625 141.449219 C 213.800781 150.152344 218.308594 178.925781 249.195312 183.757812 C 249.542969 183.8125 249.785156 184.140625 249.730469 184.492188 C 249.679688 184.808594 249.40625 185.035156 249.09375 185.035156 " fill-opacity="1" fill-rule="nonzero"/><path fill="#ffffff" d="M 211.300781 107.558594 L 174.914062 103.914062 C 172.71875 103.691406 170.933594 105.234375 170.933594 107.355469 L 170.933594 165.246094 C 170.933594 167.855469 173.128906 170.191406 175.832031 170.460938 L 212.875 174.171875 C 215.75 174.457031 218.078125 172.445312 218.078125 169.671875 L 218.078125 116.054688 L 211.300781 107.558594 " fill-opacity="1" fill-rule="nonzero"/><path fill="#5479f7" d="M 174.496094 104.535156 C 173.722656 104.535156 173.015625 104.792969 172.476562 105.28125 C 171.898438 105.804688 171.578125 106.542969 171.578125 107.355469 L 171.578125 165.242188 C 171.578125 167.527344 173.515625 169.582031 175.898438 169.820312 L 212.941406 173.53125 C 214.1875 173.65625 215.34375 173.300781 216.199219 172.523438 C 217 171.804688 217.4375 170.789062 217.4375 169.671875 L 217.4375 116.28125 L 210.96875 108.167969 L 174.851562 104.554688 C 174.730469 104.542969 174.613281 104.535156 174.496094 104.535156 Z M 213.429688 174.84375 C 213.222656 174.84375 213.019531 174.832031 212.8125 174.808594 L 175.769531 171.097656 C 172.75 170.796875 170.292969 168.171875 170.292969 165.242188 L 170.292969 107.355469 C 170.292969 106.171875 170.761719 105.097656 171.609375 104.328125 C 172.507812 103.519531 173.703125 103.144531 174.980469 103.273438 L 211.636719 106.945312 L 218.722656 115.828125 L 218.722656 169.671875 C 218.722656 171.160156 218.132812 172.511719 217.0625 173.480469 C 216.082031 174.371094 214.808594 174.84375 213.429688 174.84375 " fill-opacity="1" fill-rule="nonzero"/><path fill="#5479f7" d="M 211.300781 107.554688 L 211.210938 114.242188 C 211.199219 114.945312 211.722656 115.585938 212.402344 115.699219 L 217.871094 116.21875 C 218.097656 116.242188 218.210938 115.972656 218.058594 115.785156 L 211.300781 107.554688 " fill-opacity="1" fill-rule="nonzero"/><path fill="#5479f7" d="M 211.199219 155.917969 C 211.175781 155.917969 211.152344 155.917969 211.132812 155.914062 L 177.175781 152.511719 C 176.820312 152.476562 176.5625 152.160156 176.597656 151.808594 C 176.632812 151.457031 176.949219 151.199219 177.300781 151.234375 L 211.257812 154.636719 C 211.613281 154.667969 211.871094 154.984375 211.835938 155.339844 C 211.800781 155.667969 211.523438 155.917969 211.199219 155.917969 " fill-opacity="1" fill-rule="nonzero"/><path fill="#5479f7" d="M 211.199219 147.1875 C 211.175781 147.1875 211.152344 147.1875 211.132812 147.1875 L 177.175781 143.785156 C 176.820312 143.75 176.5625 143.433594 176.597656 143.082031 C 176.632812 142.726562 176.949219 142.46875 177.300781 142.503906 L 211.257812 145.90625 C 211.613281 145.941406 211.871094 146.257812 211.835938 146.613281 C 211.800781 146.941406 211.523438 147.1875 211.199219 147.1875 " fill-opacity="1" fill-rule="nonzero"/><path fill="#5479f7" d="M 211.898438 138.894531 C 211.875 138.894531 211.855469 138.894531 211.832031 138.894531 L 196.425781 137.351562 C 196.074219 137.316406 195.816406 137 195.851562 136.644531 C 195.886719 136.292969 196.199219 136.035156 196.554688 136.070312 L 211.960938 137.613281 C 212.3125 137.648438 212.570312 137.964844 212.535156 138.316406 C 212.5 138.648438 212.222656 138.894531 211.898438 138.894531 " fill-opacity="1" fill-rule="nonzero"/><path fill="#5479f7" d="M 211.898438 130.894531 C 211.875 130.894531 211.855469 130.894531 211.832031 130.894531 L 196.425781 129.351562 C 196.074219 129.316406 195.816406 129 195.851562 128.644531 C 195.886719 128.292969 196.199219 128.035156 196.554688 128.070312 L 211.960938 129.613281 C 212.3125 129.648438 212.570312 129.964844 212.535156 130.316406 C 212.5 130.648438 212.222656 130.894531 211.898438 130.894531 " fill-opacity="1" fill-rule="nonzero"/><path fill="#5479f7" d="M 178.65625 134.609375 L 190.222656 135.769531 L 190.222656 127.988281 L 178.65625 126.828125 Z M 190.863281 137.121094 C 190.84375 137.121094 190.824219 137.121094 190.800781 137.121094 L 177.949219 135.832031 C 177.621094 135.800781 177.371094 135.523438 177.371094 135.191406 L 177.371094 126.117188 C 177.371094 125.933594 177.445312 125.761719 177.582031 125.640625 C 177.714844 125.519531 177.898438 125.460938 178.078125 125.476562 L 190.929688 126.765625 C 191.257812 126.796875 191.507812 127.074219 191.507812 127.402344 L 191.507812 136.480469 C 191.507812 136.660156 191.429688 136.835938 191.296875 136.957031 C 191.179688 137.0625 191.023438 137.121094 190.863281 137.121094 " fill-opacity="1" fill-rule="nonzero"/><path fill="#ffffff" d="M 209.082031 168.851562 L 207.972656 165.164062 C 207.640625 163.523438 210.980469 159.976562 208.796875 158.988281 C 207.207031 158.265625 207.371094 160.769531 205.117188 161.179688 C 203.941406 161.394531 202.644531 159.109375 202.441406 158.046875 C 201.738281 154.34375 200.144531 152.984375 198.730469 153.484375 C 197.316406 153.984375 195.464844 159.730469 197.984375 163.773438 C 200.507812 167.820312 205.585938 171.21875 205.585938 171.21875 L 209.082031 168.851562 " fill-opacity="1" fill-rule="nonzero"/><path fill="#000000" d="M 199.296875 154.027344 C 199.179688 154.027344 199.0625 154.046875 198.941406 154.089844 C 198.785156 154.148438 198.320312 154.636719 197.921875 155.785156 C 197.230469 157.757812 196.976562 160.941406 198.53125 163.433594 C 200.570312 166.707031 204.414062 169.597656 205.59375 170.4375 L 208.332031 168.585938 L 207.359375 165.351562 C 207.355469 165.332031 207.347656 165.3125 207.34375 165.292969 C 207.171875 164.441406 207.640625 163.433594 208.136719 162.359375 C 208.542969 161.480469 209.050781 160.386719 208.859375 159.875 C 208.828125 159.789062 208.761719 159.675781 208.53125 159.570312 C 208.230469 159.4375 208.191406 159.417969 207.695312 160.082031 C 207.226562 160.710938 206.582031 161.566406 205.234375 161.8125 C 203.523438 162.125 202.039062 159.363281 201.808594 158.164062 C 201.421875 156.128906 200.710938 154.679688 199.863281 154.191406 C 199.671875 154.082031 199.484375 154.027344 199.296875 154.027344 Z M 205.585938 171.863281 C 205.460938 171.863281 205.335938 171.824219 205.226562 171.753906 C 205.015625 171.609375 200.007812 168.230469 197.441406 164.113281 C 195.644531 161.234375 195.921875 157.601562 196.707031 155.359375 C 196.980469 154.574219 197.578125 153.210938 198.511719 152.878906 C 199.179688 152.640625 199.867188 152.710938 200.503906 153.074219 C 201.714844 153.773438 202.601562 155.449219 203.070312 157.925781 C 203.265625 158.941406 204.429688 160.648438 205.003906 160.546875 C 205.855469 160.390625 206.25 159.867188 206.664062 159.3125 C 207.109375 158.71875 207.777344 157.820312 209.0625 158.402344 C 209.558594 158.628906 209.898438 158.972656 210.066406 159.429688 C 210.441406 160.441406 209.863281 161.691406 209.304688 162.898438 C 208.941406 163.683594 208.53125 164.570312 208.601562 165.015625 L 209.699219 168.667969 C 209.777344 168.9375 209.675781 169.230469 209.445312 169.386719 L 205.949219 171.75 C 205.839844 171.824219 205.710938 171.863281 205.585938 171.863281 " fill-opacity="1" fill-rule="nonzero"/><path fill="#5479f7" d="M 208.792969 166.671875 L 203.742188 169.714844 C 203.050781 170.136719 202.703125 170.953125 202.890625 171.742188 C 204.363281 177.84375 217.34375 197.628906 259.46875 197.355469 C 267.207031 197.304688 270.308594 187.128906 267.332031 179.984375 C 265.695312 176.058594 261.539062 173.828125 257.355469 174.582031 C 247.488281 176.351562 223.71875 182.164062 211.199219 167.097656 C 210.605469 166.382812 209.585938 166.191406 208.792969 166.671875 " fill-opacity="1" fill-rule="nonzero"/><path fill="#000000" d="M 258.582031 198.003906 C 240.742188 198.003906 226.285156 194.460938 215.582031 187.476562 C 206.628906 181.636719 203 174.929688 202.265625 171.894531 C 202.007812 170.828125 202.46875 169.730469 203.410156 169.167969 L 208.457031 166.121094 C 209.527344 165.480469 210.886719 165.714844 211.691406 166.683594 C 223.097656 180.410156 243.835938 176.484375 254.980469 174.371094 C 255.792969 174.214844 256.550781 174.070312 257.238281 173.949219 C 258.890625 173.648438 260.597656 173.785156 262.175781 174.332031 C 262.511719 174.449219 262.6875 174.816406 262.570312 175.152344 C 262.453125 175.484375 262.089844 175.667969 261.753906 175.550781 C 260.386719 175.070312 258.902344 174.957031 257.464844 175.214844 C 256.78125 175.335938 256.027344 175.480469 255.21875 175.632812 C 244.628906 177.640625 222.59375 181.816406 210.703125 167.507812 C 210.304688 167.027344 209.644531 166.910156 209.121094 167.222656 L 204.074219 170.265625 C 203.613281 170.542969 203.390625 171.074219 203.515625 171.589844 C 205.097656 178.144531 218.621094 196.714844 258.609375 196.714844 C 258.894531 196.714844 259.175781 196.714844 259.464844 196.714844 C 260.289062 196.707031 261.082031 196.574219 261.820312 196.320312 C 262.15625 196.207031 262.523438 196.382812 262.636719 196.722656 C 262.753906 197.058594 262.574219 197.421875 262.242188 197.539062 C 261.367188 197.835938 260.4375 197.992188 259.472656 198 C 259.175781 198 258.878906 198.003906 258.582031 198.003906 " fill-opacity="1" fill-rule="nonzero"/><path fill="#000000" d="M 252.46875 143.953125 C 252.011719 142.46875 251.796875 140.921875 251.921875 139.375 C 252.1875 136.128906 253.65625 131.460938 259.402344 128.628906 C 268.957031 123.921875 277.242188 135.289062 280.886719 136.957031 C 285.519531 139.070312 294.546875 136.464844 297.675781 137.425781 C 300.558594 138.320312 311.832031 139.980469 312.238281 154.375 C 312.28125 155.964844 312.136719 157.550781 311.921875 159.125 C 311.644531 161.121094 310.097656 166.53125 316.179688 172.210938 C 324.3125 179.800781 330.378906 199.664062 315.316406 208 C 311.710938 209.996094 308.652344 208.941406 305.242188 207.316406 C 304.628906 207.019531 303.976562 206.675781 303.308594 206.269531 C 301.375 205.09375 299.5 202.03125 296.972656 202.125 C 289.5625 202.402344 267.386719 208.574219 272.851562 182.804688 C 274.386719 175.5625 270.511719 167.132812 267.785156 165.480469 C 265.566406 164.140625 252.445312 165.367188 251.558594 164.546875 C 246.152344 159.527344 248.804688 153.210938 251.332031 149.6875 C 253.199219 147.089844 252.863281 145.253906 252.46875 143.953125 " fill-opacity="1" fill-rule="nonzero"/><path fill="#ffffff" d="M 270.203125 147.625 C 269.859375 147.707031 269.527344 147.472656 269.496094 147.121094 C 269.34375 145.457031 268.230469 142.625 266.382812 141.558594 C 264.015625 140.191406 260.847656 140.074219 259.613281 141.8125 C 258.53125 143.328125 258.761719 144.511719 256.226562 146.128906 C 255.984375 146.28125 256.035156 146.664062 256.207031 146.898438 L 257.074219 148.238281 C 257.261719 148.5 257.28125 149.1875 257.214844 149.503906 C 257.019531 150.480469 256.585938 152.496094 256.765625 152.902344 C 257.292969 154.070312 260.761719 154.996094 260.761719 154.996094 L 260.410156 164.003906 C 260.300781 165.222656 259.761719 165.4375 259.761719 165.4375 L 257.710938 167.300781 C 257.710938 167.300781 257.636719 169.507812 265.625 170.777344 C 271.625 171.734375 271.25 170.671875 271.25 170.671875 C 271.25 170.671875 266.15625 165.332031 268.324219 153.703125 C 268.371094 153.449219 268.554688 153.238281 268.796875 153.152344 C 269.738281 152.816406 272.316406 151.773438 272.476562 149.964844 C 272.652344 148.039062 271.378906 147.34375 270.203125 147.625 " fill-opacity="1" fill-rule="nonzero"/><path fill="#000000" d="M 270.203125 147.625 L 270.207031 147.625 Z M 259.523438 164.839844 Z M 259.523438 164.84375 Z M 258.351562 167.261719 Z M 258.464844 167.484375 C 258.820312 167.996094 260.226562 169.269531 265.726562 170.140625 C 268.425781 170.574219 269.699219 170.570312 270.285156 170.503906 C 269.007812 168.761719 265.878906 163.324219 267.691406 153.585938 C 267.78125 153.109375 268.121094 152.710938 268.582031 152.542969 C 269.316406 152.285156 271.710938 151.328125 271.839844 149.902344 C 271.898438 149.242188 271.761719 148.742188 271.433594 148.460938 C 271.164062 148.226562 270.769531 148.148438 270.351562 148.25 C 270.003906 148.332031 269.644531 148.261719 269.359375 148.054688 C 269.070312 147.851562 268.886719 147.53125 268.855469 147.179688 C 268.71875 145.652344 267.667969 143.042969 266.066406 142.117188 C 263.804688 140.8125 261.089844 140.84375 260.136719 142.183594 C 259.832031 142.609375 259.644531 143.003906 259.445312 143.425781 C 258.984375 144.390625 258.507812 145.394531 256.746094 146.554688 L 257.613281 147.886719 C 257.953125 148.355469 257.917969 149.285156 257.847656 149.632812 L 257.804688 149.839844 C 257.683594 150.4375 257.3125 152.234375 257.371094 152.667969 C 257.664062 153.199219 259.421875 153.972656 260.925781 154.375 C 261.21875 154.453125 261.414062 154.71875 261.402344 155.019531 L 261.050781 164.03125 C 260.9375 165.300781 260.417969 165.789062 260.140625 165.960938 Z M 269.554688 171.816406 C 268.648438 171.816406 267.363281 171.707031 265.527344 171.414062 C 257.386719 170.117188 257.054688 167.742188 257.070312 167.277344 C 257.074219 167.101562 257.152344 166.941406 257.28125 166.824219 L 259.332031 164.960938 C 259.371094 164.921875 259.417969 164.890625 259.46875 164.867188 C 259.503906 164.832031 259.710938 164.625 259.769531 163.949219 L 260.097656 155.476562 C 258.992188 155.136719 256.699219 154.316406 256.183594 153.164062 C 255.984375 152.726562 256.066406 151.921875 256.546875 149.582031 L 256.585938 149.375 C 256.632812 149.164062 256.605469 148.722656 256.539062 148.59375 L 255.664062 147.246094 C 255.464844 146.972656 255.375 146.59375 255.441406 146.253906 C 255.492188 145.96875 255.648438 145.730469 255.882812 145.585938 C 257.472656 144.570312 257.847656 143.785156 258.285156 142.875 C 258.5 142.421875 258.71875 141.953125 259.085938 141.4375 C 260.59375 139.320312 264.21875 139.5625 266.703125 141 C 268.769531 142.195312 269.9375 145.183594 270.128906 146.980469 C 270.925781 146.816406 271.707031 146.996094 272.277344 147.488281 C 272.917969 148.042969 273.214844 148.941406 273.121094 150.019531 C 272.933594 152.070312 270.464844 153.238281 269.011719 153.757812 C 268.984375 153.765625 268.960938 153.792969 268.957031 153.820312 C 266.886719 164.941406 271.667969 170.179688 271.71875 170.230469 C 271.777344 170.296875 271.824219 170.375 271.855469 170.460938 C 271.929688 170.664062 271.921875 170.980469 271.695312 171.257812 C 271.457031 171.542969 270.972656 171.816406 269.554688 171.816406 " fill-opacity="1" fill-rule="nonzero"/><path fill="#5479f7" d="M 167.5 83.5625 L 129.710938 80.195312 C 127.429688 79.992188 125.578125 81.546875 125.578125 83.667969 L 125.578125 141.558594 C 125.578125 144.171875 127.855469 146.488281 130.664062 146.738281 L 169.132812 150.164062 C 172.117188 150.429688 174.539062 148.394531 174.539062 145.625 L 174.539062 92.007812 L 167.5 83.5625 " fill-opacity="1" fill-rule="nonzero"/><path fill="#ffffff" d="M 129.320312 80.824219 C 128.472656 80.824219 127.683594 81.109375 127.109375 81.636719 C 126.539062 82.160156 126.21875 82.882812 126.21875 83.667969 L 126.21875 141.558594 C 126.21875 143.84375 128.238281 145.875 130.722656 146.097656 L 169.191406 149.519531 C 170.511719 149.640625 171.78125 149.242188 172.667969 148.433594 C 173.460938 147.707031 173.894531 146.707031 173.894531 145.621094 L 173.894531 92.242188 L 167.175781 84.179688 L 129.652344 80.839844 C 129.542969 80.828125 129.429688 80.824219 129.320312 80.824219 Z M 169.644531 150.828125 C 169.457031 150.828125 169.265625 150.820312 169.078125 150.804688 L 130.609375 147.378906 C 127.480469 147.101562 124.933594 144.492188 124.933594 141.558594 L 124.933594 83.667969 C 124.933594 82.515625 125.398438 81.457031 126.242188 80.6875 C 127.15625 79.851562 128.441406 79.4375 129.769531 79.558594 L 167.820312 82.945312 L 175.183594 91.773438 L 175.183594 145.621094 C 175.183594 147.074219 174.597656 148.410156 173.535156 149.378906 C 172.515625 150.316406 171.117188 150.828125 169.644531 150.828125 " fill-opacity="1" fill-rule="nonzero"/><path fill="#ffffff" d="M 167.5 83.558594 L 167.40625 90.246094 C 167.394531 90.949219 167.9375 91.582031 168.640625 91.691406 L 174.320312 92.171875 C 174.558594 92.191406 174.675781 91.921875 174.515625 91.738281 L 167.5 83.558594 " fill-opacity="1" fill-rule="nonzero"/><path fill="#ffffff" d="M 148.546875 101.613281 C 144.589844 101.613281 140.925781 103.058594 138.183594 105.71875 C 135.328125 108.492188 133.753906 112.316406 133.753906 116.488281 C 133.753906 125.519531 141.097656 133.519531 150.128906 134.324219 C 154.492188 134.710938 158.582031 133.378906 161.65625 130.566406 C 164.570312 127.898438 166.234375 124.203125 166.378906 120.097656 L 149.589844 118.6875 C 149.261719 118.660156 149.007812 118.386719 149.003906 118.054688 L 148.78125 101.613281 C 148.707031 101.613281 148.625 101.613281 148.546875 101.613281 Z M 151.605469 135.675781 C 151.078125 135.675781 150.550781 135.652344 150.015625 135.601562 C 140.339844 134.742188 132.46875 126.167969 132.46875 116.488281 C 132.46875 111.964844 134.179688 107.8125 137.289062 104.792969 C 140.398438 101.78125 144.597656 100.195312 149.089844 100.335938 C 149.183594 100.335938 149.273438 100.359375 149.351562 100.398438 C 149.351562 100.398438 149.355469 100.398438 149.355469 100.398438 C 149.550781 100.433594 149.882812 100.492188 150.019531 100.847656 C 150.050781 100.933594 150.066406 101.023438 150.0625 101.113281 L 150.28125 117.453125 L 167.085938 118.867188 C 167.421875 118.894531 167.675781 119.175781 167.675781 119.507812 C 167.675781 124.210938 165.847656 128.476562 162.523438 131.515625 C 159.5625 134.226562 155.730469 135.675781 151.605469 135.675781 " fill-opacity="1" fill-rule="nonzero"/><path fill="#ffffff" d="M 153.175781 114.761719 L 167.933594 116.179688 C 167.226562 108.488281 160.683594 101.574219 152.863281 100.261719 Z M 168.625 117.535156 C 168.605469 117.535156 168.585938 117.535156 168.5625 117.53125 L 152.480469 115.988281 C 152.160156 115.957031 151.90625 115.6875 151.902344 115.359375 L 151.5625 99.53125 C 151.558594 99.34375 151.632812 99.164062 151.773438 99.039062 C 151.910156 98.914062 152.097656 98.855469 152.28125 98.878906 C 161.269531 99.96875 168.894531 108.039062 169.265625 116.863281 C 169.277344 117.050781 169.203125 117.230469 169.066406 117.359375 C 168.945312 117.472656 168.789062 117.535156 168.625 117.535156 " fill-opacity="1" fill-rule="nonzero"/><path fill="#ffffff" d="M 162.007812 130.957031 C 161.839844 130.957031 161.675781 130.894531 161.554688 130.769531 L 149.195312 118.5 C 148.941406 118.25 148.9375 117.84375 149.191406 117.589844 C 149.4375 117.339844 149.847656 117.339844 150.101562 117.585938 L 162.457031 129.859375 C 162.710938 130.105469 162.710938 130.515625 162.460938 130.765625 C 162.335938 130.890625 162.171875 130.957031 162.007812 130.957031 " fill-opacity="1" fill-rule="nonzero"/><path fill="#ffffff" d="M 122.382812 56.898438 L 86.214844 52.695312 C 84.035156 52.441406 82.207031 53.953125 82.207031 56.074219 L 82.207031 113.964844 C 82.207031 116.574219 84.535156 118.945312 87.21875 119.257812 L 123.871094 123.539062 C 126.722656 123.871094 128.929688 121.894531 128.929688 119.117188 L 128.929688 65.503906 L 122.382812 56.898438 " fill-opacity="1" fill-rule="nonzero"/><path fill="#5479f7" d="M 122.566406 56.898438 L 122.472656 63.582031 C 122.464844 64.285156 122.984375 64.933594 123.65625 65.058594 L 129.085938 65.664062 C 129.308594 65.691406 129.421875 65.421875 129.269531 65.234375 L 122.566406 56.898438 " fill-opacity="1" fill-rule="nonzero"/><path fill="#5479f7" d="M 90.101562 107.414062 L 121.644531 111.085938 L 121.644531 70.828125 L 90.101562 67.152344 Z M 122.285156 112.453125 C 122.261719 112.453125 122.238281 112.453125 122.210938 112.445312 L 89.382812 108.625 C 89.058594 108.585938 88.816406 108.3125 88.816406 107.984375 L 88.816406 66.429688 C 88.816406 66.246094 88.894531 66.070312 89.03125 65.949219 C 89.167969 65.824219 89.347656 65.769531 89.53125 65.789062 L 122.359375 69.613281 C 122.683594 69.652344 122.929688 69.925781 122.929688 70.253906 L 122.929688 111.808594 C 122.929688 111.992188 122.851562 112.167969 122.714844 112.289062 C 122.59375 112.394531 122.441406 112.453125 122.285156 112.453125 " fill-opacity="1" fill-rule="nonzero"/><path fill="#5479f7" d="M 121.96875 85.242188 C 121.945312 85.242188 121.921875 85.242188 121.898438 85.238281 L 89.453125 81.726562 C 89.101562 81.6875 88.84375 81.371094 88.882812 81.019531 C 88.921875 80.664062 89.234375 80.410156 89.589844 80.445312 L 122.039062 83.960938 C 122.390625 84 122.644531 84.316406 122.605469 84.667969 C 122.570312 85 122.292969 85.242188 121.96875 85.242188 " fill-opacity="1" fill-rule="nonzero"/><path fill="#5479f7" d="M 122.113281 97.945312 C 122.085938 97.945312 122.0625 97.945312 122.039062 97.941406 L 89.382812 94.140625 C 89.03125 94.097656 88.777344 93.777344 88.820312 93.425781 C 88.859375 93.074219 89.183594 92.820312 89.53125 92.863281 L 122.1875 96.664062 C 122.539062 96.707031 122.792969 97.027344 122.75 97.378906 C 122.710938 97.707031 122.433594 97.945312 122.113281 97.945312 " fill-opacity="1" fill-rule="nonzero"/><path fill="#5479f7" d="M 100.425781 109.882812 C 100.070312 109.882812 99.78125 109.59375 99.78125 109.242188 L 99.78125 67.652344 C 99.78125 67.300781 100.070312 67.011719 100.425781 67.011719 C 100.777344 67.011719 101.066406 67.300781 101.066406 67.652344 L 101.066406 109.242188 C 101.066406 109.59375 100.777344 109.882812 100.425781 109.882812 " fill-opacity="1" fill-rule="nonzero"/><path fill="#5479f7" d="M 111.660156 110.8125 C 111.308594 110.8125 111.023438 110.527344 111.019531 110.175781 L 110.765625 69.121094 C 110.761719 68.765625 111.046875 68.476562 111.402344 68.472656 C 111.75 68.464844 112.046875 68.757812 112.050781 69.113281 L 112.304688 110.167969 C 112.308594 110.523438 112.019531 110.8125 111.667969 110.8125 C 111.664062 110.8125 111.664062 110.8125 111.660156 110.8125 " fill-opacity="1" fill-rule="nonzero"/><path fill="#99b9ff" d="M 80.890625 17.050781 L 44.867188 14.105469 C 42.699219 13.925781 40.839844 15.460938 40.839844 17.53125 L 40.839844 74.085938 C 40.839844 76.632812 43.113281 78.878906 45.785156 79.097656 L 82.390625 82.101562 C 85.226562 82.332031 87.5625 80.324219 87.5625 77.613281 L 87.5625 25.238281 L 80.890625 17.050781 " fill-opacity="1" fill-rule="nonzero"/><path fill="#5479f7" d="M 80.90625 17.050781 L 80.816406 23.582031 C 80.808594 24.269531 81.324219 24.886719 81.992188 24.988281 L 87.394531 25.402344 C 87.617188 25.421875 87.730469 25.15625 87.578125 24.980469 L 80.90625 17.050781 " fill-opacity="1" fill-rule="nonzero"/><path fill="#ffffff" d="M 62.574219 32.746094 C 59.003906 32.746094 55.667969 34.019531 53.082031 36.40625 C 50.089844 39.160156 48.445312 43.050781 48.445312 47.355469 C 48.445312 56.136719 55.390625 63.851562 63.925781 64.550781 C 67.964844 64.882812 71.78125 63.601562 74.664062 60.941406 C 77.65625 58.183594 79.304688 54.296875 79.304688 49.992188 C 79.304688 41.210938 72.359375 33.496094 63.820312 32.796875 C 63.402344 32.761719 62.988281 32.746094 62.574219 32.746094 Z M 65.175781 65.890625 C 64.726562 65.890625 64.277344 65.871094 63.820312 65.832031 C 54.632812 65.078125 47.160156 56.792969 47.160156 47.355469 C 47.160156 42.6875 48.953125 38.460938 52.210938 35.460938 C 55.363281 32.554688 59.527344 31.152344 63.925781 31.515625 C 73.113281 32.269531 80.589844 40.558594 80.589844 49.992188 C 80.589844 54.664062 78.792969 58.886719 75.535156 61.886719 C 72.710938 64.492188 69.070312 65.890625 65.175781 65.890625 " fill-opacity="1" fill-rule="nonzero"/><path fill="#ffffff" d="M 60.03125 42.191406 L 60.382812 55.671875 C 60.402344 56.433594 61.222656 56.941406 61.84375 56.578125 L 71.625 50.808594 C 72.195312 50.476562 72.195312 49.621094 71.628906 49.191406 L 61.496094 41.476562 C 60.859375 40.992188 60.011719 41.40625 60.03125 42.191406 " fill-opacity="1" fill-rule="nonzero"/><path fill="#5479f7" d="M 31.683594 155.738281 C 19.660156 159.121094 4.183594 172.140625 4.183594 195.761719 C 4.183594 212.773438 29.242188 227.1875 29.242188 227.1875 L 33.375 217.039062 C 33.375 217.039062 19.5625 206.808594 20.222656 194.867188 C 20.753906 185.289062 36.191406 182.316406 36.191406 182.316406 L 31.683594 155.738281 " fill-opacity="1" fill-rule="nonzero"/><path fill="#5479f7" d="M 36.757812 349.847656 L 45.398438 349.847656 L 45.398438 339.699219 L 36.757812 339.699219 L 36.757812 349.847656 " fill-opacity="1" fill-rule="nonzero"/><path fill="#5479f7" d="M 59.753906 347.964844 L 68.164062 349.953125 L 70.496094 340.074219 L 62.085938 338.089844 L 59.753906 347.964844 " fill-opacity="1" fill-rule="nonzero"/><path fill="#000000" d="M 29.617188 213.800781 C 29.617188 213.800781 27.035156 234.210938 29.015625 242.132812 C 30.996094 250.054688 35.628906 323.273438 35.628906 343.082031 L 47.277344 343.082031 L 52.539062 249.503906 L 68.792969 283.457031 C 69.972656 286.210938 70.273438 289.261719 69.648438 292.195312 L 60.050781 343.082031 L 70.949219 343.832031 L 89.164062 287.960938 C 89.980469 285.1875 90.039062 282.25 89.339844 279.449219 L 74.566406 220.34375 L 29.617188 213.800781 " fill-opacity="1" fill-rule="nonzero"/><path fill="#caddff" d="M 51.972656 248.078125 C 51.785156 248.078125 51.597656 248 51.472656 247.839844 L 45.460938 240.324219 C 45.238281 240.042969 45.28125 239.640625 45.558594 239.417969 C 45.835938 239.195312 46.242188 239.242188 46.464844 239.519531 L 52.476562 247.035156 C 52.699219 247.3125 52.652344 247.71875 52.375 247.941406 C 52.257812 248.03125 52.113281 248.078125 51.972656 248.078125 " fill-opacity="1" fill-rule="nonzero"/><path fill="#ffffff" d="M 36.191406 347.589844 L 46.335938 347.589844 L 47.839844 355.25 C 48.132812 356.730469 47.066406 358.113281 45.636719 358.113281 L 36.894531 358.113281 C 35.464844 358.113281 34.398438 356.730469 34.6875 355.25 L 36.191406 347.589844 " fill-opacity="1" fill-rule="nonzero"/><path fill="#000000" d="M 36.722656 348.234375 L 35.320312 355.375 C 35.210938 355.917969 35.347656 356.46875 35.691406 356.886719 C 36 357.261719 36.425781 357.46875 36.894531 357.46875 L 45.636719 357.46875 C 46.101562 357.46875 46.53125 357.261719 46.839844 356.886719 C 47.183594 356.46875 47.316406 355.917969 47.210938 355.375 L 45.808594 348.234375 Z M 45.636719 358.757812 L 36.894531 358.757812 C 36.046875 358.757812 35.246094 358.375 34.695312 357.703125 C 34.109375 356.988281 33.875 356.050781 34.058594 355.125 L 35.5625 347.464844 C 35.621094 347.164062 35.886719 346.949219 36.191406 346.949219 L 46.335938 346.949219 C 46.644531 346.949219 46.910156 347.164062 46.96875 347.464844 L 48.472656 355.125 C 48.652344 356.050781 48.421875 356.988281 47.832031 357.703125 C 47.28125 358.375 46.480469 358.757812 45.636719 358.757812 " fill-opacity="1" fill-rule="nonzero"/><path fill="#000000" d="M 46.714844 356.3125 L 36.191406 356.3125 C 35.835938 356.3125 35.550781 356.027344 35.550781 355.671875 C 35.550781 355.316406 35.835938 355.027344 36.191406 355.027344 L 46.714844 355.027344 C 47.070312 355.027344 47.355469 355.316406 47.355469 355.671875 C 47.355469 356.027344 47.070312 356.3125 46.714844 356.3125 " fill-opacity="1" fill-rule="nonzero"/><path fill="#ffffff" d="M 59.488281 345.335938 L 56.710938 354.558594 C 56.226562 356.164062 57.207031 357.859375 58.640625 357.910156 L 77.726562 358.554688 C 78.90625 358.59375 79.378906 356.765625 78.382812 356.015625 C 75.277344 353.679688 71.144531 350.4375 70.007812 348.898438 C 67.378906 345.335938 64.75 348.453125 64.75 348.453125 C 64.75 348.453125 62.871094 345.335938 59.488281 345.335938 " fill-opacity="1" fill-rule="nonzero"/><path fill="#000000" d="M 59.960938 346.003906 L 57.324219 354.746094 C 57.128906 355.398438 57.238281 356.128906 57.613281 356.652344 C 57.886719 357.03125 58.261719 357.25 58.664062 357.265625 L 77.75 357.914062 C 78.042969 357.917969 78.179688 357.628906 78.222656 357.5 C 78.332031 357.195312 78.304688 356.761719 77.996094 356.527344 C 73.292969 352.996094 70.433594 350.554688 69.492188 349.28125 C 68.804688 348.347656 68.078125 347.863281 67.335938 347.835938 C 66.175781 347.796875 65.246094 348.859375 65.238281 348.871094 C 65.105469 349.027344 64.898438 349.113281 64.695312 349.09375 C 64.492188 349.078125 64.304688 348.964844 64.199219 348.785156 C 64.183594 348.761719 62.636719 346.273438 59.960938 346.003906 Z M 77.761719 359.199219 C 77.742188 359.199219 77.722656 359.199219 77.707031 359.199219 L 58.621094 358.550781 C 57.820312 358.523438 57.074219 358.105469 56.570312 357.402344 C 55.957031 356.550781 55.78125 355.417969 56.09375 354.375 L 58.875 345.148438 C 58.953125 344.878906 59.207031 344.695312 59.488281 344.695312 C 62.226562 344.695312 64.046875 346.492188 64.84375 347.484375 C 65.390625 347.046875 66.285156 346.515625 67.367188 346.550781 C 68.527344 346.585938 69.589844 347.25 70.527344 348.519531 C 71.367188 349.65625 74.296875 352.140625 78.765625 355.5 C 79.488281 356.042969 79.757812 357.019531 79.4375 357.929688 C 79.164062 358.707031 78.507812 359.199219 77.761719 359.199219 " fill-opacity="1" fill-rule="nonzero"/><path fill="#ffffff" d="M 75.644531 355.671875 L 58.363281 354.921875 L 75.644531 355.671875 " fill-opacity="1" fill-rule="nonzero"/><path fill="#000000" d="M 75.644531 356.3125 C 75.636719 356.3125 75.628906 356.3125 75.617188 356.3125 L 58.332031 355.5625 C 57.980469 355.546875 57.703125 355.246094 57.71875 354.890625 C 57.734375 354.535156 58.039062 354.261719 58.390625 354.277344 L 75.671875 355.027344 C 76.027344 355.042969 76.304688 355.34375 76.289062 355.699219 C 76.273438 356.042969 75.988281 356.3125 75.644531 356.3125 " fill-opacity="1" fill-rule="nonzero"/><path fill="#ffffff" d="M 49.34375 150.476562 L 39.949219 156.867188 L 65.816406 155.625 L 58.363281 150.851562 L 57.355469 146.226562 C 58.679688 146.03125 60.5 145.898438 61.078125 145.179688 C 62.101562 143.90625 61.640625 139.496094 61.640625 139.496094 L 62.761719 138.613281 C 62.878906 138.554688 62.96875 138.445312 63.003906 138.316406 C 63.039062 138.1875 63.019531 138.050781 62.949219 137.9375 C 61.996094 136.421875 61.097656 135.929688 60.675781 134.382812 C 60.261719 132.859375 60.445312 133.089844 58.804688 129.808594 L 48.96875 129.792969 L 48.914062 137.167969 C 48.914062 137.167969 47.402344 136.191406 46.445312 137.511719 C 45.75 138.46875 47.289062 141.671875 48.539062 141.671875 L 49.34375 150.476562 " fill-opacity="1" fill-rule="nonzero"/><path fill="#000000" d="M 47.769531 137.460938 C 47.496094 137.460938 47.203125 137.5625 46.964844 137.890625 C 46.855469 138.042969 46.894531 138.789062 47.371094 139.726562 C 47.839844 140.648438 48.363281 141.027344 48.539062 141.027344 C 48.871094 141.027344 49.148438 141.285156 49.179688 141.613281 L 49.984375 150.417969 C 50.003906 150.652344 49.898438 150.875 49.703125 151.007812 L 42.199219 156.113281 L 63.773438 155.082031 L 58.015625 151.394531 C 57.871094 151.300781 57.769531 151.15625 57.734375 150.988281 L 56.730469 146.363281 C 56.691406 146.191406 56.726562 146.007812 56.828125 145.863281 C 56.929688 145.71875 57.085938 145.621094 57.261719 145.59375 C 57.460938 145.5625 57.667969 145.535156 57.882812 145.507812 C 58.824219 145.378906 60.246094 145.191406 60.578125 144.777344 C 61.167969 144.039062 61.179688 141.285156 61 139.5625 C 60.976562 139.339844 61.070312 139.125 61.242188 138.988281 L 62.316406 138.144531 C 62.015625 137.683594 61.722656 137.324219 61.4375 136.976562 C 60.882812 136.300781 60.359375 135.660156 60.058594 134.554688 C 60 134.34375 59.953125 134.167969 59.914062 134.007812 C 59.679688 133.109375 59.625 132.894531 58.40625 130.449219 L 49.605469 130.4375 L 49.554688 137.171875 C 49.554688 137.40625 49.425781 137.621094 49.21875 137.734375 C 49.011719 137.84375 48.761719 137.835938 48.5625 137.707031 C 48.46875 137.648438 48.136719 137.460938 47.769531 137.460938 Z M 39.949219 157.507812 C 39.675781 157.507812 39.425781 157.332031 39.339844 157.070312 C 39.25 156.796875 39.351562 156.496094 39.589844 156.335938 L 48.667969 150.160156 L 47.941406 142.1875 C 47.050781 141.8125 46.421875 140.699219 46.226562 140.3125 C 45.707031 139.292969 45.355469 137.921875 45.925781 137.132812 C 46.605469 136.195312 47.527344 136.074219 48.277344 136.230469 L 48.324219 129.789062 C 48.328125 129.4375 48.613281 129.148438 48.96875 129.148438 L 58.804688 129.164062 C 59.050781 129.164062 59.273438 129.300781 59.378906 129.519531 C 60.785156 132.332031 60.882812 132.621094 61.160156 133.6875 C 61.199219 133.839844 61.242188 134.011719 61.296875 134.214844 C 61.527344 135.058594 61.90625 135.519531 62.433594 136.160156 C 62.753906 136.554688 63.121094 137 63.492188 137.59375 C 63.660156 137.863281 63.707031 138.1875 63.625 138.488281 C 63.546875 138.769531 63.363281 139.003906 63.117188 139.152344 L 62.3125 139.78125 C 62.417969 141.03125 62.589844 144.324219 61.582031 145.582031 C 60.9375 146.382812 59.519531 146.585938 58.132812 146.773438 L 58.933594 150.453125 L 66.164062 155.085938 C 66.398438 155.234375 66.507812 155.523438 66.4375 155.792969 C 66.363281 156.0625 66.125 156.257812 65.847656 156.269531 L 39.980469 157.507812 C 39.96875 157.507812 39.960938 157.507812 39.949219 157.507812 " fill-opacity="1" fill-rule="nonzero"/><path fill="#000000" d="M 48.058594 144.96875 C 50.039062 145.632812 51.996094 144.082031 52.347656 143.800781 C 53.722656 142.707031 54.847656 140.761719 54.296875 139.902344 C 53.992188 139.429688 53.449219 139.6875 52.734375 139.121094 C 51.6875 138.289062 51.390625 136.488281 51.957031 136.003906 C 52.421875 135.605469 53.144531 136.367188 53.90625 136.003906 C 54.832031 135.558594 54.359375 134.136719 55.074219 132.882812 C 56.246094 130.835938 58.976562 132.070312 61.078125 129.890625 C 62.449219 128.46875 63.042969 126.097656 62.261719 124.757812 C 62.03125 124.367188 61.683594 124.019531 61.183594 123.742188 C 57.878906 121.925781 57.386719 124.414062 54.171875 124.441406 C 47.550781 124.5 44.304688 125.824219 43.109375 128.566406 C 42.296875 130.429688 43.289062 133.394531 43.769531 134.832031 C 43.929688 135.3125 44.265625 136.214844 44.546875 137.5625 C 44.859375 139.035156 44.761719 139.410156 44.9375 140.289062 C 45.0625 140.90625 45.71875 144.191406 48.058594 144.96875 " fill-opacity="1" fill-rule="nonzero"/><path fill="#5479f7" d="M 75.644531 154.234375 C 75.644531 154.234375 53.101562 147.847656 31.683594 155.738281 C 30.035156 165.234375 28.902344 173.4375 28.113281 179.929688 C 26.722656 191.363281 27.589844 187.714844 25.859375 204.40625 C 24.785156 214.777344 24.496094 215.730469 25.484375 217.558594 C 30.453125 226.773438 50.476562 226.277344 58.171875 224.324219 C 58.71875 224.183594 60.980469 223.589844 64.675781 222.65625 C 68.910156 221.589844 72.382812 220.746094 74.707031 220.191406 C 75.960938 219.621094 77.65625 218.613281 78.839844 216.808594 C 81.488281 212.761719 79.71875 207.527344 78.839844 204.03125 C 76.585938 195.050781 79.546875 194.855469 78.839844 178.476562 C 78.59375 172.746094 77.871094 164.425781 75.644531 154.234375 " fill-opacity="1" fill-rule="nonzero"/><path fill="#ffffff" d="M 125.910156 146.371094 L 128.511719 135.117188 L 135.765625 128.679688 C 135.765625 128.679688 139.890625 128.746094 133.132812 135.820312 C 133.132812 135.820312 136.363281 142.140625 134.277344 144.648438 C 133.667969 145.378906 130.191406 149.898438 130.191406 149.898438 L 125.910156 146.371094 " fill-opacity="1" fill-rule="nonzero"/><path fill="#000000" d="M 126.625 146.128906 L 130.085938 148.980469 C 131.027344 147.761719 133.292969 144.828125 133.78125 144.238281 C 135.269531 142.449219 133.40625 137.765625 132.5625 136.113281 C 132.4375 135.867188 132.480469 135.574219 132.667969 135.375 C 136.664062 131.191406 136.417969 129.863281 136.328125 129.640625 C 136.261719 129.480469 136.101562 129.402344 135.964844 129.363281 L 129.089844 135.460938 Z M 130.191406 150.542969 C 130.042969 150.542969 129.898438 150.492188 129.78125 150.394531 L 125.5 146.867188 C 125.3125 146.714844 125.226562 146.464844 125.28125 146.226562 L 127.882812 134.972656 C 127.914062 134.84375 127.984375 134.722656 128.082031 134.636719 L 135.335938 128.199219 C 135.457031 128.09375 135.613281 128.035156 135.773438 128.035156 C 136.253906 128.042969 137.15625 128.285156 137.511719 129.140625 C 138.085938 130.511719 136.90625 132.738281 133.910156 135.9375 C 134.652344 137.511719 136.8125 142.609375 134.769531 145.058594 C 134.179688 145.773438 130.734375 150.246094 130.703125 150.289062 C 130.59375 150.429688 130.4375 150.519531 130.265625 150.539062 C 130.238281 150.542969 130.214844 150.542969 130.191406 150.542969 " fill-opacity="1" fill-rule="nonzero"/><path fill="#5479f7" d="M 132.757812 149.347656 L 124.867188 144.089844 C 124.867188 144.089844 116.601562 162.503906 103.824219 164.382812 C 91.050781 166.261719 85.039062 153.859375 68.507812 152.730469 L 68.128906 175.65625 C 68.128906 175.65625 84.289062 189.9375 98.566406 189.183594 C 112.84375 188.433594 127.875 163.628906 132.757812 149.347656 " fill-opacity="1" fill-rule="nonzero"/><path fill="#000000" d="M 34.40625 224.46875 C 34.375 224.46875 34.34375 224.46875 34.3125 224.460938 C 34.199219 224.445312 22.941406 222.6875 24.402344 212.207031 C 24.453125 211.859375 24.777344 211.613281 25.128906 211.660156 C 25.480469 211.710938 25.726562 212.035156 25.675781 212.386719 C 24.390625 221.589844 34.085938 223.128906 34.5 223.1875 C 34.851562 223.242188 35.09375 223.570312 35.042969 223.917969 C 34.996094 224.238281 34.71875 224.46875 34.40625 224.46875 " fill-opacity="1" fill-rule="nonzero"/><path fill="#000000" d="M 60.515625 215.699219 C 60.351562 215.699219 60.183594 215.632812 60.058594 215.507812 C 59.808594 215.253906 59.8125 214.847656 60.066406 214.597656 C 68.710938 206.074219 70.554688 192.714844 70.574219 192.582031 C 70.621094 192.230469 70.945312 191.984375 71.292969 192.027344 C 71.644531 192.074219 71.894531 192.398438 71.847656 192.75 C 71.773438 193.316406 69.925781 206.683594 60.96875 215.515625 C 60.84375 215.640625 60.679688 215.699219 60.515625 215.699219 " fill-opacity="1" fill-rule="nonzero"/><path fill="#000000" d="M 20.222656 194.867188 L 20.226562 194.867188 Z M 26.734375 186.65625 C 23.015625 188.945312 21.042969 191.714844 20.867188 194.902344 C 20.648438 198.808594 22.011719 202.941406 24.917969 207.207031 C 25.011719 206.34375 25.109375 205.390625 25.21875 204.339844 C 26.082031 196.039062 26.296875 192.789062 26.472656 190.183594 C 26.550781 189.015625 26.617188 187.96875 26.734375 186.65625 Z M 25.378906 209.59375 C 25.179688 209.59375 24.988281 209.503906 24.867188 209.339844 C 21.101562 204.34375 19.324219 199.460938 19.582031 194.832031 C 19.800781 190.878906 22.359375 187.539062 27.183594 184.914062 C 27.390625 184.800781 27.648438 184.808594 27.847656 184.941406 C 28.042969 185.074219 28.152344 185.304688 28.128906 185.542969 C 27.941406 187.46875 27.855469 188.765625 27.753906 190.269531 C 27.578125 192.886719 27.363281 196.148438 26.5 204.472656 C 26.355469 205.871094 26.222656 207.09375 26.109375 208.171875 L 26.019531 209.019531 C 25.992188 209.285156 25.804688 209.5 25.550781 209.570312 C 25.496094 209.585938 25.4375 209.59375 25.378906 209.59375 Z M 55.445312 152.449219 C 48.382812 152.449219 40.039062 153.34375 31.90625 156.34375 C 31.890625 156.347656 31.875 156.351562 31.859375 156.359375 C 18.835938 160.019531 4.824219 173.910156 4.824219 195.761719 C 4.824219 210.710938 25.0625 223.871094 28.929688 226.25 L 30.4375 222.542969 C 30.503906 222.382812 30.632812 222.253906 30.792969 222.191406 C 30.953125 222.125 31.136719 222.128906 31.292969 222.199219 C 32.792969 222.863281 34.097656 223.121094 34.421875 223.175781 C 34.476562 223.179688 34.535156 223.1875 34.589844 223.207031 C 42.492188 225.640625 53.046875 224.960938 58.015625 223.699219 C 58.15625 223.664062 58.414062 223.597656 58.785156 223.503906 C 59.835938 223.226562 61.785156 222.722656 64.519531 222.035156 C 67.855469 221.191406 71.210938 220.367188 74.496094 219.578125 C 76.167969 218.808594 77.449219 217.757812 78.300781 216.457031 C 80.539062 213.039062 79.355469 208.535156 78.488281 205.242188 C 78.394531 204.878906 78.300781 204.523438 78.214844 204.1875 C 76.992188 199.320312 77.269531 196.953125 77.683594 193.375 C 77.964844 190.976562 78.3125 187.992188 78.304688 183.261719 C 78.304688 183.035156 78.429688 182.820312 78.628906 182.703125 C 78.824219 182.589844 79.070312 182.589844 79.269531 182.703125 C 86.515625 186.871094 92.992188 188.835938 98.53125 188.542969 C 111.609375 187.855469 126.496094 165.257812 131.988281 149.609375 L 130.988281 148.941406 C 130.839844 148.84375 130.738281 148.683594 130.707031 148.507812 C 130.679688 148.332031 130.726562 148.152344 130.835938 148.011719 C 132.492188 145.867188 133.484375 144.597656 133.78125 144.238281 C 135.273438 142.449219 133.40625 137.765625 132.5625 136.113281 C 132.4375 135.867188 132.480469 135.574219 132.667969 135.375 C 136.664062 131.191406 136.417969 129.863281 136.328125 129.640625 C 136.261719 129.480469 136.101562 129.402344 135.964844 129.363281 L 129.089844 135.460938 L 126.855469 145.140625 C 126.804688 145.34375 126.660156 145.511719 126.464844 145.59375 C 126.269531 145.667969 126.046875 145.648438 125.871094 145.527344 L 125.132812 145.035156 C 123.460938 148.472656 115.628906 163.296875 103.917969 165.019531 C 97.164062 166.011719 92.175781 163.105469 86.894531 160.03125 C 82.027344 157.199219 76.519531 153.988281 68.738281 153.390625 C 68.632812 153.433594 68.519531 153.445312 68.410156 153.429688 C 65.195312 152.9375 60.671875 152.449219 55.445312 152.449219 Z M 29.242188 227.832031 C 29.128906 227.832031 29.019531 227.800781 28.921875 227.746094 C 27.882812 227.148438 3.539062 212.949219 3.539062 195.761719 C 3.539062 185.015625 6.785156 175.332031 12.925781 167.753906 C 17.859375 161.664062 24.625 157.0625 31.484375 155.125 C 45.726562 149.886719 60.566406 150.960938 68.320312 152.113281 C 68.394531 152.09375 68.472656 152.085938 68.550781 152.089844 C 76.777344 152.652344 82.496094 155.980469 87.542969 158.921875 C 92.84375 162.007812 97.421875 164.675781 103.734375 163.746094 C 116.007812 161.941406 124.199219 144.007812 124.28125 143.824219 C 124.359375 143.652344 124.507812 143.523438 124.691406 143.46875 C 124.871094 143.417969 125.066406 143.449219 125.226562 143.554688 L 125.808594 143.945312 L 127.882812 134.972656 C 127.914062 134.84375 127.984375 134.722656 128.082031 134.636719 L 135.335938 128.199219 C 135.457031 128.09375 135.613281 128.035156 135.773438 128.035156 C 136.253906 128.042969 137.15625 128.285156 137.511719 129.140625 C 138.085938 130.511719 136.90625 132.738281 133.910156 135.9375 C 134.652344 137.511719 136.8125 142.609375 134.769531 145.058594 C 134.511719 145.375 133.652344 146.472656 132.273438 148.253906 L 133.117188 148.816406 C 133.359375 148.976562 133.460938 149.28125 133.367188 149.558594 C 128.699219 163.207031 113.707031 189.03125 98.597656 189.828125 C 93.0625 190.117188 86.667969 188.28125 79.585938 184.359375 C 79.542969 188.535156 79.222656 191.28125 78.960938 193.523438 C 78.546875 197.085938 78.296875 199.234375 79.464844 203.875 C 79.546875 204.207031 79.636719 204.554688 79.734375 204.917969 C 80.660156 208.441406 81.929688 213.265625 79.378906 217.160156 C 78.378906 218.6875 76.894531 219.902344 74.972656 220.777344 C 74.933594 220.792969 74.894531 220.804688 74.855469 220.816406 C 71.554688 221.605469 68.183594 222.433594 64.832031 223.28125 C 62.105469 223.96875 60.15625 224.472656 59.109375 224.746094 C 58.734375 224.84375 58.472656 224.910156 58.332031 224.945312 C 53.234375 226.242188 42.425781 226.9375 34.296875 224.460938 C 34.128906 224.433594 32.914062 224.234375 31.382812 223.628906 L 29.835938 227.429688 C 29.765625 227.601562 29.625 227.734375 29.449219 227.796875 C 29.382812 227.820312 29.3125 227.832031 29.242188 227.832031 " fill-opacity="1" fill-rule="nonzero"/><path fill="#000000" d="M 40.027344 93.476562 C 39.765625 93.476562 39.515625 93.316406 39.421875 93.054688 L 38.515625 90.574219 C 38.394531 90.238281 38.566406 89.871094 38.898438 89.75 C 39.234375 89.625 39.601562 89.796875 39.722656 90.132812 L 40.628906 92.613281 C 40.753906 92.949219 40.582031 93.316406 40.246094 93.4375 C 40.171875 93.464844 40.097656 93.476562 40.027344 93.476562 " fill-opacity="1" fill-rule="nonzero"/><path fill="#000000" d="M 43.199219 102.167969 C 42.9375 102.167969 42.691406 102.007812 42.59375 101.746094 L 41.6875 99.261719 C 41.566406 98.929688 41.738281 98.558594 42.070312 98.4375 C 42.40625 98.316406 42.773438 98.488281 42.894531 98.824219 L 43.804688 101.304688 C 43.925781 101.636719 43.753906 102.007812 43.421875 102.128906 C 43.347656 102.15625 43.273438 102.167969 43.199219 102.167969 " fill-opacity="1" fill-rule="nonzero"/><path fill="#000000" d="M 35.578125 98.625 C 35.316406 98.625 35.070312 98.464844 34.972656 98.207031 C 34.851562 97.871094 35.023438 97.503906 35.355469 97.382812 L 37.835938 96.46875 C 38.171875 96.347656 38.539062 96.519531 38.660156 96.855469 C 38.785156 97.1875 38.613281 97.558594 38.28125 97.679688 L 35.796875 98.589844 C 35.726562 98.613281 35.648438 98.625 35.578125 98.625 " fill-opacity="1" fill-rule="nonzero"/><path fill="#000000" d="M 44.261719 95.445312 C 44 95.445312 43.753906 95.285156 43.65625 95.023438 C 43.535156 94.691406 43.707031 94.320312 44.039062 94.199219 L 46.519531 93.289062 C 46.855469 93.167969 47.222656 93.339844 47.34375 93.671875 C 47.46875 94.003906 47.296875 94.375 46.960938 94.496094 L 44.480469 95.40625 C 44.410156 95.433594 44.332031 95.445312 44.261719 95.445312 " fill-opacity="1" fill-rule="nonzero"/><path fill="#000000" d="M 148.546875 350.765625 C 147.972656 350.765625 147.425781 350.96875 146.984375 351.351562 C 146.503906 351.769531 146.214844 352.351562 146.171875 352.988281 C 146.125 353.621094 146.332031 354.238281 146.75 354.71875 C 147.167969 355.203125 147.75 355.492188 148.386719 355.535156 C 149.023438 355.582031 149.636719 355.375 150.121094 354.957031 C 150.597656 354.539062 150.890625 353.957031 150.933594 353.320312 C 151.027344 352.007812 150.035156 350.863281 148.71875 350.773438 C 148.664062 350.765625 148.605469 350.765625 148.546875 350.765625 Z M 148.554688 356.828125 C 148.46875 356.828125 148.382812 356.824219 148.296875 356.820312 C 147.316406 356.75 146.421875 356.304688 145.78125 355.5625 C 145.136719 354.824219 144.820312 353.875 144.886719 352.898438 C 145.03125 350.875 146.789062 349.347656 148.808594 349.488281 C 150.832031 349.632812 152.359375 351.390625 152.21875 353.410156 C 152.082031 355.34375 150.464844 356.828125 148.554688 356.828125 " fill-opacity="1" fill-rule="nonzero"/><path fill="#000000" d="M 157.035156 353.226562 C 156.6875 353.226562 156.402344 352.949219 156.394531 352.597656 C 156.386719 352.242188 156.671875 351.949219 157.023438 351.941406 C 171.128906 351.679688 184.675781 348.363281 197.292969 342.085938 C 197.609375 341.929688 197.996094 342.054688 198.152344 342.375 C 198.3125 342.691406 198.183594 343.078125 197.863281 343.238281 C 185.078125 349.601562 171.34375 352.964844 157.050781 353.226562 C 157.046875 353.226562 157.039062 353.226562 157.035156 353.226562 " fill-opacity="1" fill-rule="nonzero"/><path fill="#000000" d="M 141.96875 347.089844 C 128.921875 347.089844 119.523438 345.636719 119.328125 345.605469 C 118.976562 345.550781 118.738281 345.21875 118.796875 344.867188 C 118.851562 344.519531 119.179688 344.277344 119.53125 344.335938 C 119.941406 344.398438 160.734375 350.699219 190.523438 336.730469 C 190.847656 336.578125 191.230469 336.71875 191.378906 337.039062 C 191.53125 337.359375 191.390625 337.742188 191.070312 337.894531 C 175.242188 345.316406 156.378906 347.089844 141.96875 347.089844 " fill-opacity="1" fill-rule="nonzero"/><path fill="#000000" d="M 227.0625 29.644531 C 226.996094 29.644531 226.925781 29.632812 226.855469 29.609375 C 220.761719 27.5625 214.394531 25.863281 207.933594 24.5625 C 182.824219 19.496094 156.691406 20.425781 132.359375 27.242188 C 132.019531 27.339844 131.664062 27.140625 131.566406 26.800781 C 131.472656 26.457031 131.671875 26.101562 132.011719 26.007812 C 156.539062 19.132812 182.878906 18.195312 208.1875 23.300781 C 214.699219 24.613281 221.121094 26.328125 227.265625 28.394531 C 227.605469 28.507812 227.785156 28.871094 227.671875 29.207031 C 227.582031 29.476562 227.332031 29.644531 227.0625 29.644531 " fill-opacity="1" fill-rule="nonzero"/><path fill="#000000" d="M 116.085938 21.398438 C 115.816406 21.398438 115.5625 21.226562 115.472656 20.953125 C 115.367188 20.613281 115.554688 20.25 115.890625 20.144531 C 147.347656 10.101562 182.777344 8.96875 215.65625 16.953125 C 216 17.035156 216.214844 17.382812 216.132812 17.730469 C 216.046875 18.074219 215.699219 18.285156 215.351562 18.203125 C 182.699219 10.277344 147.515625 11.398438 116.28125 21.367188 C 116.21875 21.390625 116.152344 21.398438 116.085938 21.398438 " fill-opacity="1" fill-rule="nonzero"/></svg>