<svg xmlns="http://www.w3.org/2000/svg" xmlns:xlink="http://www.w3.org/1999/xlink" width="500" zoomAndPan="magnify" viewBox="0 0 375 374.999991" height="500" preserveAspectRatio="xMidYMid meet" version="1.0"><path fill="#caddff" d="M 352.0625 75.8125 C 342.304688 52.148438 319.527344 40.941406 304.96875 33.78125 C 247.585938 5.554688 160.441406 8.800781 97.734375 60.183594 C 83.0625 72.207031 10.742188 135.203125 27.640625 220.578125 C 42.578125 296.054688 117.988281 340.476562 181.082031 346.335938 C 233.351562 351.1875 301.125 331.59375 325.222656 285.570312 C 340.371094 256.632812 322.140625 247.425781 334.507812 181.839844 C 345.210938 125.070312 364 104.757812 352.0625 75.8125 " fill-opacity="1" fill-rule="nonzero"/><path fill="#99b9ff" d="M 325.078125 187.96875 C 319.253906 188.453125 314.136719 184.121094 313.652344 178.289062 C 313.167969 172.457031 317.496094 167.335938 323.320312 166.847656 C 329.144531 166.363281 334.261719 170.695312 334.746094 176.527344 C 335.230469 182.359375 330.902344 187.480469 325.078125 187.96875 Z M 345.5625 177.691406 L 345.222656 173.589844 L 340.773438 172.964844 C 340.527344 172.03125 340.203125 171.128906 339.8125 170.265625 L 342.84375 166.957031 L 340.5 163.574219 L 336.335938 165.261719 C 335.660156 164.585938 334.929688 163.96875 334.152344 163.414062 L 335.125 159.023438 L 331.40625 157.265625 L 328.648438 160.808594 C 327.734375 160.5625 326.792969 160.394531 325.832031 160.304688 L 324.480469 156.015625 L 320.382812 156.359375 L 319.765625 160.808594 C 318.828125 161.058594 317.929688 161.382812 317.066406 161.777344 L 313.761719 158.742188 L 310.382812 161.089844 L 312.070312 165.253906 C 311.394531 165.933594 310.777344 166.664062 310.222656 167.441406 L 305.839844 166.46875 L 304.085938 170.191406 L 307.621094 172.953125 C 307.378906 173.867188 307.210938 174.8125 307.121094 175.777344 L 302.835938 177.125 L 303.175781 181.226562 L 307.625 181.851562 C 307.871094 182.785156 308.195312 183.691406 308.585938 184.550781 L 305.558594 187.859375 L 307.902344 191.242188 L 312.066406 189.550781 C 312.738281 190.230469 313.46875 190.847656 314.25 191.402344 L 313.273438 195.792969 L 316.992188 197.546875 L 319.75 194.007812 C 320.664062 194.253906 321.609375 194.421875 322.570312 194.511719 L 323.917969 198.800781 L 328.015625 198.457031 L 328.636719 194.003906 C 329.570312 193.757812 330.472656 193.433594 331.332031 193.039062 L 334.636719 196.074219 L 338.015625 193.726562 L 336.328125 189.558594 C 337.003906 188.882812 337.621094 188.152344 338.175781 187.375 L 342.5625 188.347656 L 344.3125 184.625 L 340.777344 181.863281 C 341.023438 180.949219 341.191406 180.003906 341.28125 179.039062 L 345.5625 177.691406 " fill-opacity="1" fill-rule="nonzero"/><path fill="#99b9ff" d="M 275.007812 175.027344 C 266.832031 176.648438 258.886719 171.328125 257.269531 163.140625 C 255.648438 154.953125 260.960938 147 269.140625 145.378906 C 277.316406 143.753906 285.261719 149.078125 286.878906 157.265625 C 288.5 165.453125 283.183594 173.40625 275.007812 175.027344 Z M 302.398438 157.179688 L 301.257812 151.417969 L 294.855469 151.25 C 294.355469 149.964844 293.753906 148.738281 293.058594 147.578125 L 296.824219 142.402344 L 292.964844 137.984375 L 287.332031 141.046875 C 286.265625 140.195312 285.132812 139.4375 283.941406 138.773438 L 284.621094 132.394531 L 279.070312 130.503906 L 275.726562 135.964844 C 274.394531 135.761719 273.03125 135.675781 271.648438 135.699219 L 269.054688 129.839844 L 263.300781 130.980469 L 263.132812 137.390625 C 261.847656 137.894531 260.621094 138.496094 259.464844 139.191406 L 254.296875 135.417969 L 249.882812 139.285156 L 252.941406 144.921875 C 252.09375 145.992188 251.332031 147.125 250.671875 148.316406 L 244.304688 147.640625 L 242.414062 153.199219 L 247.867188 156.542969 C 247.667969 157.878906 247.578125 159.246094 247.601562 160.625 L 241.75 163.226562 L 242.886719 168.984375 L 249.292969 169.152344 C 249.792969 170.441406 250.394531 171.667969 251.089844 172.828125 L 247.324219 178.003906 L 251.183594 182.421875 L 256.816406 179.363281 C 257.878906 180.210938 259.015625 180.972656 260.207031 181.632812 L 259.527344 188.011719 L 265.078125 189.902344 L 268.421875 184.441406 C 269.753906 184.644531 271.117188 184.730469 272.496094 184.707031 L 275.09375 190.566406 L 280.84375 189.425781 L 281.011719 183.015625 C 282.296875 182.511719 283.523438 181.910156 284.683594 181.214844 L 289.851562 184.984375 L 294.261719 181.121094 L 291.207031 175.480469 C 292.054688 174.414062 292.8125 173.28125 293.476562 172.085938 L 299.84375 172.765625 L 301.734375 167.207031 L 296.28125 163.863281 C 296.480469 162.523438 296.570312 161.160156 296.542969 159.78125 L 302.398438 157.179688 " fill-opacity="1" fill-rule="nonzero"/><path fill="#ffffff" d="M 32.554688 106.960938 C 32.632812 103.882812 33.296875 83.425781 40.539062 74.132812 C 41.546875 72.84375 43.113281 70.835938 45.777344 69.796875 C 51.101562 67.71875 53.894531 72.199219 58.035156 70.785156 C 63.5 68.921875 61.582031 60.121094 70.007812 51.835938 C 72.027344 49.847656 75.175781 46.753906 79.59375 46.316406 C 84.53125 45.832031 85.972656 49.160156 90.660156 49.136719 C 96.507812 49.105469 97.925781 43.914062 104.636719 40.816406 C 111.707031 37.550781 123.078125 37.335938 128.65625 44.328125 C 133.519531 50.417969 132.132812 59.675781 129.546875 65.367188 C 125.722656 73.769531 117.371094 78.574219 110.246094 79.5 C 100.007812 80.824219 92.832031 74.070312 90.378906 76.996094 C 88.09375 79.722656 94.214844 85.695312 91.515625 91.421875 C 89.632812 95.417969 84.117188 97.875 79.691406 97.324219 C 73.554688 96.554688 72.261719 90.359375 68.199219 90.917969 C 63.9375 91.503906 63.386719 98.59375 58.632812 103.339844 C 54.710938 107.257812 47.371094 110.140625 32.554688 106.960938 " fill-opacity="1" fill-rule="nonzero"/><path fill="#5479f7" d="M 43.597656 100.886719 C 43.433594 100.886719 43.273438 100.820312 43.15625 100.691406 C 42.929688 100.449219 42.945312 100.070312 43.191406 99.847656 C 58.632812 85.609375 75.859375 73.914062 94.390625 65.085938 C 100.378906 62.234375 106.585938 59.648438 112.84375 57.394531 C 113.152344 57.28125 113.496094 57.441406 113.609375 57.753906 C 113.71875 58.066406 113.558594 58.40625 113.246094 58.519531 C 107.027344 60.761719 100.859375 63.335938 94.90625 66.171875 C 76.484375 74.945312 59.355469 86.574219 44 100.726562 C 43.886719 100.832031 43.742188 100.886719 43.597656 100.886719 " fill-opacity="1" fill-rule="nonzero"/><path fill="#99b9ff" d="M 32.292969 115.335938 C 31.019531 81.488281 37.65625 69.539062 44.628906 65.242188 C 46.710938 63.957031 51.257812 61.835938 55.523438 56.734375 C 61.050781 50.121094 60.734375 44.921875 63.484375 38.703125 C 68.859375 26.535156 82.515625 18.261719 94.738281 16.507812 C 103.277344 15.28125 118.414062 16.191406 124.078125 25.964844 C 126.476562 30.097656 127.820312 36.925781 124.734375 40.246094 C 120.3125 45 110.558594 37.574219 102.332031 43.0625 C 97.84375 46.058594 99.449219 49.109375 94.65625 52.246094 C 87.105469 57.195312 79.609375 51.921875 76.039062 56.140625 C 72.585938 60.226562 78.796875 66.273438 75.351562 71.910156 C 71.421875 78.335938 60.898438 75.257812 57.839844 81.742188 C 56.019531 85.601562 59.375 87.488281 57.753906 92.171875 C 55.785156 97.867188 49.742188 98.183594 41.714844 104.632812 C 37.210938 108.246094 34.359375 112.230469 32.292969 115.335938 " fill-opacity="1" fill-rule="nonzero"/><path fill="#caddff" d="M 33.132812 112.851562 C 33.074219 112.851562 33.011719 112.84375 32.953125 112.828125 C 32.636719 112.726562 32.460938 112.390625 32.5625 112.074219 C 40.535156 86.640625 54.878906 61.949219 70.933594 46.03125 C 92.253906 24.894531 111.882812 24.054688 112.078125 24.046875 C 112.402344 24.023438 112.683594 24.296875 112.695312 24.628906 C 112.703125 24.957031 112.445312 25.234375 112.117188 25.242188 C 111.925781 25.25 92.738281 26.101562 71.777344 46.882812 C 55.851562 62.667969 41.621094 87.175781 33.703125 112.433594 C 33.625 112.6875 33.386719 112.851562 33.132812 112.851562 " fill-opacity="1" fill-rule="nonzero"/><path fill="#5479f7" d="M 33.496094 264.628906 L 228.648438 208.839844 C 233.550781 207.496094 237.222656 202.78125 237.222656 197.835938 L 239.898438 61.144531 C 239.898438 61.144531 235.449219 58.585938 232.929688 57.722656 C 231.648438 57.285156 230.167969 57.226562 228.632812 57.648438 L 34.058594 111.023438 C 29.15625 112.367188 25.484375 117.082031 25.484375 122.027344 L 25.484375 255.898438 C 25.484375 258.292969 26.578125 260.246094 28.269531 261.390625 C 29.828125 262.445312 33.496094 264.628906 33.496094 264.628906 " fill-opacity="1" fill-rule="nonzero"/><path fill="#99b9ff" d="M 39.46875 265.5625 L 234.410156 212.085938 C 239.320312 210.738281 243 206.015625 243 201.0625 L 243 66.933594 C 243 62.324219 238.960938 59.355469 234.394531 60.609375 L 39.449219 114.082031 C 34.539062 115.429688 30.859375 120.152344 30.859375 125.109375 L 30.859375 259.234375 C 30.859375 263.847656 34.902344 266.816406 39.46875 265.5625 " fill-opacity="1" fill-rule="nonzero"/><path fill="#ffffff" d="M 218.769531 201.035156 L 55.089844 246.078125 C 50.78125 247.265625 47.253906 244.707031 47.253906 240.390625 L 47.253906 135.136719 C 47.253906 130.820312 50.78125 126.320312 55.089844 125.132812 L 218.769531 80.089844 C 223.082031 78.902344 226.605469 81.464844 226.605469 85.78125 L 226.605469 191.035156 C 226.605469 195.347656 223.082031 199.851562 218.769531 201.035156 " fill-opacity="1" fill-rule="nonzero"/><path fill="#caddff" d="M 163.6875 127.726562 L 76.136719 150.191406 C 71.199219 151.457031 67.164062 148.453125 67.164062 143.511719 C 67.164062 138.570312 71.199219 133.492188 76.136719 132.226562 L 163.6875 109.761719 C 168.621094 108.496094 172.65625 111.5 172.65625 116.441406 C 172.65625 121.378906 168.621094 126.460938 163.6875 127.726562 " fill-opacity="1" fill-rule="nonzero"/><path fill="#caddff" d="M 201.425781 148.054688 L 67.164062 182.507812 L 67.164062 166.058594 L 201.425781 131.605469 L 201.425781 148.054688 " fill-opacity="1" fill-rule="nonzero"/><path fill="#99b9ff" d="M 83.589844 178.289062 L 67.164062 182.507812 L 67.164062 166.058594 L 83.589844 161.84375 L 83.589844 178.289062 " fill-opacity="1" fill-rule="nonzero"/><path fill="#ffffff" d="M 79.132812 168.011719 C 79.132812 170.089844 77.449219 172.203125 75.375 172.738281 C 73.304688 173.269531 71.621094 172.015625 71.621094 169.941406 C 71.621094 167.863281 73.304688 165.75 75.375 165.214844 C 77.449219 164.683594 79.132812 165.9375 79.132812 168.011719 " fill-opacity="1" fill-rule="nonzero"/><path fill="#ffffff" d="M 79.945312 177.960938 L 79.945312 176.515625 C 79.945312 174 77.890625 172.46875 75.375 173.113281 C 72.863281 173.757812 70.808594 176.34375 70.808594 178.859375 L 70.808594 180.304688 L 79.945312 177.960938 " fill-opacity="1" fill-rule="nonzero"/><path fill="#99b9ff" d="M 98.445312 166.257812 C 98.445312 168.675781 96.488281 171.136719 94.070312 171.757812 C 91.65625 172.375 89.695312 170.917969 89.695312 168.5 C 89.695312 166.082031 91.65625 163.617188 94.070312 163 C 96.488281 162.378906 98.445312 163.835938 98.445312 166.257812 " fill-opacity="1" fill-rule="nonzero"/><path fill="#99b9ff" d="M 109.902344 163.316406 C 109.902344 165.734375 107.945312 168.195312 105.53125 168.816406 C 103.113281 169.4375 101.15625 167.976562 101.15625 165.558594 C 101.15625 163.140625 103.113281 160.679688 105.53125 160.058594 C 107.945312 159.4375 109.902344 160.898438 109.902344 163.316406 " fill-opacity="1" fill-rule="nonzero"/><path fill="#99b9ff" d="M 121.476562 160.34375 C 121.476562 162.765625 119.519531 165.226562 117.101562 165.847656 C 114.6875 166.46875 112.726562 165.007812 112.726562 162.589844 C 112.726562 160.171875 114.6875 157.707031 117.101562 157.089844 C 119.519531 156.46875 121.476562 157.925781 121.476562 160.34375 " fill-opacity="1" fill-rule="nonzero"/><path fill="#99b9ff" d="M 133.273438 157.316406 C 133.273438 159.734375 131.316406 162.199219 128.902344 162.820312 C 126.488281 163.441406 124.527344 161.980469 124.527344 159.5625 C 124.527344 157.144531 126.488281 154.679688 128.902344 154.0625 C 131.316406 153.441406 133.273438 154.898438 133.273438 157.316406 " fill-opacity="1" fill-rule="nonzero"/><path fill="#99b9ff" d="M 145.417969 154.203125 C 145.417969 156.621094 143.457031 159.085938 141.042969 159.703125 C 138.625 160.324219 136.667969 158.867188 136.667969 156.449219 C 136.667969 154.027344 138.625 151.566406 141.042969 150.945312 C 143.457031 150.328125 145.417969 151.785156 145.417969 154.203125 " fill-opacity="1" fill-rule="nonzero"/><path fill="#caddff" d="M 201.425781 178.066406 L 67.164062 212.519531 L 67.164062 196.070312 L 201.425781 161.617188 L 201.425781 178.066406 " fill-opacity="1" fill-rule="nonzero"/><path fill="#000000" d="M 83.589844 208.304688 L 67.164062 212.519531 L 67.164062 196.070312 L 83.589844 191.855469 L 83.589844 208.304688 " fill-opacity="1" fill-rule="nonzero"/><path fill="#ffffff" d="M 72.972656 202.074219 L 73.042969 199.082031 C 73.070312 198.113281 73.929688 197.105469 75.003906 196.78125 C 76.191406 196.421875 77.167969 197.03125 77.136719 198.097656 L 77.136719 201.132812 C 77.128906 201.460938 78.449219 201.214844 78.457031 200.917969 L 78.378906 197.84375 C 78.429688 196.128906 76.910156 195.125 74.945312 195.714844 C 73.316406 196.195312 71.824219 197.863281 71.777344 199.429688 L 71.71875 202.445312 L 72.972656 202.074219 " fill-opacity="1" fill-rule="nonzero"/><path fill="#ffffff" d="M 75 208.96875 C 77.445312 208.34375 79.714844 206.21875 79.476562 203.246094 L 79.441406 199.878906 C 79.4375 199.617188 79.234375 199.464844 78.976562 199.53125 L 71.628906 201.417969 C 71.269531 201.511719 70.96875 201.894531 70.972656 202.257812 L 71.007812 205.996094 C 71.03125 208.238281 72.777344 209.542969 75 208.96875 " fill-opacity="1" fill-rule="nonzero"/><path fill="#000000" d="M 75.234375 206.480469 C 75.433594 206.429688 75.601562 206.214844 75.601562 206.015625 L 75.582031 203.03125 C 75.582031 202.851562 75.4375 202.742188 75.253906 202.789062 C 75.054688 202.839844 74.890625 203.054688 74.890625 203.253906 L 74.910156 206.234375 C 74.910156 206.421875 75.050781 206.527344 75.234375 206.480469 " fill-opacity="1" fill-rule="nonzero"/><path fill="#000000" d="M 74.015625 203.707031 C 73.976562 204.429688 74.511719 204.867188 75.214844 204.6875 C 75.917969 204.507812 76.519531 203.777344 76.558594 203.054688 C 76.597656 202.332031 76.0625 201.890625 75.359375 202.074219 C 74.660156 202.25 74.058594 202.984375 74.015625 203.707031 " fill-opacity="1" fill-rule="nonzero"/><path fill="#000000" d="M 99.507812 196.566406 C 99.507812 198.984375 97.546875 201.449219 95.132812 202.066406 C 92.71875 202.6875 90.757812 201.230469 90.757812 198.8125 C 90.757812 196.390625 92.71875 193.929688 95.132812 193.308594 C 97.546875 192.6875 99.507812 194.148438 99.507812 196.566406 " fill-opacity="1" fill-rule="nonzero"/><path fill="#000000" d="M 110.964844 193.625 C 110.964844 196.042969 109.007812 198.507812 106.589844 199.128906 C 104.175781 199.746094 102.21875 198.289062 102.21875 195.871094 C 102.21875 193.449219 104.175781 190.988281 106.589844 190.367188 C 109.007812 189.75 110.964844 191.207031 110.964844 193.625 " fill-opacity="1" fill-rule="nonzero"/><path fill="#000000" d="M 114.507812 198.148438 C 114.175781 198.148438 113.910156 197.882812 113.910156 197.550781 L 113.910156 186.742188 C 113.910156 186.410156 114.175781 186.140625 114.507812 186.140625 C 114.839844 186.140625 115.105469 186.410156 115.105469 186.742188 L 115.105469 197.550781 C 115.105469 197.882812 114.839844 198.148438 114.507812 198.148438 " fill-opacity="1" fill-rule="nonzero"/><path fill="#5479f7" d="M 152.964844 324.96875 L 353.078125 269.789062 C 354.644531 269.359375 355.527344 267.914062 355.507812 266.605469 C 355.492188 265.699219 355.417969 259.332031 355.417969 259.332031 L 249.609375 214.28125 C 244.308594 212.023438 237.449219 211.859375 231.394531 213.523438 L 33.808594 268.015625 C 32.621094 268.34375 31.601562 269.265625 31.128906 270.4375 L 30.8125 271.230469 C 30.8125 271.230469 30.980469 276.523438 30.910156 277.777344 C 30.859375 278.753906 31.292969 279.695312 32.3125 280.128906 L 135.464844 324.058594 C 140.765625 326.3125 146.910156 326.632812 152.964844 324.96875 " fill-opacity="1" fill-rule="nonzero"/><path fill="#ffffff" d="M 152.964844 317.871094 L 352.363281 262.84375 C 355.007812 262.117188 355.703125 258.5 353.386719 257.511719 L 250.789062 213.878906 C 245.488281 211.628906 239.34375 211.308594 233.285156 212.972656 L 33.890625 268 C 31.242188 268.726562 30.546875 272.34375 32.863281 273.328125 L 135.464844 316.960938 C 140.765625 319.214844 146.910156 319.535156 152.964844 317.871094 " fill-opacity="1" fill-rule="nonzero"/><path fill="#000000" d="M 152.964844 317.871094 L 152.96875 317.871094 Z M 240.90625 212.527344 C 238.441406 212.527344 235.925781 212.867188 233.445312 213.550781 L 34.050781 268.578125 C 32.773438 268.925781 32.125 270.070312 32.0625 270.980469 C 32.039062 271.378906 32.085938 272.347656 33.097656 272.777344 L 135.699219 316.410156 C 140.84375 318.597656 146.917969 318.914062 152.808594 317.292969 L 352.203125 262.265625 C 353.480469 261.914062 354.128906 260.773438 354.1875 259.859375 C 354.214844 259.464844 354.167969 258.496094 353.152344 258.066406 L 250.554688 214.433594 C 247.578125 213.167969 244.289062 212.527344 240.90625 212.527344 Z M 145.34375 319.511719 C 141.800781 319.511719 138.355469 318.84375 135.230469 317.511719 L 32.632812 273.878906 C 31.457031 273.378906 30.78125 272.238281 30.871094 270.902344 C 30.960938 269.535156 31.882812 267.929688 33.730469 267.421875 L 233.128906 212.394531 C 239.273438 210.703125 245.628906 211.039062 251.019531 213.332031 L 353.621094 256.960938 C 354.796875 257.460938 355.472656 258.605469 355.382812 259.941406 C 355.289062 261.304688 354.371094 262.914062 352.519531 263.421875 L 153.125 318.449219 C 153.121094 318.449219 153.121094 318.449219 153.121094 318.449219 C 150.539062 319.160156 147.917969 319.511719 145.34375 319.511719 " fill-opacity="1" fill-rule="nonzero"/><path fill="#99b9ff" d="M 113.925781 291.023438 L 286.828125 243.144531 C 289.21875 242.488281 289.847656 239.222656 287.753906 238.332031 L 247.101562 221.277344 C 242.3125 219.242188 236.761719 218.953125 231.292969 220.457031 L 58.390625 268.335938 C 56 268.992188 55.371094 272.257812 57.464844 273.148438 L 98.121094 290.203125 C 102.90625 292.238281 108.457031 292.527344 113.925781 291.023438 " fill-opacity="1" fill-rule="nonzero"/><path fill="#99b9ff" d="M 213.210938 290.421875 L 254.941406 278.953125 C 256.015625 278.660156 256.296875 277.1875 255.355469 276.789062 L 237.085938 269.125 C 234.933594 268.210938 232.441406 268.082031 229.984375 268.757812 L 188.253906 280.226562 C 187.179688 280.523438 186.898438 281.992188 187.835938 282.390625 L 206.105469 290.054688 C 208.257812 290.96875 210.75 291.097656 213.210938 290.421875 " fill-opacity="1" fill-rule="nonzero"/><path fill="#ffffff" d="M 127.566406 246.277344 L 122.367188 268.195312 L 128.796875 270.03125 L 139.988281 248.808594 L 127.566406 246.277344 " fill-opacity="1" fill-rule="nonzero"/><path fill="#000000" d="M 123.082031 267.777344 L 128.496094 269.324219 L 139.085938 249.234375 L 128.011719 246.976562 Z M 128.796875 270.632812 C 128.746094 270.632812 128.6875 270.625 128.632812 270.609375 L 122.203125 268.773438 C 121.894531 268.683594 121.710938 268.371094 121.785156 268.058594 L 126.984375 246.136719 C 127.058594 245.824219 127.367188 245.625 127.683594 245.6875 L 140.105469 248.222656 C 140.292969 248.257812 140.449219 248.382812 140.527344 248.550781 C 140.609375 248.722656 140.605469 248.921875 140.515625 249.085938 L 129.328125 270.3125 C 129.222656 270.511719 129.015625 270.632812 128.796875 270.632812 " fill-opacity="1" fill-rule="nonzero"/><path fill="#ffffff" d="M 99.339844 288.6875 C 107.558594 287.238281 123.363281 283.621094 134.019531 277.832031 C 135.25 277.164062 135.46875 275.75 135.433594 274.28125 C 135.355469 270.917969 134.703125 266.71875 133.925781 264.238281 C 133.6875 263.480469 132.804688 263.105469 132.175781 263.496094 L 129.289062 265.289062 L 129.058594 261.058594 C 129.058594 261.058594 125.527344 258.132812 119.179688 261.375 C 119.179688 261.375 106.347656 274.40625 99.171875 282.050781 C 95.902344 285.53125 96.757812 289.144531 99.339844 288.6875 " fill-opacity="1" fill-rule="nonzero"/><path fill="#000000" d="M 119.539062 261.867188 C 118.515625 262.90625 106.425781 275.199219 99.609375 282.460938 C 97.742188 284.445312 97.320312 286.507812 97.867188 287.519531 C 98.199219 288.140625 98.796875 288.179688 99.238281 288.097656 C 109.703125 286.253906 124.261719 282.449219 133.734375 277.308594 C 134.535156 276.871094 134.875 275.941406 134.835938 274.296875 C 134.761719 271.074219 134.136719 266.917969 133.355469 264.417969 C 133.292969 264.214844 133.136719 264.050781 132.9375 263.976562 C 132.84375 263.945312 132.660156 263.898438 132.488281 264.007812 L 129.605469 265.796875 C 129.425781 265.90625 129.199219 265.917969 129.011719 265.820312 C 128.824219 265.722656 128.703125 265.53125 128.691406 265.320312 L 128.476562 261.378906 C 127.6875 260.867188 124.617188 259.304688 119.539062 261.867188 Z M 98.917969 289.328125 C 98.007812 289.328125 97.242188 288.886719 96.8125 288.089844 C 96.0625 286.699219 96.367188 284.164062 98.734375 281.640625 C 105.835938 274.082031 118.628906 261.085938 118.757812 260.957031 C 118.800781 260.910156 118.851562 260.875 118.910156 260.84375 C 125.527344 257.457031 129.28125 260.472656 129.441406 260.597656 C 129.566406 260.707031 129.644531 260.863281 129.65625 261.027344 L 129.832031 264.246094 L 131.859375 262.988281 C 132.300781 262.714844 132.84375 262.664062 133.355469 262.855469 C 133.894531 263.058594 134.324219 263.507812 134.496094 264.058594 C 135.308594 266.652344 135.953125 270.945312 136.03125 274.265625 C 136.0625 275.605469 135.917969 277.484375 134.304688 278.359375 C 124.707031 283.570312 110.003906 287.417969 99.445312 289.277344 L 99.339844 288.6875 L 99.445312 289.277344 C 99.265625 289.3125 99.089844 289.328125 98.917969 289.328125 " fill-opacity="1" fill-rule="nonzero"/><path fill="#000000" d="M 99.414062 285.378906 C 99.136719 285.378906 98.886719 285.183594 98.828125 284.902344 C 98.761719 284.578125 98.96875 284.261719 99.292969 284.195312 C 99.429688 284.164062 112.972656 281.359375 124.644531 277.167969 C 124.953125 277.058594 125.296875 277.21875 125.40625 277.53125 C 125.519531 277.84375 125.359375 278.1875 125.046875 278.296875 C 113.292969 282.519531 99.671875 285.339844 99.535156 285.367188 C 99.492188 285.375 99.453125 285.378906 99.414062 285.378906 " fill-opacity="1" fill-rule="nonzero"/><path fill="#ffffff" d="M 138.167969 273.609375 L 121.28125 280.863281 L 127.289062 289.933594 C 127.289062 289.933594 139.777344 287 146.160156 285.230469 L 138.167969 273.609375 " fill-opacity="1" fill-rule="nonzero"/><path fill="#000000" d="M 122.175781 281.128906 L 127.558594 289.253906 C 129.65625 288.757812 139.390625 286.449219 145.191406 284.875 L 137.953125 274.355469 Z M 127.289062 290.53125 C 127.09375 290.53125 126.902344 290.433594 126.792969 290.265625 L 120.78125 281.195312 C 120.683594 281.046875 120.65625 280.859375 120.707031 280.691406 C 120.757812 280.519531 120.882812 280.382812 121.046875 280.3125 L 137.933594 273.058594 C 138.195312 272.945312 138.5 273.035156 138.660156 273.269531 L 146.652344 284.890625 C 146.761719 285.050781 146.789062 285.253906 146.722656 285.433594 C 146.65625 285.617188 146.507812 285.753906 146.320312 285.808594 C 140 287.558594 127.550781 290.484375 127.425781 290.515625 C 127.382812 290.527344 127.335938 290.53125 127.289062 290.53125 " fill-opacity="1" fill-rule="nonzero"/><path fill="#ffffff" d="M 93.464844 261.582031 C 93.464844 261.582031 95.285156 257.128906 109.152344 266.890625 C 115.527344 271.375 122.5 274.550781 126.140625 276.0625 C 127.632812 276.679688 128.621094 278.191406 128.539062 279.753906 L 128.242188 285.691406 L 132.171875 286.5625 C 133.804688 286.921875 134.761719 288.753906 134.0625 290.179688 C 132.785156 292.773438 129.519531 298.457031 124.371094 299.136719 L 93.464844 261.582031 " fill-opacity="1" fill-rule="nonzero"/><path fill="#000000" d="M 94.238281 261.578125 L 124.617188 298.492188 C 129.078125 297.695312 132.101562 292.804688 133.523438 289.914062 C 133.761719 289.433594 133.75 288.851562 133.496094 288.316406 C 133.210938 287.722656 132.667969 287.285156 132.042969 287.144531 L 128.109375 286.277344 C 127.828125 286.210938 127.628906 285.953125 127.644531 285.660156 L 127.941406 279.722656 C 128.007812 278.414062 127.171875 277.136719 125.910156 276.613281 C 122.285156 275.109375 115.242188 271.910156 108.808594 267.378906 C 100.058594 261.222656 96.355469 260.90625 94.925781 261.265625 C 94.597656 261.347656 94.378906 261.46875 94.238281 261.578125 Z M 124.371094 299.734375 C 124.191406 299.734375 124.023438 299.65625 123.910156 299.515625 L 93.003906 261.960938 C 92.863281 261.789062 92.828125 261.558594 92.910156 261.351562 C 92.945312 261.265625 93.292969 260.496094 94.496094 260.140625 C 96.464844 259.566406 100.664062 260.183594 109.496094 266.398438 C 115.835938 270.863281 122.789062 274.019531 126.367188 275.507812 C 128.089844 276.222656 129.230469 277.980469 129.136719 279.78125 L 128.863281 285.214844 L 132.300781 285.976562 C 133.28125 286.195312 134.128906 286.875 134.574219 287.796875 C 134.988281 288.664062 135 289.628906 134.597656 290.441406 C 133.035156 293.617188 129.636719 299.042969 124.449219 299.730469 C 124.421875 299.730469 124.394531 299.734375 124.371094 299.734375 " fill-opacity="1" fill-rule="nonzero"/><path fill="#ffffff" d="M 93.464844 261.582031 C 93.464844 261.582031 90.824219 262.121094 92.695312 266.527344 C 94.566406 270.929688 111.996094 292.867188 118.433594 297.140625 C 125.09375 301.558594 125.496094 298.28125 124.992188 296.3125 C 124.484375 294.34375 99.117188 257.769531 93.464844 261.582031 " fill-opacity="1" fill-rule="nonzero"/><path fill="#000000" d="M 93.464844 261.582031 L 93.46875 261.582031 Z M 93.59375 262.164062 C 93.558594 262.171875 93.089844 262.296875 92.820312 262.832031 C 92.5625 263.347656 92.425781 264.363281 93.246094 266.292969 C 95.171875 270.828125 112.601562 292.550781 118.765625 296.640625 C 122.546875 299.152344 123.789062 298.828125 124.148438 298.570312 C 124.652344 298.214844 124.605469 297.210938 124.410156 296.460938 C 124.171875 295.679688 119.203125 288.105469 112.613281 279.597656 C 104.757812 269.460938 98.632812 263.242188 95.371094 262.085938 C 94.679688 261.84375 94.148438 261.839844 93.796875 262.078125 C 93.734375 262.121094 93.664062 262.148438 93.59375 262.164062 Z M 123.488281 299.941406 C 122.203125 299.941406 120.421875 299.179688 118.101562 297.640625 C 111.308594 293.128906 93.984375 271.085938 92.144531 266.761719 C 91.332031 264.847656 91.207031 263.332031 91.773438 262.253906 C 92.214844 261.410156 92.925781 261.117188 93.21875 261.027344 C 93.917969 260.601562 94.820312 260.597656 95.902344 261.007812 C 104.554688 264.300781 125.160156 294.578125 125.570312 296.164062 C 125.960938 297.679688 125.6875 298.945312 124.839844 299.546875 C 124.472656 299.808594 124.023438 299.941406 123.488281 299.941406 " fill-opacity="1" fill-rule="nonzero"/><path fill="#000000" d="M 124.109375 250.058594 C 129.617188 251.378906 135.128906 252.699219 140.636719 254.019531 C 143.707031 248.027344 148.265625 239.875 154.636719 230.753906 C 163.039062 218.722656 165.375 218.207031 166.71875 218.15625 C 177.011719 217.769531 180.507812 242.6875 197.523438 250.203125 C 215.453125 258.117188 242 243.914062 241.605469 231.742188 C 241.324219 223.042969 227.546875 223.796875 203.535156 200.488281 C 194.289062 191.515625 186.65625 182.011719 173.550781 179.023438 C 167.34375 177.609375 162.980469 178.359375 161.753906 178.59375 C 157.28125 179.460938 150.175781 182.175781 141.960938 194.585938 C 129.21875 213.832031 125.378906 238.957031 124.109375 250.058594 " fill-opacity="1" fill-rule="nonzero"/><path fill="#000000" d="M 235.386719 224.332031 C 234.195312 224.828125 195.617188 241.09375 180.476562 248.046875 C 165.375 254.988281 133.859375 273.199219 133.859375 273.199219 L 142.417969 287.503906 C 142.417969 287.503906 168.105469 282.128906 179.320312 277.535156 C 190.539062 272.941406 198.316406 266.425781 210.398438 266.042969 C 222.480469 265.664062 266.71875 261.589844 275.054688 249.175781 C 283.390625 236.761719 277.886719 231.847656 277.886719 231.847656 L 235.386719 224.332031 " fill-opacity="1" fill-rule="nonzero"/><path fill="#5479f7" d="M 196.253906 212.726562 C 193.167969 211.050781 191.890625 207.230469 193.460938 204.386719 C 198.425781 195.402344 208.207031 177.085938 210.398438 168.460938 C 213.363281 156.785156 221.414062 150.929688 228.203125 150.765625 C 234.207031 150.621094 260.683594 154.097656 276.890625 157.285156 C 279.980469 157.894531 286.1875 162.90625 286.050781 166 C 285.355469 181.554688 279.046875 223.882812 273.953125 231.894531 C 267.761719 241.632812 239.265625 229.269531 229.382812 227.640625 C 222.253906 226.46875 205.199219 217.582031 196.253906 212.726562 " fill-opacity="1" fill-rule="nonzero"/><path fill="#000000" d="M 221.558594 221.066406 C 221.539062 221.066406 221.519531 221.066406 221.503906 221.066406 C 221.171875 221.035156 220.933594 220.746094 220.960938 220.414062 C 222.101562 207.964844 220.550781 194.039062 219.054688 184.546875 C 219.003906 184.21875 219.226562 183.910156 219.550781 183.859375 C 219.878906 183.808594 220.183594 184.03125 220.234375 184.355469 C 221.746094 193.917969 223.304688 207.953125 222.152344 220.523438 C 222.125 220.835938 221.863281 221.066406 221.558594 221.066406 " fill-opacity="1" fill-rule="nonzero"/><path fill="#ffffff" d="M 175.003906 237.714844 L 222.839844 249.652344 C 224.003906 249.941406 225.195312 249.835938 226.222656 249.359375 L 245.066406 241.191406 C 245.621094 240.929688 245.046875 237.949219 244.417969 237.777344 L 209.617188 228.234375 L 175.003906 237.714844 " fill-opacity="1" fill-rule="nonzero"/><path fill="#000000" d="M 244.15625 238.304688 Z M 177.367188 237.6875 L 222.984375 249.070312 C 224.011719 249.324219 225.070312 249.234375 225.96875 248.816406 L 244.679688 240.707031 C 244.78125 240.203125 244.46875 238.683594 244.183594 238.335938 L 209.617188 228.855469 Z M 224.140625 250.410156 C 223.660156 250.410156 223.171875 250.351562 222.695312 250.230469 L 174.859375 238.296875 C 174.59375 238.230469 174.40625 237.992188 174.40625 237.722656 C 174.402344 237.449219 174.582031 237.207031 174.84375 237.136719 L 209.460938 227.65625 C 209.5625 227.628906 209.671875 227.628906 209.777344 227.65625 L 244.578125 237.203125 C 245.644531 237.492188 245.863281 239.921875 245.867188 240.027344 C 245.949219 240.964844 245.769531 241.523438 245.320312 241.734375 L 226.460938 249.910156 C 225.75 250.242188 224.953125 250.410156 224.140625 250.410156 " fill-opacity="1" fill-rule="nonzero"/><path fill="#ffffff" d="M 222.839844 249.652344 L 220.25 212.71875 C 220.0625 210.929688 218.679688 209.394531 216.917969 209.007812 L 172.53125 199.304688 C 169.945312 198.742188 167.808594 200.84375 168.316406 203.445312 L 174.503906 235.160156 C 174.804688 236.695312 176.011719 237.964844 177.523438 238.34375 L 222.839844 249.652344 " fill-opacity="1" fill-rule="nonzero"/><path fill="#000000" d="M 171.6875 199.8125 C 170.925781 199.8125 170.222656 200.089844 169.6875 200.609375 C 168.984375 201.296875 168.699219 202.289062 168.90625 203.332031 L 175.089844 235.046875 C 175.34375 236.351562 176.378906 237.441406 177.667969 237.761719 L 222.1875 248.871094 L 219.652344 212.761719 C 219.496094 211.261719 218.289062 209.921875 216.789062 209.59375 L 172.402344 199.890625 C 172.160156 199.839844 171.921875 199.8125 171.6875 199.8125 Z M 222.839844 250.25 C 222.792969 250.25 222.742188 250.246094 222.695312 250.230469 L 177.378906 238.925781 C 175.648438 238.496094 174.257812 237.027344 173.917969 235.277344 L 167.730469 203.5625 C 167.449219 202.117188 167.855469 200.730469 168.851562 199.753906 C 169.839844 198.785156 171.230469 198.40625 172.65625 198.722656 L 217.042969 208.421875 C 219.066406 208.863281 220.628906 210.605469 220.84375 212.65625 L 223.4375 249.609375 C 223.449219 249.800781 223.371094 249.984375 223.222656 250.109375 C 223.117188 250.203125 222.976562 250.25 222.839844 250.25 " fill-opacity="1" fill-rule="nonzero"/><path fill="#ffffff" d="M 255 149.800781 L 249.640625 135.550781 C 250.660156 135.320312 251.390625 134.195312 251.335938 132.789062 C 251.273438 131.167969 250.195312 129.792969 248.929688 129.722656 C 248.578125 129.703125 248.246094 129.789062 247.957031 129.957031 C 245.984375 124.253906 242 121.96875 238.3125 122.863281 C 234.558594 123.777344 229.472656 126.082031 234.476562 133.546875 C 234.894531 134.175781 235.050781 137.316406 235.105469 138.996094 C 235.125 139.582031 235.628906 140.074219 236.207031 140.078125 L 237.613281 140.09375 C 238.945312 142.078125 238.949219 144.828125 241.085938 145.65625 C 242.394531 146.167969 243.171875 145.648438 243.632812 145.671875 L 244.046875 147.515625 C 244.484375 149.453125 243.367188 151.253906 241.496094 151.613281 L 236.808594 152.519531 L 236.929688 152.632812 C 241.945312 157.359375 248.867188 159.195312 255 157.425781 L 262.386719 155.292969 L 257.960938 153.085938 C 256.601562 152.40625 255.53125 151.21875 255 149.800781 " fill-opacity="1" fill-rule="nonzero"/><path fill="#000000" d="M 238.101562 152.878906 C 242.886719 156.953125 249.207031 158.472656 254.832031 156.851562 L 260.746094 155.144531 L 257.695312 153.621094 C 256.207031 152.878906 255.019531 151.5625 254.4375 150.011719 L 249.082031 135.757812 C 249.019531 135.597656 249.03125 135.414062 249.113281 135.265625 C 249.199219 135.113281 249.34375 135 249.511719 134.964844 C 250.265625 134.796875 250.777344 133.890625 250.738281 132.8125 C 250.6875 131.515625 249.84375 130.375 248.894531 130.320312 C 248.671875 130.304688 248.453125 130.359375 248.25 130.476562 C 248.097656 130.5625 247.910156 130.578125 247.746094 130.515625 C 247.578125 130.453125 247.449219 130.320312 247.390625 130.152344 C 245.667969 125.175781 242.160156 122.542969 238.453125 123.445312 C 235.535156 124.15625 233.828125 125.25 233.226562 126.796875 C 232.605469 128.398438 233.191406 130.558594 234.96875 133.210938 C 235.113281 133.425781 235.546875 134.070312 235.703125 138.976562 C 235.710938 139.242188 235.949219 139.476562 236.214844 139.480469 L 237.621094 139.496094 C 237.816406 139.496094 238.003906 139.597656 238.109375 139.761719 C 238.628906 140.535156 238.949219 141.382812 239.257812 142.203125 C 239.753906 143.523438 240.183594 144.664062 241.300781 145.097656 C 242.0625 145.394531 242.566406 145.273438 243.011719 145.164062 C 243.234375 145.113281 243.441406 145.0625 243.660156 145.074219 C 243.929688 145.089844 244.15625 145.28125 244.214844 145.539062 L 244.632812 147.386719 C 244.882812 148.511719 244.695312 149.632812 244.097656 150.542969 C 243.53125 151.414062 242.648438 152.003906 241.613281 152.203125 Z M 250.265625 158.6875 C 245.355469 158.6875 240.386719 156.710938 236.519531 153.070312 L 236.398438 152.957031 C 236.234375 152.800781 236.171875 152.570312 236.234375 152.351562 C 236.296875 152.136719 236.476562 151.972656 236.695312 151.929688 L 241.386719 151.027344 C 242.101562 150.886719 242.710938 150.484375 243.097656 149.890625 C 243.515625 149.25 243.644531 148.453125 243.464844 147.648438 L 243.171875 146.359375 C 242.671875 146.476562 241.890625 146.613281 240.867188 146.214844 C 239.253906 145.589844 238.6875 144.082031 238.136719 142.625 C 237.890625 141.964844 237.636719 141.289062 237.28125 140.691406 L 236.203125 140.675781 C 235.296875 140.667969 234.535156 139.921875 234.507812 139.015625 C 234.394531 135.445312 234.121094 134.105469 233.976562 133.878906 C 231.96875 130.882812 231.339844 128.351562 232.113281 126.363281 C 232.863281 124.425781 234.847656 123.089844 238.171875 122.28125 C 242.367188 121.261719 246.296875 123.957031 248.308594 129.179688 C 248.523438 129.128906 248.742188 129.109375 248.964844 129.125 C 250.554688 129.214844 251.855469 130.8125 251.933594 132.765625 C 251.988281 134.164062 251.382812 135.359375 250.410156 135.894531 L 255.558594 149.589844 C 256.035156 150.859375 257.007812 151.9375 258.226562 152.546875 L 262.652344 154.757812 C 262.875 154.867188 263.003906 155.101562 262.984375 155.351562 C 262.960938 155.59375 262.789062 155.800781 262.554688 155.871094 L 255.164062 158 C 253.570312 158.460938 251.917969 158.6875 250.265625 158.6875 " fill-opacity="1" fill-rule="nonzero"/><path fill="#000000" d="M 231.851562 130.527344 C 228.996094 131.007812 226.386719 128.832031 225.957031 128.480469 C 223.925781 126.808594 221.472656 123.386719 222.410156 120.585938 C 223.234375 118.128906 226.246094 117.417969 227.746094 117.066406 C 232.144531 116.023438 233.476562 118.351562 237.757812 117.457031 C 241.5625 116.660156 242.949219 114.308594 244.867188 115.324219 C 246.34375 116.105469 246.277344 117.894531 248.050781 118.625 C 249.585938 119.261719 250.304688 118.191406 251.605469 118.59375 C 254.574219 119.503906 256.859375 126.898438 254.507812 131.328125 C 253.648438 132.949219 252.179688 134.15625 251.699219 133.871094 C 251.175781 133.5625 252.144531 131.632812 251.230469 130.546875 C 250.574219 129.765625 249.210938 129.761719 247.957031 129.957031 C 247.710938 132.730469 246.175781 133.710938 246.027344 133.695312 C 245.675781 133.667969 246.042969 130.71875 244.234375 128.214844 C 243.34375 126.984375 241.4375 125.171875 239.585938 125.339844 C 237.941406 125.488281 237.886719 127.054688 234.761719 129.125 C 233.570312 129.914062 232.90625 130.351562 231.851562 130.527344 " fill-opacity="1" fill-rule="nonzero"/><path fill="#000000" d="M 244.066406 145.972656 C 243.859375 145.972656 243.664062 145.871094 243.550781 145.679688 C 243.378906 145.398438 243.472656 145.03125 243.753906 144.859375 C 247.640625 142.515625 247.472656 139.902344 247.464844 139.792969 C 247.4375 139.464844 247.675781 139.175781 248.003906 139.144531 C 248.332031 139.117188 248.621094 139.347656 248.65625 139.675781 C 248.667969 139.816406 248.949219 143.125 244.371094 145.886719 C 244.277344 145.945312 244.167969 145.972656 244.066406 145.972656 " fill-opacity="1" fill-rule="nonzero"/><path fill="#5479f7" d="M 246.109375 232.683594 L 247.925781 242.136719 C 247.925781 242.136719 270.992188 243.035156 281.78125 229.792969 C 292.574219 216.554688 303.125 180.308594 282.558594 160.605469 L 264.9375 182.089844 C 264.9375 182.089844 270.34375 220.828125 246.109375 232.683594 " fill-opacity="1" fill-rule="nonzero"/><path fill="#ffffff" d="M 226.453125 234.734375 L 236.460938 231.039062 L 246.109375 232.683594 L 247.558594 240.230469 C 247.558594 240.230469 244.03125 242.199219 241.609375 241.082031 C 239.1875 239.964844 236.425781 238.984375 236.425781 238.984375 C 236.425781 238.984375 231.621094 243.285156 226.722656 239.132812 L 232.414062 236.027344 C 232.414062 236.027344 229.140625 236.230469 226.769531 236.078125 C 226.019531 236.027344 225.773438 234.988281 226.453125 234.734375 " fill-opacity="1" fill-rule="nonzero"/><path fill="#000000" d="M 226.453125 234.734375 L 226.460938 234.734375 Z M 236.425781 238.386719 C 236.492188 238.386719 236.558594 238.398438 236.625 238.421875 C 236.652344 238.429688 239.441406 239.421875 241.859375 240.539062 C 243.546875 241.3125 245.960938 240.335938 246.886719 239.898438 L 245.601562 233.203125 L 236.519531 231.65625 L 226.664062 235.296875 C 226.652344 235.300781 226.648438 235.304688 226.648438 235.304688 C 226.652344 235.304688 226.652344 235.355469 226.683594 235.410156 C 226.722656 235.46875 226.773438 235.476562 226.808594 235.480469 C 229.113281 235.628906 232.347656 235.429688 232.378906 235.429688 C 232.652344 235.40625 232.914062 235.589844 232.992188 235.859375 C 233.066406 236.128906 232.945312 236.417969 232.703125 236.550781 L 227.816406 239.214844 C 232.003906 242.058594 235.855469 238.691406 236.023438 238.539062 C 236.136719 238.4375 236.28125 238.386719 236.425781 238.386719 Z M 243.324219 242.019531 C 242.652344 242.019531 241.980469 241.910156 241.359375 241.625 C 239.457031 240.75 237.320312 239.949219 236.535156 239.660156 C 235.371094 240.539062 230.867188 243.429688 226.335938 239.589844 C 226.183594 239.460938 226.105469 239.269531 226.125 239.070312 C 226.148438 238.875 226.261719 238.699219 226.433594 238.605469 L 229.886719 236.722656 C 228.882812 236.742188 227.734375 236.738281 226.730469 236.675781 C 226.082031 236.632812 225.566406 236.152344 225.472656 235.503906 C 225.386719 234.910156 225.699219 234.375 226.246094 234.171875 L 236.253906 230.480469 C 236.351562 230.441406 236.457031 230.433594 236.5625 230.453125 L 246.207031 232.09375 C 246.453125 232.136719 246.648438 232.324219 246.695312 232.570312 L 248.148438 240.117188 C 248.195312 240.371094 248.074219 240.625 247.851562 240.753906 C 247.730469 240.820312 245.542969 242.019531 243.324219 242.019531 " fill-opacity="1" fill-rule="nonzero"/><path fill="#000000" d="M 248.980469 231.664062 C 248.730469 231.664062 248.496094 231.503906 248.414062 231.253906 C 248.308594 230.941406 248.476562 230.601562 248.789062 230.496094 C 248.925781 230.449219 262.179688 225.609375 264.632812 197.28125 C 264.660156 196.949219 264.953125 196.707031 265.28125 196.734375 C 265.609375 196.765625 265.851562 197.054688 265.824219 197.382812 C 263.296875 226.585938 249.746094 231.4375 249.171875 231.628906 C 249.105469 231.652344 249.042969 231.664062 248.980469 231.664062 " fill-opacity="1" fill-rule="nonzero"/><path fill="#5479f7" d="M 349.25 289.167969 C 349.265625 309.875 332.480469 326.679688 311.761719 326.695312 C 291.042969 326.714844 274.230469 309.945312 274.210938 289.234375 C 274.191406 268.523438 290.976562 251.722656 311.695312 251.703125 C 332.417969 251.6875 349.226562 268.460938 349.25 289.167969 " fill-opacity="1" fill-rule="nonzero"/><path fill="#99b9ff" d="M 353.023438 288.222656 C 353.042969 308.929688 336.257812 325.734375 315.535156 325.753906 C 294.816406 325.769531 278.003906 308.996094 277.984375 288.289062 C 277.964844 267.582031 294.75 250.777344 315.472656 250.757812 C 336.191406 250.742188 353.003906 267.511719 353.023438 288.222656 " fill-opacity="1" fill-rule="nonzero"/><path fill="#ffffff" d="M 305.789062 282.117188 L 306.066406 269.832031 C 306.1875 265.863281 309.730469 262.601562 314.171875 262.398438 C 319.070312 262.175781 323.117188 265.730469 322.984375 270.105469 L 322.984375 282.648438 C 322.941406 283.976562 328.40625 284.375 328.429688 283.152344 L 328.105469 270.363281 C 328.324219 263.335938 322.050781 257.59375 313.917969 257.925781 L 313.917969 257.929688 C 307.207031 258.203125 301.035156 263.5 300.835938 269.921875 L 300.601562 282.328125 L 305.789062 282.117188 " fill-opacity="1" fill-rule="nonzero"/><path fill="#ffffff" d="M 314.152344 316.054688 C 324.257812 316.054688 333.632812 309.683594 332.640625 297.140625 L 332.5 283.199219 C 332.488281 282.117188 331.652344 281.273438 330.582031 281.273438 L 300.226562 281.273438 C 298.742188 281.273438 297.496094 282.546875 297.511719 284.050781 L 297.667969 299.53125 C 297.761719 308.832031 304.96875 316.054688 314.152344 316.054688 " fill-opacity="1" fill-rule="nonzero"/><path fill="#99b9ff" d="M 315.121094 306.015625 C 315.945312 306.015625 316.636719 305.3125 316.632812 304.476562 L 316.554688 292.144531 C 316.550781 291.378906 315.960938 290.785156 315.210938 290.785156 C 314.386719 290.785156 313.695312 291.492188 313.699219 292.324219 L 313.777344 304.664062 C 313.78125 305.421875 314.371094 306.015625 315.121094 306.015625 " fill-opacity="1" fill-rule="nonzero"/><path fill="#99b9ff" d="M 310.09375 293.265625 C 309.925781 296.207031 312.140625 298.59375 315.042969 298.59375 C 317.941406 298.59375 320.425781 296.207031 320.59375 293.265625 C 320.761719 290.320312 318.546875 287.9375 315.644531 287.9375 C 312.746094 287.9375 310.261719 290.320312 310.09375 293.265625 " fill-opacity="1" fill-rule="nonzero"/><path fill="#000000" d="M 306.542969 223.179688 C 306.316406 223.179688 306.097656 223.050781 305.996094 222.832031 C 305.859375 222.53125 305.992188 222.175781 306.289062 222.039062 L 314.71875 218.152344 C 315.019531 218.011719 315.375 218.144531 315.511719 218.445312 C 315.652344 218.746094 315.519531 219.097656 315.21875 219.238281 L 306.789062 223.125 C 306.710938 223.164062 306.625 223.179688 306.542969 223.179688 " fill-opacity="1" fill-rule="nonzero"/><path fill="#000000" d="M 305.703125 230.257812 C 305.476562 230.257812 305.261719 230.132812 305.160156 229.914062 C 305.023438 229.613281 305.152344 229.257812 305.453125 229.117188 L 313.738281 225.296875 C 314.039062 225.15625 314.394531 225.289062 314.53125 225.589844 C 314.667969 225.890625 314.539062 226.246094 314.238281 226.382812 L 305.953125 230.207031 C 305.871094 230.242188 305.785156 230.257812 305.703125 230.257812 " fill-opacity="1" fill-rule="nonzero"/><path fill="#000000" d="M 292.214844 223.59375 C 291.988281 223.59375 291.773438 223.460938 291.671875 223.242188 C 291.535156 222.945312 291.664062 222.585938 291.964844 222.449219 L 307.621094 215.230469 C 307.917969 215.089844 308.273438 215.222656 308.414062 215.523438 C 308.550781 215.824219 308.417969 216.179688 308.121094 216.316406 L 292.464844 223.535156 C 292.382812 223.574219 292.296875 223.59375 292.214844 223.59375 " fill-opacity="1" fill-rule="nonzero"/><path fill="#99b9ff" d="M 239.449219 308.777344 C 239.449219 307.039062 240.851562 305.632812 242.585938 305.632812 C 244.316406 305.632812 245.71875 307.039062 245.71875 308.777344 C 245.71875 310.511719 244.316406 311.921875 242.585938 311.921875 C 240.851562 311.921875 239.449219 310.511719 239.449219 308.777344 " fill-opacity="1" fill-rule="nonzero"/><path fill="#99b9ff" d="M 260.628906 313.878906 L 260.632812 313.878906 Z M 263.699219 311.960938 C 263.207031 311.960938 262.722656 312.105469 262.300781 312.382812 C 261.738281 312.761719 261.351562 313.332031 261.214844 314 C 260.9375 315.375 261.824219 316.71875 263.195312 317 C 264.5625 317.277344 265.90625 316.386719 266.1875 315.011719 C 266.46875 313.636719 265.578125 312.292969 264.207031 312.011719 C 264.039062 311.976562 263.867188 311.960938 263.699219 311.960938 Z M 263.699219 318.246094 C 263.453125 318.246094 263.207031 318.222656 262.957031 318.171875 C 260.941406 317.761719 259.632812 315.78125 260.042969 313.757812 C 260.242188 312.78125 260.8125 311.9375 261.640625 311.386719 C 262.472656 310.832031 263.46875 310.636719 264.445312 310.839844 C 266.464844 311.25 267.769531 313.226562 267.359375 315.25 C 267 317.019531 265.441406 318.246094 263.699219 318.246094 " fill-opacity="1" fill-rule="nonzero"/><path fill="#000000" d="M 238.53125 331.101562 C 238.378906 331.101562 238.222656 331.042969 238.109375 330.925781 L 236.757812 329.570312 C 236.523438 329.335938 236.523438 328.960938 236.757812 328.726562 C 236.992188 328.492188 237.367188 328.492188 237.605469 328.726562 L 238.953125 330.082031 C 239.1875 330.3125 239.1875 330.695312 238.953125 330.925781 C 238.835938 331.042969 238.683594 331.101562 238.53125 331.101562 " fill-opacity="1" fill-rule="nonzero"/><path fill="#000000" d="M 243.261719 335.84375 C 243.105469 335.84375 242.953125 335.785156 242.835938 335.667969 L 241.484375 334.3125 C 241.253906 334.078125 241.253906 333.699219 241.484375 333.464844 C 241.71875 333.234375 242.097656 333.230469 242.332031 333.464844 L 243.683594 334.820312 C 243.917969 335.054688 243.917969 335.433594 243.683594 335.667969 C 243.566406 335.785156 243.414062 335.84375 243.261719 335.84375 " fill-opacity="1" fill-rule="nonzero"/><path fill="#000000" d="M 237.179688 335.84375 C 237.027344 335.84375 236.875 335.785156 236.757812 335.667969 C 236.523438 335.433594 236.523438 335.054688 236.757812 334.820312 L 238.109375 333.464844 C 238.339844 333.230469 238.71875 333.234375 238.953125 333.464844 C 239.1875 333.699219 239.1875 334.078125 238.953125 334.3125 L 237.605469 335.667969 C 237.484375 335.785156 237.332031 335.84375 237.179688 335.84375 " fill-opacity="1" fill-rule="nonzero"/><path fill="#000000" d="M 241.90625 331.101562 C 241.757812 331.101562 241.601562 331.042969 241.484375 330.925781 C 241.253906 330.695312 241.253906 330.3125 241.484375 330.082031 L 242.835938 328.726562 C 243.070312 328.492188 243.449219 328.492188 243.683594 328.726562 C 243.917969 328.960938 243.917969 329.335938 243.683594 329.570312 L 242.332031 330.925781 C 242.214844 331.042969 242.0625 331.101562 241.90625 331.101562 " fill-opacity="1" fill-rule="nonzero"/><path fill="#000000" d="M 190.519531 44.308594 C 189.355469 44.308594 188.410156 45.257812 188.410156 46.417969 C 188.410156 47.585938 189.355469 48.53125 190.519531 48.53125 C 191.675781 48.53125 192.621094 47.585938 192.621094 46.417969 C 192.621094 45.257812 191.675781 44.308594 190.519531 44.308594 Z M 190.519531 49.726562 C 188.695312 49.726562 187.214844 48.242188 187.214844 46.417969 C 187.214844 44.597656 188.695312 43.109375 190.519531 43.109375 C 192.339844 43.109375 193.820312 44.597656 193.820312 46.417969 C 193.820312 48.242188 192.339844 49.726562 190.519531 49.726562 " fill-opacity="1" fill-rule="nonzero"/><path fill="#99b9ff" d="M 169.960938 63.300781 C 169.960938 64.914062 168.65625 66.222656 167.042969 66.222656 C 165.433594 66.222656 164.128906 64.914062 164.128906 63.300781 C 164.128906 61.6875 165.433594 60.378906 167.042969 60.378906 C 168.65625 60.378906 169.960938 61.6875 169.960938 63.300781 " fill-opacity="1" fill-rule="nonzero"/><path fill="#000000" d="M 174.75 31.289062 C 174.597656 31.289062 174.445312 31.230469 174.328125 31.113281 L 173.089844 29.871094 C 172.855469 29.636719 172.855469 29.257812 173.089844 29.023438 C 173.324219 28.792969 173.703125 28.792969 173.933594 29.023438 L 175.175781 30.265625 C 175.40625 30.5 175.40625 30.878906 175.175781 31.113281 C 175.054688 31.230469 174.902344 31.289062 174.75 31.289062 " fill-opacity="1" fill-rule="nonzero"/><path fill="#000000" d="M 179.085938 35.632812 C 178.933594 35.632812 178.777344 35.574219 178.664062 35.457031 L 177.425781 34.214844 C 177.191406 33.984375 177.191406 33.601562 177.425781 33.371094 C 177.65625 33.136719 178.035156 33.136719 178.269531 33.371094 L 179.507812 34.609375 C 179.742188 34.847656 179.742188 35.222656 179.507812 35.457031 C 179.390625 35.574219 179.238281 35.632812 179.085938 35.632812 " fill-opacity="1" fill-rule="nonzero"/><path fill="#000000" d="M 173.511719 35.632812 C 173.359375 35.632812 173.207031 35.574219 173.089844 35.457031 C 172.855469 35.222656 172.855469 34.847656 173.089844 34.609375 L 174.328125 33.371094 C 174.5625 33.136719 174.941406 33.136719 175.175781 33.371094 C 175.40625 33.601562 175.40625 33.984375 175.175781 34.214844 L 173.933594 35.457031 C 173.820312 35.574219 173.664062 35.632812 173.511719 35.632812 " fill-opacity="1" fill-rule="nonzero"/><path fill="#000000" d="M 177.847656 31.289062 C 177.695312 31.289062 177.542969 31.230469 177.425781 31.113281 C 177.191406 30.878906 177.191406 30.5 177.425781 30.265625 L 178.664062 29.023438 C 178.898438 28.792969 179.277344 28.792969 179.507812 29.023438 C 179.742188 29.257812 179.742188 29.636719 179.507812 29.871094 L 178.269531 31.113281 C 178.15625 31.230469 178 31.289062 177.847656 31.289062 " fill-opacity="1" fill-rule="nonzero"/><path fill="#99b9ff" d="M 341.664062 124.480469 C 341.605469 124.480469 341.542969 124.472656 341.484375 124.453125 C 341.167969 124.355469 340.992188 124.019531 341.09375 123.703125 C 343.117188 117.265625 344.1875 110.582031 344.285156 103.835938 C 344.382812 96.960938 343.460938 90.121094 341.546875 83.515625 C 341.457031 83.199219 341.636719 82.867188 341.957031 82.773438 C 342.273438 82.679688 342.605469 82.863281 342.695312 83.179688 C 344.644531 89.902344 345.578125 96.859375 345.480469 103.851562 C 345.382812 110.71875 344.292969 117.515625 342.234375 124.0625 C 342.152344 124.316406 341.917969 124.480469 341.664062 124.480469 " fill-opacity="1" fill-rule="nonzero"/><path fill="#99b9ff" d="M 348.101562 114.808594 C 348.054688 114.808594 348.003906 114.804688 347.953125 114.789062 C 347.636719 114.707031 347.441406 114.382812 347.523438 114.0625 C 349.441406 106.511719 349.753906 98.476562 348.433594 90.820312 C 347.1875 83.601562 344.574219 76.789062 340.660156 70.574219 C 340.484375 70.296875 340.566406 69.925781 340.84375 69.75 C 341.125 69.574219 341.496094 69.65625 341.671875 69.9375 C 345.667969 76.28125 348.339844 83.242188 349.613281 90.617188 C 350.960938 98.433594 350.640625 106.644531 348.683594 114.359375 C 348.613281 114.628906 348.371094 114.808594 348.101562 114.808594 " fill-opacity="1" fill-rule="nonzero"/><path fill="#000000" d="M 245.960938 111.671875 C 245.632812 111.671875 245.367188 111.40625 245.363281 111.078125 L 245.296875 101.425781 C 245.292969 101.09375 245.558594 100.824219 245.890625 100.824219 C 245.894531 100.824219 245.894531 100.824219 245.894531 100.824219 C 246.222656 100.824219 246.492188 101.089844 246.492188 101.417969 L 246.5625 111.070312 C 246.5625 111.402344 246.296875 111.671875 245.96875 111.671875 C 245.96875 111.671875 245.964844 111.671875 245.960938 111.671875 " fill-opacity="1" fill-rule="nonzero"/><path fill="#000000" d="M 250.210938 115.113281 C 250.171875 115.113281 250.136719 115.109375 250.097656 115.101562 C 249.773438 115.039062 249.558594 114.726562 249.621094 114.402344 L 253.023438 96.492188 C 253.085938 96.167969 253.398438 95.957031 253.722656 96.015625 C 254.046875 96.074219 254.261719 96.390625 254.199219 96.714844 L 250.796875 114.625 C 250.742188 114.914062 250.492188 115.113281 250.210938 115.113281 " fill-opacity="1" fill-rule="nonzero"/><path fill="#000000" d="M 256.21875 112.378906 C 256.140625 112.378906 256.066406 112.363281 255.988281 112.332031 C 255.683594 112.207031 255.539062 111.859375 255.664062 111.550781 L 257.832031 106.277344 C 257.957031 105.972656 258.308594 105.828125 258.613281 105.953125 C 258.917969 106.078125 259.066406 106.429688 258.9375 106.734375 L 256.773438 112.007812 C 256.675781 112.238281 256.453125 112.378906 256.21875 112.378906 " fill-opacity="1" fill-rule="nonzero"/><path fill="#99b9ff" d="M 304.070312 100.011719 C 303.832031 99.667969 303.832031 99.21875 304.070312 98.871094 C 304.398438 98.394531 304.578125 97.878906 304.578125 97.339844 C 304.578125 94.839844 300.710938 92.8125 295.941406 92.8125 C 291.167969 92.8125 287.300781 94.839844 287.300781 97.339844 C 287.300781 97.878906 287.480469 98.394531 287.808594 98.871094 C 288.042969 99.21875 288.042969 99.667969 287.808594 100.011719 C 287.480469 100.492188 287.300781 101.007812 287.300781 101.546875 C 287.300781 102.730469 288.171875 103.808594 289.59375 104.617188 C 289.5625 104.753906 289.546875 104.890625 289.546875 105.027344 C 289.546875 106.878906 292.410156 108.378906 295.941406 108.378906 C 299.46875 108.378906 302.332031 106.878906 302.332031 105.027344 C 302.332031 104.890625 302.3125 104.753906 302.285156 104.617188 C 303.707031 103.808594 304.578125 102.730469 304.578125 101.546875 C 304.578125 101.007812 304.398438 100.492188 304.070312 100.011719 " fill-opacity="1" fill-rule="nonzero"/><path fill="#000000" d="M 295.941406 93.410156 C 291.578125 93.410156 287.898438 95.210938 287.898438 97.339844 C 287.898438 97.746094 288.035156 98.144531 288.300781 98.535156 C 288.679688 99.085938 288.679688 99.800781 288.300781 100.351562 C 288.035156 100.742188 287.898438 101.140625 287.898438 101.546875 C 287.898438 102.460938 288.605469 103.367188 289.890625 104.097656 C 290.121094 104.226562 290.238281 104.496094 290.179688 104.753906 C 290.15625 104.851562 290.144531 104.941406 290.144531 105.027344 C 290.144531 106.328125 292.523438 107.78125 295.941406 107.78125 C 299.355469 107.78125 301.734375 106.328125 301.734375 105.027344 C 301.734375 104.941406 301.722656 104.851562 301.699219 104.753906 C 301.640625 104.496094 301.757812 104.226562 301.988281 104.097656 C 303.273438 103.367188 303.980469 102.460938 303.980469 101.546875 C 303.980469 101.140625 303.847656 100.742188 303.578125 100.351562 C 303.199219 99.800781 303.199219 99.085938 303.578125 98.535156 C 303.847656 98.144531 303.980469 97.746094 303.980469 97.339844 C 303.980469 95.210938 300.296875 93.410156 295.941406 93.410156 Z M 295.941406 108.976562 C 292.019531 108.976562 288.949219 107.242188 288.949219 105.027344 C 288.949219 104.996094 288.949219 104.960938 288.949219 104.929688 C 287.496094 104.003906 286.703125 102.816406 286.703125 101.546875 C 286.703125 100.898438 286.910156 100.265625 287.316406 99.671875 C 287.414062 99.53125 287.414062 99.355469 287.316406 99.210938 C 286.910156 98.621094 286.703125 97.988281 286.703125 97.339844 C 286.703125 94.464844 290.761719 92.214844 295.941406 92.214844 C 301.117188 92.214844 305.175781 94.464844 305.175781 97.339844 C 305.175781 97.988281 304.972656 98.621094 304.5625 99.210938 C 304.464844 99.355469 304.464844 99.53125 304.5625 99.671875 C 304.972656 100.265625 305.175781 100.898438 305.175781 101.546875 C 305.175781 102.816406 304.382812 104.003906 302.929688 104.929688 C 302.929688 104.960938 302.929688 104.996094 302.929688 105.027344 C 302.929688 107.242188 299.859375 108.976562 295.941406 108.976562 " fill-opacity="1" fill-rule="nonzero"/><path fill="#ffffff" d="M 319.390625 62.636719 C 319.390625 49.8125 308.730469 38.878906 295.925781 38.878906 C 283.148438 38.878906 272.605469 49.515625 272.523438 62.3125 C 272.480469 68.828125 275.617188 74.890625 279.898438 79.132812 C 282.984375 82.191406 285.234375 85.992188 286.328125 90.203125 L 286.382812 90.40625 C 287.441406 94.492188 291.125 97.34375 295.339844 97.34375 L 297.070312 97.34375 C 301.285156 97.34375 304.96875 94.492188 306.03125 90.40625 L 306.0625 90.285156 C 307.148438 86.105469 309.304688 82.265625 312.394531 79.25 C 316.707031 75.035156 319.390625 69.148438 319.390625 62.636719 " fill-opacity="1" fill-rule="nonzero"/><path fill="#000000" d="M 295.925781 39.476562 C 283.433594 39.476562 273.203125 49.722656 273.121094 62.316406 C 273.082031 68.160156 275.703125 74.132812 280.316406 78.707031 C 283.527344 81.886719 285.804688 85.808594 286.90625 90.054688 L 286.960938 90.257812 C 287.949219 94.074219 291.398438 96.746094 295.339844 96.746094 L 297.070312 96.746094 C 301.011719 96.746094 304.457031 94.074219 305.453125 90.257812 L 305.484375 90.132812 C 306.613281 85.777344 308.859375 81.867188 311.976562 78.820312 C 316.371094 74.527344 318.792969 68.777344 318.792969 62.636719 C 318.792969 50.082031 308.320312 39.476562 295.925781 39.476562 Z M 297.070312 97.941406 L 295.339844 97.941406 C 290.855469 97.941406 286.929688 94.90625 285.800781 90.554688 L 285.75 90.355469 C 284.703125 86.320312 282.53125 82.585938 279.476562 79.554688 C 274.636719 74.761719 271.882812 68.472656 271.925781 62.308594 C 271.964844 55.953125 274.496094 49.9375 279.042969 45.375 C 283.601562 40.796875 289.597656 38.277344 295.925781 38.277344 C 308.96875 38.277344 319.988281 49.433594 319.988281 62.636719 C 319.988281 69.105469 317.4375 75.15625 312.8125 79.679688 C 309.851562 82.570312 307.71875 86.289062 306.640625 90.433594 L 306.609375 90.554688 C 305.480469 94.90625 301.558594 97.941406 297.070312 97.941406 " fill-opacity="1" fill-rule="nonzero"/><path fill="#000000" d="M 299.59375 58.707031 C 299.3125 58.976562 299.058594 59.308594 298.832031 59.703125 C 297.210938 62.566406 297.726562 64.078125 298.175781 64.722656 C 298.636719 65.382812 299.429688 65.722656 300.199219 65.59375 C 300.804688 65.492188 301.238281 65.117188 301.398438 64.5625 C 301.980469 62.511719 301.015625 60.144531 299.59375 58.707031 Z M 292.683594 58.910156 C 291.992188 59.726562 291.433594 60.824219 291.023438 62.175781 C 290.558594 63.699219 290.699219 64.980469 291.40625 65.691406 C 291.855469 66.140625 292.476562 66.300781 293.078125 66.121094 C 293.824219 65.894531 294.367188 65.195312 294.566406 64.203125 C 294.867188 62.710938 294.066406 59.816406 292.683594 58.910156 Z M 297.242188 94.617188 C 296.910156 94.617188 296.644531 94.347656 296.648438 94.015625 C 296.699219 81.488281 303.996094 67.355469 305.460938 64.652344 C 306.3125 63.074219 306.640625 61.789062 306.457031 60.726562 C 306.191406 59.152344 305.394531 58.140625 304.085938 57.722656 C 303.429688 57.511719 301.929688 57.328125 300.578125 58.007812 C 302.1875 59.71875 303.253906 62.417969 302.546875 64.890625 C 302.261719 65.894531 301.457031 66.59375 300.398438 66.773438 C 299.175781 66.976562 297.921875 66.445312 297.199219 65.410156 C 296.585938 64.535156 295.847656 62.550781 297.792969 59.113281 C 298.046875 58.660156 298.339844 58.277344 298.660156 57.949219 C 298.660156 57.949219 298.65625 57.945312 298.652344 57.945312 C 297.710938 57.347656 296.160156 56.914062 294.632812 57.484375 C 294.253906 57.625 293.894531 57.824219 293.558594 58.074219 C 295.265625 59.421875 296.105469 62.617188 295.738281 64.4375 C 295.449219 65.878906 294.605469 66.910156 293.421875 67.265625 C 292.410156 67.574219 291.3125 67.292969 290.558594 66.535156 C 289.53125 65.503906 289.28125 63.789062 289.878906 61.828125 C 290.320312 60.375 290.890625 59.285156 291.503906 58.46875 C 289.066406 57.890625 287.382812 59.054688 286.914062 60.203125 C 286.351562 61.601562 286.558594 63.265625 287.457031 64.546875 C 289.601562 67.617188 294.617188 76.574219 294.863281 93.441406 C 294.867188 93.773438 294.601562 94.046875 294.273438 94.050781 C 294.269531 94.050781 294.265625 94.050781 294.261719 94.050781 C 293.9375 94.050781 293.667969 93.789062 293.664062 93.460938 C 293.425781 76.925781 288.558594 68.214844 286.476562 65.234375 C 285.332031 63.597656 285.082031 61.550781 285.808594 59.753906 C 286.605469 57.785156 289.253906 56.449219 292.398438 57.484375 C 293.027344 56.914062 293.664062 56.566406 294.214844 56.363281 C 296.148438 55.640625 298.105469 56.183594 299.289062 56.933594 C 299.40625 57.003906 299.523438 57.085938 299.636719 57.167969 C 301.257812 56.160156 303.210938 56.183594 304.449219 56.582031 C 306.191406 57.140625 307.292969 58.503906 307.636719 60.523438 C 307.867188 61.882812 307.507812 63.375 306.511719 65.222656 C 305.074219 67.882812 297.890625 81.78125 297.84375 94.023438 C 297.839844 94.351562 297.574219 94.617188 297.242188 94.617188 " fill-opacity="1" fill-rule="nonzero"/><path fill="#000000" d="M 306.679688 77.800781 C 306.480469 77.800781 306.285156 77.703125 306.171875 77.523438 C 305.996094 77.242188 306.082031 76.871094 306.363281 76.695312 C 310.472656 74.105469 313.433594 69.902344 314.480469 65.160156 C 314.550781 64.839844 314.871094 64.636719 315.191406 64.707031 C 315.515625 64.777344 315.71875 65.097656 315.648438 65.421875 C 314.53125 70.472656 311.378906 74.953125 306.996094 77.710938 C 306.898438 77.773438 306.789062 77.800781 306.679688 77.800781 " fill-opacity="1" fill-rule="nonzero"/><path fill="#000000" d="M 281.445312 75.109375 C 281.28125 75.109375 281.117188 75.042969 281 74.910156 C 277.835938 71.34375 276.089844 66.75 276.089844 61.976562 C 276.089844 54.527344 280.230469 47.839844 286.894531 44.527344 C 287.191406 44.378906 287.550781 44.5 287.695312 44.796875 C 287.84375 45.09375 287.722656 45.453125 287.425781 45.597656 C 281.171875 48.710938 277.285156 54.984375 277.285156 61.976562 C 277.285156 66.457031 278.921875 70.769531 281.894531 74.113281 C 282.113281 74.363281 282.09375 74.738281 281.84375 74.960938 C 281.730469 75.0625 281.585938 75.109375 281.445312 75.109375 " fill-opacity="1" fill-rule="nonzero"/><path fill="#ffffff" d="M 297.417969 100.359375 C 297.128906 100.359375 296.878906 100.15625 296.828125 99.863281 C 296.769531 99.539062 296.988281 99.226562 297.316406 99.171875 C 298.097656 99.035156 298.859375 98.867188 299.570312 98.667969 C 299.886719 98.574219 300.21875 98.761719 300.308594 99.078125 C 300.398438 99.398438 300.210938 99.726562 299.894531 99.820312 C 299.140625 100.03125 298.339844 100.210938 297.515625 100.355469 C 297.484375 100.359375 297.449219 100.359375 297.417969 100.359375 " fill-opacity="1" fill-rule="nonzero"/><path fill="#ffffff" d="M 293.773438 104.808594 C 293.445312 104.808594 293.179688 104.542969 293.175781 104.214844 C 293.171875 103.882812 293.4375 103.613281 293.769531 103.609375 C 295.53125 103.597656 298.113281 103.351562 300.417969 102.273438 C 300.71875 102.132812 301.074219 102.261719 301.214844 102.558594 C 301.351562 102.859375 301.226562 103.214844 300.925781 103.359375 C 298.425781 104.527344 295.660156 104.792969 293.78125 104.808594 C 293.777344 104.808594 293.777344 104.808594 293.773438 104.808594 " fill-opacity="1" fill-rule="nonzero"/><path fill="#000000" d="M 296.054688 33.886719 C 296.050781 33.886719 296.050781 33.886719 296.042969 33.886719 C 295.714844 33.882812 295.449219 33.605469 295.457031 33.277344 L 295.671875 23.023438 C 295.679688 22.695312 295.945312 22.4375 296.269531 22.4375 C 296.273438 22.4375 296.277344 22.4375 296.28125 22.4375 C 296.613281 22.445312 296.875 22.71875 296.867188 23.046875 L 296.652344 33.300781 C 296.648438 33.628906 296.382812 33.886719 296.054688 33.886719 " fill-opacity="1" fill-rule="nonzero"/><path fill="#000000" d="M 266.378906 54.777344 L 259.839844 54.769531 C 259.507812 54.769531 259.242188 54.503906 259.242188 54.171875 C 259.242188 53.839844 259.507812 53.574219 259.839844 53.574219 L 266.378906 53.578125 C 266.707031 53.578125 266.976562 53.847656 266.976562 54.175781 C 266.976562 54.507812 266.707031 54.777344 266.378906 54.777344 " fill-opacity="1" fill-rule="nonzero"/><path fill="#000000" d="M 272.410156 41.085938 C 272.3125 41.085938 272.214844 41.0625 272.125 41.015625 L 264.75 37.011719 C 264.460938 36.855469 264.355469 36.492188 264.511719 36.199219 C 264.667969 35.910156 265.03125 35.800781 265.324219 35.960938 L 272.695312 39.960938 C 272.988281 40.121094 273.09375 40.484375 272.9375 40.773438 C 272.828125 40.972656 272.621094 41.085938 272.410156 41.085938 " fill-opacity="1" fill-rule="nonzero"/><path fill="#000000" d="M 325.503906 54.777344 C 325.171875 54.777344 324.90625 54.507812 324.902344 54.175781 C 324.902344 53.847656 325.171875 53.578125 325.5 53.578125 L 332.039062 53.574219 C 332.371094 53.574219 332.636719 53.839844 332.636719 54.171875 C 332.640625 54.503906 332.371094 54.769531 332.042969 54.769531 L 325.503906 54.777344 " fill-opacity="1" fill-rule="nonzero"/><path fill="#000000" d="M 319.46875 41.085938 C 319.257812 41.085938 319.050781 40.972656 318.941406 40.773438 C 318.785156 40.484375 318.894531 40.121094 319.183594 39.960938 L 326.558594 35.960938 C 326.847656 35.800781 327.210938 35.910156 327.367188 36.199219 C 327.527344 36.492188 327.417969 36.855469 327.128906 37.011719 L 319.753906 41.015625 C 319.664062 41.0625 319.566406 41.085938 319.46875 41.085938 " fill-opacity="1" fill-rule="nonzero"/></svg>