<svg xmlns="http://www.w3.org/2000/svg" xmlns:xlink="http://www.w3.org/1999/xlink" width="500" zoomAndPan="magnify" viewBox="0 0 375 374.999991" height="500" preserveAspectRatio="xMidYMid meet" version="1.0"><path fill="#d7dadd" d="M 352.324219 75.773438 C 342.558594 52.121094 319.761719 40.921875 305.191406 33.765625 C 247.765625 5.554688 160.554688 8.800781 97.800781 60.15625 C 83.117188 72.171875 10.742188 135.132812 27.652344 220.464844 C 42.601562 295.898438 118.070312 340.296875 181.210938 346.148438 C 233.523438 351.003906 301.347656 331.414062 325.460938 285.417969 C 340.625 256.496094 322.378906 247.292969 334.753906 181.742188 C 345.464844 125.003906 364.269531 104.703125 352.324219 75.773438 " fill-opacity="1" fill-rule="nonzero"/><path fill="#6f788b" d="M 325.320312 187.871094 C 319.488281 188.355469 314.371094 184.023438 313.886719 178.195312 C 313.398438 172.367188 317.730469 167.246094 323.558594 166.761719 C 329.386719 166.273438 334.507812 170.605469 334.992188 176.433594 C 335.480469 182.265625 331.148438 187.382812 325.320312 187.871094 Z M 345.820312 177.597656 L 345.476562 173.496094 L 341.027344 172.875 C 340.777344 171.941406 340.457031 171.039062 340.0625 170.175781 L 343.097656 166.867188 L 340.75 163.488281 L 336.582031 165.175781 C 335.910156 164.5 335.175781 163.882812 334.398438 163.328125 L 335.371094 158.941406 L 331.652344 157.183594 L 328.890625 160.722656 C 327.976562 160.476562 327.035156 160.308594 326.070312 160.21875 L 324.71875 155.933594 L 320.621094 156.277344 L 320 160.726562 C 319.0625 160.976562 318.164062 161.296875 317.300781 161.691406 L 313.992188 158.65625 L 310.613281 161.003906 L 312.300781 165.167969 C 311.625 165.84375 311.007812 166.578125 310.449219 167.355469 L 306.0625 166.378906 L 304.3125 170.101562 L 307.847656 172.863281 C 307.605469 173.777344 307.4375 174.71875 307.34375 175.683594 L 303.058594 177.03125 L 303.398438 181.132812 L 307.851562 181.753906 C 308.097656 182.6875 308.421875 183.59375 308.816406 184.453125 L 305.78125 187.761719 L 308.128906 191.140625 L 312.292969 189.453125 C 312.96875 190.128906 313.699219 190.746094 314.480469 191.300781 L 313.503906 195.6875 L 317.226562 197.445312 L 319.984375 193.90625 C 320.902344 194.152344 321.84375 194.320312 322.808594 194.410156 L 324.15625 198.695312 L 328.257812 198.355469 L 328.878906 193.902344 C 329.816406 193.652344 330.714844 193.332031 331.578125 192.9375 L 334.886719 195.972656 L 338.265625 193.625 L 336.578125 189.460938 C 337.253906 188.785156 337.871094 188.054688 338.425781 187.273438 L 342.816406 188.25 L 344.566406 184.527344 L 341.027344 181.765625 C 341.273438 180.851562 341.441406 179.910156 341.53125 178.945312 L 345.820312 177.597656 " fill-opacity="1" fill-rule="nonzero"/><path fill="#6f788b" d="M 275.210938 174.9375 C 267.027344 176.558594 259.078125 171.238281 257.457031 163.054688 C 255.832031 154.871094 261.152344 146.921875 269.335938 145.300781 C 277.523438 143.679688 285.46875 149 287.089844 157.183594 C 288.710938 165.367188 283.390625 173.316406 275.210938 174.9375 Z M 302.621094 157.097656 L 301.480469 151.339844 L 295.074219 151.171875 C 294.570312 149.886719 293.972656 148.660156 293.273438 147.5 L 297.042969 142.328125 L 293.179688 137.914062 L 287.542969 140.972656 C 286.476562 140.121094 285.34375 139.363281 284.148438 138.703125 L 284.828125 132.328125 L 279.273438 130.4375 L 275.929688 135.894531 C 274.59375 135.691406 273.230469 135.605469 271.847656 135.628906 L 269.25 129.773438 L 263.496094 130.914062 L 263.328125 137.320312 C 262.039062 137.820312 260.8125 138.425781 259.65625 139.117188 L 254.484375 135.347656 L 250.066406 139.214844 L 253.125 144.847656 C 252.277344 145.914062 251.515625 147.050781 250.855469 148.242188 L 244.480469 147.5625 L 242.589844 153.117188 L 248.046875 156.460938 C 247.847656 157.796875 247.757812 159.164062 247.785156 160.542969 L 241.925781 163.140625 L 243.066406 168.898438 L 249.472656 169.066406 C 249.976562 170.351562 250.578125 171.578125 251.273438 172.738281 L 247.503906 177.910156 L 251.367188 182.324219 L 257.003906 179.265625 C 258.070312 180.117188 259.203125 180.875 260.394531 181.539062 L 259.714844 187.910156 L 265.273438 189.800781 L 268.617188 184.34375 C 269.953125 184.546875 271.316406 184.632812 272.695312 184.609375 L 275.296875 190.46875 L 281.050781 189.328125 L 281.21875 182.917969 C 282.503906 182.414062 283.734375 181.816406 284.890625 181.121094 L 290.0625 184.886719 L 294.480469 181.023438 L 291.417969 175.390625 C 292.269531 174.324219 293.027344 173.1875 293.691406 171.996094 L 300.066406 172.675781 L 301.957031 167.121094 L 296.496094 163.777344 C 296.699219 162.441406 296.785156 161.074219 296.761719 159.695312 L 302.621094 157.097656 " fill-opacity="1" fill-rule="nonzero"/><path fill="#ffffff" d="M 32.570312 106.90625 C 32.648438 103.832031 33.316406 83.382812 40.5625 74.097656 C 41.570312 72.808594 43.136719 70.800781 45.804688 69.761719 C 51.132812 67.683594 53.925781 72.164062 58.074219 70.75 C 63.539062 68.886719 61.621094 60.089844 70.054688 51.808594 C 72.074219 49.824219 75.222656 46.730469 79.648438 46.296875 C 84.585938 45.808594 86.027344 49.136719 90.722656 49.113281 C 96.574219 49.082031 97.996094 43.890625 104.710938 40.796875 C 111.785156 37.535156 123.164062 37.320312 128.746094 44.304688 C 133.613281 50.394531 132.226562 59.648438 129.636719 65.332031 C 125.8125 73.734375 117.453125 78.535156 110.324219 79.457031 C 100.074219 80.785156 92.894531 74.035156 90.441406 76.957031 C 88.152344 79.679688 94.28125 85.652344 91.578125 91.375 C 89.691406 95.371094 84.175781 97.824219 79.742188 97.273438 C 73.601562 96.507812 72.308594 90.3125 68.242188 90.871094 C 63.980469 91.460938 63.425781 98.542969 58.667969 103.289062 C 54.746094 107.203125 47.398438 110.085938 32.570312 106.90625 " fill-opacity="1" fill-rule="nonzero"/><path fill="#5479f7" d="M 43.621094 100.832031 C 43.460938 100.832031 43.296875 100.769531 43.179688 100.640625 C 42.957031 100.398438 42.972656 100.019531 43.214844 99.796875 C 58.667969 85.566406 75.910156 73.878906 94.457031 65.054688 C 100.449219 62.203125 106.660156 59.617188 112.921875 57.367188 C 113.230469 57.253906 113.574219 57.414062 113.6875 57.726562 C 113.796875 58.035156 113.636719 58.378906 113.324219 58.492188 C 107.101562 60.730469 100.925781 63.304688 94.96875 66.136719 C 76.53125 74.910156 59.394531 86.527344 44.027344 100.675781 C 43.910156 100.78125 43.765625 100.832031 43.621094 100.832031 " fill-opacity="1" fill-rule="nonzero"/><path fill="#6f788b" d="M 32.308594 115.273438 C 31.035156 81.445312 37.675781 69.503906 44.65625 65.207031 C 46.738281 63.925781 51.289062 61.808594 55.554688 56.707031 C 61.089844 50.09375 60.773438 44.898438 63.523438 38.683594 C 68.902344 26.523438 82.570312 18.253906 94.800781 16.5 C 103.347656 15.277344 118.496094 16.183594 124.167969 25.953125 C 126.5625 30.082031 127.910156 36.910156 124.820312 40.230469 C 120.398438 44.980469 110.632812 37.554688 102.402344 43.042969 C 97.910156 46.035156 99.515625 49.085938 94.71875 52.222656 C 87.164062 57.167969 79.660156 51.894531 76.089844 56.113281 C 72.632812 60.195312 78.851562 66.242188 75.402344 71.875 C 71.46875 78.296875 60.9375 75.222656 57.875 81.703125 C 56.054688 85.558594 59.410156 87.445312 57.789062 92.121094 C 55.820312 97.816406 49.773438 98.132812 41.738281 104.578125 C 37.230469 108.191406 34.378906 112.171875 32.308594 115.273438 " fill-opacity="1" fill-rule="nonzero"/><path fill="#d7dadd" d="M 33.148438 112.796875 C 33.089844 112.796875 33.03125 112.785156 32.972656 112.769531 C 32.65625 112.667969 32.480469 112.332031 32.578125 112.015625 C 40.558594 86.59375 54.914062 61.917969 70.980469 46.011719 C 92.316406 24.882812 111.960938 24.042969 112.15625 24.039062 C 112.480469 24.011719 112.761719 24.285156 112.773438 24.617188 C 112.78125 24.949219 112.523438 25.222656 112.191406 25.234375 C 112 25.242188 92.800781 26.089844 71.824219 46.859375 C 55.886719 62.640625 41.644531 87.128906 33.722656 112.375 C 33.640625 112.628906 33.40625 112.796875 33.148438 112.796875 " fill-opacity="1" fill-rule="nonzero"/><path fill="#5479f7" d="M 33.511719 264.488281 L 228.816406 208.726562 C 233.71875 207.386719 237.394531 202.675781 237.394531 197.730469 L 240.074219 61.113281 C 240.074219 61.113281 235.621094 58.554688 233.097656 57.695312 C 231.816406 57.257812 230.335938 57.199219 228.796875 57.621094 L 34.074219 110.964844 C 29.171875 112.308594 25.496094 117.019531 25.496094 121.964844 L 25.496094 255.761719 C 25.496094 258.15625 26.589844 260.105469 28.285156 261.25 C 29.84375 262.304688 33.511719 264.488281 33.511719 264.488281 " fill-opacity="1" fill-rule="nonzero"/><path fill="#6f788b" d="M 39.488281 265.421875 L 234.582031 211.972656 C 239.496094 210.628906 243.179688 205.90625 243.179688 200.957031 L 243.179688 66.902344 C 243.179688 62.292969 239.132812 59.324219 234.566406 60.578125 L 39.472656 114.023438 C 34.558594 115.371094 30.875 120.089844 30.875 125.042969 L 30.875 259.097656 C 30.875 263.707031 34.917969 266.671875 39.488281 265.421875 " fill-opacity="1" fill-rule="nonzero"/><path fill="#ffffff" d="M 218.929688 200.929688 L 55.125 245.949219 C 50.8125 247.136719 47.28125 244.578125 47.28125 240.265625 L 47.28125 135.066406 C 47.28125 130.753906 50.8125 126.253906 55.125 125.070312 L 218.929688 80.050781 C 223.242188 78.863281 226.773438 81.421875 226.773438 85.734375 L 226.773438 190.933594 C 226.773438 195.246094 223.242188 199.746094 218.929688 200.929688 " fill-opacity="1" fill-rule="nonzero"/><path fill="#d7dadd" d="M 163.804688 127.660156 L 76.183594 150.113281 C 71.246094 151.378906 67.207031 148.375 67.207031 143.4375 C 67.207031 138.5 71.246094 133.425781 76.183594 132.160156 L 163.804688 109.703125 C 168.742188 108.4375 172.78125 111.441406 172.78125 116.382812 C 172.78125 121.316406 168.742188 126.394531 163.804688 127.660156 " fill-opacity="1" fill-rule="nonzero"/><path fill="#d7dadd" d="M 201.570312 147.976562 L 67.207031 182.410156 L 67.207031 165.972656 L 201.570312 131.539062 L 201.570312 147.976562 " fill-opacity="1" fill-rule="nonzero"/><path fill="#6f788b" d="M 83.644531 178.195312 L 67.207031 182.410156 L 67.207031 165.972656 L 83.644531 161.761719 L 83.644531 178.195312 " fill-opacity="1" fill-rule="nonzero"/><path fill="#ffffff" d="M 79.183594 167.925781 C 79.183594 170 77.5 172.113281 75.425781 172.644531 C 73.351562 173.175781 71.667969 171.925781 71.667969 169.851562 C 71.667969 167.777344 73.351562 165.660156 75.425781 165.128906 C 77.5 164.597656 79.183594 165.847656 79.183594 167.925781 " fill-opacity="1" fill-rule="nonzero"/><path fill="#ffffff" d="M 80 177.867188 L 80 176.421875 C 80 173.90625 77.941406 172.378906 75.425781 173.023438 C 72.910156 173.667969 70.855469 176.253906 70.855469 178.765625 L 70.855469 180.210938 L 80 177.867188 " fill-opacity="1" fill-rule="nonzero"/><path fill="#6f788b" d="M 98.511719 166.167969 C 98.511719 168.585938 96.550781 171.046875 94.132812 171.667969 C 91.71875 172.285156 89.757812 170.828125 89.757812 168.414062 C 89.757812 165.992188 91.71875 163.53125 94.132812 162.914062 C 96.550781 162.292969 98.511719 163.75 98.511719 166.167969 " fill-opacity="1" fill-rule="nonzero"/><path fill="#6f788b" d="M 109.980469 163.230469 C 109.980469 165.644531 108.019531 168.109375 105.601562 168.730469 C 103.183594 169.347656 101.226562 167.890625 101.226562 165.472656 C 101.226562 163.054688 103.183594 160.59375 105.601562 159.972656 C 108.019531 159.355469 109.980469 160.8125 109.980469 163.230469 " fill-opacity="1" fill-rule="nonzero"/><path fill="#6f788b" d="M 121.5625 160.261719 C 121.5625 162.679688 119.601562 165.140625 117.183594 165.761719 C 114.765625 166.378906 112.804688 164.921875 112.804688 162.503906 C 112.804688 160.089844 114.765625 157.625 117.183594 157.003906 C 119.601562 156.386719 121.5625 157.84375 121.5625 160.261719 " fill-opacity="1" fill-rule="nonzero"/><path fill="#6f788b" d="M 133.367188 157.234375 C 133.367188 159.652344 131.410156 162.113281 128.992188 162.734375 C 126.574219 163.355469 124.613281 161.894531 124.613281 159.480469 C 124.613281 157.0625 126.574219 154.601562 128.992188 153.980469 C 131.410156 153.359375 133.367188 154.820312 133.367188 157.234375 " fill-opacity="1" fill-rule="nonzero"/><path fill="#6f788b" d="M 145.519531 154.121094 C 145.519531 156.539062 143.558594 159.003906 141.140625 159.621094 C 138.722656 160.238281 136.765625 158.78125 136.765625 156.367188 C 136.765625 153.949219 138.722656 151.484375 141.140625 150.867188 C 143.558594 150.246094 145.519531 151.703125 145.519531 154.121094 " fill-opacity="1" fill-rule="nonzero"/><path fill="#d7dadd" d="M 201.570312 177.972656 L 67.207031 212.40625 L 67.207031 195.96875 L 201.570312 161.535156 L 201.570312 177.972656 " fill-opacity="1" fill-rule="nonzero"/><path fill="#000000" d="M 83.644531 208.191406 L 67.207031 212.40625 L 67.207031 195.96875 L 83.644531 191.757812 L 83.644531 208.191406 " fill-opacity="1" fill-rule="nonzero"/><path fill="#ffffff" d="M 73.023438 201.96875 L 73.089844 198.976562 C 73.121094 198.011719 73.976562 197 75.054688 196.675781 C 76.242188 196.320312 77.21875 196.929688 77.1875 197.992188 L 77.1875 201.027344 C 77.179688 201.351562 78.5 201.109375 78.507812 200.8125 L 78.429688 197.738281 C 78.480469 196.023438 76.960938 195.023438 74.992188 195.609375 C 73.367188 196.09375 71.871094 197.757812 71.824219 199.324219 L 71.765625 202.339844 L 73.023438 201.96875 " fill-opacity="1" fill-rule="nonzero"/><path fill="#ffffff" d="M 75.046875 208.859375 C 77.496094 208.234375 79.765625 206.109375 79.527344 203.136719 L 79.492188 199.773438 C 79.492188 199.511719 79.289062 199.359375 79.027344 199.425781 L 71.675781 201.3125 C 71.316406 201.402344 71.015625 201.789062 71.019531 202.148438 L 71.054688 205.886719 C 71.078125 208.128906 72.824219 209.429688 75.046875 208.859375 " fill-opacity="1" fill-rule="nonzero"/><path fill="#000000" d="M 75.285156 206.371094 C 75.484375 206.320312 75.652344 206.105469 75.648438 205.90625 L 75.632812 202.925781 C 75.628906 202.742188 75.488281 202.632812 75.304688 202.679688 C 75.105469 202.730469 74.9375 202.949219 74.9375 203.148438 L 74.957031 206.125 C 74.957031 206.3125 75.101562 206.417969 75.285156 206.371094 " fill-opacity="1" fill-rule="nonzero"/><path fill="#000000" d="M 74.066406 203.597656 C 74.023438 204.320312 74.5625 204.761719 75.265625 204.582031 C 75.964844 204.402344 76.570312 203.667969 76.609375 202.949219 C 76.648438 202.222656 76.113281 201.785156 75.410156 201.964844 C 74.707031 202.144531 74.105469 202.875 74.066406 203.597656 " fill-opacity="1" fill-rule="nonzero"/><path fill="#000000" d="M 99.574219 196.460938 C 99.574219 198.878906 97.613281 201.34375 95.195312 201.960938 C 92.78125 202.582031 90.820312 201.125 90.820312 198.707031 C 90.820312 196.289062 92.78125 193.824219 95.195312 193.207031 C 97.613281 192.585938 99.574219 194.042969 99.574219 196.460938 " fill-opacity="1" fill-rule="nonzero"/><path fill="#000000" d="M 111.042969 193.523438 C 111.042969 195.941406 109.082031 198.402344 106.664062 199.023438 C 104.246094 199.640625 102.289062 198.183594 102.289062 195.765625 C 102.289062 193.347656 104.246094 190.886719 106.664062 190.269531 C 109.082031 189.648438 111.042969 191.105469 111.042969 193.523438 " fill-opacity="1" fill-rule="nonzero"/><path fill="#000000" d="M 114.585938 198.042969 C 114.257812 198.042969 113.988281 197.777344 113.988281 197.445312 L 113.988281 186.644531 C 113.988281 186.3125 114.257812 186.042969 114.585938 186.042969 C 114.917969 186.042969 115.1875 186.3125 115.1875 186.644531 L 115.1875 197.445312 C 115.1875 197.777344 114.917969 198.042969 114.585938 198.042969 " fill-opacity="1" fill-rule="nonzero"/><path fill="#5479f7" d="M 153.074219 324.796875 L 353.339844 269.644531 C 354.90625 269.214844 355.789062 267.773438 355.769531 266.464844 C 355.753906 265.558594 355.679688 259.195312 355.679688 259.195312 L 249.792969 214.167969 C 244.488281 211.914062 237.621094 211.75 231.5625 213.410156 L 33.828125 267.871094 C 32.636719 268.199219 31.617188 269.125 31.144531 270.292969 L 30.828125 271.085938 C 30.828125 271.085938 30.996094 276.375 30.925781 277.628906 C 30.875 278.609375 31.308594 279.546875 32.328125 279.980469 L 135.558594 323.886719 C 140.867188 326.140625 147.015625 326.460938 153.074219 324.796875 " fill-opacity="1" fill-rule="nonzero"/><path fill="#ffffff" d="M 153.074219 317.703125 L 352.625 262.703125 C 355.269531 261.976562 355.96875 258.363281 353.648438 257.378906 L 250.96875 213.769531 C 245.664062 211.515625 239.515625 211.195312 233.457031 212.859375 L 33.910156 267.859375 C 31.257812 268.585938 30.5625 272.199219 32.882812 273.183594 L 135.558594 316.792969 C 140.867188 319.046875 147.015625 319.363281 153.074219 317.703125 " fill-opacity="1" fill-rule="nonzero"/><path fill="#000000" d="M 153.074219 317.703125 L 153.078125 317.703125 Z M 241.082031 212.414062 C 238.617188 212.414062 236.097656 212.753906 233.617188 213.4375 L 34.066406 268.433594 C 32.789062 268.785156 32.140625 269.925781 32.082031 270.839844 C 32.054688 271.234375 32.101562 272.203125 33.117188 272.632812 L 135.792969 316.242188 C 140.941406 318.429688 147.023438 318.742188 152.914062 317.125 L 352.464844 262.128906 C 353.742188 261.777344 354.390625 260.632812 354.449219 259.722656 C 354.476562 259.324219 354.429688 258.359375 353.414062 257.929688 L 250.738281 214.320312 C 247.757812 213.054688 244.46875 212.414062 241.082031 212.414062 Z M 145.449219 319.339844 C 141.902344 319.339844 138.453125 318.671875 135.324219 317.34375 L 32.648438 273.734375 C 31.472656 273.234375 30.796875 272.09375 30.886719 270.757812 C 30.976562 269.390625 31.898438 267.789062 33.75 267.28125 L 233.296875 212.28125 C 239.449219 210.59375 245.808594 210.925781 251.203125 213.21875 L 353.882812 256.824219 C 355.058594 257.324219 355.734375 258.46875 355.644531 259.800781 C 355.554688 261.167969 354.632812 262.773438 352.78125 263.28125 L 153.234375 318.277344 C 153.230469 318.277344 153.230469 318.277344 153.230469 318.277344 C 150.644531 318.988281 148.023438 319.339844 145.449219 319.339844 " fill-opacity="1" fill-rule="nonzero"/><path fill="#6f788b" d="M 114.003906 290.871094 L 287.039062 243.015625 C 289.429688 242.359375 290.0625 239.097656 287.964844 238.207031 L 247.28125 221.160156 C 242.488281 219.125 236.9375 218.839844 231.460938 220.339844 L 58.429688 268.195312 C 56.035156 268.851562 55.40625 272.113281 57.5 273.003906 L 98.1875 290.050781 C 102.976562 292.082031 108.53125 292.375 114.003906 290.871094 " fill-opacity="1" fill-rule="nonzero"/><path fill="#6f788b" d="M 213.363281 290.269531 L 255.125 278.804688 C 256.203125 278.511719 256.484375 277.042969 255.542969 276.640625 L 237.261719 268.980469 C 235.105469 268.066406 232.609375 267.9375 230.148438 268.613281 L 188.386719 280.078125 C 187.3125 280.375 187.03125 281.839844 187.972656 282.242188 L 206.253906 289.898438 C 208.40625 290.816406 210.90625 290.945312 213.363281 290.269531 " fill-opacity="1" fill-rule="nonzero"/><path fill="#ffffff" d="M 127.65625 246.144531 L 122.453125 268.054688 L 128.886719 269.890625 L 140.085938 248.675781 L 127.65625 246.144531 " fill-opacity="1" fill-rule="nonzero"/><path fill="#000000" d="M 123.167969 267.636719 L 128.585938 269.179688 L 139.183594 249.101562 L 128.101562 246.847656 Z M 128.886719 270.488281 C 128.835938 270.488281 128.777344 270.480469 128.722656 270.464844 L 122.289062 268.628906 C 121.980469 268.542969 121.796875 268.226562 121.871094 267.914062 L 127.070312 246.007812 C 127.148438 245.691406 127.457031 245.496094 127.773438 245.558594 L 140.207031 248.089844 C 140.390625 248.128906 140.546875 248.25 140.628906 248.421875 C 140.707031 248.589844 140.703125 248.789062 140.617188 248.957031 L 129.417969 270.167969 C 129.3125 270.367188 129.105469 270.488281 128.886719 270.488281 " fill-opacity="1" fill-rule="nonzero"/><path fill="#ffffff" d="M 99.410156 288.535156 C 107.632812 287.085938 123.449219 283.46875 134.113281 277.6875 C 135.34375 277.015625 135.5625 275.601562 135.53125 274.136719 C 135.449219 270.773438 134.796875 266.578125 134.019531 264.101562 C 133.78125 263.339844 132.898438 262.964844 132.265625 263.355469 L 129.378906 265.148438 L 129.148438 260.921875 C 129.148438 260.921875 125.613281 257.996094 119.265625 261.238281 C 119.265625 261.238281 106.421875 274.261719 99.238281 281.898438 C 95.96875 285.378906 96.820312 288.992188 99.410156 288.535156 " fill-opacity="1" fill-rule="nonzero"/><path fill="#000000" d="M 119.621094 261.726562 C 118.597656 262.765625 106.5 275.050781 99.675781 282.308594 C 97.808594 284.292969 97.386719 286.355469 97.933594 287.367188 C 98.265625 287.988281 98.863281 288.027344 99.304688 287.945312 C 109.78125 286.101562 124.351562 282.300781 133.828125 277.160156 C 134.628906 276.726562 134.96875 275.796875 134.929688 274.148438 C 134.855469 270.929688 134.234375 266.777344 133.449219 264.277344 C 133.386719 264.074219 133.230469 263.910156 133.03125 263.835938 C 132.9375 263.804688 132.753906 263.757812 132.582031 263.867188 L 129.695312 265.65625 C 129.515625 265.765625 129.292969 265.777344 129.101562 265.675781 C 128.917969 265.578125 128.792969 265.390625 128.78125 265.179688 L 128.566406 261.242188 C 127.777344 260.726562 124.703125 259.167969 119.621094 261.726562 Z M 98.984375 289.171875 C 98.074219 289.171875 97.308594 288.730469 96.878906 287.933594 C 96.128906 286.542969 96.429688 284.011719 98.804688 281.488281 C 105.90625 273.933594 118.710938 260.949219 118.839844 260.820312 C 118.882812 260.773438 118.933594 260.734375 118.992188 260.703125 C 125.617188 257.320312 129.371094 260.332031 129.53125 260.460938 C 129.660156 260.566406 129.738281 260.722656 129.746094 260.890625 L 129.921875 264.105469 L 131.953125 262.847656 C 132.394531 262.574219 132.9375 262.523438 133.445312 262.714844 C 133.988281 262.917969 134.417969 263.367188 134.589844 263.917969 C 135.402344 266.511719 136.050781 270.800781 136.128906 274.121094 C 136.160156 275.460938 136.015625 277.335938 134.398438 278.210938 C 124.792969 283.417969 110.078125 287.265625 99.511719 289.125 L 99.410156 288.535156 L 99.511719 289.125 C 99.332031 289.15625 99.15625 289.171875 98.984375 289.171875 " fill-opacity="1" fill-rule="nonzero"/><path fill="#000000" d="M 99.480469 285.226562 C 99.203125 285.226562 98.953125 285.03125 98.894531 284.75 C 98.828125 284.425781 99.039062 284.109375 99.359375 284.042969 C 99.496094 284.015625 113.050781 281.210938 124.730469 277.023438 C 125.042969 276.914062 125.382812 277.074219 125.496094 277.382812 C 125.605469 277.695312 125.445312 278.039062 125.132812 278.148438 C 113.371094 282.367188 99.738281 285.1875 99.601562 285.214844 C 99.5625 285.222656 99.519531 285.226562 99.480469 285.226562 " fill-opacity="1" fill-rule="nonzero"/><path fill="#ffffff" d="M 138.265625 273.464844 L 121.367188 280.714844 L 127.378906 289.777344 C 127.378906 289.777344 139.878906 286.847656 146.261719 285.078125 L 138.265625 273.464844 " fill-opacity="1" fill-rule="nonzero"/><path fill="#000000" d="M 122.261719 280.980469 L 127.648438 289.101562 C 129.746094 288.605469 139.488281 286.296875 145.292969 284.722656 L 138.050781 274.207031 Z M 127.378906 290.375 C 127.179688 290.375 126.992188 290.28125 126.878906 290.109375 L 120.867188 281.042969 C 120.769531 280.894531 120.742188 280.710938 120.792969 280.542969 C 120.84375 280.371094 120.964844 280.234375 121.128906 280.164062 L 138.03125 272.914062 C 138.292969 272.800781 138.597656 272.890625 138.757812 273.125 L 146.757812 284.738281 C 146.867188 284.898438 146.890625 285.101562 146.824219 285.28125 C 146.761719 285.464844 146.609375 285.601562 146.421875 285.65625 C 140.097656 287.40625 127.640625 290.332031 127.515625 290.359375 C 127.46875 290.371094 127.425781 290.375 127.378906 290.375 " fill-opacity="1" fill-rule="nonzero"/><path fill="#ffffff" d="M 93.527344 261.441406 C 93.527344 261.441406 95.347656 256.992188 109.226562 266.746094 C 115.609375 271.230469 122.585938 274.402344 126.226562 275.914062 C 127.722656 276.53125 128.710938 278.046875 128.628906 279.605469 L 128.328125 285.539062 L 132.265625 286.410156 C 133.898438 286.769531 134.855469 288.601562 134.15625 290.023438 C 132.875 292.617188 129.613281 298.296875 124.457031 298.976562 L 93.527344 261.441406 " fill-opacity="1" fill-rule="nonzero"/><path fill="#000000" d="M 94.300781 261.441406 L 124.703125 298.332031 C 129.167969 297.535156 132.195312 292.648438 133.617188 289.761719 C 133.855469 289.277344 133.84375 288.695312 133.589844 288.160156 C 133.304688 287.566406 132.761719 287.132812 132.136719 286.992188 L 128.199219 286.125 C 127.914062 286.058594 127.71875 285.800781 127.730469 285.507812 L 128.03125 279.574219 C 128.097656 278.269531 127.261719 276.988281 126 276.464844 C 122.371094 274.960938 115.324219 271.765625 108.882812 267.238281 C 100.128906 261.082031 96.421875 260.769531 94.992188 261.125 C 94.660156 261.210938 94.441406 261.332031 94.300781 261.441406 Z M 124.457031 299.574219 C 124.28125 299.574219 124.109375 299.496094 123.996094 299.355469 L 93.066406 261.820312 C 92.925781 261.652344 92.890625 261.417969 92.972656 261.214844 C 93.007812 261.128906 93.355469 260.355469 94.558594 260.003906 C 96.527344 259.429688 100.730469 260.046875 109.570312 266.257812 C 115.917969 270.71875 122.875 273.875 126.457031 275.359375 C 128.179688 276.074219 129.320312 277.832031 129.226562 279.632812 L 128.953125 285.0625 L 132.394531 285.824219 C 133.375 286.042969 134.226562 286.722656 134.667969 287.644531 C 135.085938 288.511719 135.09375 289.476562 134.691406 290.289062 C 133.128906 293.460938 129.730469 298.886719 124.535156 299.570312 C 124.507812 299.574219 124.484375 299.574219 124.457031 299.574219 " fill-opacity="1" fill-rule="nonzero"/><path fill="#ffffff" d="M 93.527344 261.441406 C 93.527344 261.441406 90.886719 261.984375 92.757812 266.382812 C 94.628906 270.785156 112.074219 292.710938 118.515625 296.984375 C 125.179688 301.398438 125.585938 298.121094 125.078125 296.15625 C 124.570312 294.1875 99.183594 257.632812 93.527344 261.441406 " fill-opacity="1" fill-rule="nonzero"/><path fill="#000000" d="M 93.527344 261.441406 L 93.53125 261.441406 Z M 93.65625 262.027344 C 93.625 262.035156 93.152344 262.15625 92.886719 262.691406 C 92.625 263.207031 92.488281 264.222656 93.308594 266.152344 C 95.238281 270.683594 112.679688 292.394531 118.847656 296.484375 C 122.632812 298.992188 123.875 298.667969 124.234375 298.414062 C 124.738281 298.054688 124.691406 297.050781 124.496094 296.304688 C 124.257812 295.523438 119.285156 287.953125 112.691406 279.449219 C 104.828125 269.316406 98.699219 263.101562 95.433594 261.949219 C 94.742188 261.703125 94.214844 261.699219 93.863281 261.9375 C 93.800781 261.980469 93.730469 262.007812 93.65625 262.027344 Z M 123.574219 299.78125 C 122.289062 299.78125 120.503906 299.019531 118.183594 297.480469 C 111.386719 292.976562 94.046875 270.945312 92.207031 266.621094 C 91.394531 264.707031 91.269531 263.191406 91.835938 262.113281 C 92.277344 261.273438 92.988281 260.976562 93.28125 260.886719 C 93.984375 260.464844 94.886719 260.460938 95.96875 260.871094 C 104.625 264.160156 125.25 294.421875 125.65625 296.007812 C 126.046875 297.519531 125.773438 298.785156 124.929688 299.386719 C 124.558594 299.648438 124.109375 299.78125 123.574219 299.78125 " fill-opacity="1" fill-rule="nonzero"/><path fill="#000000" d="M 124.195312 249.925781 C 129.710938 251.246094 135.222656 252.566406 140.738281 253.886719 C 143.808594 247.894531 148.371094 239.746094 154.746094 230.632812 C 163.15625 218.605469 165.496094 218.089844 166.835938 218.042969 C 177.136719 217.65625 180.636719 242.558594 197.667969 250.070312 C 215.609375 257.980469 242.175781 243.785156 241.78125 231.621094 C 241.5 222.921875 227.710938 223.675781 203.683594 200.382812 C 194.429688 191.414062 186.789062 181.914062 173.675781 178.929688 C 167.464844 177.515625 163.097656 178.265625 161.867188 178.5 C 157.394531 179.367188 150.28125 182.078125 142.0625 194.480469 C 129.3125 213.71875 125.464844 238.832031 124.195312 249.925781 " fill-opacity="1" fill-rule="nonzero"/><path fill="#000000" d="M 235.558594 224.214844 C 234.367188 224.710938 195.757812 240.964844 180.605469 247.917969 C 165.492188 254.851562 133.953125 273.054688 133.953125 273.054688 L 142.519531 287.347656 C 142.519531 287.347656 168.222656 281.980469 179.449219 277.390625 C 190.675781 272.796875 198.457031 266.285156 210.550781 265.902344 C 222.644531 265.523438 266.914062 261.453125 275.257812 249.042969 C 283.601562 236.636719 278.09375 231.726562 278.09375 231.726562 L 235.558594 224.214844 " fill-opacity="1" fill-rule="nonzero"/><path fill="#5479f7" d="M 196.394531 212.613281 C 193.308594 210.9375 192.027344 207.121094 193.601562 204.277344 C 198.570312 195.296875 208.359375 176.992188 210.550781 168.371094 C 213.519531 156.703125 221.574219 150.847656 228.371094 150.6875 C 234.375 150.542969 260.875 154.015625 277.09375 157.203125 C 280.1875 157.8125 286.398438 162.824219 286.257812 165.914062 C 285.566406 181.457031 279.253906 223.765625 274.15625 231.769531 C 267.957031 241.503906 239.441406 229.148438 229.550781 227.519531 C 222.414062 226.347656 205.347656 217.46875 196.394531 212.613281 " fill-opacity="1" fill-rule="nonzero"/><path fill="#000000" d="M 221.71875 220.949219 C 221.699219 220.949219 221.683594 220.949219 221.664062 220.949219 C 221.335938 220.917969 221.09375 220.628906 221.121094 220.296875 C 222.261719 207.855469 220.710938 193.9375 219.214844 184.449219 C 219.160156 184.121094 219.386719 183.8125 219.710938 183.761719 C 220.035156 183.710938 220.34375 183.933594 220.394531 184.261719 C 221.90625 193.816406 223.464844 207.84375 222.316406 220.40625 C 222.285156 220.71875 222.023438 220.949219 221.71875 220.949219 " fill-opacity="1" fill-rule="nonzero"/><path fill="#ffffff" d="M 175.128906 237.589844 L 223 249.519531 C 224.167969 249.808594 225.359375 249.707031 226.386719 249.226562 L 245.242188 241.0625 C 245.800781 240.800781 245.226562 237.824219 244.597656 237.652344 L 209.769531 228.113281 L 175.128906 237.589844 " fill-opacity="1" fill-rule="nonzero"/><path fill="#000000" d="M 244.332031 238.179688 Z M 177.492188 237.5625 L 223.144531 248.9375 C 224.175781 249.195312 225.234375 249.101562 226.132812 248.683594 L 244.855469 240.578125 C 244.957031 240.074219 244.644531 238.558594 244.363281 238.207031 L 209.769531 228.734375 Z M 224.304688 250.277344 C 223.820312 250.277344 223.335938 250.21875 222.855469 250.097656 L 174.984375 238.167969 C 174.71875 238.105469 174.53125 237.867188 174.53125 237.597656 C 174.527344 237.324219 174.707031 237.082031 174.96875 237.011719 L 209.613281 227.535156 C 209.714844 227.507812 209.824219 227.507812 209.929688 227.535156 L 244.757812 237.074219 C 245.820312 237.367188 246.042969 239.796875 246.046875 239.902344 C 246.128906 240.835938 245.945312 241.394531 245.496094 241.605469 L 226.625 249.777344 C 225.914062 250.109375 225.117188 250.277344 224.304688 250.277344 " fill-opacity="1" fill-rule="nonzero"/><path fill="#ffffff" d="M 223 249.519531 L 220.410156 212.605469 C 220.222656 210.820312 218.839844 209.285156 217.074219 208.894531 L 172.652344 199.199219 C 170.066406 198.636719 167.929688 200.738281 168.4375 203.339844 L 174.628906 235.035156 C 174.929688 236.570312 176.136719 237.839844 177.652344 238.21875 L 223 249.519531 " fill-opacity="1" fill-rule="nonzero"/><path fill="#000000" d="M 171.8125 199.707031 C 171.046875 199.707031 170.34375 199.980469 169.808594 200.503906 C 169.105469 201.191406 168.820312 202.183594 169.023438 203.222656 L 175.214844 234.921875 C 175.472656 236.226562 176.507812 237.316406 177.796875 237.636719 L 222.347656 248.738281 L 219.8125 212.648438 C 219.65625 211.148438 218.449219 209.808594 216.949219 209.480469 L 172.527344 199.785156 C 172.285156 199.734375 172.046875 199.707031 171.8125 199.707031 Z M 223 250.117188 C 222.953125 250.117188 222.90625 250.113281 222.855469 250.097656 L 177.507812 238.796875 C 175.773438 238.367188 174.382812 236.902344 174.042969 235.152344 L 167.851562 203.453125 C 167.566406 202.007812 167.976562 200.621094 168.972656 199.648438 C 169.964844 198.679688 171.351562 198.304688 172.78125 198.617188 L 217.203125 208.3125 C 219.226562 208.753906 220.789062 210.496094 221.003906 212.542969 L 223.597656 249.476562 C 223.613281 249.667969 223.53125 249.851562 223.386719 249.976562 C 223.277344 250.070312 223.140625 250.117188 223 250.117188 " fill-opacity="1" fill-rule="nonzero"/><path fill="#ffffff" d="M 255.183594 149.722656 L 249.824219 135.480469 C 250.84375 135.25 251.574219 134.125 251.519531 132.71875 C 251.457031 131.097656 250.378906 129.726562 249.113281 129.65625 C 248.757812 129.636719 248.429688 129.722656 248.136719 129.886719 C 246.164062 124.1875 242.175781 121.902344 238.484375 122.800781 C 234.730469 123.710938 229.640625 126.015625 234.644531 133.476562 C 235.066406 134.105469 235.222656 137.242188 235.277344 138.925781 C 235.296875 139.507812 235.800781 140 236.378906 140.003906 L 237.789062 140.023438 C 239.117188 142.003906 239.125 144.753906 241.261719 145.582031 C 242.570312 146.089844 243.347656 145.574219 243.808594 145.597656 L 244.226562 147.441406 C 244.664062 149.375 243.542969 151.175781 241.675781 151.535156 L 236.980469 152.4375 L 237.105469 152.554688 C 242.121094 157.277344 249.050781 159.113281 255.1875 157.34375 L 262.578125 155.214844 L 258.152344 153.003906 C 256.789062 152.328125 255.71875 151.140625 255.183594 149.722656 " fill-opacity="1" fill-rule="nonzero"/><path fill="#000000" d="M 238.273438 152.800781 C 243.0625 156.871094 249.390625 158.390625 255.019531 156.769531 L 260.9375 155.0625 L 257.882812 153.539062 C 256.394531 152.796875 255.207031 151.484375 254.625 149.933594 L 249.261719 135.6875 C 249.203125 135.527344 249.214844 135.34375 249.296875 135.195312 C 249.378906 135.042969 249.523438 134.929688 249.691406 134.894531 C 250.445312 134.726562 250.960938 133.820312 250.921875 132.742188 C 250.871094 131.445312 250.027344 130.304688 249.078125 130.253906 C 248.855469 130.238281 248.636719 130.289062 248.433594 130.410156 C 248.277344 130.496094 248.089844 130.511719 247.925781 130.449219 C 247.757812 130.386719 247.628906 130.25 247.570312 130.082031 C 245.847656 125.109375 242.335938 122.480469 238.625 123.378906 C 235.707031 124.089844 233.996094 125.1875 233.398438 126.730469 C 232.773438 128.332031 233.359375 130.488281 235.140625 133.144531 C 235.285156 133.355469 235.71875 134.003906 235.875 138.90625 C 235.882812 139.171875 236.121094 139.40625 236.386719 139.40625 L 237.792969 139.421875 C 237.992188 139.425781 238.175781 139.523438 238.285156 139.6875 C 238.804688 140.460938 239.125 141.308594 239.433594 142.128906 C 239.929688 143.449219 240.359375 144.589844 241.476562 145.023438 C 242.238281 145.316406 242.746094 145.195312 243.1875 145.089844 C 243.410156 145.039062 243.621094 144.988281 243.839844 145 C 244.109375 145.011719 244.332031 145.203125 244.390625 145.464844 L 244.808594 147.308594 C 245.0625 148.433594 244.875 149.554688 244.277344 150.464844 C 243.710938 151.332031 242.824219 151.921875 241.789062 152.121094 Z M 250.449219 158.605469 C 245.535156 158.605469 240.558594 156.628906 236.695312 152.988281 L 236.570312 152.875 C 236.410156 152.71875 236.34375 152.488281 236.40625 152.273438 C 236.46875 152.058594 236.648438 151.894531 236.871094 151.851562 L 241.5625 150.945312 C 242.277344 150.808594 242.886719 150.40625 243.273438 149.8125 C 243.691406 149.171875 243.824219 148.375 243.640625 147.570312 L 243.347656 146.28125 C 242.847656 146.398438 242.066406 146.535156 241.042969 146.140625 C 239.429688 145.511719 238.863281 144.007812 238.3125 142.550781 C 238.0625 141.890625 237.808594 141.214844 237.453125 140.617188 L 236.375 140.605469 C 235.46875 140.59375 234.707031 139.847656 234.679688 138.945312 C 234.566406 135.375 234.292969 134.035156 234.148438 133.808594 C 232.136719 130.8125 231.507812 128.285156 232.28125 126.296875 C 233.03125 124.359375 235.019531 123.027344 238.34375 122.21875 C 242.546875 121.199219 246.476562 123.894531 248.488281 129.113281 C 248.703125 129.0625 248.921875 129.042969 249.148438 129.058594 C 250.738281 129.148438 252.039062 130.746094 252.117188 132.699219 C 252.171875 134.09375 251.566406 135.289062 250.589844 135.824219 L 255.746094 149.511719 C 256.222656 150.78125 257.195312 151.859375 258.417969 152.46875 L 262.847656 154.679688 C 263.066406 154.789062 263.199219 155.023438 263.175781 155.269531 C 263.152344 155.511719 262.980469 155.71875 262.746094 155.789062 L 255.351562 157.917969 C 253.753906 158.378906 252.105469 158.605469 250.449219 158.605469 " fill-opacity="1" fill-rule="nonzero"/><path fill="#000000" d="M 232.019531 130.457031 C 229.160156 130.9375 226.550781 128.761719 226.121094 128.414062 C 224.089844 126.742188 221.632812 123.320312 222.574219 120.523438 C 223.398438 118.070312 226.410156 117.355469 227.910156 117.003906 C 232.3125 115.964844 233.648438 118.292969 237.929688 117.398438 C 241.738281 116.601562 243.128906 114.25 245.046875 115.265625 C 246.523438 116.046875 246.457031 117.835938 248.230469 118.566406 C 249.769531 119.199219 250.484375 118.128906 251.789062 118.53125 C 254.761719 119.441406 257.046875 126.832031 254.695312 131.261719 C 253.832031 132.878906 252.363281 134.085938 251.882812 133.804688 C 251.359375 133.492188 252.328125 131.566406 251.414062 130.480469 C 250.753906 129.699219 249.394531 129.691406 248.136719 129.886719 C 247.890625 132.660156 246.355469 133.640625 246.207031 133.625 C 245.855469 133.597656 246.222656 130.652344 244.410156 128.148438 C 243.523438 126.917969 241.613281 125.105469 239.761719 125.273438 C 238.117188 125.421875 238.058594 126.992188 234.929688 129.058594 C 233.738281 129.847656 233.074219 130.285156 232.019531 130.457031 " fill-opacity="1" fill-rule="nonzero"/><path fill="#000000" d="M 244.242188 145.898438 C 244.039062 145.898438 243.839844 145.792969 243.730469 145.605469 C 243.558594 145.324219 243.648438 144.953125 243.933594 144.785156 C 247.824219 142.441406 247.652344 139.828125 247.644531 139.71875 C 247.617188 139.394531 247.859375 139.101562 248.183594 139.074219 C 248.515625 139.042969 248.800781 139.277344 248.835938 139.605469 C 248.847656 139.742188 249.132812 143.050781 244.550781 145.808594 C 244.453125 145.867188 244.347656 145.898438 244.242188 145.898438 " fill-opacity="1" fill-rule="nonzero"/><path fill="#5479f7" d="M 246.289062 232.558594 L 248.105469 242.007812 C 248.105469 242.007812 271.191406 242.90625 281.988281 229.671875 C 292.789062 216.441406 303.347656 180.214844 282.765625 160.519531 L 265.128906 181.996094 C 265.128906 181.996094 270.539062 220.710938 246.289062 232.558594 " fill-opacity="1" fill-rule="nonzero"/><path fill="#ffffff" d="M 226.621094 234.613281 L 236.632812 230.917969 L 246.289062 232.558594 L 247.738281 240.101562 C 247.738281 240.101562 244.210938 242.070312 241.785156 240.953125 C 239.363281 239.835938 236.597656 238.859375 236.597656 238.859375 C 236.597656 238.859375 231.789062 243.15625 226.886719 239.007812 L 232.585938 235.902344 C 232.585938 235.902344 229.308594 236.105469 226.9375 235.953125 C 226.183594 235.902344 225.9375 234.863281 226.621094 234.613281 " fill-opacity="1" fill-rule="nonzero"/><path fill="#000000" d="M 226.621094 234.613281 L 226.625 234.613281 Z M 236.597656 238.257812 C 236.664062 238.257812 236.730469 238.269531 236.796875 238.292969 C 236.824219 238.304688 239.613281 239.296875 242.035156 240.410156 C 243.722656 241.1875 246.136719 240.207031 247.066406 239.769531 L 245.777344 233.082031 L 236.691406 231.535156 L 226.828125 235.171875 C 226.816406 235.175781 226.8125 235.179688 226.8125 235.179688 C 226.816406 235.179688 226.816406 235.230469 226.851562 235.285156 C 226.890625 235.34375 226.941406 235.351562 226.972656 235.355469 C 229.28125 235.503906 232.515625 235.304688 232.546875 235.304688 C 232.824219 235.28125 233.082031 235.464844 233.160156 235.734375 C 233.238281 236.003906 233.117188 236.292969 232.871094 236.425781 L 227.984375 239.089844 C 232.175781 241.929688 236.027344 238.566406 236.195312 238.410156 C 236.308594 238.3125 236.453125 238.257812 236.597656 238.257812 Z M 243.503906 241.894531 C 242.832031 241.894531 242.15625 241.78125 241.535156 241.496094 C 239.632812 240.621094 237.492188 239.820312 236.707031 239.535156 C 235.542969 240.410156 231.035156 243.300781 226.5 239.460938 C 226.347656 239.335938 226.269531 239.140625 226.292969 238.945312 C 226.3125 238.746094 226.425781 238.574219 226.601562 238.480469 L 230.054688 236.597656 C 229.050781 236.617188 227.898438 236.613281 226.894531 236.550781 C 226.246094 236.507812 225.726562 236.027344 225.632812 235.378906 C 225.550781 234.789062 225.863281 234.25 226.410156 234.050781 L 236.425781 230.359375 C 236.523438 230.320312 236.628906 230.3125 236.734375 230.328125 L 246.386719 231.96875 C 246.632812 232.011719 246.828125 232.203125 246.875 232.449219 L 248.328125 239.988281 C 248.375 240.242188 248.253906 240.5 248.03125 240.625 C 247.914062 240.691406 245.722656 241.894531 243.503906 241.894531 " fill-opacity="1" fill-rule="nonzero"/><path fill="#000000" d="M 249.164062 231.539062 C 248.910156 231.539062 248.679688 231.382812 248.59375 231.128906 C 248.492188 230.816406 248.660156 230.480469 248.972656 230.375 C 249.109375 230.328125 262.371094 225.492188 264.828125 197.175781 C 264.855469 196.847656 265.144531 196.601562 265.476562 196.632812 C 265.804688 196.660156 266.046875 196.949219 266.019531 197.28125 C 263.488281 226.464844 249.925781 231.316406 249.351562 231.507812 C 249.289062 231.53125 249.222656 231.539062 249.164062 231.539062 " fill-opacity="1" fill-rule="nonzero"/><path fill="#5479f7" d="M 349.507812 289.015625 C 349.523438 309.710938 332.726562 326.503906 311.992188 326.523438 C 291.253906 326.539062 274.429688 309.777344 274.410156 289.078125 C 274.390625 268.382812 291.1875 251.589844 311.925781 251.570312 C 332.660156 251.554688 349.488281 268.316406 349.507812 289.015625 " fill-opacity="1" fill-rule="nonzero"/><path fill="#6f788b" d="M 353.285156 288.070312 C 353.300781 308.765625 336.507812 325.5625 315.769531 325.578125 C 295.03125 325.597656 278.207031 308.832031 278.1875 288.136719 C 278.171875 267.4375 294.964844 250.644531 315.703125 250.625 C 336.441406 250.609375 353.265625 267.371094 353.285156 288.070312 " fill-opacity="1" fill-rule="nonzero"/><path fill="#ffffff" d="M 306.011719 281.964844 L 306.292969 269.6875 C 306.414062 265.722656 309.957031 262.460938 314.40625 262.257812 C 319.304688 262.039062 323.355469 265.589844 323.222656 269.964844 L 323.222656 282.496094 C 323.179688 283.828125 328.648438 284.222656 328.671875 283.003906 L 328.347656 270.21875 C 328.566406 263.195312 322.289062 257.457031 314.152344 257.789062 L 314.152344 257.792969 C 307.433594 258.066406 301.257812 263.363281 301.058594 269.777344 L 300.824219 282.175781 L 306.011719 281.964844 " fill-opacity="1" fill-rule="nonzero"/><path fill="#ffffff" d="M 314.382812 315.886719 C 324.5 315.886719 333.878906 309.515625 332.886719 296.984375 L 332.746094 283.050781 C 332.734375 281.964844 331.898438 281.125 330.828125 281.125 L 300.449219 281.125 C 298.964844 281.125 297.714844 282.398438 297.734375 283.902344 L 297.886719 299.371094 C 297.980469 308.667969 305.191406 315.886719 314.382812 315.886719 " fill-opacity="1" fill-rule="nonzero"/><path fill="#6f788b" d="M 315.355469 305.855469 C 316.179688 305.855469 316.871094 305.148438 316.867188 304.316406 L 316.789062 291.988281 C 316.785156 291.226562 316.195312 290.632812 315.441406 290.632812 C 314.617188 290.632812 313.925781 291.335938 313.929688 292.171875 L 314.007812 304.5 C 314.011719 305.261719 314.601562 305.855469 315.355469 305.855469 " fill-opacity="1" fill-rule="nonzero"/><path fill="#6f788b" d="M 310.324219 293.109375 C 310.15625 296.050781 312.371094 298.433594 315.277344 298.433594 C 318.175781 298.433594 320.664062 296.050781 320.832031 293.109375 C 320.996094 290.167969 318.78125 287.785156 315.878906 287.785156 C 312.976562 287.785156 310.488281 290.167969 310.324219 293.109375 " fill-opacity="1" fill-rule="nonzero"/><path fill="#000000" d="M 306.765625 223.0625 C 306.542969 223.0625 306.324219 222.933594 306.222656 222.714844 C 306.082031 222.414062 306.214844 222.058594 306.515625 221.921875 L 314.953125 218.035156 C 315.25 217.894531 315.609375 218.027344 315.746094 218.328125 C 315.882812 218.628906 315.753906 218.984375 315.453125 219.121094 L 307.015625 223.007812 C 306.933594 223.042969 306.851562 223.0625 306.765625 223.0625 " fill-opacity="1" fill-rule="nonzero"/><path fill="#000000" d="M 305.929688 230.136719 C 305.703125 230.136719 305.484375 230.007812 305.382812 229.789062 C 305.246094 229.492188 305.375 229.132812 305.675781 228.996094 L 313.96875 225.175781 C 314.269531 225.039062 314.625 225.171875 314.765625 225.46875 C 314.902344 225.769531 314.769531 226.125 314.46875 226.265625 L 306.175781 230.082031 C 306.097656 230.121094 306.011719 230.136719 305.929688 230.136719 " fill-opacity="1" fill-rule="nonzero"/><path fill="#000000" d="M 292.429688 223.472656 C 292.203125 223.472656 291.984375 223.34375 291.886719 223.125 C 291.746094 222.824219 291.878906 222.46875 292.179688 222.332031 L 307.847656 215.117188 C 308.144531 214.976562 308.5 215.109375 308.640625 215.410156 C 308.777344 215.707031 308.648438 216.066406 308.347656 216.203125 L 292.679688 223.417969 C 292.597656 223.457031 292.511719 223.472656 292.429688 223.472656 " fill-opacity="1" fill-rule="nonzero"/><path fill="#6f788b" d="M 239.625 308.613281 C 239.625 306.878906 241.027344 305.472656 242.761719 305.472656 C 244.492188 305.472656 245.898438 306.878906 245.898438 308.613281 C 245.898438 310.347656 244.492188 311.753906 242.761719 311.753906 C 241.027344 311.753906 239.625 310.347656 239.625 308.613281 " fill-opacity="1" fill-rule="nonzero"/><path fill="#6f788b" d="M 260.820312 313.710938 L 260.824219 313.710938 Z M 263.890625 311.792969 C 263.398438 311.792969 262.914062 311.9375 262.492188 312.21875 C 261.929688 312.59375 261.542969 313.164062 261.40625 313.832031 C 261.128906 315.207031 262.015625 316.550781 263.386719 316.828125 C 264.757812 317.105469 266.101562 316.21875 266.382812 314.84375 C 266.664062 313.46875 265.773438 312.125 264.402344 311.84375 C 264.230469 311.808594 264.058594 311.792969 263.890625 311.792969 Z M 263.894531 318.078125 C 263.648438 318.078125 263.398438 318.050781 263.152344 318 C 261.132812 317.589844 259.824219 315.613281 260.234375 313.59375 C 260.429688 312.613281 261 311.769531 261.832031 311.21875 C 262.664062 310.667969 263.660156 310.472656 264.640625 310.671875 C 266.660156 311.082031 267.964844 313.0625 267.554688 315.082031 C 267.195312 316.851562 265.632812 318.078125 263.894531 318.078125 " fill-opacity="1" fill-rule="nonzero"/><path fill="#000000" d="M 238.707031 330.925781 C 238.550781 330.925781 238.398438 330.867188 238.28125 330.75 L 236.929688 329.394531 C 236.695312 329.160156 236.695312 328.785156 236.929688 328.550781 C 237.164062 328.316406 237.542969 328.316406 237.777344 328.550781 L 239.128906 329.90625 C 239.363281 330.136719 239.363281 330.519531 239.128906 330.75 C 239.011719 330.867188 238.859375 330.925781 238.707031 330.925781 " fill-opacity="1" fill-rule="nonzero"/><path fill="#000000" d="M 243.4375 335.664062 C 243.285156 335.664062 243.132812 335.605469 243.011719 335.488281 L 241.660156 334.132812 C 241.429688 333.902344 241.429688 333.523438 241.660156 333.289062 C 241.894531 333.054688 242.273438 333.054688 242.507812 333.289062 L 243.863281 334.644531 C 244.09375 334.875 244.09375 335.253906 243.863281 335.488281 C 243.742188 335.605469 243.589844 335.664062 243.4375 335.664062 " fill-opacity="1" fill-rule="nonzero"/><path fill="#000000" d="M 237.355469 335.664062 C 237.199219 335.664062 237.046875 335.605469 236.929688 335.488281 C 236.695312 335.253906 236.695312 334.875 236.929688 334.644531 L 238.28125 333.289062 C 238.515625 333.054688 238.894531 333.054688 239.128906 333.289062 C 239.363281 333.523438 239.363281 333.902344 239.128906 334.132812 L 237.777344 335.488281 C 237.660156 335.605469 237.503906 335.664062 237.355469 335.664062 " fill-opacity="1" fill-rule="nonzero"/><path fill="#000000" d="M 242.085938 330.925781 C 241.933594 330.925781 241.777344 330.867188 241.660156 330.75 C 241.429688 330.519531 241.429688 330.136719 241.660156 329.90625 L 243.011719 328.550781 C 243.246094 328.316406 243.625 328.316406 243.863281 328.550781 C 244.09375 328.785156 244.09375 329.160156 243.863281 329.394531 L 242.507812 330.75 C 242.390625 330.867188 242.238281 330.925781 242.085938 330.925781 " fill-opacity="1" fill-rule="nonzero"/><path fill="#000000" d="M 190.65625 44.285156 C 189.492188 44.285156 188.546875 45.234375 188.546875 46.398438 C 188.546875 47.5625 189.492188 48.507812 190.65625 48.507812 C 191.816406 48.507812 192.761719 47.5625 192.761719 46.398438 C 192.761719 45.234375 191.816406 44.285156 190.65625 44.285156 Z M 190.65625 49.703125 C 188.832031 49.703125 187.351562 48.21875 187.351562 46.398438 C 187.351562 44.574219 188.832031 43.089844 190.65625 43.089844 C 192.476562 43.089844 193.960938 44.574219 193.960938 46.398438 C 193.960938 48.21875 192.476562 49.703125 190.65625 49.703125 " fill-opacity="1" fill-rule="nonzero"/><path fill="#6f788b" d="M 170.082031 63.269531 C 170.082031 64.882812 168.773438 66.191406 167.164062 66.191406 C 165.550781 66.191406 164.242188 64.882812 164.242188 63.269531 C 164.242188 61.65625 165.550781 60.347656 167.164062 60.347656 C 168.773438 60.347656 170.082031 61.65625 170.082031 63.269531 " fill-opacity="1" fill-rule="nonzero"/><path fill="#000000" d="M 174.875 31.277344 C 174.722656 31.277344 174.570312 31.214844 174.453125 31.101562 L 173.214844 29.859375 C 172.976562 29.625 172.976562 29.246094 173.214844 29.011719 C 173.445312 28.78125 173.824219 28.78125 174.058594 29.011719 L 175.300781 30.253906 C 175.53125 30.488281 175.53125 30.867188 175.300781 31.101562 C 175.183594 31.214844 175.027344 31.277344 174.875 31.277344 " fill-opacity="1" fill-rule="nonzero"/><path fill="#000000" d="M 179.214844 35.617188 C 179.0625 35.617188 178.90625 35.558594 178.792969 35.441406 L 177.550781 34.199219 C 177.320312 33.96875 177.320312 33.589844 177.550781 33.355469 C 177.785156 33.121094 178.164062 33.121094 178.398438 33.355469 L 179.636719 34.59375 C 179.871094 34.828125 179.871094 35.207031 179.636719 35.441406 C 179.519531 35.558594 179.367188 35.617188 179.214844 35.617188 " fill-opacity="1" fill-rule="nonzero"/><path fill="#000000" d="M 173.636719 35.617188 C 173.484375 35.617188 173.332031 35.558594 173.214844 35.441406 C 172.976562 35.207031 172.976562 34.828125 173.214844 34.59375 L 174.453125 33.355469 C 174.6875 33.121094 175.066406 33.121094 175.300781 33.355469 C 175.53125 33.589844 175.53125 33.96875 175.300781 34.199219 L 174.058594 35.441406 C 173.945312 35.558594 173.789062 35.617188 173.636719 35.617188 " fill-opacity="1" fill-rule="nonzero"/><path fill="#000000" d="M 177.972656 31.277344 C 177.820312 31.277344 177.667969 31.214844 177.550781 31.101562 C 177.320312 30.867188 177.320312 30.488281 177.550781 30.253906 L 178.792969 29.011719 C 179.023438 28.78125 179.402344 28.78125 179.636719 29.011719 C 179.871094 29.246094 179.871094 29.625 179.636719 29.859375 L 178.398438 31.101562 C 178.28125 31.214844 178.128906 31.277344 177.972656 31.277344 " fill-opacity="1" fill-rule="nonzero"/><path fill="#6f788b" d="M 341.917969 124.417969 C 341.855469 124.417969 341.796875 124.40625 341.734375 124.390625 C 341.421875 124.289062 341.246094 123.953125 341.34375 123.640625 C 343.371094 117.207031 344.445312 110.527344 344.539062 103.785156 C 344.636719 96.910156 343.714844 90.078125 341.800781 83.472656 C 341.707031 83.15625 341.890625 82.824219 342.210938 82.734375 C 342.527344 82.636719 342.859375 82.824219 342.949219 83.140625 C 344.898438 89.859375 345.835938 96.808594 345.734375 103.800781 C 345.636719 110.660156 344.546875 117.457031 342.484375 123.996094 C 342.40625 124.253906 342.167969 124.417969 341.917969 124.417969 " fill-opacity="1" fill-rule="nonzero"/><path fill="#6f788b" d="M 348.359375 114.75 C 348.3125 114.75 348.261719 114.742188 348.210938 114.730469 C 347.890625 114.648438 347.699219 114.324219 347.78125 114.003906 C 349.699219 106.457031 350.011719 98.425781 348.691406 90.773438 C 347.445312 83.558594 344.828125 76.75 340.910156 70.539062 C 340.734375 70.261719 340.820312 69.890625 341.097656 69.714844 C 341.378906 69.539062 341.75 69.621094 341.921875 69.902344 C 345.921875 76.246094 348.597656 83.199219 349.871094 90.570312 C 351.21875 98.382812 350.898438 106.589844 348.941406 114.300781 C 348.871094 114.570312 348.628906 114.75 348.359375 114.75 " fill-opacity="1" fill-rule="nonzero"/><path fill="#000000" d="M 246.140625 111.613281 C 245.8125 111.613281 245.546875 111.351562 245.542969 111.023438 L 245.476562 101.375 C 245.472656 101.042969 245.738281 100.773438 246.070312 100.769531 C 246.070312 100.769531 246.074219 100.769531 246.074219 100.769531 C 246.402344 100.769531 246.671875 101.035156 246.671875 101.363281 L 246.742188 111.011719 C 246.746094 111.34375 246.476562 111.613281 246.148438 111.613281 C 246.144531 111.613281 246.144531 111.613281 246.140625 111.613281 " fill-opacity="1" fill-rule="nonzero"/><path fill="#000000" d="M 250.390625 115.050781 C 250.355469 115.050781 250.316406 115.050781 250.28125 115.042969 C 249.953125 114.980469 249.742188 114.667969 249.804688 114.34375 L 253.207031 96.441406 C 253.269531 96.117188 253.582031 95.90625 253.90625 95.964844 C 254.234375 96.027344 254.445312 96.34375 254.386719 96.664062 L 250.980469 114.566406 C 250.925781 114.855469 250.675781 115.050781 250.390625 115.050781 " fill-opacity="1" fill-rule="nonzero"/><path fill="#000000" d="M 256.40625 112.320312 C 256.328125 112.320312 256.253906 112.308594 256.175781 112.277344 C 255.871094 112.148438 255.726562 111.800781 255.851562 111.492188 L 258.023438 106.222656 C 258.148438 105.917969 258.496094 105.773438 258.804688 105.898438 C 259.109375 106.027344 259.253906 106.375 259.128906 106.679688 L 256.960938 111.949219 C 256.863281 112.179688 256.640625 112.320312 256.40625 112.320312 " fill-opacity="1" fill-rule="nonzero"/><path fill="#6f788b" d="M 304.296875 99.960938 C 304.058594 99.617188 304.058594 99.167969 304.296875 98.820312 C 304.625 98.34375 304.804688 97.828125 304.804688 97.289062 C 304.804688 94.792969 300.933594 92.765625 296.15625 92.765625 C 291.382812 92.765625 287.511719 94.792969 287.511719 97.289062 C 287.511719 97.828125 287.691406 98.34375 288.019531 98.820312 C 288.257812 99.167969 288.257812 99.617188 288.019531 99.960938 C 287.691406 100.441406 287.511719 100.957031 287.511719 101.492188 C 287.511719 102.679688 288.382812 103.757812 289.808594 104.566406 C 289.777344 104.699219 289.757812 104.835938 289.757812 104.976562 C 289.757812 106.824219 292.625 108.324219 296.15625 108.324219 C 299.691406 108.324219 302.554688 106.824219 302.554688 104.976562 C 302.554688 104.835938 302.535156 104.699219 302.507812 104.566406 C 303.929688 103.757812 304.804688 102.679688 304.804688 101.492188 C 304.804688 100.957031 304.625 100.441406 304.296875 99.960938 " fill-opacity="1" fill-rule="nonzero"/><path fill="#000000" d="M 296.15625 93.363281 C 291.792969 93.363281 288.109375 95.164062 288.109375 97.289062 C 288.109375 97.695312 288.246094 98.09375 288.511719 98.484375 C 288.894531 99.035156 288.894531 99.75 288.511719 100.300781 C 288.246094 100.691406 288.109375 101.089844 288.109375 101.492188 C 288.109375 102.410156 288.816406 103.316406 290.101562 104.042969 C 290.332031 104.175781 290.449219 104.441406 290.390625 104.699219 C 290.367188 104.796875 290.355469 104.886719 290.355469 104.976562 C 290.355469 106.273438 292.738281 107.722656 296.15625 107.722656 C 299.574219 107.722656 301.957031 106.273438 301.957031 104.976562 C 301.957031 104.886719 301.945312 104.796875 301.921875 104.699219 C 301.863281 104.441406 301.980469 104.175781 302.210938 104.042969 C 303.496094 103.316406 304.207031 102.410156 304.207031 101.492188 C 304.207031 101.089844 304.070312 100.691406 303.800781 100.300781 C 303.421875 99.75 303.421875 99.035156 303.800781 98.484375 C 304.070312 98.09375 304.207031 97.695312 304.207031 97.289062 C 304.207031 95.164062 300.519531 93.363281 296.15625 93.363281 Z M 296.15625 108.921875 C 292.234375 108.921875 289.160156 107.1875 289.160156 104.976562 C 289.160156 104.941406 289.160156 104.910156 289.164062 104.875 C 287.707031 103.953125 286.914062 102.761719 286.914062 101.492188 C 286.914062 100.84375 287.121094 100.214844 287.527344 99.621094 C 287.625 99.480469 287.625 99.304688 287.527344 99.160156 C 287.121094 98.570312 286.914062 97.941406 286.914062 97.289062 C 286.914062 94.417969 290.972656 92.167969 296.15625 92.167969 C 301.339844 92.167969 305.402344 94.417969 305.402344 97.289062 C 305.402344 97.941406 305.195312 98.570312 304.789062 99.160156 C 304.691406 99.304688 304.691406 99.480469 304.789062 99.621094 C 305.195312 100.214844 305.402344 100.84375 305.402344 101.492188 C 305.402344 102.761719 304.605469 103.953125 303.152344 104.875 C 303.152344 104.910156 303.152344 104.941406 303.152344 104.976562 C 303.152344 107.1875 300.082031 108.921875 296.15625 108.921875 " fill-opacity="1" fill-rule="nonzero"/><path fill="#ffffff" d="M 319.625 62.605469 C 319.625 49.789062 308.960938 38.859375 296.144531 38.859375 C 283.355469 38.859375 272.808594 49.492188 272.722656 62.28125 C 272.679688 68.796875 275.820312 74.851562 280.101562 79.089844 C 283.191406 82.148438 285.445312 85.949219 286.539062 90.15625 L 286.59375 90.359375 C 287.652344 94.445312 291.339844 97.292969 295.558594 97.292969 L 297.289062 97.292969 C 301.507812 97.292969 305.195312 94.445312 306.253906 90.359375 L 306.289062 90.238281 C 307.375 86.058594 309.535156 82.222656 312.625 79.207031 C 316.941406 74.996094 319.625 69.113281 319.625 62.605469 " fill-opacity="1" fill-rule="nonzero"/><path fill="#000000" d="M 296.144531 39.457031 C 283.644531 39.457031 273.402344 49.699219 273.320312 62.285156 C 273.28125 68.125 275.90625 74.097656 280.523438 78.667969 C 283.734375 81.84375 286.015625 85.765625 287.117188 90.007812 L 287.171875 90.210938 C 288.164062 94.027344 291.613281 96.695312 295.558594 96.695312 L 297.289062 96.695312 C 301.234375 96.695312 304.683594 94.027344 305.675781 90.210938 L 305.707031 90.085938 C 306.839844 85.734375 309.085938 81.824219 312.207031 78.78125 C 316.605469 74.492188 319.027344 68.746094 319.027344 62.605469 C 319.027344 50.058594 308.546875 39.457031 296.144531 39.457031 Z M 297.289062 97.890625 L 295.558594 97.890625 C 291.066406 97.890625 287.140625 94.859375 286.011719 90.511719 L 285.960938 90.308594 C 284.910156 86.273438 282.738281 82.542969 279.679688 79.515625 C 274.835938 74.722656 272.082031 68.4375 272.125 62.277344 C 272.164062 55.925781 274.695312 49.914062 279.246094 45.351562 C 283.808594 40.777344 289.808594 38.261719 296.144531 38.261719 C 309.195312 38.261719 320.222656 49.410156 320.222656 62.605469 C 320.222656 69.070312 317.671875 75.121094 313.042969 79.636719 C 310.078125 82.527344 307.945312 86.246094 306.867188 90.386719 L 306.832031 90.511719 C 305.703125 94.859375 301.78125 97.890625 297.289062 97.890625 " fill-opacity="1" fill-rule="nonzero"/><path fill="#000000" d="M 299.8125 58.679688 C 299.535156 58.949219 299.277344 59.277344 299.054688 59.671875 C 297.429688 62.535156 297.945312 64.046875 298.394531 64.691406 C 298.855469 65.351562 299.648438 65.691406 300.421875 65.558594 C 301.023438 65.460938 301.460938 65.082031 301.617188 64.527344 C 302.203125 62.484375 301.238281 60.113281 299.8125 58.679688 Z M 292.898438 58.878906 C 292.207031 59.695312 291.648438 60.792969 291.234375 62.144531 C 290.773438 63.667969 290.914062 64.949219 291.621094 65.660156 C 292.070312 66.105469 292.691406 66.265625 293.292969 66.085938 C 294.039062 65.863281 294.582031 65.164062 294.785156 64.167969 C 295.082031 62.679688 294.28125 59.789062 292.898438 58.878906 Z M 297.460938 94.570312 C 297.128906 94.566406 296.863281 94.300781 296.863281 93.96875 C 296.914062 81.445312 304.21875 67.324219 305.683594 64.621094 C 306.539062 63.042969 306.863281 61.757812 306.683594 60.695312 C 306.417969 59.125 305.617188 58.113281 304.308594 57.691406 C 303.652344 57.484375 302.152344 57.296875 300.800781 57.980469 C 302.410156 59.6875 303.476562 62.390625 302.769531 64.859375 C 302.484375 65.859375 301.679688 66.5625 300.621094 66.742188 C 299.398438 66.945312 298.140625 66.410156 297.417969 65.378906 C 296.804688 64.503906 296.0625 62.519531 298.011719 59.082031 C 298.269531 58.632812 298.558594 58.246094 298.878906 57.921875 C 298.878906 57.921875 298.875 57.917969 298.871094 57.917969 C 297.929688 57.320312 296.375 56.886719 294.847656 57.457031 C 294.472656 57.597656 294.113281 57.792969 293.777344 58.046875 C 295.480469 59.394531 296.324219 62.585938 295.957031 64.40625 C 295.667969 65.847656 294.820312 66.878906 293.636719 67.234375 C 292.625 67.539062 291.527344 67.257812 290.773438 66.503906 C 289.746094 65.472656 289.496094 63.753906 290.089844 61.796875 C 290.53125 60.34375 291.105469 59.257812 291.714844 58.441406 C 289.28125 57.859375 287.59375 59.027344 287.125 60.175781 C 286.5625 61.570312 286.769531 63.234375 287.667969 64.515625 C 289.8125 67.585938 294.832031 76.535156 295.078125 93.394531 C 295.082031 93.726562 294.820312 93.996094 294.488281 94.003906 C 294.484375 94.003906 294.480469 94.003906 294.480469 94.003906 C 294.152344 94.003906 293.886719 93.742188 293.878906 93.410156 C 293.640625 76.886719 288.769531 68.179688 286.6875 65.203125 C 285.542969 63.566406 285.292969 61.519531 286.019531 59.722656 C 286.816406 57.757812 289.46875 56.421875 292.613281 57.453125 C 293.242188 56.882812 293.878906 56.539062 294.429688 56.335938 C 296.367188 55.613281 298.324219 56.15625 299.511719 56.90625 C 299.625 56.976562 299.742188 57.054688 299.855469 57.140625 C 301.480469 56.132812 303.433594 56.15625 304.671875 56.554688 C 306.417969 57.113281 307.519531 58.476562 307.863281 60.496094 C 308.09375 61.851562 307.734375 63.34375 306.734375 65.1875 C 305.296875 67.851562 298.109375 81.738281 298.0625 93.972656 C 298.058594 94.300781 297.792969 94.570312 297.460938 94.570312 " fill-opacity="1" fill-rule="nonzero"/><path fill="#000000" d="M 306.90625 77.761719 C 306.707031 77.761719 306.511719 77.664062 306.398438 77.484375 C 306.222656 77.203125 306.308594 76.832031 306.585938 76.65625 C 310.703125 74.070312 313.664062 69.867188 314.710938 65.128906 C 314.785156 64.804688 315.101562 64.605469 315.425781 64.671875 C 315.75 64.746094 315.953125 65.0625 315.878906 65.386719 C 314.761719 70.4375 311.609375 74.914062 307.222656 77.671875 C 307.125 77.734375 307.015625 77.761719 306.90625 77.761719 " fill-opacity="1" fill-rule="nonzero"/><path fill="#000000" d="M 281.652344 75.074219 C 281.488281 75.074219 281.324219 75.007812 281.207031 74.871094 C 278.039062 71.308594 276.292969 66.71875 276.292969 61.945312 C 276.292969 54.5 280.4375 47.816406 287.105469 44.503906 C 287.402344 44.359375 287.761719 44.480469 287.90625 44.777344 C 288.054688 45.070312 287.933594 45.429688 287.636719 45.578125 C 281.378906 48.6875 277.492188 54.957031 277.492188 61.945312 C 277.492188 66.425781 279.128906 70.734375 282.101562 74.078125 C 282.320312 74.324219 282.300781 74.703125 282.050781 74.921875 C 281.9375 75.023438 281.792969 75.074219 281.652344 75.074219 " fill-opacity="1" fill-rule="nonzero"/><path fill="#ffffff" d="M 297.636719 100.308594 C 297.347656 100.308594 297.097656 100.101562 297.046875 99.8125 C 296.988281 99.488281 297.207031 99.175781 297.535156 99.121094 C 298.316406 98.984375 299.078125 98.816406 299.789062 98.617188 C 300.109375 98.523438 300.4375 98.710938 300.527344 99.027344 C 300.617188 99.347656 300.433594 99.675781 300.113281 99.765625 C 299.359375 99.980469 298.558594 100.160156 297.734375 100.300781 C 297.703125 100.308594 297.667969 100.308594 297.636719 100.308594 " fill-opacity="1" fill-rule="nonzero"/><path fill="#ffffff" d="M 293.992188 104.757812 C 293.660156 104.757812 293.394531 104.492188 293.390625 104.160156 C 293.386719 103.832031 293.65625 103.5625 293.984375 103.558594 C 295.746094 103.542969 298.335938 103.300781 300.640625 102.21875 C 300.9375 102.078125 301.296875 102.210938 301.4375 102.507812 C 301.574219 102.808594 301.449219 103.164062 301.148438 103.304688 C 298.644531 104.472656 295.878906 104.742188 293.996094 104.757812 C 293.996094 104.757812 293.992188 104.757812 293.992188 104.757812 " fill-opacity="1" fill-rule="nonzero"/><path fill="#000000" d="M 296.273438 33.875 C 296.269531 33.875 296.265625 33.875 296.261719 33.875 C 295.933594 33.867188 295.667969 33.589844 295.675781 33.261719 L 295.890625 23.015625 C 295.894531 22.6875 296.160156 22.425781 296.488281 22.425781 C 296.492188 22.425781 296.496094 22.425781 296.5 22.425781 C 296.828125 22.433594 297.09375 22.710938 297.085938 23.039062 L 296.871094 33.285156 C 296.867188 33.613281 296.597656 33.875 296.273438 33.875 " fill-opacity="1" fill-rule="nonzero"/><path fill="#000000" d="M 266.574219 54.75 L 260.027344 54.746094 C 259.699219 54.746094 259.429688 54.476562 259.429688 54.144531 C 259.429688 53.816406 259.699219 53.546875 260.027344 53.546875 L 266.574219 53.554688 C 266.902344 53.554688 267.171875 53.820312 267.171875 54.152344 C 267.171875 54.484375 266.902344 54.75 266.574219 54.75 " fill-opacity="1" fill-rule="nonzero"/><path fill="#000000" d="M 272.609375 41.066406 C 272.515625 41.066406 272.414062 41.042969 272.324219 40.996094 L 264.945312 36.996094 C 264.652344 36.839844 264.546875 36.472656 264.703125 36.183594 C 264.863281 35.894531 265.226562 35.785156 265.515625 35.945312 L 272.894531 39.945312 C 273.1875 40.101562 273.292969 40.464844 273.136719 40.753906 C 273.027344 40.953125 272.820312 41.066406 272.609375 41.066406 " fill-opacity="1" fill-rule="nonzero"/><path fill="#000000" d="M 325.742188 54.75 C 325.414062 54.75 325.144531 54.484375 325.144531 54.152344 C 325.144531 53.820312 325.410156 53.554688 325.742188 53.554688 L 332.285156 53.546875 C 332.617188 53.546875 332.882812 53.816406 332.882812 54.144531 C 332.886719 54.476562 332.617188 54.746094 332.289062 54.746094 L 325.742188 54.75 " fill-opacity="1" fill-rule="nonzero"/><path fill="#000000" d="M 319.703125 41.066406 C 319.492188 41.066406 319.285156 40.953125 319.179688 40.753906 C 319.019531 40.464844 319.128906 40.101562 319.417969 39.945312 L 326.800781 35.945312 C 327.089844 35.785156 327.453125 35.894531 327.609375 36.183594 C 327.769531 36.472656 327.660156 36.839844 327.367188 36.996094 L 319.988281 40.996094 C 319.898438 41.042969 319.800781 41.066406 319.703125 41.066406 " fill-opacity="1" fill-rule="nonzero"/></svg>