<?xml version="1.0" encoding="UTF-8"?>
<svg version="1.1" xmlns="http://www.w3.org/2000/svg" width="500" height="500">
<path d="M0 0 C0.89460937 0.42925781 1.78921875 0.85851562 2.7109375 1.30078125 C26.09133071 13.19195545 44.31336245 34.27772962 52.71142578 59.10302734 C60.64798312 84.86181552 58.82242984 112.77457456 47 137 C34.0568115 160.89811611 12.97821208 179.62086085 -13.20068359 187.67724609 C-21.66331669 190.02725277 -30.2077468 191.66903139 -39 192 C-39.69480469 192.03996094 -40.38960938 192.07992187 -41.10546875 192.12109375 C-68.67576076 193.0004464 -93.68619919 181.79198432 -113.66015625 163.26953125 C-132.30681622 145.18320497 -142.80922249 120.65246526 -144.16796875 94.8046875 C-144.33474193 69.78870994 -136.86738319 46.4708538 -121 27 C-119.98679688 25.74123047 -119.98679688 25.74123047 -118.953125 24.45703125 C-90.74506438 -8.744062 -39.1102024 -19.67047053 0 0 Z " fill="#29B6F6" transform="translate(322,167)"/>
<path d="M0 0 C8.27618712 6.23916893 13.9552229 15.47474476 16.671875 25.47265625 C18.59204563 40.26254194 16.13528988 52.09914385 7 64 C-0.71729995 72.727181 -11.45003359 78.23563519 -23.05859375 79.2734375 C-35.69271031 79.65319129 -46.29691358 76.50641051 -55.88671875 68.09375 C-64.7168762 59.34520214 -70.01574925 48.4947686 -70.3125 36 C-70.16956011 23.34981974 -65.73918108 13.15950423 -57.12109375 4.00390625 C-40.66684338 -11.45311683 -18.54798728 -11.32944342 0 0 Z " fill="#FAFDFD" transform="translate(294,234)"/>
<path d="M0 0 C5.40298384 5.13283465 8.64429397 8.85120766 8.875 16.5 C8.81972417 22.75307802 7.82755878 26.79950817 3.5 31.375 C-2.70076058 36.21159325 -7.83931463 37.02238186 -15.5 36.375 C-21.47801143 34.30568835 -26.05231641 30.27036718 -28.875 24.625 C-30.17334655 17.87359793 -30.6712508 12.54369796 -26.9375 6.5 C-20.25822934 -2.23562019 -10.20751743 -4.73920452 0 0 Z " fill="#FBFDFD" transform="translate(324.5,205.625)"/>
<path d="M0 0 C4.62 0 9.24 0 14 0 C14 4.62 14 9.24 14 14 C3.94140625 14.09765625 3.94140625 14.09765625 1 14 C0 13 0 13 -0.09765625 10.05859375 C-0.06510417 6.70572917 -0.03255208 3.35286458 0 0 Z " fill="#54C4F7" transform="translate(307,216)"/>
<path d="M0 0 C1.093125 0.00257813 2.18625 0.00515625 3.3125 0.0078125 C4.405625 0.00523437 5.49875 0.00265625 6.625 0 C9.3125 0.1328125 9.3125 0.1328125 10.3125 1.1328125 C10.45643457 5.46812168 10.35462061 9.79438981 10.3125 14.1328125 C5.6925 14.1328125 1.0725 14.1328125 -3.6875 14.1328125 C-3.78515625 4.07421875 -3.78515625 4.07421875 -3.6875 1.1328125 C-2.6875 0.1328125 -2.6875 0.1328125 0 0 Z " fill="#4BC1F7" transform="translate(245.6875,248.8671875)"/>
<path d="M0 0 C1.093125 0.00257813 2.18625 0.00515625 3.3125 0.0078125 C4.405625 0.00523437 5.49875 0.00265625 6.625 0 C9.3125 0.1328125 9.3125 0.1328125 10.3125 1.1328125 C10.41123816 3.13080822 10.44221799 5.13238408 10.4375 7.1328125 C10.44007813 8.2259375 10.44265625 9.3190625 10.4453125 10.4453125 C10.3125 13.1328125 10.3125 13.1328125 9.3125 14.1328125 C7.31450428 14.23155066 5.31292842 14.26253049 3.3125 14.2578125 C2.219375 14.26039063 1.12625 14.26296875 0 14.265625 C-2.6875 14.1328125 -2.6875 14.1328125 -3.6875 13.1328125 C-3.78623816 11.13481678 -3.81721799 9.13324092 -3.8125 7.1328125 C-3.81507813 6.0396875 -3.81765625 4.9465625 -3.8203125 3.8203125 C-3.64172116 0.20646411 -3.61384839 0.17859134 0 0 Z " fill="#43BEF7" transform="translate(245.6875,267.8671875)"/>
<path d="M0 0 C4.29 0 8.58 0 13 0 C13 4.62 13 9.24 13 14 C8.71 14 4.42 14 0 14 C0 9.38 0 4.76 0 0 Z " fill="#43BEF6" transform="translate(261,268)"/>
<path d="M0 0 C4.29 0 8.58 0 13 0 C13 4.29 13 8.58 13 13 C8.71 13 4.42 13 0 13 C0 8.71 0 4.42 0 0 Z " fill="#29B6F6" transform="translate(261,287)"/>
<path d="M0 0 C4.29 0 8.58 0 13 0 C13 4.29 13 8.58 13 13 C8.71 13 4.42 13 0 13 C0 8.71 0 4.42 0 0 Z " fill="#2CB7F6" transform="translate(280,250)"/>
<path d="M0 0 C4.29 0 8.58 0 13 0 C13 4.29 13 8.58 13 13 C8.71 13 4.42 13 0 13 C0 8.71 0 4.42 0 0 Z " fill="#29B6F6" transform="translate(261,250)"/>
<path d="M0 0 C2.97 0 5.94 0 9 0 C9 2.97 9 5.94 9 9 C6.03 9 3.06 9 0 9 C0 6.03 0 3.06 0 0 Z " fill="#F3FBFD" transform="translate(263,289)"/>
<path d="M0 0 C2.97 0 5.94 0 9 0 C9 2.97 9 5.94 9 9 C6.03 9 3.06 9 0 9 C0 6.03 0 3.06 0 0 Z " fill="#F0F9FD" transform="translate(282,252)"/>
<path d="M0 0 C2.97 0 5.94 0 9 0 C9 2.97 9 5.94 9 9 C6.03 9 3.06 9 0 9 C0 6.03 0 3.06 0 0 Z " fill="#F3FBFD" transform="translate(263,252)"/>
<path d="M0 0 C2.97 0 5.94 0 9 0 C9 2.64 9 5.28 9 8 C6.03 8 3.06 8 0 8 C0 5.36 0 2.72 0 0 Z " fill="#F9FDFD" transform="translate(263,271)"/>
<path d="M0 0 C2.64 0 5.28 0 8 0 C8 2.97 8 5.94 8 9 C5.36 9 2.72 9 0 9 C0 6.03 0 3.06 0 0 Z " fill="#F9FDFD" transform="translate(245,252)"/>
<path d="M0 0 C2.64 0 5.28 0 8 0 C8 2.64 8 5.28 8 8 C5.36 8 2.72 8 0 8 C0 5.36 0 2.72 0 0 Z " fill="#FFFFFE" transform="translate(245,271)"/>
<path d="M0 0 C2.64 0 5.28 0 8 0 C8 2.64 8 5.28 8 8 C5.36 8 2.72 8 0 8 C0 5.36 0 2.72 0 0 Z " fill="#FFFFFE" transform="translate(310,219)"/>
<path d="M0 0 C1.65322266 0.01740234 1.65322266 0.01740234 3.33984375 0.03515625 C4.99693359 0.04869141 4.99693359 0.04869141 6.6875 0.0625 C7.54214844 0.07410156 8.39679688 0.08570313 9.27734375 0.09765625 C8.94734375 3.72765625 8.61734375 7.35765625 8.27734375 11.09765625 C7.94734375 11.09765625 7.61734375 11.09765625 7.27734375 11.09765625 C7.27734375 8.45765625 7.27734375 5.81765625 7.27734375 3.09765625 C4.63734375 3.09765625 1.99734375 3.09765625 -0.72265625 3.09765625 C-0.66078125 4.37640625 -0.59890625 5.65515625 -0.53515625 6.97265625 C-0.4296875 9.15234375 -0.4296875 9.15234375 -0.72265625 11.09765625 C-1.71265625 11.75765625 -2.70265625 12.41765625 -3.72265625 13.09765625 C-3.74952178 11.11856227 -3.76899 9.13936654 -3.78515625 7.16015625 C-3.79675781 6.05800781 -3.80835938 4.95585937 -3.8203125 3.8203125 C-3.68888959 0.15624171 -3.66407079 0.13142291 0 0 Z " fill="#62C9F8" transform="translate(245.72265625,267.90234375)"/>
</svg>
