<svg xmlns="http://www.w3.org/2000/svg" xmlns:xlink="http://www.w3.org/1999/xlink" width="500" zoomAndPan="magnify" viewBox="0 0 375 374.999991" height="500" preserveAspectRatio="xMidYMid meet" version="1.0"><defs><clipPath id="ecf9b9961a"><path d="M 20.597656 261 L 344.597656 261 L 344.597656 317.496094 L 20.597656 317.496094 Z M 20.597656 261 " clip-rule="nonzero"/></clipPath><clipPath id="2608478975"><path d="M 67 19 L 297 19 L 297 317.496094 L 67 317.496094 Z M 67 19 " clip-rule="nonzero"/></clipPath></defs><g clip-path="url(#ecf9b9961a)"><path fill="#015b9c" d="M 111.371094 317.246094 L 20.597656 317.246094 C 24.261719 309.214844 29.867188 299.125 38.40625 288.777344 C 48.832031 276.15625 59.773438 267.84375 67.78125 262.691406 C 83.964844 258.710938 100.828125 265.328125 109.601562 278.949219 C 116.960938 290.355469 117.550781 304.996094 111.371094 317.246094 Z M 318.058594 289.972656 C 303.421875 278.644531 289.261719 272.460938 279.410156 269.039062 C 277.085938 270.945312 270.089844 277.171875 268.738281 287.132812 C 267.199219 298.4375 273.472656 310.296875 284.753906 317.246094 L 344.59375 317.246094 C 338.792969 309.316406 330.203125 299.378906 318.058594 289.972656 Z M 318.058594 289.972656 " fill-opacity="1" fill-rule="nonzero"/></g><path fill="#fab89a" d="M 231.859375 67.296875 C 240.121094 70.808594 246.511719 77.820312 250.9375 85.648438 C 255.363281 93.472656 258.027344 102.148438 260.660156 110.746094 C 263.898438 121.332031 270.847656 133.34375 270.925781 144.414062 C 270.988281 153.109375 266.992188 161.75 260.332031 167.324219 C 259.375 168.125 258.324219 168.882812 257.101562 169.125 C 255.878906 169.371094 253.679688 168.988281 253.0625 167.902344 C 247.589844 184.183594 242.394531 202.003906 236.84375 218.257812 C 233.882812 226.933594 237.742188 237.464844 236.253906 246.511719 C 235.019531 254.011719 229.351562 260.21875 222.65625 263.789062 C 215.957031 267.359375 208.296875 268.640625 200.75 269.421875 C 194.9375 270.023438 188.992188 270.351562 183.300781 269.011719 C 174.359375 266.910156 166.898438 260.9375 159.777344 255.128906 C 154.007812 250.425781 148.058594 245.488281 144.886719 238.75 C 141.710938 232.011719 142.132812 222.320312 148.058594 217.816406 C 154.082031 213.238281 158.6875 207.390625 161.839844 200.503906 C 153.226562 189.929688 148.472656 176.625 146.191406 163.164062 C 143.910156 149.703125 145.773438 135.460938 144.132812 121.910156 C 143.484375 116.566406 142.113281 109.0625 141.550781 103.707031 C 140.625 94.851562 143.054688 85.683594 148.246094 78.453125 C 154.230469 70.125 163.507812 64.632812 173.238281 61.429688 C 182.96875 58.226562 193.242188 57.101562 203.425781 56 C 213.628906 54.890625 222.410156 63.277344 231.859375 67.296875 Z M 231.859375 67.296875 " fill-opacity="1" fill-rule="nonzero"/><g clip-path="url(#2608478975)"><path fill="#ffffff" d="M 170.261719 32.109375 C 178.621094 23.398438 190.816406 18.523438 202.867188 19.078125 C 209.988281 19.402344 216.949219 21.515625 224.074219 21.691406 C 230.269531 21.84375 236.40625 20.53125 242.59375 20.253906 C 248.785156 19.972656 255.394531 20.898438 260.160156 24.871094 C 264.546875 28.527344 266.71875 34.203125 270.566406 38.425781 C 274.09375 42.292969 278.871094 44.78125 282.6875 48.355469 C 289.921875 55.136719 293.15625 65.917969 290.847656 75.570312 C 294.066406 84.632812 296.296875 95.160156 296.703125 104.773438 C 297.257812 117.898438 292.175781 131.167969 283 140.546875 C 269.582031 133.417969 262.410156 120.425781 257.042969 106.191406 C 251.671875 91.953125 247.710938 76.820312 238.609375 64.636719 C 228.9375 51.6875 214.273438 43.300781 199.097656 37.785156 C 189.550781 34.316406 178.367188 31.996094 169.675781 37.257812 C 169.804688 35.441406 170.128906 33.925781 170.261719 32.109375 Z M 289.648438 309.425781 C 288.847656 306.113281 287.460938 302.808594 287.898438 299.429688 C 288.171875 297.308594 289.152344 295.320312 289.355469 293.191406 C 289.761719 288.726562 286.734375 284.78125 284.035156 281.203125 C 281.339844 277.628906 278.167969 273.34375 279.410156 269.039062 C 268.796875 264.84375 262.863281 251.121094 251.878906 248.019531 C 252.226562 246.664062 252.5625 245.308594 252.902344 243.953125 C 253.15625 242.910156 253.417969 241.878906 253.679688 240.835938 C 253.917969 239.871094 254.164062 238.894531 254.164062 237.894531 C 254.171875 235.160156 252.445312 232.347656 249.917969 231.3125 C 251.355469 230.414062 251.40625 228.1875 250.457031 226.773438 C 249.511719 225.355469 247.90625 224.5625 246.367188 223.824219 C 243.109375 222.273438 239.855469 220.714844 236.589844 219.15625 C 233.199219 226.847656 230.605469 234.957031 228.753906 243.164062 C 229.683594 243.65625 230.234375 243.808594 231.164062 244.300781 C 229.269531 247.105469 227.90625 251 227.882812 254.382812 C 222.894531 253.644531 220.085938 254.789062 218.4375 256.007812 C 215.351562 258.289062 215.027344 261.753906 212.628906 261.929688 C 210.183594 262.109375 208.703125 258.625 206.605469 259.3125 C 205.59375 259.636719 205.558594 260.234375 203.917969 261.617188 C 203.011719 262.378906 201.746094 262.9375 200.65625 262.464844 C 199.882812 262.132812 199.410156 261.363281 198.835938 260.746094 C 197.492188 259.289062 195.359375 258.609375 193.417969 259.007812 C 191.480469 259.40625 189.230469 260.492188 188.570312 262.363281 C 189.207031 260.492188 187.761719 258.210938 185.796875 258 C 184.039062 257.8125 181.984375 258.964844 180.640625 257.804688 C 179.007812 256.398438 180.640625 253.476562 179.542969 251.621094 C 178.484375 249.847656 175.710938 250.144531 174.222656 248.722656 C 172.546875 247.136719 173.242188 244.300781 172.234375 242.222656 C 171.476562 240.648438 169.65625 239.65625 167.921875 239.886719 C 166.425781 240.074219 164.609375 240.960938 163.929688 242.308594 C 164.589844 239.980469 163.515625 237.210938 161.386719 236.039062 C 160.617188 235.617188 159.71875 235.371094 159.101562 234.742188 C 157.625 233.242188 158.433594 230.363281 156.871094 228.941406 C 155.601562 227.789062 153.625 228.304688 151.984375 228.804688 C 150.34375 229.296875 148.230469 229.550781 147.238281 228.152344 C 146.480469 227.066406 146.867188 225.550781 147.519531 224.40625 C 148.171875 223.253906 149.074219 222.203125 149.363281 220.917969 C 149.648438 219.628906 149.597656 217.679688 148.28125 217.605469 C 149.480469 216.949219 151.027344 215.953125 152.585938 214.460938 C 154.347656 212.773438 155.496094 211.0625 156.21875 209.78125 C 154.753906 209.457031 143.398438 206.992188 136.890625 208.609375 C 134.257812 209.261719 132.921875 210.492188 132.351562 211.003906 C 131.066406 212.15625 130.160156 213.816406 130.226562 215.546875 C 130.285156 217.273438 131.472656 218.984375 133.152344 219.367188 C 131.125 220.296875 130.246094 223.101562 131.105469 225.160156 C 126.390625 226.261719 121.09375 227.957031 117.1875 230.820312 C 107.863281 231.8125 99.230469 236.109375 92.804688 242.953125 C 85.523438 250.707031 73.449219 253.679688 67.78125 262.695312 C 74.25 264.617188 79.039062 269.8125 82.34375 275.707031 C 83.992188 278.648438 85.117188 281.960938 87.441406 284.390625 C 89.699219 286.738281 92.90625 288.066406 94.933594 290.617188 C 96.957031 293.152344 97.523438 296.515625 98.34375 299.660156 C 99.433594 303.835938 101.300781 309.78125 107.136719 317.246094 L 289.269531 317.246094 C 290.417969 314.972656 290.265625 312 289.648438 309.425781 Z M 289.648438 309.425781 " fill-opacity="1" fill-rule="nonzero"/></g><path fill="#000000" d="M 279.972656 149.90625 C 280.828125 153.148438 279.339844 156.496094 277.890625 159.519531 C 273.863281 167.894531 269.839844 176.269531 265.8125 184.644531 C 265.113281 186.097656 264.398438 187.582031 263.277344 188.742188 C 260.3125 191.808594 254.976562 191.722656 251.601562 189.117188 C 248.226562 186.507812 246.738281 181.953125 247.066406 177.695312 C 247.398438 173.4375 249.179688 168.953125 251.589844 165.429688 C 256.5 165.085938 261.261719 162.9375 264.78125 159.484375 C 268.296875 156.035156 270.539062 151.308594 270.988281 146.394531 C 274.613281 145.3125 279 146.242188 279.972656 149.90625 Z M 152 97.570312 C 153.769531 96.070312 154.859375 93.792969 154.921875 91.472656 C 154.980469 89.417969 154.617188 87.027344 155.273438 85.082031 C 156.039062 91.898438 161.511719 97.925781 168.21875 99.328125 C 170.660156 99.835938 173.261719 99.769531 175.578125 98.847656 C 177.894531 97.921875 179.898438 96.085938 180.757812 93.742188 C 181.613281 91.394531 181.074219 88.363281 179.382812 86.523438 C 178.765625 88.644531 177.007812 90.476562 174.835938 90.855469 C 172.664062 91.234375 170.234375 89.917969 169.640625 87.789062 C 169.15625 86.058594 169.917969 84.144531 171.21875 82.90625 C 172.855469 81.347656 174.796875 80.886719 176.039062 80.675781 C 182.484375 79.597656 186.476562 79.644531 188.515625 79.339844 C 192.027344 78.816406 196.617188 76.214844 201.332031 67.105469 C 201.765625 67.027344 202.390625 66.976562 203.109375 67.132812 C 204.78125 67.496094 205.726562 68.71875 206 69.097656 C 207.117188 76.269531 211.882812 82.773438 218.375 85.984375 C 220.410156 86.992188 222.613281 87.703125 224.449219 89.039062 C 226.28125 90.375 227.734375 92.574219 227.351562 94.816406 C 226.960938 97.136719 224.582031 98.804688 222.234375 98.789062 C 219.886719 98.773438 217.703125 97.328125 216.363281 95.394531 C 215.023438 93.464844 214.164062 90.734375 213.921875 88.394531 C 212.292969 92.910156 213.738281 98.367188 217.386719 101.476562 C 221.039062 104.589844 227.519531 105.675781 231.707031 103.339844 C 229.203125 105.539062 225.667969 106.742188 222.371094 106.253906 C 225.351562 108.199219 229.042969 109.023438 232.5625 108.523438 C 236.082031 108.023438 239.515625 105.875 241.832031 103.175781 C 240.875 104.980469 240.546875 107.113281 240.925781 109.121094 C 241.105469 110.09375 241.457031 111.050781 242.054688 111.835938 C 242.652344 112.625 243.957031 113.730469 244.929688 113.910156 C 242.539062 116.042969 241.5625 119.636719 242.542969 122.691406 C 243.523438 125.746094 246.949219 128.113281 250.132812 128.453125 C 248.4375 131.320312 246.683594 134.46875 247.105469 137.769531 C 247.347656 139.667969 248.339844 141.457031 249.816406 142.664062 C 251.402344 143.957031 253.640625 144.554688 255.554688 143.84375 C 257.472656 143.128906 259.382812 140.277344 258.828125 138.308594 C 260.316406 137.453125 261.292969 135.890625 261.800781 134.25 C 262.308594 132.609375 262.398438 130.871094 262.484375 129.15625 C 262.773438 123.441406 263.0625 117.691406 262.375 112.007812 C 261.8125 107.367188 260.371094 102.367188 258.632812 98.027344 C 251.742188 80.828125 239.386719 66.054688 223.242188 57.019531 C 207.890625 48.429688 189.761719 46.09375 172.527344 49.597656 C 169.792969 48.675781 166.832031 49.804688 164.175781 50.929688 C 158.679688 53.257812 153.125 55.707031 148.601562 59.605469 C 144.824219 62.859375 141.90625 67.011719 139.574219 71.421875 C 137.242188 75.828125 134.523438 80.589844 133.582031 85.488281 C 132.097656 93.234375 132.292969 101.554688 133.203125 109.390625 C 131.878906 113.316406 132.878906 117.589844 135.742188 120.261719 C 139.179688 123.46875 143.652344 122.839844 144.230469 122.75 C 143.777344 119.433594 143.476562 115.429688 143.652344 110.898438 C 143.820312 106.5 144.398438 102.640625 145.074219 99.4375 C 147.371094 99.761719 150.230469 99.070312 152 97.570312 Z M 152 97.570312 " fill-opacity="1" fill-rule="nonzero"/><path fill="#015b9c" d="M 264.800781 56.277344 C 245.632812 33.480469 214.332031 21.585938 184.898438 25.914062 C 176.492188 27.152344 167.492188 30.195312 163.15625 37.515625 C 163.902344 37.625 164.636719 37.757812 165.375 37.878906 C 160.976562 42.300781 156.578125 46.722656 152.179688 51.144531 C 154.375 54.96875 156.566406 58.792969 158.761719 62.617188 C 168.34375 61.726562 184.382812 61.542969 202.570312 67.902344 C 230.847656 77.792969 246.820312 97.378906 252.785156 105.574219 C 252.421875 100.953125 252.0625 96.332031 251.703125 91.710938 C 256.53125 103.789062 260.402344 116.304688 266.679688 127.6875 C 269.851562 133.4375 274.707031 138.828125 281.097656 140.324219 C 290.351562 111.996094 283.96875 79.070312 264.800781 56.277344 Z M 187.085938 42.308594 C 189.878906 42.875 192.695312 43.402344 195.566406 43.84375 C 206.644531 45.550781 217.769531 48.710938 226.851562 55.289062 C 229.683594 57.34375 232.253906 59.683594 234.601562 62.238281 Z M 187.085938 42.308594 " fill-opacity="1" fill-rule="nonzero"/><path fill="#ffffff" d="M 240.085938 50.542969 C 241.882812 49.140625 244.875 49.738281 245.996094 51.726562 C 246.859375 53.261719 246.804688 55.453125 248.320312 56.339844 C 249.210938 56.859375 250.328125 56.699219 251.335938 56.917969 C 253.152344 57.3125 254.496094 58.949219 255.074219 60.71875 C 255.652344 62.488281 255.859375 64.785156 255.804688 66.644531 C 257.132812 66.28125 258.519531 67.273438 259.132812 68.511719 C 259.746094 69.75 259.792969 71.179688 259.933594 72.554688 C 260.074219 73.929688 260.363281 75.382812 261.320312 76.378906 C 262.28125 77.378906 263.726562 77.726562 264.875 78.507812 C 267.015625 79.972656 267.597656 83.535156 266.4375 85.859375 C 269.421875 87.605469 271.238281 91.167969 270.902344 94.613281 C 270.796875 95.675781 270.507812 96.714844 270.453125 97.78125 C 270.402344 98.847656 270.625 99.996094 271.382812 100.746094 C 272.382812 101.730469 273.976562 101.742188 275.203125 102.425781 C 276.671875 103.242188 277.464844 105.109375 277.042969 106.738281 C 276.617188 108.367188 274.953125 110.394531 273.273438 110.390625 C 275.535156 110.585938 277.511719 112.558594 277.71875 114.820312 C 277.871094 116.457031 277.210938 118.210938 277.914062 119.699219 C 278.535156 121.007812 280.011719 121.65625 280.988281 122.726562 C 282.273438 124.128906 282.59375 126.332031 281.765625 128.046875 C 280.9375 129.757812 278.535156 132.070312 276.640625 131.929688 C 279.226562 132.1875 281.578125 134.101562 282.359375 136.585938 C 282.691406 137.636719 282.882812 138.925781 283.875 139.398438 C 284.769531 139.820312 285.804688 139.320312 286.789062 139.257812 C 287.808594 139.1875 288.847656 139.632812 289.503906 140.414062 C 290.160156 141.195312 290.425781 142.527344 290.1875 143.519531 C 291.234375 143.101562 292.460938 143.476562 293.34375 144.175781 C 294.226562 144.878906 294.832031 145.859375 295.421875 146.824219 C 296.878906 149.207031 298.335938 151.589844 299.796875 153.972656 C 300.292969 154.785156 300.804688 155.65625 300.769531 156.605469 C 300.722656 157.933594 299.640625 158.96875 298.566406 159.75 C 295.367188 162.070312 291.304688 163.253906 287.371094 163.605469 C 289.175781 164.367188 290.015625 166.828125 289.050781 168.535156 C 288.476562 169.550781 287.394531 170.292969 287.148438 171.433594 C 286.800781 173.0625 288.339844 174.578125 288.25 176.246094 C 288.160156 177.855469 286.503906 179.019531 284.894531 179.136719 C 283.289062 179.25 280.894531 178.769531 279.417969 178.125 C 281.015625 180.117188 282.628906 182.128906 283.765625 184.417969 C 284.902344 186.707031 285.542969 189.324219 285.074219 191.835938 C 284.605469 194.351562 282.882812 196.707031 280.449219 197.484375 C 277.660156 198.375 274.605469 197.074219 272.324219 195.230469 C 266.828125 190.785156 266.554688 182.75 266.125 175.683594 C 266.035156 174.210938 264.984375 173.011719 264.25 171.734375 C 263.519531 170.457031 263.171875 168.632812 264.273438 167.65625 C 265.019531 166.996094 266.21875 166.957031 266.84375 166.179688 C 267.671875 165.152344 266.984375 163.652344 266.988281 162.332031 C 266.996094 160.246094 270.042969 158.65625 272.074219 159.121094 C 270.539062 158.59375 269.546875 156.9375 269.558594 155.308594 C 269.566406 153.683594 270.453125 152.144531 271.691406 151.089844 C 272.929688 150.039062 275.328125 149.566406 276.910156 149.195312 C 274.21875 149.371094 271.464844 149.535156 268.871094 148.796875 C 267.457031 148.390625 266.074219 147.683594 265.199219 146.503906 C 264.324219 145.320312 264.191406 142.976562 264.996094 141.742188 C 263.277344 141.210938 261.523438 140.664062 260.0625 139.613281 C 258.601562 138.558594 257.457031 136.898438 257.5 135.09375 C 257.539062 133.496094 258.480469 132.03125 258.550781 130.433594 C 258.613281 128.984375 257.957031 127.609375 257.261719 126.335938 C 256.570312 125.0625 255.808594 123.773438 255.628906 122.335938 C 255.449219 120.894531 255.894531 119.078125 257.230469 118.519531 C 254.882812 116.207031 253.421875 113.015625 253.203125 109.726562 C 253.113281 108.332031 253.226562 106.898438 252.785156 105.574219 C 252.203125 103.855469 250.765625 102.582031 249.835938 101.027344 C 248.902344 99.472656 247.894531 96.839844 249.378906 95.792969 C 247.074219 94.6875 245.324219 92.484375 244.765625 89.984375 C 244.539062 88.957031 244.5 87.882812 244.136719 86.894531 C 243.46875 85.074219 241.820312 83.828125 240.585938 82.332031 C 239.347656 80.835938 238.6875 78.078125 239.851562 76.523438 C 238.183594 76.453125 236.488281 76.375 234.914062 75.816406 C 233.34375 75.257812 231.882812 74.136719 231.328125 72.5625 C 230.90625 71.359375 230.953125 69.855469 229.9375 69.089844 C 229.023438 68.398438 227.742188 68.699219 226.597656 68.761719 C 224.5625 68.871094 222.496094 68.070312 221.066406 66.613281 C 219.636719 65.15625 218.339844 62.878906 218.480469 60.839844 C 217.160156 62.433594 215.046875 63.332031 212.984375 63.171875 C 210.925781 63.015625 208.972656 61.800781 207.910156 60.023438 C 207.316406 59.027344 206.890625 57.777344 205.820312 57.332031 C 204.605469 56.828125 203.285156 57.648438 201.984375 57.84375 C 200.554688 58.058594 199.027344 57.441406 198.152344 56.289062 C 197.277344 55.132812 197.011719 53.539062 197.597656 52.214844 C 196.691406 53.378906 195.746094 54.578125 194.460938 55.304688 C 193.175781 56.035156 191.449219 56.1875 190.28125 55.28125 C 189.414062 54.601562 188.839844 53.371094 187.742188 53.273438 C 186.476562 53.164062 185.734375 54.597656 184.84375 55.503906 C 183.71875 56.65625 181.898438 57.058594 180.390625 56.5 C 178.882812 55.9375 177.332031 53.933594 177.226562 52.328125 C 177.273438 53.671875 176.589844 55.015625 175.476562 55.765625 C 174.363281 56.515625 172.859375 56.644531 171.636719 56.09375 C 170.933594 55.777344 170.21875 55.238281 169.46875 55.429688 C 168.910156 55.574219 168.523438 56.105469 168.328125 56.652344 C 168.136719 57.203125 168.085938 57.789062 167.910156 58.34375 C 167.390625 60.03125 165.664062 61.261719 163.902344 61.203125 C 162.140625 61.144531 159.515625 59.742188 159.105469 58.023438 C 159.171875 59.566406 159.234375 61.148438 158.761719 62.617188 C 158.289062 64.089844 157.160156 65.449219 155.648438 65.742188 C 154.742188 65.921875 153.808594 65.707031 152.882812 65.703125 C 151.957031 65.699219 150.917969 66.003906 150.511719 66.839844 C 149.917969 68.058594 151.042969 69.421875 151.082031 70.78125 C 151.121094 72.207031 149.894531 73.421875 148.535156 73.847656 C 147.171875 74.273438 144.359375 73.214844 142.945312 73.03125 C 144.765625 74.925781 144.1875 78.113281 142.808594 80.355469 C 141.433594 82.59375 139.402344 84.433594 138.371094 86.851562 C 136.855469 90.394531 139.230469 95.035156 142.203125 97.480469 C 137.480469 99.421875 134.269531 104.472656 133.148438 109.464844 C 131.566406 110.558594 129.230469 109.875 128 108.394531 C 126.769531 106.914062 126.425781 104.878906 126.421875 102.953125 C 126.414062 101.023438 126.691406 99.089844 126.496094 97.171875 C 126.324219 95.515625 125.804688 93.886719 125.855469 92.21875 C 125.90625 90.550781 126.65625 88.40625 128.25 87.925781 C 127.632812 88.050781 127.027344 87.535156 126.835938 86.933594 C 126.644531 86.335938 126.761719 85.683594 126.894531 85.066406 C 127.027344 84.449219 127.175781 83.8125 127.050781 83.195312 C 126.917969 82.558594 126.511719 82.023438 126.203125 81.453125 C 124.925781 79.054688 125.574219 75.9375 127.753906 74.320312 C 127.023438 71.113281 128.355469 67.832031 129.660156 64.8125 C 130.394531 63.113281 131.128906 61.410156 131.867188 59.710938 C 132.273438 58.765625 132.695312 57.800781 133.394531 57.050781 C 134.09375 56.296875 135.152344 55.617188 136.15625 55.832031 C 135.742188 53.316406 137.660156 51.003906 139.753906 49.558594 C 141.847656 48.117188 144.296875 47.085938 145.929688 45.136719 C 146.5625 44.378906 147.058594 43.503906 147.769531 42.820312 C 149.589844 41.082031 153.679688 41.136719 155.507812 42.871094 C 154.648438 41.578125 154.933594 39.65625 156.128906 38.675781 C 156.84375 38.085938 157.78125 37.839844 158.515625 37.277344 C 159.640625 36.421875 160.179688 34.933594 161.367188 34.167969 C 162.65625 33.335938 164.332031 33.578125 165.84375 33.851562 C 167.667969 34.183594 169.597656 33.960938 171.421875 34.289062 C 172.957031 31.925781 174.3125 29.140625 176.902344 28.03125 C 178.355469 27.410156 179.988281 27.421875 181.566406 27.445312 C 183.070312 27.46875 184.65625 27.515625 185.925781 28.3125 C 187.890625 29.550781 188.464844 32.246094 188.03125 34.53125 C 189.257812 33.046875 190.796875 32.042969 192.410156 30.992188 C 194.027344 29.945312 196.085938 29.410156 197.902344 30.046875 C 199.414062 30.574219 200.691406 31.875 202.296875 31.886719 C 203.453125 31.898438 204.53125 31.210938 205.691406 31.199219 C 206.753906 31.1875 207.800781 31.789062 208.320312 32.714844 C 208.84375 33.640625 208.820312 34.851562 208.261719 35.753906 C 210.113281 35.148438 212.0625 34.289062 214.007812 34.347656 C 215.953125 34.402344 217.996094 35.257812 218.949219 36.960938 C 219.453125 37.863281 219.675781 39.007812 220.539062 39.578125 C 221.492188 40.207031 222.769531 39.835938 223.894531 40.035156 C 225.011719 40.234375 225.996094 41.050781 226.398438 42.113281 C 226.800781 43.175781 226.597656 44.441406 225.890625 45.328125 C 227.167969 44.417969 228.832031 43.964844 230.359375 43.632812 C 231.890625 43.300781 233.695312 43.722656 234.535156 45.046875 C 235.039062 45.835938 235.183594 46.894531 235.933594 47.457031 C 236.445312 47.839844 237.125 47.894531 237.765625 47.9375 C 238.402344 47.976562 239.082031 48.039062 239.585938 48.433594 C 240.089844 48.828125 240.570312 50.125 240.085938 50.542969 Z M 173.0625 126.882812 C 172.742188 126.527344 172.285156 126.316406 171.835938 126.128906 C 170.09375 125.425781 168.785156 123.589844 167.175781 122.597656 C 165.730469 121.699219 164.140625 121.023438 162.492188 120.589844 C 160.496094 120.054688 158.410156 119.878906 156.355469 120.082031 C 156.09375 120.105469 155.835938 120.132812 155.574219 120.175781 C 153.46875 120.472656 151.28125 121.265625 150.070312 123.023438 C 150.875 125.476562 152.835938 127.605469 155.203125 128.613281 C 157.570312 129.628906 160.25 129.585938 162.824219 129.382812 C 165.789062 129.148438 168.570312 128.78125 171.550781 128.96875 C 171.886719 128.960938 172.234375 128.953125 172.5625 128.851562 C 172.894531 128.738281 173.199219 128.535156 173.351562 128.222656 C 173.554688 127.792969 173.394531 127.242188 173.0625 126.882812 Z M 222.113281 129.722656 C 216.863281 134.019531 213.144531 134.527344 210.664062 134.128906 C 207.714844 133.664062 202.386719 131.246094 200.085938 131.5625 C 199.875 131.59375 198.988281 131.738281 198.597656 131.273438 C 198.285156 130.890625 198.457031 130.273438 198.480469 130.179688 C 198.683594 129.433594 199.402344 129.027344 199.65625 128.882812 C 201.886719 127.578125 201.964844 125.859375 204.246094 124.734375 C 204.972656 124.378906 205.683594 124.199219 206.367188 124.113281 C 207.113281 124.023438 207.832031 124.046875 208.53125 124.082031 C 209.515625 124.125 210.496094 124.277344 211.457031 124.496094 C 216.320312 125.621094 220.683594 128.679688 222.113281 129.722656 Z M 222.113281 129.722656 " fill-opacity="1" fill-rule="nonzero"/><path fill="#c74426" d="M 166.460938 177.445312 C 169.425781 178.167969 171.636719 177.941406 173.105469 177.601562 C 175.023438 177.15625 176.367188 176.351562 178.277344 176.761719 C 179.609375 177.050781 180.601562 177.777344 181.242188 178.363281 C 182.703125 177.847656 184.917969 177.285156 187.550781 177.523438 C 190.285156 177.773438 191.804688 178.785156 194.394531 179.734375 C 196.527344 180.515625 199.667969 181.371094 203.863281 181.507812 C 202.660156 182.703125 200.6875 184.367188 197.894531 185.523438 C 195.382812 186.5625 193.421875 186.6875 181.242188 185.601562 C 174.054688 184.957031 172.050781 184.675781 169.988281 182.933594 C 167.941406 181.207031 166.960938 178.996094 166.460938 177.445312 Z M 166.460938 177.445312 " fill-opacity="1" fill-rule="nonzero"/><path fill="#fab89a" d="M 128.867188 100.34375 C 127.535156 99.171875 127.511719 96.125 127.613281 94.519531 C 127.714844 92.863281 128.023438 90.882812 129.378906 89.78125 C 129.507812 89.675781 129.652344 89.6875 129.761719 89.753906 C 129.96875 89.378906 130.507812 89.722656 130.339844 90.113281 C 129.886719 91.183594 129.976562 93.394531 131.773438 92.34375 C 132.179688 92.105469 132.527344 91.621094 132.773438 91.234375 C 133.300781 90.417969 133.515625 89.460938 133.898438 88.578125 C 134.453125 87.320312 135.363281 86.210938 136.808594 86.140625 C 137.457031 86.109375 137.535156 87.054688 136.957031 87.234375 C 134 88.144531 134.789062 92.996094 131.5 93.742188 C 130.605469 93.945312 129.738281 93.429688 129.375 92.601562 C 129.140625 92.070312 129.15625 91.519531 129.285156 90.988281 C 128.339844 92.835938 128.703125 95.976562 129.0625 97.6875 C 129.214844 98.417969 129.175781 98.734375 129.945312 98.980469 C 130.75 99.238281 130.726562 99.007812 131.167969 98.359375 C 131.496094 97.871094 131.753906 97.335938 132.117188 96.867188 C 133.855469 94.625 136.214844 95.714844 138.371094 96.753906 C 138.902344 97.007812 138.523438 97.871094 137.972656 97.695312 C 136.527344 97.230469 134.671875 96.0625 133.316406 97.316406 C 132.648438 97.9375 132.347656 98.9375 131.765625 99.636719 C 131.039062 100.515625 129.886719 101.242188 128.867188 100.34375 Z M 129.457031 75.355469 C 130.859375 74.773438 131.472656 75.050781 131.296875 76.195312 C 131.300781 76.539062 131.3125 76.878906 131.332031 77.21875 C 131.378906 77.589844 131.429688 77.964844 131.59375 78.304688 C 131.601562 78.320312 131.613281 78.335938 131.621094 78.351562 C 131.277344 80.117188 130.273438 81.859375 131.109375 83.648438 C 131.652344 84.816406 132.917969 85.453125 134.027344 84.613281 C 134.785156 84.035156 135.191406 83.019531 135.609375 82.203125 C 135.914062 81.605469 136.675781 78.765625 137.777344 79.417969 C 137.753906 79.402344 138.125 80.277344 138.179688 80.328125 C 138.347656 80.488281 138.574219 80.617188 138.8125 80.660156 C 139.433594 80.769531 139.96875 80.335938 140.414062 79.96875 C 140.824219 79.632812 140.285156 78.933594 139.847656 79.230469 C 139.03125 79.792969 138.695312 77.816406 137.730469 77.664062 C 136.3125 77.441406 135.761719 79.058594 135.300781 80.054688 C 134.902344 80.914062 134.488281 81.765625 134.023438 82.59375 C 133.71875 83.140625 133.101562 84.515625 132.097656 82.902344 C 131.84375 82.492188 131.980469 81.675781 132.03125 81.238281 C 132.117188 80.53125 132.269531 79.867188 132.386719 79.210938 C 132.574219 79.324219 132.773438 79.410156 133.011719 79.421875 C 133.691406 79.457031 134.109375 79 134.472656 78.5 C 134.910156 77.902344 135.195312 77.179688 135.5625 76.539062 C 136.027344 75.734375 138.164062 72.152344 139.574219 74.234375 C 140.011719 74.882812 141.070312 74.273438 140.628906 73.617188 C 139.867188 72.492188 138.664062 72.125 137.390625 72.707031 C 136.46875 73.128906 135.773438 73.96875 135.203125 74.78125 C 134.664062 75.550781 133.964844 77.726562 133.066406 77.617188 C 132.15625 77.507812 132.523438 74.617188 131.253906 73.964844 C 130.257812 73.453125 129.183594 73.972656 128.726562 74.929688 C 128.496094 75.417969 129.214844 75.847656 129.457031 75.355469 Z M 133.578125 69.398438 C 134.210938 69.765625 134.914062 69.871094 135.636719 69.820312 C 136.058594 69.789062 136.5 69.539062 136.894531 69.53125 C 138.441406 69.515625 139.515625 70.605469 140.070312 72.03125 C 140.246094 72.484375 140.976562 72.300781 140.8125 71.824219 C 140.425781 70.683594 139.886719 68.757812 138.707031 68.167969 C 137.738281 67.6875 137.195312 68.390625 136.214844 68.480469 C 132.453125 68.820312 132.992188 65.277344 133.355469 63.453125 C 133.785156 61.277344 134.820312 59.804688 136.882812 58.863281 C 137.050781 58.785156 137.203125 58.707031 137.355469 58.628906 C 137.273438 58.851562 137.195312 59.082031 137.132812 59.332031 C 136.6875 61.105469 136.917969 65.417969 139.21875 66.109375 C 140.148438 66.386719 140.484375 65.804688 141.289062 65.671875 C 141.796875 64.953125 142.238281 64.976562 142.621094 65.738281 C 143.089844 65.886719 143.28125 66.132812 143.195312 66.476562 C 143.402344 66.816406 143.1875 67.367188 143.410156 67.71875 C 145.097656 70.390625 147.832031 69.6875 150.253906 68.386719 C 150.753906 68.121094 150.3125 67.378906 149.816406 67.632812 C 146.011719 68.105469 144.269531 67.367188 144.582031 65.417969 C 144.53125 65.046875 144.480469 64.675781 144.425781 64.304688 C 144.378906 64.28125 144.21875 64.015625 144.148438 63.945312 C 143.003906 62.796875 142.101562 64.140625 141.042969 64.355469 C 136.222656 65.324219 138.859375 58.390625 140.132812 57.015625 C 140.703125 56.402344 141.535156 55.976562 142.128906 55.355469 C 142.601562 54.859375 143.003906 54.335938 143.359375 53.785156 C 143.21875 54.527344 143.125 55.144531 143.074219 55.46875 C 142.828125 57.101562 142.039062 60.523438 143.863281 61.621094 C 144.578125 62.050781 145.175781 61.875 145.90625 61.660156 C 146.824219 61.386719 147.511719 60.742188 148.503906 60.640625 C 150.214844 60.464844 151.550781 61.328125 152.316406 62.832031 C 152.617188 63.417969 153.480469 62.902344 153.195312 62.316406 C 151.839844 59.53125 149.558594 59.367188 146.886719 59.789062 C 146.613281 59.902344 146.347656 60.039062 146.097656 60.203125 C 144.410156 60.027344 143.71875 59.296875 144.03125 58.007812 C 143.710938 56.710938 144.382812 54.753906 144.699219 53.449219 C 144.949219 52.4375 145.195312 50.636719 145.835938 49.804688 C 146.328125 48.566406 146.625 48.613281 146.722656 49.945312 C 146.921875 50.636719 147.125 51.324219 147.324219 52.015625 C 147.441406 52.417969 148.054688 52.25 147.949219 51.84375 C 147.699219 50.839844 147.652344 47.503906 145.898438 47.984375 C 145.335938 48.136719 144.863281 48.828125 144.476562 49.734375 C 144.359375 49.753906 144.25 49.828125 144.199219 49.976562 C 143.128906 53.195312 141.160156 54.378906 138.816406 56.511719 C 138.761719 56.5625 138.722656 56.617188 138.667969 56.667969 C 138.621094 56.691406 138.574219 56.726562 138.539062 56.777344 C 138.488281 56.84375 138.4375 56.898438 138.386719 56.957031 C 138.324219 57.023438 138.253906 57.09375 138.195312 57.164062 C 136.84375 58.480469 134.546875 58.324219 133.351562 60.066406 C 132.257812 61.664062 131.792969 64.109375 131.882812 66.03125 C 131.949219 67.367188 132.367188 68.699219 133.578125 69.398438 Z M 150.851562 56.160156 C 151.683594 55.472656 152.046875 53.683594 152.332031 52.707031 C 152.621094 51.710938 152.828125 50.695312 153.035156 49.679688 C 153.1875 48.960938 153.203125 47.753906 153.589844 47.125 C 154.761719 45.230469 155.101562 47.058594 155.109375 48.109375 C 155.117188 49.039062 154.976562 49.972656 154.925781 50.898438 C 154.859375 52.121094 154.683594 53.992188 155.363281 55.113281 C 155.664062 55.601562 156.039062 56.054688 156.671875 56.035156 C 157.945312 56.003906 157.414062 54.742188 158.308594 54.292969 C 158.769531 54.0625 158.433594 53.402344 157.976562 53.5 C 157.171875 53.667969 157.539062 54.144531 156.933594 54.371094 C 155.679688 54.84375 156.175781 50.347656 156.222656 49.703125 C 156.308594 48.425781 156.761719 44.992188 154.980469 44.402344 C 153.574219 43.9375 152.742188 45.789062 152.460938 46.808594 C 152.058594 48.273438 151.90625 49.816406 151.613281 51.300781 C 151.464844 52.0625 151.296875 52.816406 151.0625 53.554688 C 150.890625 54.132812 150.671875 54.695312 150.40625 55.238281 C 149.390625 55.316406 148.902344 54.800781 148.941406 53.691406 C 148.835938 53.265625 148.1875 53.445312 148.28125 53.875 C 148.554688 55.105469 149.285156 57.449219 150.851562 56.160156 Z M 159.144531 49.792969 C 159.601562 50.03125 160.0625 50.273438 160.519531 50.511719 C 160.644531 50.851562 160.773438 51.191406 160.898438 51.53125 C 161.164062 52.007812 161.265625 52.566406 161.535156 53.042969 C 161.90625 53.699219 162.269531 54.347656 163.042969 54.585938 C 164.332031 54.988281 165.355469 53.949219 165.867188 52.875 C 166.542969 51.449219 166.371094 49.644531 165.695312 48.261719 C 165.167969 47.179688 164.359375 46.480469 163.535156 45.632812 C 162.046875 44.113281 161.695312 43.964844 162.136719 41.625 C 161.90625 40.449219 162.238281 39.613281 163.132812 39.125 C 164.335938 37.90625 165.84375 38.050781 167.652344 39.566406 C 167.890625 40.28125 168.996094 39.988281 168.789062 39.253906 C 167.199219 33.699219 158.6875 38.710938 160.308594 43.414062 C 160.960938 45.300781 162.769531 46.269531 163.898438 47.808594 C 164.695312 48.585938 165.082031 49.578125 165.0625 50.777344 C 163.363281 52.707031 162.332031 52.808594 161.960938 51.082031 C 161.445312 50.34375 161.292969 49.03125 160.578125 48.421875 C 159.308594 47.335938 158.535156 48.390625 158.375 49.6875 C 158.324219 50.125 159.074219 50.230469 159.144531 49.792969 Z M 166.46875 41.765625 C 166.09375 41.664062 165.941406 42.230469 166.308594 42.347656 C 166.949219 43.472656 167.589844 44.597656 168.230469 45.722656 C 168.15625 46.328125 168.089844 46.929688 168.03125 47.535156 C 167.996094 48.101562 167.933594 48.65625 168.023438 49.21875 C 168.152344 50.066406 168.421875 50.910156 169.054688 51.511719 C 169.878906 52.300781 170.574219 52.414062 171.441406 51.679688 C 172.871094 50.46875 173.042969 47.066406 172.878906 45.410156 C 172.695312 43.53125 171.023438 40.703125 171.828125 38.855469 C 172.339844 37.679688 173.644531 36.632812 174.835938 35.742188 C 174.644531 36.351562 174.496094 36.976562 174.417969 37.628906 C 174.292969 38.617188 174.035156 41.574219 175.21875 42.261719 C 176.179688 42.824219 177.039062 41.605469 177.40625 41.757812 C 179.011719 42.414062 176.640625 47.972656 176.488281 49.574219 C 176.414062 50.324219 177.554688 50.300781 177.644531 49.574219 C 177.957031 47.023438 179.105469 45.074219 179.585938 42.65625 C 179.65625 42.296875 179.902344 41.863281 179.8125 41.503906 C 179.597656 40.652344 179.359375 39.988281 178.378906 39.808594 C 177.589844 39.664062 176.894531 40.933594 176.542969 40.890625 C 173.242188 40.472656 177.972656 31.671875 178.519531 30.699219 C 178.828125 30.144531 178.003906 29.664062 177.671875 30.203125 C 176.945312 31.375 176.214844 32.546875 175.621094 33.78125 C 175.550781 33.792969 175.480469 33.820312 175.414062 33.871094 C 173.652344 35.160156 171.617188 36.574219 170.582031 38.5625 C 169.578125 40.5 170.695312 41.683594 171.273438 43.585938 C 171.5 44.332031 171.996094 50.738281 170.707031 50.589844 C 169.605469 50.464844 169.285156 47.761719 169.191406 46.933594 C 169.097656 46.136719 169.289062 45.328125 169.09375 44.527344 C 168.714844 42.984375 167.96875 42.164062 166.46875 41.765625 Z M 178.429688 36.957031 C 178.953125 37.902344 179.382812 37.425781 180.117188 37.925781 C 180.378906 37.945312 180.640625 37.964844 180.898438 37.984375 C 182.332031 39.046875 182.714844 40.273438 182.054688 41.652344 C 181.933594 42.878906 181.171875 44.175781 180.832031 45.347656 C 179.898438 48.542969 179.597656 51.828125 182.03125 54.402344 C 182.542969 54.945312 183.277344 54.15625 182.832031 53.601562 C 180.1875 50.316406 181.734375 46.710938 182.8125 43.203125 C 182.839844 43.117188 182.871094 43.019531 182.902344 42.929688 C 183.320312 45.101562 184.238281 47.214844 185.816406 48.777344 C 187.546875 50.492188 188.664062 49.320312 189.019531 47.164062 C 189.285156 45.539062 189.0625 43.820312 188.953125 42.195312 C 188.878906 41.101562 189.089844 39.390625 188.472656 38.386719 C 187.484375 36.78125 186.148438 37.992188 185.816406 39.292969 C 185.667969 39.859375 186.519531 40.09375 186.6875 39.535156 C 187.441406 39.28125 187.761719 39.449219 187.640625 40.039062 C 187.648438 40.324219 187.664062 40.613281 187.679688 40.902344 C 187.710938 41.621094 187.753906 42.335938 187.796875 43.054688 C 187.84375 43.914062 188.339844 46.902344 187.691406 47.582031 C 185.738281 49.625 183.792969 41.859375 183.726562 40.800781 C 183.71875 40.667969 183.667969 40.570312 183.597656 40.488281 C 183.722656 39.808594 183.757812 39.128906 183.578125 38.511719 C 183.347656 37.714844 183.355469 37.472656 182.558594 37.015625 C 182.179688 36.800781 181.152344 36.957031 180.902344 36.757812 C 180.695312 35.875 180.492188 34.992188 180.289062 34.113281 C 181.046875 31.886719 182.558594 31.410156 184.820312 32.675781 C 185.011719 33.246094 185.917969 33.003906 185.726562 32.425781 C 183.621094 26.015625 176.804688 34.027344 178.429688 36.957031 Z M 194.410156 51.652344 C 192.53125 51.039062 191.804688 50.246094 192.265625 48.289062 C 192.542969 47.117188 193.214844 46.539062 193.125 45.171875 C 193.039062 43.882812 191.949219 42.699219 191.855469 41.421875 C 191.679688 39.011719 193.3125 36.496094 194.894531 34.851562 C 195.25 34.480469 194.726562 33.992188 194.34375 34.300781 C 192.6875 35.632812 191.464844 37.214844 190.917969 39.304688 C 190.324219 41.582031 191.21875 43.628906 191.070312 45.921875 C 190.917969 48.277344 190.550781 47.804688 190.257812 49.429688 C 190.195312 49.765625 190.164062 50.121094 190.285156 50.441406 C 190.816406 51.828125 193.027344 51.902344 194.238281 52.277344 C 194.636719 52.398438 194.804688 51.78125 194.410156 51.652344 Z M 200.328125 51.183594 C 201.988281 49.296875 204.261719 45.925781 203.527344 43.242188 C 203.476562 43.058594 203.300781 42.84375 203.101562 42.816406 C 203.078125 42.8125 202.535156 42.800781 202.503906 42.777344 C 202.089844 42.824219 201.695312 42.945312 201.328125 43.140625 C 201.136719 42.429688 201.148438 41.730469 201.359375 41.046875 C 201.816406 37.773438 202.785156 36.097656 205.90625 34.800781 C 206.339844 34.625 206.152344 33.914062 205.710938 34.089844 C 204.113281 34.746094 202.378906 35.078125 201.488281 36.644531 C 200.746094 37.957031 199.222656 41.875 199.765625 43.417969 C 199.980469 44.023438 200.210938 44.445312 200.910156 44.546875 C 202.09375 44.714844 202.621094 42.710938 202.136719 45.558594 C 201.824219 47.375 200.75 49.070312 199.628906 50.484375 C 199.238281 50.972656 199.898438 51.671875 200.328125 51.183594 Z M 207.621094 45.335938 C 207.601562 46.417969 207.933594 47.882812 206.867188 48.847656 C 206.949219 48.6875 205.234375 49.460938 205.21875 49.46875 C 202.910156 50.667969 201.855469 53.003906 202.03125 55.523438 C 202.066406 56.0625 202.84375 56.070312 202.871094 55.523438 C 202.992188 53.242188 204.023438 51.335938 206.253906 50.40625 C 206.707031 50.21875 207.589844 50.144531 208.027344 49.898438 C 208.941406 49.386719 209.136719 49.511719 209.476562 48.363281 C 209.726562 47.519531 209.230469 46.777344 209.132812 45.976562 C 208.929688 44.335938 209.308594 42.03125 210.359375 40.558594 C 211.324219 39.207031 214.460938 36.960938 215.582031 40.058594 C 215.730469 40.460938 216.363281 40.296875 216.230469 39.878906 C 214.671875 35.011719 209.511719 38.375 207.914062 41.789062 C 207.296875 43.105469 207.644531 44.003906 207.621094 45.335938 Z M 221.605469 59.976562 C 220.507812 61.980469 220.75 64.722656 222.992188 65.792969 C 223.5625 66.066406 224.015625 65.300781 223.488281 64.941406 C 221.285156 63.445312 222.191406 60.65625 223.816406 59.109375 C 224.75 58.21875 225.722656 57.714844 227.027344 57.589844 C 227.867188 57.507812 228.601562 57.503906 229.410156 57.230469 C 229.570312 57.179688 229.644531 57.0625 229.660156 56.941406 C 229.898438 57.132812 230.050781 57.566406 230.046875 58.453125 C 230.046875 59.410156 227.269531 61.347656 226.75 61.71875 C 226.183594 62.117188 226.71875 63.054688 227.296875 62.65625 C 228.792969 61.617188 231.652344 59.59375 231.65625 57.488281 C 231.660156 55.78125 230.441406 56.023438 229.308594 55.605469 C 227.082031 54.785156 227.378906 54.355469 228.738281 52.265625 C 229.011719 51.851562 229.347656 51.492188 229.585938 51.054688 C 230 50.292969 230.328125 49.414062 230.128906 48.523438 C 229.738281 46.800781 228.066406 46.230469 226.519531 46.519531 C 225.921875 46.632812 226.183594 47.515625 226.769531 47.425781 C 231.84375 46.65625 227.59375 51.691406 227.25 52.230469 C 226.8125 52.902344 226.527344 53.292969 226.296875 54.101562 C 226.117188 54.722656 225.90625 55.707031 226.296875 56.308594 C 226.378906 56.4375 226.464844 56.535156 226.550781 56.613281 C 225.878906 56.625 225.21875 56.703125 224.574219 57.039062 C 223.351562 57.667969 222.269531 58.773438 221.605469 59.976562 Z M 215.800781 47.289062 C 215.921875 46.875 217.320312 44.375 217.835938 45.605469 C 217.988281 45.96875 216.644531 48.175781 216.476562 48.558594 C 215.816406 50.078125 215.191406 51.621094 214.929688 53.265625 C 214.917969 53.335938 214.929688 53.40625 214.949219 53.472656 C 214.570312 54.492188 214.210938 55.542969 213.605469 56.4375 C 212.953125 57.398438 212.371094 58.484375 211.339844 57.722656 C 210.222656 56.894531 210.957031 55.273438 211.4375 54.148438 C 211.613281 53.730469 211.023438 53.355469 210.808594 53.78125 C 210.136719 55.121094 208.566406 58.761719 210.847656 59.605469 C 213.097656 60.4375 214.980469 56.589844 215.582031 55.1875 C 216.246094 53.648438 216.929688 50.167969 219.101562 51.453125 C 219.65625 51.785156 219.46875 52.480469 220.417969 52.378906 C 221.433594 52.269531 222.324219 50.148438 222.636719 49.492188 C 223.351562 47.988281 223.628906 46.417969 223.664062 44.765625 C 223.675781 44.128906 222.738281 44.144531 222.6875 44.765625 C 222.566406 46.367188 222.261719 48.425781 221.242188 49.738281 C 220.003906 51.328125 220.617188 50.238281 220.058594 49.820312 C 219.324219 49.269531 219.039062 48.734375 217.953125 49.0625 C 217.796875 49.109375 217.652344 49.179688 217.511719 49.257812 C 217.683594 48.839844 217.859375 48.417969 218.050781 48.003906 C 218.503906 47.042969 219.542969 45.488281 218.882812 44.375 C 217.6875 42.355469 215.167969 45.933594 214.898438 47.039062 C 214.753906 47.628906 215.632812 47.871094 215.800781 47.289062 Z M 231.609375 65.175781 C 231.253906 65.59375 231.816406 66.175781 232.21875 65.785156 C 233.6875 64.367188 234.5 63.214844 234.28125 61.144531 C 234.09375 59.378906 233.3125 58.050781 235.511719 56.597656 C 236.078125 56.222656 236.875 56.132812 237.503906 55.871094 C 238.28125 55.546875 239.101562 55.160156 239.71875 54.570312 C 240.53125 53.800781 241.023438 52.707031 240.210938 51.734375 C 238.933594 50.207031 236.015625 50.667969 234.378906 51.035156 C 233.785156 51.167969 234.046875 52.035156 234.628906 51.9375 C 235.683594 51.761719 240.242188 51.085938 238.378906 54.070312 C 238.003906 54.675781 236.675781 54.824219 236.09375 55.054688 C 235.144531 55.425781 234.296875 55.800781 233.65625 56.632812 C 233.246094 57.160156 232.96875 57.773438 232.847656 58.425781 C 232.390625 60.9375 233.667969 62.785156 231.609375 65.175781 Z M 239.476562 57.375 C 238.675781 58.363281 238.914062 60.328125 239.03125 61.488281 C 239.269531 63.863281 239.921875 66.171875 239.207031 68.527344 C 239.019531 69.140625 239.941406 69.378906 240.152344 68.789062 C 240.832031 66.898438 240.660156 65.042969 240.402344 63.082031 C 240.324219 62.480469 239.617188 59.015625 240.277344 58.542969 C 241.53125 57.648438 243.273438 61.289062 243.652344 62.015625 C 244.160156 63.003906 244.761719 63.890625 245.960938 63.167969 C 246.53125 62.820312 246.53125 62.171875 246.933594 61.769531 C 248.613281 60.09375 249.558594 62.734375 249.226562 64.027344 C 248.917969 65.242188 247.917969 66.113281 246.792969 66.558594 C 246.296875 66.757812 246.488281 67.554688 247.019531 67.382812 C 249.574219 66.550781 251.21875 63.886719 250.125 61.226562 C 249.71875 60.238281 248.925781 59.390625 247.796875 59.402344 C 246.226562 59.417969 246.445312 60.96875 245.359375 61.4375 C 244.5625 61.78125 244.761719 61.457031 244.375 60.746094 C 244.144531 60.316406 243.886719 59.902344 243.609375 59.503906 C 243.101562 58.777344 242.523438 58.015625 241.839844 57.445312 C 241.097656 56.832031 240.175781 56.503906 239.476562 57.375 Z M 236.085938 67.179688 C 236.300781 66.699219 235.597656 66.273438 235.367188 66.761719 C 234.234375 69.140625 231.972656 72.238281 235.300781 73.886719 C 237.566406 75.007812 240.558594 74.558594 241.804688 72.199219 C 242.105469 71.628906 241.335938 71.222656 240.964844 71.707031 C 239.796875 73.222656 237.796875 73.660156 236.058594 72.882812 C 234.785156 72.3125 234.453125 71.449219 234.855469 70.078125 C 235.148438 69.082031 235.660156 68.125 236.085938 67.179688 Z M 246.300781 72.078125 C 246.597656 71.5625 245.808594 71.105469 245.507812 71.613281 C 244.78125 72.828125 240.253906 81.464844 244.421875 81.289062 C 245.964844 81.226562 247.363281 78.605469 248.023438 77.515625 C 248.914062 76.042969 251.679688 69.941406 253.769531 72.871094 C 253.824219 72.953125 253.898438 73.015625 253.976562 73.0625 C 252.050781 74.804688 249.925781 77.414062 250.8125 79.546875 C 251.183594 80.433594 252.03125 80.589844 252.871094 80.425781 C 253.179688 80.367188 254.21875 79.707031 254.363281 79.792969 C 255.109375 80.214844 253.308594 81.855469 253.058594 82.027344 C 251.628906 83.019531 250.035156 83.535156 248.320312 83.726562 C 247.707031 83.792969 247.679688 84.753906 248.320312 84.710938 C 250.476562 84.570312 252.546875 83.9375 254.28125 82.609375 C 255.140625 81.957031 256.761719 80.652344 256.171875 79.34375 C 255.644531 78.167969 254.699219 78.699219 253.789062 78.71875 C 253.363281 78.726562 252.21875 78.558594 252.101562 77.894531 C 252.03125 77.515625 252.902344 76.226562 253.191406 75.773438 C 254.023438 74.46875 255.046875 73.359375 256.261719 72.40625 C 256.375 72.316406 256.410156 72.195312 256.398438 72.074219 C 256.699219 71.871094 256.996094 71.664062 257.285156 71.480469 C 257.742188 71.191406 257.34375 70.507812 256.863281 70.757812 C 256.394531 71 255.347656 71.855469 254.925781 71.835938 C 254.882812 71.835938 254.847656 71.835938 254.808594 71.832031 C 254.792969 71.785156 254.714844 71.714844 254.519531 71.601562 C 254.191406 71.417969 254.125 70.832031 253.621094 70.59375 C 252.378906 70.003906 251.160156 70.941406 250.339844 71.789062 C 248.816406 73.359375 247.90625 75.398438 246.757812 77.238281 C 246.449219 77.738281 246.109375 78.402344 245.660156 78.785156 C 244.175781 80.046875 243.878906 78.253906 244.140625 76.992188 C 244.511719 75.21875 245.402344 73.625 246.300781 72.078125 Z M 264.6875 84.820312 C 264.667969 85.347656 265.433594 85.324219 265.492188 84.820312 C 265.699219 82.914062 265.019531 84.066406 264.328125 83.078125 C 263.5625 81.992188 264.78125 80.773438 263.648438 79.625 C 262.28125 78.234375 260.339844 79.351562 258.964844 80.121094 C 257.238281 81.082031 255.617188 82.203125 254.007812 83.34375 C 253.363281 83.804688 252.730469 84.289062 252.070312 84.726562 C 252.195312 84.640625 246.222656 87.835938 247.449219 85.609375 C 247.722656 85.109375 246.996094 84.6875 246.6875 85.164062 C 246.03125 86.171875 246.101562 85.894531 246.097656 87.046875 C 246.09375 87.246094 246.203125 87.441406 246.375 87.539062 C 249.800781 89.472656 255.242188 83.847656 257.84375 82.21875 C 258.605469 81.742188 259.382812 81.28125 260.167969 80.84375 C 262.734375 80.503906 263.601562 81.003906 262.777344 82.339844 C 262.921875 82.523438 262.722656 83.070312 262.820312 83.363281 C 263.019531 83.972656 264.710938 84.214844 264.6875 84.820312 Z M 261.902344 84.703125 C 260.203125 84.59375 259.234375 86.375 258.570312 87.648438 C 257.828125 89.066406 257.488281 91.03125 255.941406 91.546875 C 254.65625 91.972656 254.949219 91.1875 253.828125 91.257812 C 252.394531 91.351562 251.277344 93.699219 250.792969 94.800781 C 250.519531 95.425781 251.378906 95.972656 251.726562 95.347656 C 252.398438 94.152344 252.855469 92.765625 254.53125 93.03125 C 254.765625 93.066406 254.929688 93.445312 255.195312 93.476562 C 256.0625 93.578125 256.585938 93.484375 257.238281 92.84375 C 258.304688 91.796875 258.761719 89.972656 259.417969 88.664062 C 259.675781 88.128906 259.960938 87.601562 260.269531 87.09375 C 261.152344 86.992188 262.035156 86.886719 262.921875 86.789062 C 263.050781 86.890625 263.308594 88.152344 263.503906 88.453125 C 263.75 88.832031 264.316406 88.5 264.113281 88.097656 C 263.421875 86.746094 263.972656 84.835938 261.902344 84.703125 Z M 257.722656 97.777344 C 258.304688 96.625 259.066406 96.785156 260.007812 98.257812 C 259.972656 98.453125 259.964844 98.648438 259.992188 98.847656 C 260.554688 100.289062 260.960938 101.015625 262.398438 99.578125 C 264.742188 97.230469 266.324219 93.058594 266.15625 89.792969 C 266.121094 89.039062 264.964844 89.03125 264.984375 89.792969 C 265.015625 91.183594 264.8125 92.53125 264.320312 93.835938 C 263.996094 94.699219 263.03125 97.316406 262.113281 97.828125 C 260.875 98.515625 261.75 96.324219 261.019531 95.5625 C 260.238281 94.742188 258.917969 95.085938 258.101562 95.640625 C 256.972656 96.402344 256.179688 97.757812 255.34375 98.808594 C 254.621094 99.710938 254.738281 100.078125 253.503906 99.570312 C 252.03125 98.964844 252.800781 98.097656 253.59375 96.71875 C 253.914062 96.160156 253.089844 95.6875 252.738281 96.214844 C 251.867188 97.535156 249.96875 101.414062 252.757812 102.109375 C 253.867188 102.386719 254.625 101.511719 255.300781 100.8125 C 256.105469 99.980469 256.753906 98.398438 257.722656 97.777344 Z M 259.761719 107.265625 C 260.390625 107.402344 260.828125 107.15625 261.324219 106.835938 C 261.925781 106.453125 262.339844 105.742188 262.730469 105.15625 C 263.511719 103.976562 264.40625 100.96875 266.015625 103.804688 C 266.191406 104.121094 266.707031 104.226562 266.957031 103.925781 C 268.699219 101.847656 269.335938 99.523438 268.84375 96.855469 C 268.777344 96.496094 268.171875 96.574219 268.199219 96.941406 C 268.351562 98.996094 267.847656 100.828125 266.648438 102.421875 C 266.21875 101.601562 265.667969 100.773438 264.65625 100.808594 C 263.246094 100.859375 262.847656 102.460938 262.316406 103.460938 C 262.03125 104 261.535156 105.140625 261.023438 105.425781 C 260.21875 105.878906 259.519531 105.28125 258.910156 105.074219 C 258.585938 104.960938 258.296875 104.742188 257.921875 104.714844 C 256.640625 104.625 255.757812 105.679688 255.25 106.703125 C 255.046875 107.109375 255.625 107.457031 255.859375 107.0625 C 257.617188 104.121094 258.476562 106.984375 259.761719 107.265625 Z M 269.679688 106.625 C 269.496094 106.503906 269.304688 106.402344 269.101562 106.324219 C 268.445312 106.1875 267.902344 105.796875 267.203125 105.753906 C 266.355469 105.699219 265.707031 105.910156 265.015625 106.378906 C 264.148438 106.96875 263.519531 108.089844 262.9375 108.933594 C 262.695312 109.285156 258.75 115.300781 257.9375 112.335938 C 257.761719 111.699219 256.863281 111.976562 256.964844 112.605469 C 257.253906 114.414062 258.085938 115.417969 259.878906 114.347656 C 261.265625 113.523438 262.261719 112.035156 263.175781 110.746094 C 263.761719 109.921875 264.488281 108.464844 265.230469 107.851562 C 267.40625 106.050781 268.558594 107.660156 270.4375 108.277344 C 274.910156 109.742188 276.375 104.402344 271.800781 103.742188 C 271.375 103.683594 271.175781 104.308594 271.617188 104.40625 C 271.367188 106.652344 270.722656 107.390625 269.679688 106.625 Z M 267.738281 112.8125 C 268.949219 111.902344 271.585938 111.566406 272.636719 112.28125 C 272.96875 112.507812 273.300781 111.953125 272.953125 111.738281 C 270.855469 110.433594 266.796875 111.171875 265.3125 113.3125 C 264.574219 114.375 265.339844 115.84375 264.117188 116.355469 C 263.804688 116.484375 261.984375 116.066406 261.558594 116.109375 C 260.671875 116.195312 259.816406 116.484375 258.972656 116.75 C 258.226562 116.984375 258.542969 118.152344 259.292969 117.925781 C 260.265625 117.628906 261.351562 117.246094 262.375 117.277344 C 263.140625 117.296875 263.921875 117.808594 264.644531 117.828125 C 265.144531 117.839844 265.621094 117.785156 265.972656 117.433594 C 266.464844 116.9375 266.195312 116.53125 266.296875 115.9375 C 266.511719 114.691406 266.59375 113.679688 267.738281 112.8125 Z M 268.773438 119.292969 C 270.3125 118.414062 271.992188 118.949219 273.652344 118.699219 C 274.496094 118.574219 275.726562 118.222656 275.738281 117.191406 C 275.769531 114.675781 270.796875 114.128906 269.132812 114.203125 C 268.570312 114.226562 268.566406 115.058594 269.132812 115.082031 C 270.394531 115.128906 271.589844 115.519531 272.753906 115.988281 C 273.144531 116.144531 273.660156 116.300781 273.996094 116.566406 C 275.136719 117.464844 273.699219 117.484375 273.042969 117.535156 C 271.371094 117.660156 269.636719 117.210938 268.175781 118.269531 C 267.574219 118.707031 268.097656 119.675781 268.773438 119.292969 Z M 266.304688 125.109375 C 267.617188 124.976562 268.898438 124.648438 270.164062 124.289062 C 270.96875 124.042969 271.773438 123.785156 272.570312 123.511719 C 274.613281 122.472656 276.089844 123.496094 277 126.585938 C 276.832031 127.066406 277.605469 127.402344 277.828125 126.933594 C 278.988281 124.488281 278.109375 121.898438 275.066406 121.75 C 272.953125 121.648438 270.652344 122.964844 268.621094 123.441406 C 266.710938 123.882812 264.636719 124.191406 262.683594 123.789062 C 259.417969 123.117188 260.164062 120.90625 262.523438 120.179688 C 263.078125 120.011719 262.847656 119.148438 262.28125 119.304688 C 260.148438 119.902344 255.839844 120.632812 259.113281 123.617188 C 260.882812 125.234375 264.085938 125.328125 266.304688 125.109375 Z M 264.636719 136.8125 C 261.03125 137.320312 261.144531 132.886719 261.980469 130.582031 C 262.441406 129.308594 262.714844 128.664062 264.289062 128.699219 C 265.136719 128.71875 266.058594 129.027344 266.894531 129.152344 C 269.574219 129.566406 272.089844 129.3125 274.667969 128.496094 C 275.121094 128.351562 274.929688 127.644531 274.472656 127.78125 C 272.378906 128.40625 270.242188 128.625 268.070312 128.277344 C 266.589844 128.039062 265.140625 127.472656 263.632812 127.382812 C 261.824219 127.277344 261.207031 128.046875 260.878906 129.78125 C 260.523438 131.667969 259.648438 134.203125 260.542969 136.054688 C 261.402344 137.832031 263.117188 138.207031 264.882812 137.714844 C 265.480469 137.546875 265.214844 136.730469 264.636719 136.8125 Z M 267.828125 135.207031 C 269.046875 134.53125 270.019531 133.660156 271.382812 133.21875 C 272.589844 132.828125 273.886719 132.675781 275.132812 132.449219 C 275.535156 132.375 275.449219 131.675781 275.035156 131.722656 C 272.351562 132.019531 269.03125 132.058594 267.203125 134.394531 C 266.855469 134.832031 267.277344 135.511719 267.828125 135.207031 Z M 274.777344 136.425781 C 273.378906 136.933594 272.070312 137.703125 270.875 138.578125 C 270.460938 138.882812 269.457031 140.046875 268.929688 140.097656 C 265.972656 140.386719 269.878906 137.296875 270.378906 136.953125 C 270.792969 136.667969 270.425781 136.011719 269.976562 136.269531 C 268.851562 136.910156 264.546875 140.113281 267.394531 141.519531 C 268.40625 142.019531 269.585938 141.128906 270.34375 140.597656 C 273.347656 138.503906 277.003906 135.21875 280.09375 139.261719 C 280.464844 139.75 281.246094 139.339844 280.9375 138.769531 C 279.574219 136.234375 277.527344 135.425781 274.777344 136.425781 Z M 276.4375 141.046875 C 275.121094 141.597656 273.929688 142.699219 272.78125 143.527344 C 272.128906 144 271.472656 144.46875 270.820312 144.941406 C 269.601562 146.316406 268.632812 145.769531 267.917969 143.304688 C 268.105469 142.679688 267.164062 142.433594 266.949219 143.039062 C 266.382812 144.636719 266.265625 146.753906 268.320312 147.273438 C 269.558594 147.585938 270.476562 146.648438 271.433594 145.996094 C 273.484375 144.597656 276.523438 141.421875 279.371094 142.109375 C 278.550781 142.910156 278.074219 143.710938 278.257812 145.003906 C 278.289062 145.210938 278.5 145.375 278.683594 145.429688 C 280.824219 146.074219 283.96875 143.46875 285.71875 142.476562 C 286.214844 142.195312 285.777344 141.519531 285.28125 141.730469 C 284.304688 142.148438 282.972656 143.011719 281.941406 143.246094 C 280.996094 143.464844 279.292969 143.738281 280.953125 142.320312 C 281.25 142.070312 281.15625 141.535156 280.828125 141.359375 C 279.324219 140.542969 278.050781 140.371094 276.4375 141.046875 Z M 289.613281 142.039062 C 289.535156 141.558594 288.707031 141.664062 288.757812 142.15625 C 289.164062 146.082031 283.632812 147.269531 280.882812 147.929688 C 280.277344 148.074219 280.460938 148.910156 281.023438 148.957031 C 284.625 149.269531 290.308594 146.207031 289.613281 142.039062 Z M 294.777344 150.253906 C 287.621094 147.847656 281.484375 159.285156 274.691406 154.542969 C 274.109375 154.136719 273.601562 155.066406 274.144531 155.480469 C 278.382812 158.714844 283.007812 155.460938 286.78125 153.203125 C 287.984375 152.484375 289.933594 151.375 291.449219 151.359375 C 292.601562 150.710938 293.421875 151.125 293.902344 152.601562 C 293.667969 153.167969 293.5 153.75 293.402344 154.355469 C 293.554688 154.871094 293.617188 155.007812 294.144531 155.160156 C 294.371094 155.226562 294.496094 154.90625 294.300781 154.785156 C 293.851562 154.503906 295.007812 151.316406 295.089844 150.808594 C 295.128906 150.558594 295.027344 150.339844 294.777344 150.253906 Z M 291.417969 157.777344 C 289.558594 159.542969 286.992188 159.382812 284.609375 159.417969 C 284.246094 159.425781 283.367188 159.601562 283.054688 159.441406 C 282.582031 159.570312 282.511719 159.417969 282.839844 158.984375 C 282.851562 158.636719 283.015625 158.425781 283.335938 158.351562 C 284.109375 157.671875 285.261719 157.191406 286.105469 156.5625 C 286.425781 156.328125 286.128906 155.785156 285.789062 156.019531 C 284.609375 156.828125 283.351562 157.207031 282.105469 157.863281 C 281.683594 158.085938 281.398438 158.25 281.167969 158.667969 C 280.722656 159.480469 281.054688 160.28125 281.933594 160.597656 C 282.714844 160.875 283.789062 160.648438 284.605469 160.640625 C 285.648438 160.625 286.695312 160.648438 287.734375 160.550781 C 289.476562 160.386719 291 159.867188 292.269531 158.632812 C 292.828125 158.089844 291.980469 157.246094 291.417969 157.777344 Z M 277.046875 152.527344 C 277.535156 152.375 278.042969 152.300781 278.527344 152.148438 C 279.378906 151.878906 280.191406 151.519531 280.96875 151.085938 C 281.4375 150.824219 281.027344 150.160156 280.554688 150.378906 C 279.660156 150.789062 278.730469 151.097656 277.753906 151.253906 C 276.996094 151.375 276.148438 151.390625 275.523438 151.894531 C 274.566406 152.667969 275.234375 153.730469 276.203125 154.039062 C 276.648438 154.183594 276.957031 153.484375 276.527344 153.269531 C 275.835938 152.921875 276.613281 152.660156 277.046875 152.527344 Z M 277.59375 160.09375 C 277.003906 159.828125 276.363281 159.820312 275.738281 159.679688 C 275.109375 159.542969 274.074219 159.421875 273.683594 158.867188 C 273.324219 158.355469 272.503906 158.808594 272.832031 159.363281 C 273.25 160.074219 273.933594 160.410156 274.691406 160.660156 C 275.523438 160.933594 276.617188 161.242188 277.480469 160.980469 C 277.84375 160.871094 277.996094 160.273438 277.59375 160.09375 Z M 278.769531 161.980469 C 278.195312 161.859375 277.96875 162.679688 278.527344 162.863281 C 280.171875 163.402344 282.199219 163.738281 283.636719 164.726562 C 284 164.972656 285.078125 165.972656 284.953125 166.453125 C 284.765625 167.191406 283.867188 167.421875 283.285156 167.507812 C 282.515625 167.621094 281.816406 167.457031 281.058594 167.726562 C 278.511719 168.628906 281.511719 170.6875 282.117188 171.855469 C 282.390625 172.382812 283.277344 172.019531 283.085938 171.445312 C 282.871094 170.808594 282.550781 170.472656 282.179688 169.929688 C 281.609375 169.101562 281.234375 168.777344 282.679688 168.722656 C 283.082031 168.707031 283.488281 168.746094 283.890625 168.742188 C 285.136719 168.722656 286.085938 168.421875 286.210938 167.042969 C 286.546875 163.308594 281.328125 162.523438 278.769531 161.980469 Z M 278.601562 167.019531 C 279.039062 167.089844 279.238281 166.441406 278.789062 166.339844 C 276.417969 165.789062 275.15625 163.160156 272.738281 162.441406 C 271.386719 162.035156 269.710938 161.894531 268.984375 163.375 C 268.648438 164.0625 268.652344 164.890625 268.828125 165.621094 C 268.910156 165.945312 269.164062 166.292969 269.203125 166.609375 C 269.710938 170.785156 268.757812 167.992188 267.902344 169.042969 C 267.007812 170.140625 266.445312 171.078125 267.4375 172.410156 C 267.75 172.832031 268.464844 172.4375 268.15625 171.988281 C 266.84375 170.085938 269.886719 169.714844 270.464844 168.734375 C 270.953125 167.914062 270.628906 167.097656 270.386719 166.28125 C 270.144531 165.765625 269.992188 165.222656 269.925781 164.648438 C 270.789062 163.550781 271.738281 163.234375 272.769531 163.703125 C 273.875 163.984375 274.78125 164.796875 275.640625 165.484375 C 276.578125 166.238281 277.390625 166.816406 278.601562 167.019531 Z M 279.890625 173.671875 C 277.5625 172.597656 274.59375 172.242188 274.253906 169.105469 C 274.1875 168.484375 273.253906 168.453125 273.261719 169.105469 C 273.28125 170.914062 274.101562 172.332031 275.671875 173.242188 C 277.050781 174.042969 281.179688 174.636719 280.929688 176.703125 C 280.867188 177.226562 281.703125 177.433594 281.921875 176.972656 C 282.691406 175.367188 281.214844 174.285156 279.890625 173.671875 Z M 277.269531 184.820312 C 277.074219 184.28125 276.980469 183.707031 276.753906 183.179688 C 276.207031 181.910156 275.664062 181.246094 274.375 180.796875 C 273.878906 180.621094 273.550781 181.40625 274.019531 181.648438 C 276.078125 182.71875 275.945312 188.128906 278.171875 188.582031 C 279.890625 188.933594 280.0625 186.660156 279.957031 185.535156 C 279.707031 182.933594 278.800781 179.746094 277.148438 177.691406 C 276.332031 176.679688 275.386719 175.6875 274.347656 174.902344 C 272.933594 173.832031 271.304688 173.742188 269.859375 172.8125 C 269.347656 172.480469 268.929688 173.261719 269.394531 173.609375 C 271.09375 174.886719 273.015625 175.234375 274.644531 176.777344 C 276.628906 178.65625 278.050781 181.183594 278.339844 183.949219 C 278.460938 185.121094 278.523438 188.273438 277.269531 184.820312 Z M 279.828125 192.808594 C 273.3125 194.371094 272.640625 188.402344 271.921875 183.617188 C 271.527344 180.992188 270.386719 179.152344 268.703125 177.148438 C 268.445312 176.84375 267.917969 177.246094 268.148438 177.574219 C 269.851562 179.957031 270.585938 182.042969 270.890625 184.949219 C 271.109375 187.039062 271.308594 189.179688 272.34375 191.050781 C 274.050781 194.128906 276.890625 194.890625 280.140625 193.945312 C 280.867188 193.734375 280.5625 192.632812 279.828125 192.808594 Z M 163.339844 259.4375 C 161.292969 258.347656 160.550781 256.402344 158.824219 255.148438 C 157.832031 254.425781 157.539062 254.742188 156.527344 254.859375 C 155.835938 254.9375 155.285156 254.933594 154.828125 254.863281 C 152.023438 250.230469 151.691406 245.308594 151.195312 239.976562 C 150.957031 237.40625 150.296875 235.136719 147.597656 234.441406 C 147.191406 234.335938 147.019531 234.953125 147.421875 235.070312 C 148.714844 235.441406 149.890625 239.300781 150.050781 240.585938 C 150.175781 241.605469 150.125 242.679688 150.21875 243.710938 C 150.351562 245.222656 150.546875 246.734375 150.875 248.21875 C 151.316406 250.222656 152.007812 252.019531 152.976562 253.710938 C 152.4375 252.933594 152.078125 251.863281 151.269531 250.707031 C 150.410156 249.480469 149.445312 248.71875 148.050781 248.21875 C 147.523438 248.03125 147.304688 248.863281 147.820312 249.054688 C 151.25 250.320312 150.640625 253.578125 152.734375 255.761719 C 153.316406 256.367188 154.011719 256.816406 154.867188 256.855469 C 156.691406 256.941406 157.40625 256.035156 159.308594 257.710938 C 160.492188 258.75 161.324219 259.636719 162.789062 260.378906 C 163.410156 260.691406 163.960938 259.769531 163.339844 259.4375 Z M 189.613281 271.480469 C 185.269531 271.972656 180.679688 272.417969 177.804688 268.410156 C 177.15625 267.503906 177.015625 266.542969 175.820312 266.234375 C 175.054688 266.035156 174.652344 266.421875 174.113281 266.535156 C 174.097656 266.484375 174.070312 266.433594 174.03125 266.386719 C 172.164062 264.097656 171.160156 260.554688 170.746094 257.644531 C 170.410156 255.273438 171.261719 252.953125 170.542969 250.644531 C 170.460938 250.386719 170.113281 250.5 170.148438 250.753906 C 170.402344 252.578125 169.578125 254.320312 169.46875 256.109375 C 169.371094 257.628906 169.742188 259.089844 170.152344 260.542969 C 170.777344 262.753906 171.566406 264.75 173.0625 266.453125 C 171.011719 265.984375 170.785156 264.71875 169.542969 263.367188 C 168.191406 261.902344 166.578125 260.988281 164.710938 260.359375 C 164.152344 260.167969 163.921875 261.039062 164.46875 261.234375 C 167.199219 262.210938 168.175781 263.730469 169.917969 265.835938 C 170.425781 266.449219 170.773438 267.222656 171.539062 267.59375 C 171.753906 267.699219 171.980469 267.75 172.207031 267.789062 C 170.789062 268.4375 169.425781 269.25 168.132812 270.011719 C 166.300781 271.09375 164.679688 272.335938 164.0625 274.445312 C 163.902344 274.976562 164.722656 275.199219 164.886719 274.671875 C 165.644531 272.28125 167.925781 271.378906 169.976562 270.359375 C 171.660156 269.527344 173.332031 268.46875 175.117188 267.84375 C 175.535156 267.933594 175.953125 268.066406 176.371094 268.289062 C 176.554688 268.71875 176.785156 269.121094 177.0625 269.496094 C 180.777344 273.246094 184.640625 273.351562 189.753906 272.527344 C 190.339844 272.429688 190.210938 271.410156 189.613281 271.480469 Z M 228.542969 268.332031 C 226.117188 269.167969 224.019531 270.449219 221.871094 271.796875 C 222.796875 270.703125 223.554688 269.480469 223.875 268.0625 C 224.125 266.964844 224.027344 265.828125 224.175781 264.722656 C 224.351562 263.378906 225.089844 262.347656 225.382812 261.0625 C 225.496094 260.566406 224.757812 260.359375 224.621094 260.851562 C 224.148438 262.535156 223.113281 263.636719 222.925781 265.449219 C 222.761719 267.023438 222.710938 268.265625 221.921875 269.667969 C 221.320312 270.730469 220.488281 271.660156 219.746094 272.621094 C 219.609375 272.800781 219.605469 273.003906 219.675781 273.160156 C 218.261719 274.015625 216.804688 274.792969 215.191406 275.214844 C 212.953125 275.800781 211.4375 275.175781 209.320312 275.070312 C 208.554688 274.773438 207.761719 274.503906 207.109375 274.039062 C 205.917969 273.191406 205.410156 271.445312 205.113281 270.09375 C 204.800781 268.675781 204.683594 267.363281 203.203125 266.769531 C 202.90625 266.648438 202.691406 267.15625 202.984375 267.292969 C 204.398438 267.949219 203.941406 270.03125 204.222656 271.277344 C 204.425781 272.1875 204.800781 273.136719 205.3125 273.910156 C 205.699219 274.492188 206.25 274.949219 206.871094 275.316406 C 205.304688 275.691406 203.855469 276.363281 202.148438 276.605469 C 200.425781 276.847656 199.105469 276.53125 197.949219 275.941406 C 197.398438 275.390625 196.757812 274.9375 196.019531 274.648438 C 196 274.640625 195.984375 274.644531 195.96875 274.640625 C 194.722656 273.667969 193.511719 272.554688 191.941406 271.769531 C 191.410156 271.5 190.941406 272.285156 191.472656 272.574219 C 193.839844 273.863281 195.148438 276.027344 197.425781 277.175781 C 197.691406 277.476562 197.945312 277.796875 198.160156 278.175781 C 198.722656 279.167969 199.003906 280.289062 199.488281 281.316406 C 200.375 283.210938 201.792969 284.011719 203.675781 284.757812 C 204.15625 284.949219 204.355469 284.175781 203.886719 283.984375 C 202.449219 283.398438 201.300781 282.71875 200.59375 281.265625 C 200.132812 280.316406 199.941406 279.257812 199.519531 278.289062 C 199.445312 278.121094 199.367188 277.960938 199.28125 277.796875 C 202.644531 278.425781 205.226562 276.402344 208.5 276.417969 C 211.597656 276.429688 213.902344 277.078125 216.960938 275.902344 C 221.207031 274.273438 224.542969 271.023438 228.863281 269.5 C 229.589844 269.242188 229.28125 268.074219 228.542969 268.332031 Z M 137.28125 216.113281 C 137.035156 216.203125 137.132812 216.5625 137.390625 216.507812 C 141.171875 215.730469 144.847656 216.527344 148.234375 218.261719 C 148.859375 218.582031 149.359375 217.714844 148.78125 217.320312 C 145.316406 214.945312 141.160156 214.722656 137.28125 216.113281 Z M 163.734375 252.074219 C 163.664062 247.699219 165.65625 243.289062 164.433594 238.960938 C 164.253906 238.328125 163.390625 238.609375 163.480469 239.222656 C 164.109375 243.5625 163.027344 247.746094 163.144531 252.074219 C 163.152344 252.453125 163.738281 252.457031 163.734375 252.074219 Z M 188.859375 259.078125 C 188.699219 258.542969 187.929688 258.765625 188.03125 259.304688 C 188.332031 260.871094 187.914062 262.355469 187.902344 263.921875 C 187.890625 265.246094 188.085938 266.582031 188.308594 267.882812 C 188.378906 268.308594 189.019531 268.128906 188.953125 267.707031 C 188.648438 265.859375 188.695312 264.171875 188.933594 262.320312 C 189.074219 261.203125 189.191406 260.167969 188.859375 259.078125 Z M 251.203125 242.410156 C 250.660156 240.628906 249.695312 238.871094 248.042969 237.941406 C 247.570312 237.675781 247.15625 238.390625 247.621094 238.664062 C 249.488281 239.765625 250.382812 242.789062 250.257812 244.816406 C 250.160156 246.394531 249.542969 247.863281 249.503906 249.457031 C 249.503906 249.527344 249.519531 249.585938 249.542969 249.636719 C 248.519531 251.324219 247.523438 253.03125 246.519531 254.734375 C 245.675781 256.171875 244.9375 256.796875 243.683594 257.445312 C 243.507812 257.25 243.234375 257.152344 242.988281 257.335938 C 242.71875 257.53125 242.464844 257.742188 242.21875 257.957031 C 242.882812 255.019531 240.648438 251.824219 237.667969 250.945312 C 237.191406 250.804688 237 251.53125 237.464844 251.6875 C 239.132812 252.246094 240.402344 253.46875 240.875 255.183594 C 241.324219 256.796875 240.867188 258.167969 240.28125 259.652344 C 240.019531 260.105469 239.785156 260.585938 239.46875 261.078125 C 238.769531 262.183594 233.933594 268.328125 232.125 266.546875 C 231.644531 266.074219 230.945312 266.785156 231.390625 267.28125 C 233.070312 269.140625 235.945312 267.015625 237.964844 264.9375 C 237.160156 267.429688 236.746094 270.085938 236.460938 272.539062 C 236.410156 272.953125 237.117188 273.050781 237.183594 272.640625 C 237.820312 268.667969 238.917969 264.261719 241.304688 260.882812 C 241.972656 260.191406 242.726562 259.660156 243.914062 259.074219 C 244.863281 258.609375 245.054688 258.835938 245.890625 258.078125 C 248.15625 256.03125 249.90625 251.496094 251.378906 248.800781 C 251.636719 248.328125 251.203125 247.914062 250.796875 247.964844 C 251.34375 246.140625 251.789062 244.328125 251.203125 242.410156 Z M 228.398438 246.15625 C 232.550781 243.8125 237.773438 244.753906 242.246094 245.5625 C 242.644531 245.632812 242.820312 245.027344 242.414062 244.949219 C 238.027344 244.097656 231.761719 242.234375 227.863281 245.246094 C 227.34375 245.648438 227.785156 246.503906 228.398438 246.15625 Z M 116.703125 231.140625 C 111.0625 235.261719 108.472656 242.4375 105.488281 248.480469 C 105.265625 248.933594 105.9375 249.335938 106.171875 248.878906 C 109.328125 242.730469 112.472656 236.902344 117.246094 231.851562 C 117.582031 231.492188 117.132812 230.824219 116.703125 231.140625 Z M 89.859375 246.300781 C 86.242188 249.707031 83.832031 254.699219 81.914062 259.207031 C 81.722656 259.65625 82.371094 260.058594 82.585938 259.597656 C 84.769531 254.972656 87.847656 251.109375 90.5 246.796875 C 90.75 246.394531 90.191406 245.988281 89.859375 246.300781 Z M 274.902344 273.871094 C 273.964844 267.28125 268.582031 261.632812 264.339844 256.835938 C 264.042969 256.503906 263.441406 256.953125 263.710938 257.320312 C 267.578125 262.59375 273.035156 267.339844 274.121094 274.085938 C 274.203125 274.601562 274.972656 274.375 274.902344 273.871094 Z M 145.136719 253.015625 C 144.851562 250.40625 143.488281 247.75 142.199219 245.269531 C 143.328125 246.363281 144.59375 247.328125 145.839844 248.261719 C 146.210938 248.535156 146.695312 247.910156 146.335938 247.617188 C 145.097656 246.597656 143.816406 245.59375 142.714844 244.417969 C 140.738281 242.304688 140.414062 240.621094 139.625 237.960938 C 139.277344 236.78125 138.964844 236.300781 137.789062 235.726562 C 135.773438 234.742188 134.703125 236.253906 134.304688 232.269531 C 134.21875 231.386719 135.046875 230.285156 134.992188 229.335938 C 134.898438 227.640625 133.945312 226.632812 132.597656 225.769531 C 132.144531 225.476562 131.738281 226.1875 132.179688 226.488281 C 136.394531 229.359375 132.226562 231.453125 133.1875 234.34375 C 133.863281 236.367188 136.085938 236.339844 137.480469 237.640625 C 138.933594 239 139.101562 240.972656 140.089844 242.699219 C 140.03125 242.796875 140.011719 242.910156 140.0625 243.035156 C 141.417969 246.375 144.03125 250.699219 144.039062 254.328125 C 144.042969 257.152344 142.945312 259.609375 143.34375 262.460938 C 143.394531 262.828125 144.039062 262.746094 144 262.375 C 143.625 259.15625 145.492188 256.222656 145.136719 253.015625 Z M 142.109375 272.167969 C 142.105469 271.585938 141.210938 271.585938 141.207031 272.167969 C 141.167969 279.832031 131.921875 282.617188 130.664062 289.894531 C 130.105469 293.144531 131.09375 296.359375 131.871094 299.476562 C 133.113281 304.472656 133.558594 309.359375 133.050781 314.476562 C 133.007812 314.90625 133.671875 314.898438 133.71875 314.476562 C 134.152344 310.59375 134.207031 306.683594 133.648438 302.804688 C 132.996094 298.292969 130.703125 293.296875 132.1875 288.75 C 134.289062 282.292969 142.136719 279.644531 142.109375 272.167969 Z M 161.136719 291.179688 C 161.453125 288.488281 162.5625 285.65625 163.421875 283.117188 C 163.609375 282.5625 162.75 282.335938 162.550781 282.875 C 161.035156 287.015625 158.722656 291.671875 160.519531 296.035156 C 163.347656 302.917969 165.664062 308.207031 165.621094 315.851562 C 165.617188 316.421875 166.480469 316.417969 166.507812 315.851562 C 166.75 310.601562 165.929688 305.207031 163.9375 300.332031 C 162.652344 297.1875 160.703125 294.828125 161.136719 291.179688 Z M 205.140625 290.128906 C 206.316406 293.695312 209.5625 300.324219 208.089844 304.042969 C 206.667969 307.617188 204.617188 310.824219 203.347656 314.546875 C 203.148438 315.128906 204.027344 315.335938 204.25 314.796875 C 205.367188 312.085938 206.453125 309.332031 207.875 306.761719 C 208.613281 305.425781 209.503906 304.335938 209.707031 302.808594 C 210.230469 298.84375 207.21875 293.613281 205.957031 289.902344 C 205.78125 289.386719 204.96875 289.605469 205.140625 290.128906 Z M 235.710938 290.019531 C 234.128906 286.34375 236.230469 281.484375 237.195312 277.890625 C 237.304688 277.484375 236.6875 277.316406 236.566406 277.71875 C 235.058594 282.847656 232.210938 287.378906 235.695312 292.125 C 237.40625 294.453125 239.425781 296.570312 241.039062 298.96875 C 243.832031 303.121094 242.679688 306.527344 242.132812 311.0625 C 242.074219 311.574219 242.867188 311.5625 242.933594 311.0625 C 243.648438 305.523438 245.144531 302.34375 241.558594 297.605469 C 239.8125 295.296875 236.851562 292.675781 235.710938 290.019531 Z M 274.746094 277.796875 C 274.921875 284.335938 275.121094 291.039062 273.574219 297.441406 C 272.242188 302.941406 269.765625 308.0625 268.472656 313.578125 C 268.375 314.007812 269.015625 314.1875 269.132812 313.761719 C 270.796875 307.832031 273.851562 302.324219 275.085938 296.277344 C 276.332031 290.164062 275.996094 283.976562 275.609375 277.796875 C 275.578125 277.246094 274.734375 277.234375 274.746094 277.796875 Z M 99.546875 263.65625 C 96.828125 267.765625 91.421875 273.0625 91.820312 278.355469 C 91.859375 278.894531 92.628906 278.902344 92.65625 278.355469 C 92.816406 275.367188 94.714844 272.9375 96.265625 270.5 C 97.617188 268.371094 98.910156 266.203125 100.277344 264.085938 C 100.574219 263.625 99.84375 263.203125 99.546875 263.65625 Z M 117.457031 261.4375 C 117.085938 262.027344 116.617188 262.628906 116.382812 263.289062 C 116.222656 263.742188 116.851562 264.066406 117.167969 263.746094 C 117.65625 263.246094 117.988281 262.550781 118.355469 261.960938 C 118.710938 261.390625 117.8125 260.867188 117.457031 261.4375 Z M 120.921875 262.105469 C 120.496094 262.738281 119.996094 263.363281 119.683594 264.058594 C 119.496094 264.484375 119.996094 264.964844 120.363281 264.585938 C 120.929688 264.007812 121.347656 263.28125 121.800781 262.617188 C 122.167969 262.078125 121.285156 261.5625 120.921875 262.105469 Z M 146.550781 295.09375 C 146.214844 295.707031 145.878906 296.320312 145.539062 296.933594 C 145.234375 297.492188 144.820312 298.066406 144.707031 298.703125 C 144.632812 299.132812 145.109375 299.453125 145.449219 299.136719 C 145.925781 298.695312 146.183594 298.050781 146.492188 297.488281 C 146.824219 296.871094 147.15625 296.257812 147.492188 295.644531 C 147.828125 295.027344 146.886719 294.476562 146.550781 295.09375 Z M 149.25 295.15625 C 148.96875 295.722656 148.699219 296.292969 148.40625 296.851562 C 148.132812 297.375 147.804688 297.882812 147.636719 298.453125 C 147.511719 298.878906 148.078125 299.210938 148.382812 298.890625 C 149.21875 298.011719 149.695312 296.644531 150.101562 295.519531 C 150.28125 295.023438 149.480469 294.683594 149.25 295.15625 Z M 219.125 282.246094 C 218.761719 282.804688 218.398438 283.363281 218.035156 283.921875 C 217.699219 284.4375 217.292969 284.941406 217.109375 285.535156 C 216.972656 285.992188 217.539062 286.246094 217.859375 285.972656 C 218.324219 285.570312 218.625 284.972656 218.960938 284.460938 C 219.324219 283.90625 219.691406 283.347656 220.054688 282.792969 C 220.4375 282.210938 219.503906 281.664062 219.125 282.246094 Z M 222.425781 281.941406 C 221.671875 282.589844 220.96875 283.507812 220.824219 284.519531 C 220.757812 284.992188 221.414062 285.394531 221.671875 284.878906 C 222.082031 284.050781 222.4375 283.28125 223.113281 282.628906 C 223.570312 282.191406 222.898438 281.535156 222.425781 281.941406 Z M 258.0625 279.234375 C 257.3125 280.355469 256.449219 281.6875 256.175781 283.03125 C 256.074219 283.523438 256.753906 283.875 257.019531 283.390625 C 257.683594 282.179688 258.121094 280.882812 258.867188 279.703125 C 259.191406 279.191406 258.394531 278.738281 258.0625 279.234375 Z M 260.910156 280.347656 C 260.46875 281.054688 260.015625 281.753906 259.625 282.488281 C 259.355469 282.992188 260.0625 283.390625 260.378906 282.929688 C 260.855469 282.246094 261.265625 281.519531 261.691406 280.804688 C 261.992188 280.300781 261.21875 279.851562 260.910156 280.347656 Z M 248.984375 27.234375 C 256.964844 29.734375 263.742188 33.976562 270.191406 39.214844 C 270.550781 39.507812 271.039062 39.046875 270.707031 38.699219 C 264.875 32.558594 257.308594 28.621094 249.238281 26.320312 C 248.648438 26.152344 248.40625 27.054688 248.984375 27.234375 Z M 289.761719 74.441406 C 289.945312 74.914062 290.632812 74.742188 290.527344 74.230469 C 289.703125 70.191406 287.671875 66.425781 285.378906 63.042969 C 285.050781 62.558594 284.265625 63.007812 284.589844 63.507812 C 286.839844 66.957031 288.277344 70.625 289.761719 74.441406 Z M 270.117188 51.683594 C 270.648438 51.761719 271.109375 51.578125 271.617188 51.4375 C 272.183594 51.28125 272.75 51.125 273.316406 50.972656 C 273.96875 50.789062 273.691406 49.773438 273.035156 49.949219 C 272.46875 50.105469 271.902344 50.261719 271.335938 50.414062 C 270.832031 50.554688 270.339844 50.628906 269.929688 50.964844 C 269.695312 51.15625 269.8125 51.636719 270.117188 51.683594 Z M 272.726562 54.019531 C 274.050781 53.648438 275.328125 52.9375 276.585938 52.390625 C 277.050781 52.191406 276.710938 51.363281 276.238281 51.5625 C 274.972656 52.097656 273.578125 52.53125 272.394531 53.234375 C 271.980469 53.480469 272.253906 54.152344 272.726562 54.019531 Z M 203.347656 22.734375 C 203.773438 22.742188 204.15625 22.453125 204.523438 22.261719 C 204.925781 22.054688 205.328125 21.847656 205.730469 21.640625 C 206.308594 21.339844 205.796875 20.46875 205.21875 20.765625 C 204.816406 20.972656 204.414062 21.175781 204.011719 21.382812 C 203.632812 21.578125 203.21875 21.71875 202.972656 22.078125 C 202.777344 22.363281 203.039062 22.726562 203.347656 22.734375 Z M 206.238281 23.199219 C 207.277344 22.761719 208.222656 21.925781 209.152344 21.285156 C 209.609375 20.96875 209.183594 20.214844 208.707031 20.527344 C 207.738281 21.167969 206.582031 21.746094 205.753906 22.574219 C 205.410156 22.917969 205.84375 23.367188 206.238281 23.199219 Z M 206.238281 23.199219 " fill-opacity="1" fill-rule="nonzero"/><path fill="#000000" d="M 192.839844 164.710938 C 192.679688 165.574219 191.683594 165.390625 191.097656 165.203125 C 190.042969 164.867188 188.890625 164.851562 187.828125 165.160156 C 187.433594 165.273438 187.042969 165.429688 186.636719 165.421875 C 186.230469 165.414062 185.785156 165.183594 185.695312 164.785156 C 185.578125 164.253906 186.109375 163.8125 186.601562 163.578125 C 188.027344 162.90625 189.695312 162.757812 191.21875 163.171875 C 191.871094 163.347656 192.996094 163.84375 192.839844 164.710938 Z M 161.902344 109.082031 C 163.304688 109.6875 167.246094 112.324219 169.351562 110.863281 C 169.566406 110.714844 169.730469 110.542969 169.867188 110.367188 C 169.878906 110.375 169.882812 110.382812 169.890625 110.390625 C 175.15625 114.269531 178.265625 120.109375 178.648438 126.621094 C 178.679688 127.128906 179.421875 127.132812 179.441406 126.621094 C 179.675781 119.652344 176.214844 113.320312 170.304688 109.683594 C 170.289062 109.671875 170.273438 109.671875 170.257812 109.664062 C 168.742188 108.550781 163.339844 104.878906 155.671875 105.316406 C 148.78125 105.710938 144.167969 109.183594 142.640625 110.441406 C 152.335938 106.683594 158.242188 107.5 161.902344 109.082031 Z M 216.214844 112.253906 C 220.8125 112.371094 224.679688 113.523438 224.804688 113.027344 C 224.914062 112.605469 222.160156 111.5625 221.6875 111.386719 C 219.8125 110.6875 213.953125 108.746094 205.753906 110.097656 C 203.984375 110.390625 201.410156 110.949219 198.402344 112.121094 C 198.082031 113.234375 198.300781 113.796875 198.5 114.09375 C 200.011719 116.3125 206.5 112.007812 216.214844 112.253906 Z M 149.234375 123.542969 C 151.320312 122.070312 153.394531 121.238281 155.445312 120.914062 C 154.726562 121.757812 154.292969 122.855469 154.292969 124.054688 C 154.292969 126.722656 156.449219 128.882812 159.121094 128.882812 C 161.785156 128.882812 163.949219 126.722656 163.949219 124.054688 C 163.949219 123.289062 163.761719 122.5625 163.445312 121.917969 C 165.945312 122.867188 168.394531 124.3125 170.769531 125.976562 C 171.210938 126.285156 171.597656 125.582031 171.1875 125.265625 C 164.261719 119.984375 156.429688 116.851562 148.621094 122.496094 C 147.996094 122.949219 148.59375 123.996094 149.234375 123.542969 Z M 200.421875 128.652344 C 200.644531 128.347656 200.140625 127.957031 199.898438 128.25 C 199.148438 129.152344 197.078125 129.214844 197.472656 130.863281 C 197.882812 132.558594 199.820312 132.285156 201.042969 131.824219 C 201.492188 131.65625 201.324219 130.996094 200.84375 131.097656 C 200.289062 131.214844 199.632812 131.394531 199.097656 131.132812 C 198.664062 130.917969 198.390625 130.527344 198.671875 130.082031 C 199.078125 129.445312 199.964844 129.28125 200.421875 128.652344 Z M 223.582031 129.746094 C 219.160156 127.421875 213.851562 123.675781 208.769531 123.078125 C 204.835938 122.617188 202.53125 124.636719 200.441406 127.726562 C 200.199219 128.089844 200.78125 128.550781 201.054688 128.199219 C 202.355469 126.542969 203.75 125.492188 205.238281 124.941406 C 204.34375 125.820312 203.78125 127.042969 203.78125 128.402344 C 203.78125 131.078125 205.9375 133.238281 208.609375 133.238281 C 211.273438 133.238281 213.429688 131.078125 213.429688 128.402344 C 213.429688 127.335938 213.078125 126.355469 212.5 125.554688 C 212.695312 125.640625 212.890625 125.722656 213.089844 125.816406 C 216.429688 127.378906 219.667969 129.160156 222.992188 130.753906 C 223.660156 131.074219 224.25 130.097656 223.582031 129.746094 Z M 172.789062 128.003906 C 172.40625 128.257812 171.871094 128.230469 171.433594 128.234375 C 170.867188 128.242188 170.867188 129.101562 171.433594 129.113281 C 172.503906 129.144531 174.015625 128.914062 174.207031 127.597656 C 174.285156 127.078125 174.042969 126.511719 173.566406 126.261719 C 173.078125 126.007812 172.308594 126.304688 171.910156 125.890625 C 171.625 125.59375 171.082031 125.988281 171.328125 126.339844 C 171.53125 126.632812 171.753906 126.808594 172.101562 126.910156 C 172.390625 126.992188 172.789062 126.964844 173 127.210938 C 173.234375 127.480469 173.042969 127.835938 172.789062 128.003906 Z M 177.496094 165.878906 C 175.90625 164.394531 176.023438 161.96875 174.433594 160.476562 C 174.039062 160.109375 173.453125 160.6875 173.839844 161.074219 C 174.113281 161.347656 174.304688 161.65625 174.460938 161.972656 C 170.761719 161.039062 170.953125 156.765625 172.644531 154.066406 C 172.941406 153.59375 172.210938 153.175781 171.902344 153.632812 C 170.652344 155.480469 169.75 157.78125 170.601562 159.992188 C 171.234375 161.628906 172.773438 162.832031 174.546875 162.832031 C 174.636719 162.832031 174.707031 162.800781 174.769531 162.753906 C 175.066406 163.761719 175.15625 164.847656 175.746094 165.769531 C 176.316406 166.65625 177.191406 167.300781 178.132812 167.742188 C 180.792969 168.992188 183.683594 168.257812 186.339844 167.417969 C 186.914062 167.238281 186.679688 166.390625 186.089844 166.515625 C 183.382812 167.089844 179.78125 168.007812 177.496094 165.878906 Z M 189.296875 168.59375 C 198.648438 170.6875 203.621094 158.816406 195.769531 153.453125 C 195.347656 153.164062 194.964844 153.84375 195.375 154.132812 C 202.007812 158.863281 197.472656 169.292969 189.511719 167.808594 C 189.003906 167.710938 188.777344 168.480469 189.296875 168.59375 Z M 195.382812 132.496094 C 195.285156 130.464844 195.429688 128.4375 195.863281 126.492188 C 195.941406 126.464844 196.015625 126.410156 196.070312 126.3125 C 199.988281 119.058594 208.535156 117.230469 215.421875 121.457031 C 220.316406 124.457031 224.773438 126.964844 230.496094 128.007812 C 230.976562 128.09375 231.191406 127.371094 230.703125 127.261719 C 226.316406 126.28125 222.359375 124.605469 218.617188 122.109375 C 215.722656 120.175781 212.949219 118.316406 209.402344 117.921875 C 204.191406 117.34375 199.671875 119.683594 196.734375 123.679688 C 197.359375 122.125 198.214844 120.660156 199.339844 119.324219 C 199.59375 119.027344 199.179688 118.59375 198.90625 118.890625 C 195.417969 122.664062 193.574219 127.433594 194.644531 132.597656 C 194.730469 133.011719 195.402344 132.921875 195.382812 132.496094 Z M 174.8125 124.78125 C 175.03125 125.117188 175.570312 124.804688 175.351562 124.464844 C 169.78125 115.867188 157.988281 109.824219 149.011719 117.464844 C 148.652344 117.769531 149.117188 118.367188 149.511719 118.117188 C 158.742188 112.3125 169.109375 116.054688 174.8125 124.78125 Z M 181.667969 163.144531 C 181.421875 163.476562 181.097656 163.800781 180.976562 164.199219 C 180.878906 164.515625 181.273438 164.855469 181.558594 164.648438 C 181.90625 164.398438 182.121094 163.992188 182.363281 163.640625 C 182.625 163.257812 182.890625 162.875 183.152344 162.488281 C 183.445312 162.058594 182.765625 161.6875 182.464844 162.085938 C 182.199219 162.441406 181.933594 162.792969 181.667969 163.144531 Z M 184.007812 163.253906 C 184.28125 162.867188 184.480469 162.429688 184.703125 162.011719 C 184.976562 161.496094 184.199219 161.039062 183.917969 161.554688 C 183.675781 162.003906 183.40625 162.445312 183.222656 162.921875 C 183.039062 163.40625 183.746094 163.617188 184.007812 163.253906 Z M 177.628906 192.445312 C 181.925781 191.347656 186.457031 191.492188 190.476562 193.527344 C 190.824219 193.703125 191.125 193.199219 190.785156 192.996094 C 186.621094 190.542969 181.980469 189.730469 177.339844 191.386719 C 176.679688 191.621094 176.9375 192.625 177.628906 192.445312 Z M 244.984375 186.464844 C 234.753906 199.148438 222.386719 211.003906 206.324219 215.554688 C 196.710938 218.277344 185.953125 218.199219 176.753906 214.015625 C 169.925781 210.90625 167.183594 205.3125 162.144531 200.199219 C 161.753906 199.804688 161.179688 200.394531 161.539062 200.808594 C 166.878906 206.925781 169.574219 212.390625 177.417969 215.621094 C 185.988281 219.148438 195.660156 219.402344 204.613281 217.261719 C 221.285156 213.28125 236.039062 200.914062 245.640625 186.96875 C 245.902344 186.585938 245.285156 186.097656 244.984375 186.464844 Z M 258.253906 151.316406 C 258.644531 149.167969 260.09375 147.945312 261.132812 146.144531 C 261.863281 144.882812 262.144531 143.519531 262.234375 142.078125 C 262.257812 141.675781 261.582031 141.574219 261.523438 141.980469 C 261.226562 143.992188 260.242188 145.472656 259.042969 147.050781 C 258.089844 148.300781 257.257812 149.574219 257.398438 151.203125 C 257.4375 151.65625 258.160156 151.839844 258.253906 151.316406 Z M 264.167969 147.855469 C 263.527344 149.011719 262.984375 150.152344 262.113281 151.167969 C 261.40625 151.988281 259.207031 154.289062 258.308594 152.40625 C 258.148438 152.070312 257.558594 152.308594 257.703125 152.664062 C 258.335938 154.222656 260.074219 154.417969 261.375 153.511719 C 263.035156 152.351562 264.441406 150.121094 264.878906 148.152344 C 264.96875 147.738281 264.386719 147.453125 264.167969 147.855469 Z M 264.28125 153.382812 C 264.003906 153.835938 263.695312 154.28125 263.492188 154.773438 C 263.328125 155.167969 263.949219 155.515625 264.214844 155.195312 C 264.550781 154.785156 264.792969 154.296875 265.0625 153.84375 C 265.359375 153.335938 264.585938 152.886719 264.28125 153.382812 Z M 168.386719 98.636719 C 173.34375 101.625 181.695312 99.195312 182.6875 93.035156 C 182.753906 92.632812 182.144531 92.457031 182.070312 92.867188 C 181.078125 98.496094 173.386719 100.101562 168.933594 97.699219 C 168.320312 97.367188 167.785156 98.277344 168.386719 98.636719 Z M 227.300781 102.96875 C 227.761719 102.726562 227.4375 101.90625 226.941406 102.109375 C 220.421875 104.777344 213.589844 101.316406 212.128906 94.359375 C 212.066406 94.070312 211.582031 94.132812 211.609375 94.429688 C 212.335938 102.167969 220.378906 106.597656 227.300781 102.96875 Z M 170.183594 130.535156 C 166.652344 130.167969 163.40625 131.484375 159.902344 131.351562 C 155.703125 131.191406 151.84375 128.898438 149.667969 125.304688 C 149.394531 124.851562 148.699219 125.257812 148.960938 125.714844 C 150.636719 128.667969 152.96875 130.964844 156.335938 131.820312 C 160.914062 132.984375 165.582031 130.847656 170.183594 130.945312 C 170.453125 130.949219 170.441406 130.5625 170.183594 130.535156 Z M 222.046875 133.785156 C 222.390625 133.542969 222.085938 132.984375 221.710938 133.210938 C 218.292969 135.257812 214.625 136.183594 210.644531 135.890625 C 207.054688 135.628906 204.140625 133.902344 200.675781 133.265625 C 200.21875 133.183594 200.027344 133.890625 200.480469 133.964844 C 204.472656 134.617188 207.726562 137.136719 211.890625 137.167969 C 215.613281 137.191406 219.035156 135.917969 222.046875 133.785156 Z M 164.910156 134.664062 C 164.691406 135.019531 164.46875 135.375 164.246094 135.726562 C 164.039062 136.050781 163.75 136.386719 163.679688 136.773438 C 163.609375 137.136719 163.996094 137.34375 164.273438 137.121094 C 164.578125 136.875 164.742188 136.464844 164.929688 136.128906 C 165.136719 135.765625 165.347656 135.402344 165.558594 135.042969 C 165.804688 134.625 165.164062 134.253906 164.910156 134.664062 Z M 166.21875 136.847656 C 166.511719 136.59375 166.714844 136.226562 166.933594 135.90625 C 167.160156 135.570312 167.390625 135.230469 167.621094 134.894531 C 167.9375 134.425781 167.191406 134.003906 166.871094 134.453125 C 166.421875 135.082031 165.816406 135.726562 165.539062 136.449219 C 165.378906 136.863281 165.941406 137.089844 166.21875 136.847656 Z M 201.222656 138.101562 C 201.542969 138.839844 201.800781 139.746094 202.308594 140.375 C 202.578125 140.710938 203.011719 140.332031 202.953125 139.996094 C 202.886719 139.597656 202.667969 139.21875 202.5 138.851562 C 202.316406 138.460938 202.132812 138.070312 201.953125 137.679688 C 201.71875 137.183594 201.011719 137.613281 201.222656 138.101562 Z M 203.554688 138.964844 C 203.808594 139.53125 204.023438 140.152344 204.386719 140.660156 C 204.621094 140.996094 205.1875 140.804688 205.074219 140.371094 C 204.90625 139.734375 204.554688 139.136719 204.265625 138.546875 C 204.03125 138.066406 203.339844 138.488281 203.554688 138.964844 Z M 173.460938 180.773438 C 175.492188 180.675781 177.015625 180.34375 178.871094 181.25 C 180.023438 181.808594 180.449219 182.179688 181.773438 182.3125 C 182.148438 182.351562 182.136719 181.777344 181.773438 181.734375 C 179.46875 181.441406 178.707031 179.269531 176.351562 179.308594 C 172.886719 179.359375 169.785156 180.070312 166.980469 177.398438 C 166.449219 176.886719 165.675781 177.664062 166.175781 178.207031 C 168.085938 180.289062 170.703125 180.902344 173.460938 180.773438 Z M 183.183594 182.488281 C 185.207031 182.007812 187.28125 181.257812 189.292969 181.996094 C 190.898438 182.585938 191.945312 183.382812 193.738281 183.679688 C 197.144531 184.25 200.59375 183.398438 203.757812 182.191406 C 204.402344 181.945312 204.152344 180.921875 203.464844 181.128906 C 201.285156 181.792969 199.027344 182.546875 196.734375 182.613281 C 193.894531 182.699219 192.054688 181.464844 189.492188 180.722656 C 187.265625 180.078125 185.15625 181.21875 183.007812 181.855469 C 182.605469 181.976562 182.773438 182.585938 183.183594 182.488281 Z M 232.453125 128.199219 C 232.667969 128.753906 233.566406 128.523438 233.355469 127.949219 C 233.183594 127.480469 232.992188 127.019531 232.808594 126.558594 C 232.601562 126.027344 231.742188 126.242188 231.941406 126.796875 C 232.109375 127.265625 232.273438 127.734375 232.453125 128.199219 Z M 233.972656 128.15625 C 234.15625 128.539062 234.800781 128.269531 234.660156 127.867188 C 234.433594 127.214844 234.15625 126.582031 233.871094 125.953125 C 233.699219 125.574219 233.054688 125.84375 233.195312 126.238281 C 233.433594 126.886719 233.679688 127.53125 233.972656 128.15625 Z M 177.195312 146.53125 C 178.28125 143.058594 178.679688 139.402344 178.753906 135.777344 C 178.761719 135.273438 178.03125 135.292969 177.984375 135.777344 C 177.625 139.324219 177.011719 142.820312 176.507812 146.34375 C 176.445312 146.785156 177.054688 146.984375 177.195312 146.53125 Z M 177.195312 146.53125 " fill-opacity="1" fill-rule="nonzero"/></svg>