<svg xmlns="http://www.w3.org/2000/svg" xmlns:xlink="http://www.w3.org/1999/xlink" width="500" zoomAndPan="magnify" viewBox="0 0 375 374.999991" height="500" preserveAspectRatio="xMidYMid meet" version="1.0"><path fill="#d7dadd" d="M 64.96875 200.675781 C 88.371094 174.800781 44.277344 126.605469 55.238281 91.78125 C 70 44.902344 190.078125 4.707031 270.902344 55.746094 C 338.585938 98.484375 362.089844 194.691406 332.519531 233.578125 C 323.667969 245.21875 312.660156 248.3125 298.195312 260.484375 C 284.738281 271.808594 283.222656 274.699219 282.253906 276.667969 C 272.683594 296.109375 292.808594 313.175781 288.757812 329.851562 C 282.359375 356.199219 218.359375 370.257812 164.84375 361.339844 C 150.410156 358.933594 77.273438 344.953125 50.375 286.851562 C 48.292969 282.355469 28.597656 238.933594 47.132812 214.777344 C 53.558594 206.402344 58.730469 207.574219 64.96875 200.675781 " fill-opacity="1" fill-rule="nonzero"/><path fill="#5479f7" d="M 303.546875 94.484375 C 296.765625 87.792969 296.664062 76.839844 303.320312 70.019531 C 309.976562 63.203125 320.867188 63.101562 327.648438 69.792969 C 334.425781 76.488281 334.523438 87.441406 327.871094 94.257812 C 321.214844 101.078125 310.324219 101.179688 303.546875 94.484375 " fill-opacity="1" fill-rule="nonzero"/><path fill="#ffffff" d="M 327.25 81.214844 L 315.566406 93.183594 C 314.949219 93.816406 313.933594 93.828125 313.304688 93.203125 L 305.085938 85.089844 C 304.457031 84.464844 304.445312 83.449219 305.066406 82.8125 L 316.75 70.84375 C 317.367188 70.210938 318.378906 70.203125 319.007812 70.824219 L 327.230469 78.941406 C 327.859375 79.5625 327.871094 80.578125 327.25 81.214844 " fill-opacity="1" fill-rule="nonzero"/><path fill="#1f2562" d="M 317.886719 70.964844 C 317.886719 70.964844 317.882812 70.964844 317.878906 70.964844 C 317.613281 70.96875 317.363281 71.074219 317.175781 71.265625 L 305.492188 83.234375 C 305.105469 83.632812 305.109375 84.273438 305.503906 84.664062 L 313.722656 92.777344 C 313.914062 92.96875 314.179688 93.058594 314.429688 93.066406 C 314.699219 93.066406 314.945312 92.957031 315.132812 92.765625 L 326.820312 80.796875 C 327.207031 80.398438 327.203125 79.757812 326.804688 79.367188 L 318.589844 71.253906 C 318.398438 71.066406 318.152344 70.964844 317.886719 70.964844 Z M 314.421875 94.265625 C 313.839844 94.265625 313.296875 94.042969 312.882812 93.632812 L 304.660156 85.519531 C 303.796875 84.664062 303.785156 83.265625 304.632812 82.398438 L 316.316406 70.429688 C 316.730469 70.007812 317.277344 69.769531 317.871094 69.765625 C 318.476562 69.761719 319.011719 69.984375 319.429688 70.398438 L 327.648438 78.515625 C 328.515625 79.367188 328.527344 80.765625 327.675781 81.636719 L 315.992188 93.605469 C 315.582031 94.027344 315.03125 94.261719 314.441406 94.265625 C 314.4375 94.265625 314.429688 94.265625 314.421875 94.265625 " fill-opacity="1" fill-rule="nonzero"/><path fill="#1f2562" d="M 309.21875 84.652344 C 308.941406 84.652344 308.695312 84.460938 308.632812 84.179688 C 308.5625 83.859375 308.765625 83.539062 309.089844 83.464844 L 316.546875 81.835938 C 316.871094 81.761719 317.191406 81.96875 317.261719 82.292969 C 317.332031 82.617188 317.128906 82.933594 316.804688 83.007812 L 309.347656 84.636719 C 309.304688 84.648438 309.261719 84.652344 309.21875 84.652344 " fill-opacity="1" fill-rule="nonzero"/><path fill="#1f2562" d="M 316.707031 82.992188 C 316.671875 82.992188 316.628906 82.984375 316.59375 82.976562 C 316.265625 82.914062 316.054688 82.597656 316.117188 82.273438 L 317.605469 74.742188 C 317.667969 74.417969 317.988281 74.207031 318.308594 74.269531 C 318.632812 74.335938 318.847656 74.652344 318.785156 74.976562 L 317.296875 82.503906 C 317.242188 82.789062 316.988281 82.992188 316.707031 82.992188 " fill-opacity="1" fill-rule="nonzero"/><path fill="#5479f7" d="M 298.847656 54.265625 C 298.847656 62.972656 291.789062 70.03125 283.082031 70.03125 C 274.371094 70.03125 267.3125 62.972656 267.3125 54.265625 C 267.3125 45.558594 274.371094 38.496094 283.082031 38.496094 C 291.789062 38.496094 298.847656 45.558594 298.847656 54.265625 " fill-opacity="1" fill-rule="nonzero"/><path fill="#ffffff" d="M 289.683594 52.976562 L 281.242188 47.25 C 280.203125 46.550781 278.808594 47.292969 278.808594 48.542969 L 278.808594 59.988281 C 278.808594 61.238281 280.203125 61.980469 281.242188 61.277344 L 289.683594 55.554688 C 290.59375 54.9375 290.59375 53.589844 289.683594 52.976562 " fill-opacity="1" fill-rule="nonzero"/><path fill="#ffffff" d="M 278.257812 171.554688 L 22.390625 171.554688 C 16.742188 171.554688 12.992188 176.039062 14.007812 181.566406 L 45.597656 353.371094 C 46.613281 358.90625 52.015625 363.386719 57.664062 363.386719 L 313.527344 363.386719 C 319.175781 363.386719 322.929688 358.90625 321.914062 353.371094 L 290.320312 181.566406 C 289.304688 176.039062 283.902344 171.554688 278.257812 171.554688 " fill-opacity="1" fill-rule="nonzero"/><path fill="#1f2562" d="M 22.390625 172.15625 C 19.832031 172.15625 17.617188 173.125 16.148438 174.890625 C 14.691406 176.640625 14.140625 178.972656 14.597656 181.460938 L 46.1875 353.265625 C 47.152344 358.515625 52.300781 362.789062 57.664062 362.789062 L 313.523438 362.789062 C 316.082031 362.789062 318.300781 361.816406 319.769531 360.054688 C 321.226562 358.304688 321.777344 355.96875 321.320312 353.480469 L 289.730469 181.675781 C 288.765625 176.425781 283.617188 172.15625 278.253906 172.15625 Z M 313.523438 363.988281 L 57.664062 363.988281 C 51.75 363.988281 46.070312 359.273438 45.007812 353.480469 L 13.417969 181.675781 C 12.894531 178.832031 13.535156 176.152344 15.226562 174.121094 C 16.925781 172.078125 19.472656 170.957031 22.390625 170.957031 L 278.253906 170.957031 C 284.167969 170.957031 289.847656 175.667969 290.914062 181.460938 L 322.5 353.265625 C 323.023438 356.109375 322.382812 358.792969 320.691406 360.824219 C 318.992188 362.863281 316.449219 363.988281 313.523438 363.988281 " fill-opacity="1" fill-rule="nonzero"/><path fill="#99b9ff" d="M 57.949219 357.777344 C 54.550781 357.777344 51.292969 355.089844 50.683594 351.78125 L 19.617188 182.824219 C 19.011719 179.515625 21.28125 176.824219 24.679688 176.824219 L 277.90625 176.824219 C 281.304688 176.824219 284.566406 179.515625 285.171875 182.824219 L 316.238281 351.78125 C 316.847656 355.089844 314.574219 357.777344 311.179688 357.777344 L 57.949219 357.777344 " fill-opacity="1" fill-rule="nonzero"/><path fill="#ffffff" d="M 243.214844 237.234375 L 186.382812 237.234375 C 181.457031 237.234375 178.199219 241.230469 179.105469 246.15625 C 180.007812 251.082031 184.734375 255.074219 189.664062 255.074219 L 246.496094 255.074219 C 251.421875 255.074219 254.679688 251.082031 253.773438 246.15625 C 252.867188 241.230469 248.140625 237.234375 243.214844 237.234375 " fill-opacity="1" fill-rule="nonzero"/><path fill="#d7dadd" d="M 267.875 283.660156 L 178.800781 283.660156 L 176.375 270.476562 L 265.449219 270.476562 L 267.875 283.660156 " fill-opacity="1" fill-rule="nonzero"/><path fill="#d7dadd" d="M 271.808594 305.070312 L 182.734375 305.070312 L 180.3125 291.886719 L 269.386719 291.886719 L 271.808594 305.070312 " fill-opacity="1" fill-rule="nonzero"/><path fill="#ffffff" d="M 122.378906 95.164062 C 119.652344 95.164062 117.277344 96.210938 115.695312 98.109375 C 114.074219 100.058594 113.460938 102.675781 113.976562 105.472656 L 133.929688 213.992188 C 134.996094 219.796875 140.582031 224.519531 146.382812 224.519531 L 212.339844 224.519531 C 215.066406 224.519531 217.441406 223.472656 219.023438 221.574219 C 220.644531 219.625 221.253906 217.007812 220.742188 214.210938 L 200.789062 105.6875 C 199.71875 99.886719 194.136719 95.164062 188.335938 95.164062 Z M 212.339844 225.71875 L 146.382812 225.71875 C 140.03125 225.71875 133.917969 220.554688 132.75 214.210938 L 112.796875 105.691406 C 112.214844 102.535156 112.917969 99.570312 114.773438 97.34375 C 116.589844 95.164062 119.289062 93.964844 122.378906 93.964844 L 188.335938 93.964844 C 194.6875 93.964844 200.800781 99.125 201.96875 105.472656 L 221.921875 213.992188 C 222.503906 217.148438 221.800781 220.113281 219.945312 222.339844 C 218.132812 224.519531 215.429688 225.71875 212.339844 225.71875 " fill-opacity="1" fill-rule="nonzero"/><path fill="#5479f7" d="M 212.339844 225.71875 L 209.636719 225.71875 C 209.304688 225.71875 209.035156 225.453125 209.035156 225.121094 C 209.035156 224.789062 209.304688 224.519531 209.636719 224.519531 L 212.339844 224.519531 C 215.066406 224.519531 217.441406 223.472656 219.023438 221.574219 C 220.644531 219.625 221.253906 217.011719 220.742188 214.210938 L 215.925781 188.023438 C 215.867188 187.695312 216.082031 187.382812 216.40625 187.324219 C 216.734375 187.261719 217.046875 187.476562 217.105469 187.804688 L 221.921875 213.992188 C 222.5 217.148438 221.800781 220.113281 219.945312 222.339844 C 218.128906 224.519531 215.429688 225.71875 212.339844 225.71875 " fill-opacity="1" fill-rule="nonzero"/><path fill="#5479f7" d="M 211.710938 162.375 C 211.425781 162.375 211.171875 162.171875 211.121094 161.882812 L 200.789062 105.691406 C 199.71875 99.886719 194.136719 95.164062 188.335938 95.164062 L 122.378906 95.164062 C 119.652344 95.164062 117.277344 96.210938 115.695312 98.109375 C 114.074219 100.058594 113.460938 102.675781 113.976562 105.472656 L 118.960938 132.574219 C 119.019531 132.898438 118.804688 133.210938 118.476562 133.269531 C 118.152344 133.332031 117.839844 133.117188 117.777344 132.789062 L 112.796875 105.691406 C 112.214844 102.535156 112.917969 99.570312 114.773438 97.34375 C 116.589844 95.164062 119.289062 93.964844 122.378906 93.964844 L 188.335938 93.964844 C 194.6875 93.964844 200.800781 99.125 201.96875 105.472656 L 212.300781 161.667969 C 212.363281 161.992188 212.148438 162.304688 211.820312 162.363281 C 211.785156 162.371094 211.746094 162.375 211.710938 162.375 " fill-opacity="1" fill-rule="nonzero"/><path fill="#ffffff" d="M 140.675781 128.699219 C 138.542969 117.097656 146.210938 107.695312 157.804688 107.695312 C 169.394531 107.695312 180.523438 117.097656 182.652344 128.699219 C 184.789062 140.300781 177.121094 149.707031 165.527344 149.707031 C 153.9375 149.707031 142.808594 140.300781 140.675781 128.699219 " fill-opacity="1" fill-rule="nonzero"/><path fill="#d7dadd" d="M 165.527344 150.308594 C 153.679688 150.308594 142.265625 140.664062 140.085938 128.808594 C 139.617188 126.261719 139.597656 123.761719 140.027344 121.386719 C 140.089844 121.0625 140.398438 120.84375 140.726562 120.902344 C 141.050781 120.960938 141.269531 121.273438 141.210938 121.601562 C 140.804688 123.832031 140.824219 126.1875 141.265625 128.589844 C 143.347656 139.902344 154.230469 149.105469 165.527344 149.105469 C 170.886719 149.105469 175.550781 147.042969 178.671875 143.300781 C 181.871094 139.457031 183.078125 134.3125 182.066406 128.808594 C 179.984375 117.496094 169.101562 108.292969 157.804688 108.292969 C 151.710938 108.292969 146.5 110.988281 143.5 115.683594 C 143.324219 115.964844 142.953125 116.046875 142.675781 115.867188 C 142.394531 115.691406 142.3125 115.320312 142.492188 115.039062 C 145.714844 109.988281 151.292969 107.09375 157.804688 107.09375 C 169.652344 107.09375 181.066406 116.738281 183.246094 128.589844 C 184.320312 134.449219 183.023438 139.949219 179.59375 144.070312 C 176.242188 148.089844 171.246094 150.308594 165.527344 150.308594 " fill-opacity="1" fill-rule="nonzero"/><path fill="#d7dadd" d="M 158.804688 114.882812 C 158.804688 114.882812 154.375 111.691406 150.5625 118.363281 C 147.191406 124.253906 153.863281 129.535156 152.625 133.203125 C 151.378906 136.871094 145.253906 138.871094 145.253906 138.871094 C 145.253906 138.871094 148.101562 143.039062 151.019531 144.871094 L 178.421875 144.871094 C 178.421875 144.871094 182.953125 138.703125 182.628906 136.953125 C 182.628906 136.953125 176.488281 136.621094 175.109375 131.367188 C 173.726562 126.117188 175.4375 122.839844 169.160156 116.90625 C 162.65625 110.761719 158.804688 114.882812 158.804688 114.882812 " fill-opacity="1" fill-rule="nonzero"/><path fill="#99b9ff" d="M 150.078125 143.976562 C 154.488281 147.527344 159.953125 149.707031 165.527344 149.707031 C 171.105469 149.707031 175.765625 147.527344 178.875 143.976562 C 174.277344 142.628906 169.253906 141.871094 164.085938 141.871094 C 158.921875 141.871094 154.175781 142.628906 150.078125 143.976562 " fill-opacity="1" fill-rule="nonzero"/><path fill="#d7dadd" d="M 151.355469 144.207031 C 155.648438 147.375 160.640625 149.105469 165.527344 149.105469 C 170.371094 149.105469 174.679688 147.402344 177.765625 144.289062 C 173.34375 143.082031 168.746094 142.472656 164.085938 142.472656 C 159.535156 142.472656 155.257812 143.054688 151.355469 144.207031 Z M 165.527344 150.308594 C 160.019531 150.308594 154.398438 148.226562 149.699219 144.445312 C 149.527344 144.304688 149.445312 144.085938 149.484375 143.871094 C 149.527344 143.652344 149.679688 143.476562 149.886719 143.40625 C 154.199219 141.992188 158.976562 141.269531 164.085938 141.269531 C 169.191406 141.269531 174.222656 141.988281 179.042969 143.402344 C 179.238281 143.457031 179.394531 143.613281 179.449219 143.808594 C 179.507812 144.003906 179.460938 144.21875 179.328125 144.375 C 175.976562 148.199219 171.078125 150.308594 165.527344 150.308594 " fill-opacity="1" fill-rule="nonzero"/><path fill="#ffffff" d="M 164.867188 145.421875 C 163.035156 145.421875 161.277344 143.9375 160.941406 142.105469 L 157.835938 125.199219 L 164.460938 125.199219 L 167.570312 142.105469 C 167.90625 143.9375 166.695312 145.421875 164.867188 145.421875 " fill-opacity="1" fill-rule="nonzero"/><path fill="#d7dadd" d="M 158.554688 125.800781 L 161.53125 141.996094 C 161.820312 143.554688 163.3125 144.820312 164.867188 144.820312 C 165.558594 144.820312 166.15625 144.5625 166.550781 144.085938 C 166.957031 143.597656 167.109375 142.933594 166.980469 142.214844 L 163.960938 125.800781 Z M 164.867188 146.023438 C 162.761719 146.023438 160.738281 144.3125 160.351562 142.214844 L 157.242188 125.308594 C 157.214844 125.132812 157.257812 124.953125 157.375 124.816406 C 157.488281 124.679688 157.65625 124.597656 157.835938 124.597656 L 164.460938 124.597656 C 164.75 124.597656 164.996094 124.804688 165.050781 125.089844 L 168.15625 141.996094 C 168.355469 143.070312 168.113281 144.085938 167.472656 144.855469 C 166.847656 145.605469 165.921875 146.023438 164.867188 146.023438 " fill-opacity="1" fill-rule="nonzero"/><path fill="#ffffff" d="M 163.40625 136.953125 C 167.128906 136.953125 169.59375 133.929688 168.910156 130.203125 L 168.179688 126.222656 C 167.515625 122.621094 164.058594 119.695312 160.460938 119.695312 L 153.484375 119.695312 L 155.417969 130.203125 C 155.917969 132.933594 157.972656 135.285156 160.503906 136.347656 L 163.40625 136.953125 " fill-opacity="1" fill-rule="nonzero"/><path fill="#d7dadd" d="M 163.40625 137.554688 C 163.074219 137.554688 162.804688 137.285156 162.804688 136.953125 C 162.804688 136.621094 163.074219 136.355469 163.40625 136.355469 C 165.003906 136.355469 166.390625 135.742188 167.316406 134.632812 C 168.265625 133.492188 168.625 131.957031 168.320312 130.308594 L 167.589844 126.332031 C 166.976562 123.003906 163.777344 120.296875 160.457031 120.296875 L 154.207031 120.296875 L 156.007812 130.09375 C 156.457031 132.539062 158.3125 134.777344 160.734375 135.796875 C 161.039062 135.925781 161.183594 136.277344 161.054688 136.582031 C 160.925781 136.886719 160.574219 137.03125 160.269531 136.902344 C 157.484375 135.730469 155.347656 133.144531 154.828125 130.308594 L 152.894531 119.804688 C 152.863281 119.628906 152.910156 119.449219 153.023438 119.3125 C 153.140625 119.175781 153.308594 119.097656 153.484375 119.097656 L 160.457031 119.097656 C 164.328125 119.097656 168.058594 122.246094 168.769531 126.117188 L 169.5 130.09375 C 169.867188 132.097656 169.421875 133.984375 168.238281 135.402344 C 167.082031 136.789062 165.363281 137.554688 163.40625 137.554688 " fill-opacity="1" fill-rule="nonzero"/><path fill="#d7dadd" d="M 160.695312 119.945312 L 154.992188 126.53125 L 153.734375 119.695312 C 153.734375 119.695312 160.726562 120.113281 160.695312 119.945312 " fill-opacity="1" fill-rule="nonzero"/><path fill="#d7dadd" d="M 196.15625 187.597656 L 143.796875 187.597656 C 142.589844 187.597656 141.429688 186.621094 141.207031 185.414062 L 141.207031 185.410156 C 140.988281 184.207031 141.785156 183.226562 142.992188 183.226562 L 195.351562 183.226562 C 196.558594 183.226562 197.71875 184.207031 197.9375 185.410156 L 197.9375 185.414062 C 198.160156 186.621094 197.363281 187.597656 196.15625 187.597656 " fill-opacity="1" fill-rule="nonzero"/><path fill="#d7dadd" d="M 207.1875 199.042969 L 145.496094 199.042969 C 144.289062 199.042969 143.132812 198.0625 142.910156 196.855469 C 142.6875 195.648438 143.488281 194.671875 144.695312 194.671875 L 206.382812 194.671875 C 207.589844 194.671875 208.746094 195.648438 208.96875 196.855469 L 208.972656 196.855469 C 209.191406 198.0625 208.394531 199.042969 207.1875 199.042969 " fill-opacity="1" fill-rule="nonzero"/><path fill="#99b9ff" d="M 184.597656 167.167969 L 157.785156 167.167969 C 156 167.167969 154.289062 165.722656 153.960938 163.9375 L 153.960938 163.933594 C 153.632812 162.152344 154.8125 160.707031 156.59375 160.707031 L 183.410156 160.707031 C 185.195312 160.707031 186.90625 162.152344 187.234375 163.933594 L 187.234375 163.9375 C 187.5625 165.722656 186.382812 167.167969 184.597656 167.167969 " fill-opacity="1" fill-rule="nonzero"/><path fill="#5479f7" d="M 106.429688 51.347656 C 105.648438 51.347656 28.363281 51.378906 27.175781 51.433594 C 24.367188 51.773438 21.933594 53.144531 20.347656 55.292969 C 18.679688 57.558594 18.074219 60.515625 18.644531 63.617188 L 42.128906 191.339844 C 43.394531 198.226562 50.019531 203.828125 56.902344 203.828125 L 134.6875 203.828125 C 137.933594 203.828125 140.757812 202.582031 142.640625 200.320312 C 144.574219 198 145.300781 194.886719 144.691406 191.558594 L 121.207031 63.835938 C 119.9375 56.949219 113.3125 51.347656 106.429688 51.347656 Z M 134.6875 205.027344 L 56.902344 205.027344 C 49.46875 205.027344 42.3125 198.984375 40.945312 191.558594 L 17.460938 63.835938 C 16.832031 60.40625 17.511719 57.117188 19.382812 54.582031 C 21.164062 52.164062 23.894531 50.621094 27.066406 50.242188 C 27.566406 50.183594 93.265625 50.152344 106.429688 50.148438 C 113.863281 50.148438 121.019531 56.191406 122.386719 63.617188 L 145.867188 191.339844 C 146.546875 195.027344 145.726562 198.488281 143.5625 201.085938 C 141.449219 203.628906 138.292969 205.027344 134.6875 205.027344 " fill-opacity="1" fill-rule="nonzero"/><path fill="#5479f7" d="M 31.917969 139.746094 C 31.636719 139.746094 31.382812 139.546875 31.332031 139.257812 L 17.460938 63.835938 C 16.832031 60.40625 17.511719 57.117188 19.382812 54.582031 C 21.164062 52.164062 23.894531 50.621094 27.066406 50.242188 C 27.566406 50.183594 93.265625 50.152344 106.429688 50.148438 C 113.863281 50.148438 121.019531 56.191406 122.386719 63.617188 L 126.984375 88.625 C 127.042969 88.953125 126.828125 89.265625 126.503906 89.324219 C 126.175781 89.386719 125.863281 89.167969 125.804688 88.84375 L 121.207031 63.835938 C 119.9375 56.949219 113.3125 51.347656 106.429688 51.347656 C 105.648438 51.347656 28.363281 51.378906 27.175781 51.433594 C 24.367188 51.773438 21.933594 53.144531 20.347656 55.292969 C 18.679688 57.5625 18.074219 60.515625 18.644531 63.617188 L 32.511719 139.039062 C 32.570312 139.367188 32.355469 139.679688 32.027344 139.738281 C 31.992188 139.746094 31.957031 139.746094 31.917969 139.746094 " fill-opacity="1" fill-rule="nonzero"/><path fill="#ffffff" d="M 100.058594 205.027344 L 68.71875 205.027344 C 68.386719 205.027344 68.117188 204.761719 68.117188 204.429688 C 68.117188 204.097656 68.386719 203.828125 68.71875 203.828125 L 100.058594 203.828125 C 100.390625 203.828125 100.65625 204.097656 100.65625 204.429688 C 100.65625 204.761719 100.390625 205.027344 100.058594 205.027344 " fill-opacity="1" fill-rule="nonzero"/><path fill="#99b9ff" d="M 94.953125 134.914062 L 73.621094 134.914062 C 72.203125 134.914062 70.839844 133.765625 70.582031 132.347656 C 70.320312 130.929688 71.257812 129.78125 72.675781 129.78125 L 94.007812 129.78125 C 95.425781 129.78125 96.789062 130.929688 97.046875 132.347656 C 97.308594 133.765625 96.371094 134.914062 94.953125 134.914062 " fill-opacity="1" fill-rule="nonzero"/><path fill="#99b9ff" d="M 123.136719 149 L 50.613281 149 C 49.195312 149 47.835938 147.851562 47.574219 146.433594 C 47.3125 145.015625 48.25 143.867188 49.667969 143.867188 L 122.195312 143.867188 C 123.613281 143.867188 124.972656 145.015625 125.234375 146.433594 C 125.496094 147.851562 124.554688 149 123.136719 149 " fill-opacity="1" fill-rule="nonzero"/><path fill="#99b9ff" d="M 124.957031 158.886719 L 52.429688 158.886719 C 51.011719 158.886719 49.652344 157.738281 49.390625 156.320312 C 49.128906 154.902344 50.070312 153.75 51.488281 153.75 L 124.011719 153.75 C 125.429688 153.75 126.789062 154.902344 127.050781 156.320312 C 127.3125 157.738281 126.375 158.886719 124.957031 158.886719 " fill-opacity="1" fill-rule="nonzero"/><path fill="#99b9ff" d="M 60.082031 107.242188 C 65.277344 111.421875 71.71875 113.988281 78.285156 113.988281 C 84.855469 113.988281 90.347656 111.421875 94.007812 107.242188 C 88.59375 105.65625 82.675781 104.761719 76.589844 104.761719 C 70.503906 104.761719 64.914062 105.65625 60.082031 107.242188 " fill-opacity="1" fill-rule="nonzero"/><path fill="#99b9ff" d="M 82.453125 90.53125 L 83.34375 82.75 C 83.679688 79.808594 81.925781 76.640625 79.035156 74.976562 C 77.792969 74.257812 76.421875 73.875 75.097656 73.875 L 67.296875 73.875 C 65.554688 73.875 63.996094 74.535156 62.9375 75.722656 L 62.582031 76.117188 C 60.902344 78 60.730469 80.910156 62.148438 83.515625 L 66.023438 90.632812 L 82.453125 90.53125 " fill-opacity="1" fill-rule="nonzero"/><path fill="#ffffff" d="M 72.132812 77.53125 L 63.492188 77.53125 L 65.847656 90.328125 C 66.332031 92.972656 67.886719 95.328125 70.410156 96.851562 L 71.703125 103.898438 C 72.214844 106.683594 74.886719 108.941406 77.671875 108.941406 C 80.457031 108.941406 82.300781 106.683594 81.789062 103.898438 L 80.527344 97.042969 C 82.117188 95.527344 83.160156 93.082031 82.652344 90.328125 L 81.753906 85.421875 C 80.933594 80.976562 76.574219 77.53125 72.132812 77.53125 " fill-opacity="1" fill-rule="nonzero"/><path fill="#d7dadd" d="M 77.507812 109.542969 C 74.449219 109.542969 71.503906 107.058594 70.945312 104.007812 L 69.660156 97.023438 C 69.601562 96.699219 69.816406 96.386719 70.140625 96.328125 C 70.46875 96.265625 70.78125 96.484375 70.839844 96.808594 L 72.125 103.789062 C 72.585938 106.300781 75 108.339844 77.507812 108.339844 C 78.65625 108.339844 79.65625 107.90625 80.316406 107.109375 C 80.996094 106.292969 81.25 105.191406 81.03125 104.007812 L 79.800781 97.3125 C 79.742188 96.988281 79.957031 96.675781 80.285156 96.617188 C 80.609375 96.554688 80.921875 96.769531 80.980469 97.097656 L 82.214844 103.789062 C 82.496094 105.332031 82.148438 106.78125 81.238281 107.878906 C 80.34375 108.953125 79.019531 109.542969 77.507812 109.542969 " fill-opacity="1" fill-rule="nonzero"/><path fill="#99b9ff" d="M 75.738281 99.253906 C 75.40625 99.253906 75.136719 98.988281 75.136719 98.65625 C 75.136719 98.324219 75.40625 98.054688 75.738281 98.054688 C 77.753906 98.054688 79.507812 97.285156 80.675781 95.878906 C 81.875 94.441406 82.324219 92.507812 81.941406 90.4375 L 81.039062 85.53125 C 80.273438 81.363281 76.265625 77.972656 72.101562 77.972656 L 64.214844 77.972656 L 66.46875 90.21875 C 67.03125 93.28125 69.355469 96.082031 72.386719 97.355469 C 72.691406 97.484375 72.835938 97.835938 72.707031 98.144531 C 72.578125 98.449219 72.226562 98.59375 71.921875 98.464844 C 68.523438 97.039062 65.921875 93.886719 65.289062 90.4375 L 62.90625 77.484375 C 62.875 77.304688 62.921875 77.125 63.035156 76.988281 C 63.148438 76.851562 63.316406 76.773438 63.496094 76.773438 L 72.101562 76.773438 C 76.816406 76.773438 81.355469 80.605469 82.222656 85.3125 L 83.121094 90.21875 C 83.570312 92.648438 83.027344 94.933594 81.597656 96.648438 C 80.195312 98.332031 78.117188 99.253906 75.738281 99.253906 " fill-opacity="1" fill-rule="nonzero"/><path fill="#99b9ff" d="M 77.199219 77.0625 L 65.355469 85.800781 L 63.804688 77.371094 C 63.804688 77.371094 77.238281 77.269531 77.199219 77.0625 " fill-opacity="1" fill-rule="nonzero"/><path fill="#d7dadd" d="M 78.261719 114.566406 C 71.992188 114.566406 65.507812 112.25 60.039062 107.96875 C 48.027344 98.574219 44.382812 82.535156 51.917969 72.207031 C 59.109375 62.351562 74.058594 61.128906 85.949219 69.421875 C 86.222656 69.613281 86.289062 69.984375 86.097656 70.257812 C 85.910156 70.53125 85.535156 70.597656 85.261719 70.40625 C 73.910156 62.488281 59.691406 63.589844 52.886719 72.914062 C 45.730469 82.722656 49.269531 98.023438 60.777344 107.023438 C 66.988281 111.882812 74.539062 114.117188 81.492188 113.144531 C 86.90625 112.390625 91.546875 109.699219 94.566406 105.5625 C 98.304688 100.433594 99.265625 93.523438 97.203125 86.597656 C 97.109375 86.277344 97.289062 85.945312 97.605469 85.851562 C 97.921875 85.757812 98.257812 85.9375 98.351562 86.253906 C 100.523438 93.542969 99.5 100.839844 95.535156 106.269531 C 92.324219 110.667969 87.394531 113.535156 81.65625 114.335938 C 80.535156 114.492188 79.402344 114.566406 78.261719 114.566406 " fill-opacity="1" fill-rule="nonzero"/><path fill="#ffffff" d="M 147.246094 333.792969 C 148.597656 341.136719 144.460938 347.089844 138.003906 347.089844 L 67.953125 347.089844 C 61.496094 347.089844 55.167969 341.136719 53.820312 333.792969 L 28.796875 197.707031 C 27.445312 190.363281 31.585938 184.40625 38.039062 184.40625 L 108.089844 184.40625 C 114.546875 184.40625 120.875 190.363281 122.226562 197.707031 L 147.246094 333.792969 " fill-opacity="1" fill-rule="nonzero"/><path fill="#1f2562" d="M 138.003906 347.691406 L 67.953125 347.691406 C 61.230469 347.691406 54.625 341.503906 53.230469 333.902344 L 28.207031 197.8125 C 27.464844 193.773438 28.3125 189.925781 30.535156 187.257812 C 32.386719 185.03125 35.054688 183.804688 38.039062 183.804688 L 108.089844 183.804688 C 114.8125 183.804688 121.417969 189.992188 122.816406 197.597656 L 136.445312 271.71875 C 136.503906 272.046875 136.289062 272.359375 135.960938 272.417969 C 135.632812 272.480469 135.324219 272.261719 135.261719 271.9375 L 121.632812 197.8125 C 120.335938 190.753906 114.261719 185.007812 108.089844 185.007812 L 38.039062 185.007812 C 35.414062 185.007812 33.078125 186.078125 31.457031 188.027344 C 29.460938 190.417969 28.710938 193.90625 29.386719 197.597656 L 54.410156 333.683594 C 55.707031 340.746094 61.78125 346.492188 67.953125 346.492188 L 138.003906 346.492188 C 140.628906 346.492188 142.964844 345.417969 144.585938 343.472656 C 146.582031 341.082031 147.335938 337.589844 146.65625 333.902344 L 138.382812 288.917969 C 138.324219 288.59375 138.542969 288.28125 138.867188 288.222656 C 139.195312 288.160156 139.507812 288.378906 139.566406 288.703125 L 147.835938 333.683594 C 148.578125 337.722656 147.730469 341.574219 145.511719 344.242188 C 143.65625 346.464844 140.992188 347.691406 138.003906 347.691406 " fill-opacity="1" fill-rule="nonzero"/><path fill="#99b9ff" d="M 95.949219 259.871094 L 76.695312 259.871094 C 75.417969 259.871094 74.1875 258.835938 73.953125 257.554688 C 73.71875 256.273438 74.5625 255.234375 75.84375 255.234375 L 95.09375 255.234375 C 96.375 255.234375 97.601562 256.273438 97.839844 257.554688 C 98.074219 258.835938 97.226562 259.871094 95.949219 259.871094 " fill-opacity="1" fill-rule="nonzero"/><path fill="#d7dadd" d="M 121.546875 273.46875 L 56.097656 273.46875 C 54.816406 273.46875 53.589844 272.433594 53.351562 271.152344 C 53.117188 269.875 53.964844 268.835938 55.246094 268.835938 L 120.695312 268.835938 C 121.976562 268.835938 123.203125 269.875 123.441406 271.152344 C 123.675781 272.433594 122.828125 273.46875 121.546875 273.46875 " fill-opacity="1" fill-rule="nonzero"/><path fill="#d7dadd" d="M 123.40625 283.574219 L 57.953125 283.574219 C 56.675781 283.574219 55.445312 282.535156 55.210938 281.257812 C 54.976562 279.976562 55.820312 278.9375 57.101562 278.9375 L 122.554688 278.9375 C 123.832031 278.9375 125.0625 279.976562 125.296875 281.257812 C 125.53125 282.535156 124.683594 283.574219 123.40625 283.574219 " fill-opacity="1" fill-rule="nonzero"/><path fill="#d7dadd" d="M 117.746094 314.050781 L 63.390625 314.050781 C 62.109375 314.050781 60.882812 313.015625 60.648438 311.734375 C 60.410156 310.457031 61.257812 309.417969 62.539062 309.417969 L 116.894531 309.417969 C 118.171875 309.417969 119.402344 310.457031 119.636719 311.734375 C 119.871094 313.015625 119.023438 314.050781 117.746094 314.050781 " fill-opacity="1" fill-rule="nonzero"/><path fill="#d7dadd" d="M 130.699219 324.15625 L 65.246094 324.15625 C 63.96875 324.15625 62.738281 323.117188 62.503906 321.839844 C 62.269531 320.558594 63.117188 319.523438 64.394531 319.523438 L 129.847656 319.523438 C 131.128906 319.523438 132.355469 320.558594 132.589844 321.839844 C 132.824219 323.117188 131.980469 324.15625 130.699219 324.15625 " fill-opacity="1" fill-rule="nonzero"/><path fill="#d7dadd" d="M 107.171875 333.476562 L 66.960938 333.476562 C 65.679688 333.476562 64.453125 332.4375 64.21875 331.15625 C 63.980469 329.878906 64.828125 328.839844 66.109375 328.839844 L 106.316406 328.839844 C 107.597656 328.839844 108.828125 329.878906 109.0625 331.15625 C 109.296875 332.4375 108.449219 333.476562 107.171875 333.476562 " fill-opacity="1" fill-rule="nonzero"/><path fill="#d7dadd" d="M 103.625 293.679688 L 59.8125 293.679688 C 58.53125 293.679688 57.304688 292.640625 57.070312 291.363281 C 56.832031 290.082031 57.679688 289.042969 58.960938 289.042969 L 102.773438 289.042969 C 104.050781 289.042969 105.28125 290.082031 105.515625 291.363281 C 105.75 292.640625 104.902344 293.679688 103.625 293.679688 " fill-opacity="1" fill-rule="nonzero"/><path fill="#d7dadd" d="M 127.121094 303.78125 L 61.667969 303.78125 C 60.390625 303.78125 59.160156 302.746094 58.925781 301.464844 C 58.691406 300.183594 59.539062 299.148438 60.816406 299.148438 L 126.269531 299.148438 C 127.546875 299.148438 128.777344 300.183594 129.011719 301.464844 C 129.25 302.746094 128.402344 303.78125 127.121094 303.78125 " fill-opacity="1" fill-rule="nonzero"/><path fill="#1f2562" d="M 73.226562 230.699219 C 68.789062 230.699219 64.722656 226.539062 65.003906 222.234375 C 65.460938 215.160156 67.644531 206.015625 75.714844 204.722656 C 84.125 203.378906 90.742188 213.9375 94.507812 222 C 96.546875 226.367188 94.039062 230.699219 89.5 230.699219 L 73.226562 230.699219 " fill-opacity="1" fill-rule="nonzero"/><path fill="#5479f7" d="M 82.730469 244.65625 C 89.105469 244.5 93.140625 243.121094 96.957031 238.765625 C 91.3125 237.113281 88.660156 237.039062 82.320312 237.039062 C 75.976562 237.039062 72.1875 237.355469 67.152344 239.011719 C 67.152344 239.011719 74.285156 244.863281 82.730469 244.65625 " fill-opacity="1" fill-rule="nonzero"/><path fill="#1f2562" d="M 67.042969 239.636719 C 66.78125 239.636719 66.539062 239.464844 66.464844 239.199219 C 66.375 238.882812 66.5625 238.550781 66.878906 238.457031 C 71.648438 237.117188 76.84375 236.4375 82.320312 236.4375 C 87.246094 236.4375 92.167969 236.992188 96.945312 238.082031 C 97.265625 238.15625 97.46875 238.476562 97.394531 238.804688 C 97.320312 239.125 97 239.324219 96.675781 239.253906 C 91.988281 238.179688 87.15625 237.640625 82.320312 237.640625 C 76.953125 237.640625 71.867188 238.300781 67.203125 239.613281 C 67.152344 239.628906 67.097656 239.636719 67.042969 239.636719 " fill-opacity="1" fill-rule="nonzero"/><path fill="#ffffff" d="M 83.296875 241.523438 C 81.050781 241.523438 78.894531 239.703125 78.484375 237.457031 L 74.007812 213.109375 L 82.140625 213.109375 L 86.617188 237.457031 C 87.03125 239.703125 85.542969 241.523438 83.296875 241.523438 " fill-opacity="1" fill-rule="nonzero"/><path fill="#1f2562" d="M 74.726562 213.710938 L 79.074219 237.351562 C 79.4375 239.320312 81.332031 240.925781 83.296875 240.925781 C 84.191406 240.925781 84.964844 240.585938 85.472656 239.972656 C 86 239.34375 86.195312 238.488281 86.027344 237.566406 L 81.640625 213.710938 Z M 83.296875 242.125 C 80.78125 242.125 78.355469 240.078125 77.890625 237.566406 L 73.414062 213.21875 C 73.382812 213.042969 73.429688 212.863281 73.546875 212.726562 C 73.660156 212.589844 73.828125 212.507812 74.007812 212.507812 L 82.140625 212.507812 C 82.429688 212.507812 82.679688 212.71875 82.730469 213 L 87.207031 237.351562 C 87.441406 238.625 87.152344 239.832031 86.394531 240.742188 C 85.652344 241.632812 84.550781 242.125 83.296875 242.125 " fill-opacity="1" fill-rule="nonzero"/><path fill="#ffffff" d="M 77.550781 226.789062 C 74.671875 225.484375 72.308594 222.597656 71.691406 219.246094 L 70.898438 214.921875 C 70.027344 210.191406 72.851562 206.359375 77.207031 206.359375 C 81.277344 206.359375 85.238281 209.945312 86.050781 214.367188 L 86.949219 219.246094 C 87.789062 223.820312 85.054688 227.527344 80.84375 227.527344 L 77.550781 226.789062 " fill-opacity="1" fill-rule="nonzero"/><path fill="#1f2562" d="M 80.84375 228.128906 C 80.511719 228.128906 80.242188 227.859375 80.242188 227.527344 C 80.242188 227.199219 80.511719 226.929688 80.84375 226.929688 C 82.558594 226.929688 84.074219 226.246094 85.105469 225 C 86.300781 223.570312 86.753906 221.511719 86.359375 219.351562 L 85.460938 214.476562 C 84.699219 210.332031 80.996094 206.960938 77.207031 206.960938 C 75.425781 206.960938 73.859375 207.671875 72.785156 208.957031 C 71.550781 210.441406 71.078125 212.574219 71.488281 214.8125 L 72.285156 219.136719 C 72.84375 222.191406 75.007812 224.976562 77.796875 226.242188 C 78.101562 226.378906 78.234375 226.734375 78.097656 227.035156 C 77.960938 227.335938 77.605469 227.472656 77.300781 227.332031 C 74.167969 225.914062 71.734375 222.78125 71.101562 219.351562 L 70.308594 215.03125 C 69.832031 212.441406 70.398438 209.949219 71.863281 208.191406 C 73.167969 206.621094 75.066406 205.761719 77.207031 205.761719 C 81.546875 205.761719 85.78125 209.574219 86.640625 214.257812 L 87.539062 219.136719 C 88 221.648438 87.449219 224.066406 86.03125 225.769531 C 84.761719 227.289062 82.921875 228.128906 80.84375 228.128906 " fill-opacity="1" fill-rule="nonzero"/><path fill="#1f2562" d="M 70.414062 212.597656 L 86.261719 212.597656 C 86.261719 212.597656 85.371094 209.46875 82.148438 207.375 C 79.410156 205.597656 76.160156 205.425781 73.648438 206.652344 C 71.945312 207.484375 70.304688 208.984375 70.445312 211.65625 L 70.414062 212.597656 " fill-opacity="1" fill-rule="nonzero"/><path fill="#1f2562" d="M 79.710938 222.816406 C 78.722656 222.816406 77.804688 222.421875 77.128906 221.703125 C 76.902344 221.460938 76.914062 221.082031 77.15625 220.851562 C 77.398438 220.628906 77.777344 220.636719 78.003906 220.878906 C 78.453125 221.355469 79.058594 221.617188 79.710938 221.617188 C 80.363281 221.617188 80.96875 221.355469 81.414062 220.878906 C 81.640625 220.636719 82.023438 220.625 82.261719 220.855469 C 82.503906 221.082031 82.515625 221.460938 82.289062 221.703125 C 81.613281 222.421875 80.699219 222.816406 79.710938 222.816406 " fill-opacity="1" fill-rule="nonzero"/><path fill="#1f2562" d="M 82.859375 245.1875 C 75.980469 245.1875 68.625 242.160156 63 236.359375 C 57.75 230.945312 54.851562 223.960938 55.050781 217.199219 C 55.203125 211.871094 57.316406 207.074219 60.996094 203.695312 C 69.640625 195.761719 84.597656 197.488281 94.339844 207.539062 C 97.578125 210.878906 99.960938 214.859375 101.234375 219.058594 C 101.332031 219.375 101.152344 219.710938 100.835938 219.808594 C 100.523438 219.902344 100.183594 219.726562 100.085938 219.40625 C 98.867188 215.390625 96.582031 211.574219 93.480469 208.375 C 84.183594 198.785156 69.976562 197.082031 61.808594 204.578125 C 58.367188 207.734375 56.394531 212.230469 56.25 217.234375 C 56.0625 223.671875 58.835938 230.339844 63.859375 235.523438 C 73.160156 245.113281 87.367188 246.816406 95.53125 239.320312 C 99.042969 236.097656 101.019531 231.5 101.097656 226.378906 C 101.105469 226.050781 101.371094 225.789062 101.699219 225.789062 C 101.703125 225.789062 101.703125 225.789062 101.707031 225.789062 C 102.039062 225.796875 102.304688 226.066406 102.296875 226.398438 C 102.214844 231.851562 100.097656 236.753906 96.34375 240.203125 C 92.6875 243.558594 87.902344 245.1875 82.859375 245.1875 " fill-opacity="1" fill-rule="nonzero"/><path fill="#5479f7" d="M 194.699219 277.070312 C 194.699219 278.46875 193.5625 279.601562 192.164062 279.601562 C 190.765625 279.601562 189.632812 278.46875 189.632812 277.070312 C 189.632812 275.671875 190.765625 274.535156 192.164062 274.535156 C 193.5625 274.535156 194.699219 275.671875 194.699219 277.070312 " fill-opacity="1" fill-rule="nonzero"/><path fill="#5479f7" d="M 204.300781 277.070312 C 204.300781 278.46875 203.164062 279.601562 201.765625 279.601562 C 200.367188 279.601562 199.230469 278.46875 199.230469 277.070312 C 199.230469 275.671875 200.367188 274.535156 201.765625 274.535156 C 203.164062 274.535156 204.300781 275.671875 204.300781 277.070312 " fill-opacity="1" fill-rule="nonzero"/><path fill="#5479f7" d="M 213.898438 277.070312 C 213.898438 278.46875 212.765625 279.601562 211.367188 279.601562 C 209.96875 279.601562 208.832031 278.46875 208.832031 277.070312 C 208.832031 275.671875 209.96875 274.535156 211.367188 274.535156 C 212.765625 274.535156 213.898438 275.671875 213.898438 277.070312 " fill-opacity="1" fill-rule="nonzero"/><path fill="#5479f7" d="M 223.5 277.070312 C 223.5 278.46875 222.367188 279.601562 220.96875 279.601562 C 219.566406 279.601562 218.433594 278.46875 218.433594 277.070312 C 218.433594 275.671875 219.566406 274.535156 220.96875 274.535156 C 222.367188 274.535156 223.5 275.671875 223.5 277.070312 " fill-opacity="1" fill-rule="nonzero"/><path fill="#5479f7" d="M 199.5 298.3125 C 199.5 299.714844 198.363281 300.847656 196.964844 300.847656 C 195.566406 300.847656 194.433594 299.714844 194.433594 298.3125 C 194.433594 296.914062 195.566406 295.777344 196.964844 295.777344 C 198.363281 295.777344 199.5 296.914062 199.5 298.3125 " fill-opacity="1" fill-rule="nonzero"/><path fill="#5479f7" d="M 209.097656 298.3125 C 209.097656 299.714844 207.964844 300.847656 206.566406 300.847656 C 205.167969 300.847656 204.03125 299.714844 204.03125 298.3125 C 204.03125 296.914062 205.167969 295.777344 206.566406 295.777344 C 207.964844 295.777344 209.097656 296.914062 209.097656 298.3125 " fill-opacity="1" fill-rule="nonzero"/><path fill="#5479f7" d="M 218.699219 298.3125 C 218.699219 299.714844 217.566406 300.847656 216.167969 300.847656 C 214.769531 300.847656 213.632812 299.714844 213.632812 298.3125 C 213.632812 296.914062 214.769531 295.777344 216.167969 295.777344 C 217.566406 295.777344 218.699219 296.914062 218.699219 298.3125 " fill-opacity="1" fill-rule="nonzero"/><path fill="#5479f7" d="M 228.300781 298.3125 C 228.300781 299.714844 227.167969 300.847656 225.769531 300.847656 C 224.367188 300.847656 223.234375 299.714844 223.234375 298.3125 C 223.234375 296.914062 224.367188 295.777344 225.769531 295.777344 C 227.167969 295.777344 228.300781 296.914062 228.300781 298.3125 " fill-opacity="1" fill-rule="nonzero"/><path fill="#1f2562" d="M 235.71875 76.699219 L 216.425781 76.699219 C 212.476562 76.699219 209.710938 72.792969 211.023438 69.066406 L 215.707031 55.785156 L 239.949219 59.5 L 239.949219 72.46875 C 239.949219 74.804688 238.054688 76.699219 235.71875 76.699219 " fill-opacity="1" fill-rule="nonzero"/><path fill="#1f2562" d="M 239.949219 59.5 C 239.949219 66.347656 234.394531 71.902344 227.546875 71.902344 C 220.691406 71.902344 215.140625 66.347656 215.140625 59.5 C 215.140625 52.648438 220.691406 47.09375 227.546875 47.09375 C 234.394531 47.09375 239.949219 52.648438 239.949219 59.5 " fill-opacity="1" fill-rule="nonzero"/><path fill="#ffffff" d="M 278.746094 159.214844 L 276.527344 176.242188 L 285.066406 182.738281 L 289.636719 164.472656 L 278.746094 159.214844 " fill-opacity="1" fill-rule="nonzero"/><path fill="#1f2562" d="M 277.164062 175.980469 L 284.703125 181.710938 L 288.933594 164.800781 L 279.234375 160.117188 Z M 285.0625 183.339844 C 284.933594 183.339844 284.804688 183.296875 284.699219 183.21875 L 276.160156 176.722656 C 275.988281 176.59375 275.902344 176.382812 275.925781 176.167969 L 278.152344 159.136719 C 278.175781 158.945312 278.292969 158.777344 278.460938 158.6875 C 278.628906 158.59375 278.835938 158.589844 279.007812 158.675781 L 289.898438 163.933594 C 290.152344 164.054688 290.285156 164.339844 290.21875 164.617188 L 285.644531 182.886719 C 285.597656 183.082031 285.453125 183.238281 285.261719 183.304688 C 285.199219 183.328125 285.132812 183.339844 285.0625 183.339844 " fill-opacity="1" fill-rule="nonzero"/><path fill="#1f2562" d="M 236.644531 147.941406 C 236.644531 147.941406 275.886719 97.28125 290.574219 103.535156 C 305.261719 109.78125 299.316406 151.054688 290.261719 167.300781 L 276.972656 163.847656 L 276.972656 155.84375 L 268.558594 170.730469 L 236.644531 147.941406 " fill-opacity="1" fill-rule="nonzero"/><path fill="#5479f7" d="M 289.605469 170.347656 C 294.65625 173.871094 306.851562 182.695312 312.183594 190.179688 C 313.480469 192.003906 312.339844 194.554688 310.109375 194.78125 C 302.128906 195.585938 285.957031 194.402344 274.582031 184.855469 C 274.582031 184.855469 274.734375 181.199219 277.058594 174.695312 L 283.109375 177.183594 L 282.652344 176.265625 C 281.960938 174.886719 282.304688 173.214844 283.480469 172.214844 L 285.441406 170.546875 C 286.628906 169.539062 288.335938 169.460938 289.605469 170.347656 " fill-opacity="1" fill-rule="nonzero"/><path fill="#ffffff" d="M 303.128906 192.125 C 289.042969 192.125 276.34375 184.042969 276.199219 183.945312 C 275.921875 183.765625 275.84375 183.394531 276.019531 183.121094 C 276.203125 182.839844 276.570312 182.757812 276.851562 182.941406 C 277.015625 183.046875 293.601562 193.597656 309.609375 190.285156 C 309.929688 190.21875 310.25 190.425781 310.316406 190.753906 C 310.382812 191.074219 310.175781 191.394531 309.851562 191.460938 C 307.605469 191.925781 305.347656 192.125 303.128906 192.125 " fill-opacity="1" fill-rule="nonzero"/><path fill="#ffffff" d="M 292.546875 180.578125 C 292.40625 180.578125 292.261719 180.527344 292.144531 180.421875 C 291.898438 180.199219 291.878906 179.820312 292.101562 179.574219 L 296.164062 175.0625 C 296.386719 174.816406 296.765625 174.796875 297.015625 175.019531 C 297.257812 175.238281 297.277344 175.621094 297.054688 175.867188 L 292.992188 180.375 C 292.878906 180.507812 292.710938 180.578125 292.546875 180.578125 " fill-opacity="1" fill-rule="nonzero"/><path fill="#ffffff" d="M 296.40625 183.335938 C 296.246094 183.335938 296.089844 183.277344 295.972656 183.152344 C 295.742188 182.910156 295.753906 182.53125 295.996094 182.304688 L 300.269531 178.253906 C 300.507812 178.027344 300.886719 178.039062 301.113281 178.277344 C 301.34375 178.519531 301.332031 178.898438 301.089844 179.125 L 296.820312 183.175781 C 296.703125 183.285156 296.554688 183.335938 296.40625 183.335938 " fill-opacity="1" fill-rule="nonzero"/><path fill="#ffffff" d="M 308.804688 253.636719 C 308.804688 254.0625 318.144531 274.4375 318.144531 274.4375 L 307.53125 275.285156 L 300.316406 257.882812 L 308.804688 253.636719 " fill-opacity="1" fill-rule="nonzero"/><path fill="#1f2562" d="M 309.40625 253.636719 Z M 309.40625 253.636719 Z M 301.082031 258.167969 L 307.917969 274.652344 L 317.238281 273.90625 C 311.0625 260.425781 309.109375 255.980469 308.492188 254.464844 Z M 307.53125 275.886719 C 307.289062 275.886719 307.070312 275.742188 306.976562 275.515625 L 299.757812 258.113281 C 299.640625 257.820312 299.765625 257.484375 300.046875 257.347656 L 308.535156 253.101562 C 308.722656 253.007812 308.941406 253.015625 309.121094 253.128906 C 309.265625 253.214844 309.363281 253.363281 309.394531 253.527344 C 309.679688 254.433594 315.097656 266.347656 318.6875 274.1875 C 318.769531 274.363281 318.761719 274.570312 318.660156 274.742188 C 318.558594 274.910156 318.386719 275.019531 318.191406 275.035156 L 307.578125 275.882812 C 307.5625 275.886719 307.546875 275.886719 307.53125 275.886719 " fill-opacity="1" fill-rule="nonzero"/><path fill="#5479f7" d="M 308.382812 270.191406 C 308.382812 270.191406 310.503906 265.097656 316.023438 267.644531 C 316.023438 267.644531 326.152344 282.277344 329.914062 294.359375 C 330.980469 297.773438 327.472656 300.851562 324.210938 299.382812 C 316.578125 295.933594 304.609375 288.699219 297.769531 275.285156 C 297.769531 275.285156 299.890625 269.769531 303.289062 267.21875 L 308.382812 270.191406 " fill-opacity="1" fill-rule="nonzero"/><path fill="#ffffff" d="M 326.808594 296.296875 C 323.949219 296.296875 313.476562 294.871094 299.828125 276.0625 C 299.636719 275.796875 299.695312 275.417969 299.960938 275.222656 C 300.230469 275.03125 300.605469 275.089844 300.796875 275.359375 C 316.046875 296.375 327.28125 295.082031 327.394531 295.066406 C 327.722656 295.019531 328.027344 295.25 328.074219 295.578125 C 328.121094 295.902344 327.894531 296.207031 327.566406 296.253906 C 327.503906 296.261719 327.246094 296.296875 326.808594 296.296875 " fill-opacity="1" fill-rule="nonzero"/><path fill="#ffffff" d="M 318.144531 284.800781 C 317.9375 284.800781 317.734375 284.691406 317.621094 284.503906 C 317.457031 284.214844 317.554688 283.847656 317.839844 283.683594 L 322.933594 280.710938 C 323.21875 280.542969 323.589844 280.640625 323.753906 280.925781 C 323.921875 281.210938 323.824219 281.578125 323.539062 281.746094 L 318.445312 284.71875 C 318.351562 284.773438 318.246094 284.800781 318.144531 284.800781 " fill-opacity="1" fill-rule="nonzero"/><path fill="#ffffff" d="M 315.597656 280.980469 C 315.382812 280.980469 315.175781 280.867188 315.066406 280.664062 C 314.910156 280.371094 315.019531 280.007812 315.3125 279.851562 L 320.832031 276.878906 C 321.121094 276.722656 321.488281 276.832031 321.644531 277.121094 C 321.800781 277.414062 321.691406 277.777344 321.398438 277.9375 L 315.878906 280.90625 C 315.789062 280.957031 315.691406 280.980469 315.597656 280.980469 " fill-opacity="1" fill-rule="nonzero"/><path fill="#1f2562" d="M 312.199219 257.457031 L 297.769531 261.703125 C 297.769531 261.703125 271.449219 206.09375 263.808594 198.03125 C 256.171875 189.964844 241.3125 176.804688 225.605469 172.136719 C 209.898438 167.46875 209.898438 155.582031 209.898438 155.582031 L 244.167969 143.335938 C 244.167969 143.335938 273.996094 164.074219 286.304688 182.324219 C 298.617188 200.578125 312.199219 257.457031 312.199219 257.457031 " fill-opacity="1" fill-rule="nonzero"/><path fill="#ffffff" d="M 274.15625 168.769531 C 274.003906 168.769531 273.84375 168.707031 273.730469 168.585938 C 269.753906 164.492188 257.984375 154.605469 257.863281 154.503906 C 257.609375 154.289062 257.578125 153.914062 257.792969 153.660156 C 258.003906 153.40625 258.382812 153.371094 258.636719 153.585938 C 258.757812 153.683594 270.574219 163.613281 274.589844 167.75 C 274.820312 167.988281 274.816406 168.367188 274.578125 168.601562 C 274.460938 168.710938 274.3125 168.769531 274.15625 168.769531 " fill-opacity="1" fill-rule="nonzero"/><path fill="#5479f7" d="M 234.886719 80.847656 C 234.886719 80.847656 247.605469 82.691406 255.496094 91.90625 C 263.382812 101.128906 275.378906 119.183594 275.683594 132.535156 C 275.988281 145.890625 259.058594 140.910156 252.074219 131.222656 C 245.09375 121.539062 234.886719 80.847656 234.886719 80.847656 " fill-opacity="1" fill-rule="nonzero"/><path fill="#5479f7" d="M 207.730469 83.316406 C 207.730469 83.316406 226.238281 76.074219 246.539062 84.695312 L 257.652344 140.242188 C 229.105469 154.042969 221.679688 190.507812 209.371094 161.105469 C 205.417969 151.65625 205.402344 140.601562 205.417969 138.6875 L 207.730469 83.316406 " fill-opacity="1" fill-rule="nonzero"/><path fill="#ffffff" d="M 273.882812 107.597656 C 273.882812 107.597656 276.9375 130.007812 275.636719 134.023438 C 274.332031 138.035156 272.511719 142.882812 267.585938 138.535156 C 262.660156 134.183594 268.300781 112.546875 268.300781 112.546875 L 273.882812 107.597656 " fill-opacity="1" fill-rule="nonzero"/><path fill="#1f2562" d="M 268.835938 112.875 C 267.277344 118.929688 264.207031 134.75 267.984375 138.082031 C 269.402344 139.332031 270.601562 139.835938 271.558594 139.574219 C 273.226562 139.117188 274.246094 136.371094 275.066406 133.835938 C 276.015625 130.90625 274.492188 116.777344 273.4375 108.792969 Z M 271.027344 140.84375 C 269.871094 140.84375 268.605469 140.230469 267.191406 138.980469 C 262.046875 134.441406 267.484375 113.292969 267.71875 112.394531 C 267.75 112.28125 267.816406 112.175781 267.902344 112.097656 L 273.488281 107.148438 C 273.652344 107 273.886719 106.957031 274.09375 107.035156 C 274.300781 107.109375 274.445312 107.296875 274.480469 107.515625 C 274.601562 108.4375 277.539062 130.109375 276.210938 134.207031 C 275.246094 137.171875 274.121094 140.117188 271.875 140.730469 C 271.597656 140.808594 271.316406 140.84375 271.027344 140.84375 " fill-opacity="1" fill-rule="nonzero"/><path fill="#ffffff" d="M 261.707031 120.605469 L 260.546875 119.921875 L 274.003906 95.320312 L 283.667969 95.171875 L 284.828125 95.855469 L 261.707031 120.605469 " fill-opacity="1" fill-rule="nonzero"/><path fill="#1f2562" d="M 271.371094 120.457031 L 261.707031 120.605469 L 275.164062 96.003906 L 284.828125 95.855469 L 271.371094 120.457031 " fill-opacity="1" fill-rule="nonzero"/><path fill="#1f2562" d="M 252.9375 124.648438 C 252.65625 124.648438 252.410156 124.453125 252.351562 124.171875 L 246.871094 98.035156 C 246.800781 97.710938 247.011719 97.390625 247.335938 97.324219 C 247.65625 97.257812 247.976562 97.464844 248.046875 97.789062 L 253.527344 123.925781 C 253.59375 124.25 253.386719 124.566406 253.0625 124.636719 C 253.019531 124.644531 252.976562 124.648438 252.9375 124.648438 " fill-opacity="1" fill-rule="nonzero"/><path fill="#5479f7" d="M 232.984375 128.5 C 229.96875 128.367188 226.914062 127.785156 223.964844 126.546875 C 208.054688 119.875 217.511719 94.136719 217.511719 94.136719 L 207.730469 83.316406 C 181.527344 104.046875 191.1875 136.269531 213.964844 143.765625 C 221.902344 146.378906 229.328125 145.886719 235.847656 143.902344 C 230.070312 137.875 231.324219 131.980469 232.984375 128.5 " fill-opacity="1" fill-rule="nonzero"/><path fill="#ffffff" d="M 271.304688 112.414062 L 270.558594 107.777344 L 262.46875 116.757812 L 264.773438 112.371094 C 264.773438 112.371094 262.816406 113.03125 261.261719 114.703125 C 259.75 116.320312 257.921875 121.25 257.808594 121.546875 C 254.585938 123.421875 244.03125 128.988281 232.988281 128.5 C 231.324219 131.980469 229.550781 137.308594 235.328125 143.335938 C 250.804688 138.625 261.6875 126.0625 261.6875 126.0625 C 268.757812 122.515625 271.304688 112.414062 271.304688 112.414062 " fill-opacity="1" fill-rule="nonzero"/><path fill="#1f2562" d="M 233.359375 129.117188 C 231.71875 132.691406 230.640625 137.386719 235.503906 142.65625 C 250.441406 137.964844 261.125 125.792969 261.230469 125.671875 C 261.28125 125.613281 261.34375 125.5625 261.417969 125.527344 C 267.765625 122.34375 270.382812 113.5 270.6875 112.386719 L 270.164062 109.113281 L 262.910156 117.160156 C 262.707031 117.386719 262.371094 117.425781 262.121094 117.25 C 261.875 117.078125 261.792969 116.746094 261.933594 116.480469 L 263.375 113.742188 C 262.839844 114.082031 262.238281 114.53125 261.695312 115.113281 C 260.542969 116.347656 259.015625 120 258.371094 121.753906 C 258.320312 121.886719 258.230469 121.996094 258.109375 122.066406 C 255.09375 123.824219 244.484375 129.472656 233.359375 129.117188 Z M 235.324219 143.9375 C 235.164062 143.9375 235.007812 143.875 234.890625 143.753906 C 229.058594 137.667969 230.519531 132.265625 232.445312 128.246094 C 232.546875 128.027344 232.761719 127.890625 233.011719 127.902344 C 243.746094 128.378906 254.109375 122.984375 257.320312 121.136719 C 257.726562 120.058594 259.367188 115.847656 260.820312 114.292969 C 262.460938 112.535156 264.492188 111.835938 264.582031 111.808594 C 264.8125 111.726562 265.066406 111.800781 265.230469 111.988281 C 265.386719 112.171875 265.417969 112.4375 265.304688 112.65625 L 265.226562 112.796875 L 270.109375 107.378906 C 270.265625 107.207031 270.503906 107.140625 270.726562 107.207031 C 270.949219 107.269531 271.113281 107.457031 271.148438 107.683594 L 271.894531 112.320312 C 271.90625 112.402344 271.902344 112.484375 271.882812 112.566406 C 271.777344 112.984375 269.210938 122.878906 262.058594 126.546875 C 261.027344 127.699219 250.269531 139.417969 235.5 143.914062 C 235.441406 143.929688 235.382812 143.9375 235.324219 143.9375 " fill-opacity="1" fill-rule="nonzero"/><path fill="#1f2562" d="M 227.34375 128.558594 C 227.28125 128.558594 227.214844 128.550781 227.152344 128.527344 C 214.78125 124.308594 213.863281 114.09375 214.445312 105.671875 C 214.46875 105.339844 214.761719 105.089844 215.085938 105.113281 C 215.414062 105.136719 215.664062 105.421875 215.644531 105.753906 C 214.808594 117.792969 218.371094 124.265625 227.539062 127.390625 C 227.851562 127.5 228.019531 127.839844 227.914062 128.152344 C 227.832031 128.402344 227.59375 128.558594 227.34375 128.558594 " fill-opacity="1" fill-rule="nonzero"/><path fill="#1f2562" d="M 226.558594 146.097656 C 226.550781 146.097656 226.539062 146.097656 226.523438 146.097656 C 216.644531 145.507812 210.386719 143.972656 206.828125 141.261719 C 206.5625 141.0625 206.511719 140.683594 206.714844 140.421875 C 206.917969 140.15625 207.292969 140.109375 207.554688 140.308594 C 210.867188 142.832031 217.097656 144.332031 226.597656 144.898438 C 226.925781 144.917969 227.179688 145.203125 227.160156 145.53125 C 227.140625 145.851562 226.875 146.097656 226.558594 146.097656 " fill-opacity="1" fill-rule="nonzero"/><path fill="#ffffff" d="M 232.871094 72.992188 C 237.035156 72.167969 238.765625 59.21875 238.824219 59.035156 C 238.828125 59.027344 238.828125 59.023438 238.828125 59.019531 L 225.296875 58.144531 C 225.558594 58.855469 225.816406 59.503906 225.890625 59.953125 C 226.136719 61.476562 223.59375 59.570312 222.492188 60.0625 C 221.761719 60.390625 221.480469 61.382812 222.195312 62.738281 C 222.640625 63.589844 223.382812 64.414062 224.050781 64.8125 C 224.15625 65.613281 224.367188 66.410156 224.664062 67.171875 L 224.632812 67.160156 L 220.988281 78.398438 L 213.582031 81.695312 C 231.511719 89.65625 237.191406 81.726562 237.191406 81.726562 L 230.378906 79.144531 L 231.148438 73.039062 C 231.714844 73.113281 232.292969 73.105469 232.871094 72.992188 " fill-opacity="1" fill-rule="nonzero"/><path fill="#1f2562" d="M 232.875 72.988281 L 232.878906 72.988281 Z M 215.082031 81.683594 C 228.375 87.207031 234.371094 83.511719 236.128906 81.960938 L 230.167969 79.703125 C 229.910156 79.605469 229.75 79.34375 229.785156 79.066406 L 230.554688 72.960938 C 230.574219 72.800781 230.660156 72.65625 230.785156 72.558594 C 230.910156 72.460938 231.070312 72.421875 231.230469 72.441406 C 231.753906 72.511719 232.265625 72.5 232.757812 72.402344 C 234.839844 71.984375 236.886719 67.085938 238.128906 59.570312 L 226.183594 58.800781 C 226.324219 59.195312 226.433594 59.550781 226.484375 59.855469 C 226.578125 60.4375 226.375 60.753906 226.183594 60.917969 C 225.699219 61.339844 225.007812 61.121094 224.210938 60.871094 C 223.726562 60.71875 223.003906 60.488281 222.734375 60.609375 C 222.589844 60.675781 222.488281 60.789062 222.433594 60.953125 C 222.308594 61.316406 222.414062 61.863281 222.726562 62.457031 C 223.113281 63.195312 223.785156 63.949219 224.359375 64.292969 C 224.515625 64.386719 224.625 64.546875 224.644531 64.730469 C 224.742188 65.464844 224.9375 66.210938 225.226562 66.953125 C 225.304688 67.152344 225.269531 67.375 225.140625 67.539062 L 221.5625 78.582031 C 221.511719 78.742188 221.390625 78.871094 221.234375 78.945312 Z M 227.746094 85.855469 C 224.15625 85.855469 219.441406 84.949219 213.339844 82.242188 C 213.125 82.144531 212.984375 81.929688 212.984375 81.691406 C 212.984375 81.457031 213.125 81.238281 213.339844 81.144531 L 220.503906 77.957031 L 224.011719 67.132812 C 223.773438 66.476562 223.601562 65.816406 223.496094 65.160156 C 222.804688 64.667969 222.105469 63.859375 221.664062 63.015625 C 221.058594 61.863281 221.132812 61.042969 221.300781 60.558594 C 221.464844 60.085938 221.796875 59.714844 222.246094 59.515625 C 222.933594 59.207031 223.800781 59.484375 224.570312 59.722656 C 224.78125 59.792969 225.066406 59.882812 225.273438 59.925781 C 225.203125 59.609375 225.039062 59.160156 224.863281 58.691406 L 224.738281 58.347656 C 224.667969 58.15625 224.699219 57.945312 224.820312 57.78125 C 224.941406 57.617188 225.136719 57.53125 225.339844 57.542969 L 238.871094 58.414062 C 239.050781 58.429688 239.21875 58.519531 239.324219 58.667969 C 239.425781 58.820312 239.457031 59.007812 239.40625 59.183594 C 239.40625 59.191406 239.394531 59.265625 239.375 59.378906 C 238.578125 64.367188 236.695312 72.84375 232.988281 73.578125 C 232.5625 73.660156 232.121094 73.695312 231.675781 73.679688 L 231.035156 78.75 L 237.40625 81.164062 C 237.578125 81.230469 237.710938 81.371094 237.765625 81.550781 C 237.820312 81.726562 237.789062 81.921875 237.679688 82.074219 C 237.515625 82.300781 234.847656 85.855469 227.746094 85.855469 " fill-opacity="1" fill-rule="nonzero"/><path fill="#ffffff" d="M 227.058594 69.785156 C 227.058594 69.785156 227.898438 72.777344 231.148438 73.039062 L 227.058594 69.785156 " fill-opacity="1" fill-rule="nonzero"/><path fill="#1f2562" d="M 231.152344 73.636719 C 231.132812 73.636719 231.117188 73.636719 231.101562 73.636719 C 227.472656 73.34375 226.519531 70.085938 226.480469 69.949219 C 226.390625 69.628906 226.574219 69.296875 226.894531 69.207031 C 227.214844 69.117188 227.542969 69.300781 227.636719 69.617188 C 227.664062 69.726562 228.417969 72.214844 231.199219 72.4375 C 231.527344 72.464844 231.773438 72.753906 231.746094 73.085938 C 231.722656 73.402344 231.460938 73.636719 231.152344 73.636719 " fill-opacity="1" fill-rule="nonzero"/><path fill="#d7dadd" d="M 158.269531 337.175781 C 158.269531 337.175781 141.25 299.871094 151.011719 251.507812 C 151.011719 251.507812 177.390625 273.613281 167.882812 337.175781 L 158.269531 337.175781 " fill-opacity="1" fill-rule="nonzero"/><path fill="#1f2562" d="M 158.664062 336.578125 L 167.363281 336.578125 C 172.128906 304.164062 167.335938 282.886719 162.457031 270.730469 C 158.238281 260.214844 153.261719 254.570312 151.390625 252.691406 C 146.644531 277.117188 148.847656 298.558594 151.5625 312.320312 C 154.222656 325.824219 157.875 334.742188 158.664062 336.578125 Z M 167.882812 337.777344 L 158.269531 337.777344 C 158.035156 337.777344 157.820312 337.640625 157.722656 337.425781 C 157.679688 337.332031 153.40625 327.859375 150.390625 312.597656 C 147.613281 298.515625 145.363281 276.46875 150.425781 251.390625 C 150.464844 251.183594 150.613281 251.011719 150.8125 250.945312 C 151.011719 250.875 151.238281 250.914062 151.398438 251.050781 C 151.671875 251.277344 158.171875 256.828125 163.570312 270.28125 C 168.53125 282.644531 173.40625 304.296875 168.476562 337.265625 C 168.433594 337.558594 168.179688 337.777344 167.882812 337.777344 " fill-opacity="1" fill-rule="nonzero"/><path fill="#ffffff" d="M 162.433594 333.886719 C 162.421875 333.886719 162.410156 333.886719 162.398438 333.886719 C 162.066406 333.867188 161.8125 333.585938 161.832031 333.253906 C 163.136719 309.417969 152.382812 258.519531 152.273438 258.007812 C 152.207031 257.683594 152.414062 257.367188 152.738281 257.296875 C 153.0625 257.230469 153.378906 257.4375 153.449219 257.761719 C 153.558594 258.273438 164.34375 309.324219 163.03125 333.320312 C 163.011719 333.640625 162.75 333.886719 162.433594 333.886719 " fill-opacity="1" fill-rule="nonzero"/><path fill="#ffffff" d="M 175.390625 276.527344 C 175.390625 276.527344 153.464844 316.144531 166.652344 333.285156 L 173.710938 333.285156 C 173.710938 333.285156 187.808594 302.316406 175.390625 276.527344 " fill-opacity="1" fill-rule="nonzero"/><path fill="#1f2562" d="M 166.953125 332.6875 L 173.316406 332.6875 C 174.777344 329.25 185.953125 301.425781 175.359375 277.871094 C 172.050781 284.21875 155.683594 317.484375 166.953125 332.6875 Z M 173.710938 333.886719 L 166.652344 333.886719 C 166.46875 333.886719 166.292969 333.800781 166.179688 333.652344 C 160.582031 326.378906 160.355469 314.480469 165.503906 298.292969 C 169.3125 286.328125 174.8125 276.332031 174.867188 276.234375 C 174.976562 276.039062 175.175781 275.914062 175.410156 275.925781 C 175.632812 275.929688 175.835938 276.0625 175.933594 276.265625 C 182.417969 289.730469 181.613281 304.589844 179.800781 314.683594 C 177.835938 325.597656 174.292969 333.457031 174.257812 333.535156 C 174.15625 333.75 173.945312 333.886719 173.710938 333.886719 " fill-opacity="1" fill-rule="nonzero"/><path fill="#1f2562" d="M 169.949219 334.9375 C 169.628906 334.9375 169.359375 334.683594 169.347656 334.359375 C 168.714844 317.996094 174.738281 276.851562 174.796875 276.4375 C 174.847656 276.109375 175.15625 275.878906 175.480469 275.929688 C 175.808594 275.980469 176.035156 276.285156 175.984375 276.613281 C 175.925781 277.027344 169.917969 318.0625 170.546875 334.3125 C 170.5625 334.644531 170.304688 334.921875 169.972656 334.9375 C 169.964844 334.9375 169.957031 334.9375 169.949219 334.9375 " fill-opacity="1" fill-rule="nonzero"/><path fill="#ffffff" d="M 133.527344 291.292969 C 133.527344 291.292969 152.207031 297.667969 158.96875 335.398438 L 151.621094 335.398438 C 151.621094 335.398438 136.289062 314.675781 133.527344 291.292969 " fill-opacity="1" fill-rule="nonzero"/><path fill="#1f2562" d="M 151.929688 334.800781 L 158.25 334.800781 C 152.402344 303.222656 138.035156 294.148438 134.253906 292.269531 C 137.113281 313.464844 150.253906 332.449219 151.929688 334.800781 Z M 158.96875 336 L 151.621094 336 C 151.433594 336 151.253906 335.910156 151.140625 335.757812 C 150.988281 335.546875 135.679688 314.636719 132.929688 291.363281 C 132.90625 291.160156 132.988281 290.957031 133.148438 290.828125 C 133.308594 290.699219 133.527344 290.660156 133.71875 290.726562 C 133.914062 290.792969 138.605469 292.445312 144.164062 298.800781 C 149.246094 304.617188 156.042969 315.667969 159.5625 335.292969 C 159.59375 335.46875 159.546875 335.648438 159.429688 335.785156 C 159.316406 335.921875 159.148438 336 158.96875 336 " fill-opacity="1" fill-rule="nonzero"/><path fill="#1f2562" d="M 154.953125 334.9375 C 154.664062 334.9375 154.410156 334.730469 154.363281 334.433594 C 151.589844 317.664062 139.566406 300.753906 139.445312 300.585938 C 139.253906 300.316406 139.316406 299.941406 139.585938 299.75 C 139.855469 299.554688 140.230469 299.617188 140.421875 299.886719 C 140.546875 300.054688 152.722656 317.1875 155.546875 334.238281 C 155.601562 334.566406 155.378906 334.875 155.050781 334.929688 C 155.019531 334.933594 154.984375 334.9375 154.953125 334.9375 " fill-opacity="1" fill-rule="nonzero"/><path fill="#5479f7" d="M 140.734375 332.402344 L 186.820312 332.402344 L 187.851562 354.203125 C 188.105469 359.546875 183.839844 364.019531 178.492188 364.019531 L 152.167969 364.019531 C 145.839844 364.019531 140.707031 358.886719 140.714844 352.554688 L 140.734375 332.402344 " fill-opacity="1" fill-rule="nonzero"/><path fill="#1f2562" d="M 251.277344 218.652344 C 250.953125 218.652344 250.683594 218.390625 250.679688 218.066406 L 250.632812 215.9375 C 250.625 215.605469 250.886719 215.332031 251.21875 215.324219 C 251.222656 215.324219 251.226562 215.324219 251.230469 215.324219 C 251.554688 215.324219 251.824219 215.582031 251.832031 215.910156 L 251.878906 218.039062 C 251.882812 218.367188 251.621094 218.644531 251.289062 218.652344 C 251.285156 218.652344 251.28125 218.652344 251.277344 218.652344 " fill-opacity="1" fill-rule="nonzero"/><path fill="#1f2562" d="M 251.4375 226.097656 C 251.113281 226.097656 250.84375 225.835938 250.835938 225.507812 L 250.792969 223.382812 C 250.785156 223.050781 251.046875 222.777344 251.378906 222.769531 C 251.382812 222.769531 251.386719 222.769531 251.390625 222.769531 C 251.71875 222.769531 251.984375 223.027344 251.992188 223.359375 L 252.039062 225.484375 C 252.042969 225.816406 251.78125 226.089844 251.449219 226.097656 C 251.445312 226.097656 251.441406 226.097656 251.4375 226.097656 " fill-opacity="1" fill-rule="nonzero"/><path fill="#1f2562" d="M 246.613281 221.347656 C 246.285156 221.347656 246.019531 221.082031 246.015625 220.753906 C 246.015625 220.421875 246.28125 220.152344 246.613281 220.148438 L 248.707031 220.132812 C 248.710938 220.132812 248.710938 220.132812 248.710938 220.132812 C 249.042969 220.132812 249.308594 220.398438 249.3125 220.726562 C 249.316406 221.058594 249.050781 221.328125 248.71875 221.332031 L 246.621094 221.347656 C 246.617188 221.347656 246.617188 221.347656 246.613281 221.347656 " fill-opacity="1" fill-rule="nonzero"/><path fill="#1f2562" d="M 253.953125 221.289062 C 253.625 221.289062 253.355469 221.023438 253.355469 220.695312 C 253.347656 220.367188 253.617188 220.09375 253.949219 220.089844 L 256.046875 220.074219 C 256.371094 220.070312 256.644531 220.335938 256.648438 220.667969 C 256.652344 221 256.382812 221.273438 256.054688 221.277344 L 253.957031 221.289062 C 253.957031 221.289062 253.957031 221.289062 253.953125 221.289062 " fill-opacity="1" fill-rule="nonzero"/><path fill="#1f2562" d="M 248.710938 341.085938 C 248.558594 341.085938 248.40625 341.027344 248.285156 340.910156 C 248.054688 340.675781 248.054688 340.292969 248.285156 340.0625 L 290.972656 297.375 C 291.207031 297.144531 291.585938 297.144531 291.820312 297.375 C 292.054688 297.609375 292.054688 297.992188 291.820312 298.226562 L 249.136719 340.910156 C 249.019531 341.027344 248.867188 341.085938 248.710938 341.085938 " fill-opacity="1" fill-rule="nonzero"/><path fill="#1f2562" d="M 231.148438 344.722656 C 230.996094 344.722656 230.84375 344.664062 230.726562 344.546875 C 230.492188 344.3125 230.492188 343.933594 230.726562 343.695312 L 254.617188 319.804688 C 254.851562 319.570312 255.230469 319.570312 255.464844 319.804688 C 255.699219 320.039062 255.699219 320.421875 255.464844 320.652344 L 231.574219 344.546875 C 231.457031 344.664062 231.304688 344.722656 231.148438 344.722656 " fill-opacity="1" fill-rule="nonzero"/><path fill="#1f2562" d="M 194.140625 44.460938 C 193.292969 44.460938 192.609375 45.144531 192.609375 45.988281 C 192.609375 46.832031 193.292969 47.519531 194.140625 47.519531 C 194.980469 47.519531 195.667969 46.832031 195.667969 45.988281 C 195.667969 45.144531 194.980469 44.460938 194.140625 44.460938 Z M 194.140625 48.71875 C 192.632812 48.71875 191.410156 47.492188 191.410156 45.988281 C 191.410156 44.484375 192.632812 43.261719 194.140625 43.261719 C 195.644531 43.261719 196.867188 44.484375 196.867188 45.988281 C 196.867188 47.492188 195.644531 48.71875 194.140625 48.71875 " fill-opacity="1" fill-rule="nonzero"/><path fill="#1f2562" d="M 318.140625 153.132812 C 314.78125 153.132812 312.046875 150.398438 312.046875 147.035156 C 312.046875 143.679688 314.78125 140.945312 318.140625 140.945312 C 318.472656 140.945312 318.742188 141.210938 318.742188 141.542969 C 318.742188 141.875 318.472656 142.144531 318.140625 142.144531 C 315.441406 142.144531 313.246094 144.339844 313.246094 147.035156 C 313.246094 149.738281 315.441406 151.933594 318.140625 151.933594 C 320.839844 151.933594 323.035156 149.738281 323.035156 147.035156 C 323.035156 146.707031 323.304688 146.4375 323.636719 146.4375 C 323.96875 146.4375 324.238281 146.707031 324.238281 147.035156 C 324.238281 150.398438 321.503906 153.132812 318.140625 153.132812 " fill-opacity="1" fill-rule="nonzero"/><path fill="#ffffff" d="M 139.484375 72.671875 C 139.484375 74.316406 138.148438 75.648438 136.503906 75.648438 C 134.859375 75.648438 133.527344 74.316406 133.527344 72.671875 C 133.527344 71.027344 134.859375 69.695312 136.503906 69.695312 C 138.148438 69.695312 139.484375 71.027344 139.484375 72.671875 " fill-opacity="1" fill-rule="nonzero"/><path fill="#1f2562" d="M 160.496094 76.191406 C 160.34375 76.191406 160.1875 76.132812 160.070312 76.015625 C 159.835938 75.78125 159.835938 75.402344 160.070312 75.167969 L 182.222656 53.011719 C 182.460938 52.78125 182.835938 52.78125 183.074219 53.011719 C 183.308594 53.25 183.308594 53.628906 183.074219 53.863281 L 160.921875 76.015625 C 160.800781 76.132812 160.648438 76.191406 160.496094 76.191406 " fill-opacity="1" fill-rule="nonzero"/><path fill="#1f2562" d="M 308.15625 205.53125 C 308.003906 205.53125 307.847656 205.472656 307.730469 205.355469 C 307.496094 205.125 307.496094 204.742188 307.730469 204.507812 L 332.371094 179.867188 C 332.605469 179.632812 332.984375 179.632812 333.21875 179.867188 C 333.453125 180.101562 333.453125 180.484375 333.21875 180.714844 L 308.582031 205.355469 C 308.464844 205.472656 308.308594 205.53125 308.15625 205.53125 " fill-opacity="1" fill-rule="nonzero"/></svg>