<svg xmlns="http://www.w3.org/2000/svg" xmlns:xlink="http://www.w3.org/1999/xlink" width="500" zoomAndPan="magnify" viewBox="0 0 375 374.999991" height="500" preserveAspectRatio="xMidYMid meet" version="1.0"><defs><clipPath id="0ad04bf1d9"><path d="M 1.703125 227 L 372.953125 227 L 372.953125 375 L 1.703125 375 Z M 1.703125 227 " clip-rule="nonzero"/></clipPath></defs><g clip-path="url(#0ad04bf1d9)"><path fill="#000000" d="M 267.152344 227.304688 C 270.820312 227.828125 275.230469 228.6875 280.121094 230.160156 C 287.644531 232.425781 291.457031 233.625 293.894531 237.054688 C 295.972656 239.976562 295.359375 242.035156 296.558594 248.171875 C 297.269531 251.804688 298.667969 257.125 301.726562 263.449219 C 313.417969 272.183594 329.222656 286.101562 343.507812 306.667969 C 361.90625 333.167969 369.507812 358.800781 372.910156 374.777344 C 249.179688 374.777344 125.445312 374.777344 1.714844 374.777344 C 8.347656 361.050781 21.648438 338.0625 46.285156 317.199219 C 68.46875 298.414062 90.625 289.160156 104.589844 284.550781 C 112.65625 277.632812 120.722656 270.710938 128.785156 263.792969 C 174.910156 251.632812 221.03125 239.46875 267.152344 227.304688 Z M 267.152344 227.304688 " fill-opacity="1" fill-rule="nonzero"/></g><path fill="#fab89a" d="M 224.367188 41.683594 C 232.785156 55.113281 237.722656 70.707031 238.5625 86.535156 C 238.882812 92.554688 238.691406 98.886719 241.515625 104.214844 C 246.023438 112.726562 256.582031 115.867188 263.398438 122.667969 L 264.5625 125.34375 C 264.898438 130.972656 265.230469 136.648438 264.476562 142.234375 C 263.722656 147.824219 261.796875 153.394531 258.097656 157.648438 C 255.683594 160.421875 250.820312 163.714844 250.285156 167.351562 C 248.640625 178.484375 248.925781 189.585938 249.730469 200.8125 C 240.625 207.910156 232.136719 216.992188 226.664062 227.164062 C 219.070312 222.878906 209.988281 221.988281 201.289062 222.585938 C 192.585938 223.1875 184.046875 225.167969 175.394531 226.257812 C 158.652344 228.367188 139.570312 227.335938 123.328125 222.765625 C 118.207031 206.921875 113.050781 189.832031 114.21875 173.222656 C 115.304688 157.808594 112.496094 142.304688 111.269531 126.902344 C 109.703125 107.175781 110.570312 87.253906 113.847656 67.738281 C 114.507812 63.824219 115.316406 59.789062 117.617188 56.558594 C 120.734375 52.175781 126.019531 50.007812 130.996094 47.980469 C 142.988281 43.097656 154.808594 37.789062 166.425781 32.078125 C 182.941406 23.960938 206.5 37.308594 224.367188 41.683594 Z M 224.367188 41.683594 " fill-opacity="1" fill-rule="nonzero"/><path fill="#ffffff" d="M 268.359375 230.941406 C 240.832031 258.34375 209.738281 286.511719 174.757812 314.402344 C 160.941406 325.421875 147.253906 335.804688 133.769531 345.59375 C 132.925781 331.507812 132.757812 315.871094 133.769531 298.945312 C 134.425781 287.984375 135.507812 277.660156 136.859375 268.035156 C 156.113281 262.476562 181.238281 252.980469 207.785156 236.195312 C 212.722656 233.070312 217.386719 229.894531 221.792969 226.710938 C 224.25 223.324219 227.824219 220.132812 231.75 216.371094 C 236.148438 212.15625 242.328125 205.945312 249.519531 197.648438 C 250.316406 198.929688 251.203125 200.648438 251.867188 202.765625 L 260.105469 206.042969 Z M 268.359375 230.941406 " fill-opacity="1" fill-rule="nonzero"/><path fill="#e1805f" d="M 128.152344 173.789062 L 180.78125 173.789062 L 180.78125 201.457031 L 128.152344 201.457031 Z M 128.152344 173.789062 " fill-opacity="1" fill-rule="nonzero"/><path fill="#ffffff" d="M 142.046875 127.726562 C 140.777344 129.246094 138.582031 129.617188 136.621094 129.886719 C 136.421875 129.914062 136.234375 129.9375 136.035156 129.964844 C 135.183594 130.078125 134.328125 130.171875 133.472656 130.257812 C 129.695312 130.644531 125.902344 130.808594 122.105469 130.765625 C 122.105469 130.492188 122.570312 129.679688 122.699219 129.4375 C 124.019531 127.074219 125.925781 125 128.296875 123.707031 C 128.589844 123.542969 128.894531 123.394531 129.195312 123.265625 C 131.367188 122.308594 133.84375 122.011719 136.148438 122.617188 C 137.3125 122.929688 138.425781 123.472656 139.382812 124.207031 C 140.5625 125.128906 141.511719 126.339844 142.046875 127.726562 Z M 187.925781 121.582031 C 187.441406 121.261719 186.933594 120.960938 186.414062 120.683594 C 184.242188 119.527344 181.714844 118.878906 179.300781 119.300781 C 179.117188 119.335938 178.9375 119.371094 178.757812 119.414062 C 175.445312 120.234375 172.605469 122.339844 170.046875 124.613281 C 169.675781 124.949219 169.3125 125.292969 168.96875 125.664062 C 168.714844 125.941406 168.457031 126.261719 168.457031 126.632812 C 168.46875 127.117188 168.933594 127.488281 169.40625 127.566406 C 169.882812 127.632812 170.363281 127.488281 170.820312 127.332031 C 173.226562 126.546875 175.703125 127.152344 178.222656 127.425781 C 178.84375 127.496094 179.464844 127.574219 180.09375 127.652344 C 181.722656 127.851562 183.363281 128.03125 185.003906 128.015625 C 185.261719 128.023438 185.519531 128.015625 185.777344 127.996094 C 188.304688 127.867188 190.867188 127.195312 192.714844 125.46875 C 191.1875 124.09375 189.640625 122.710938 187.925781 121.582031 Z M 187.925781 121.582031 " fill-opacity="1" fill-rule="nonzero"/><path fill="#925a3c" d="M 287.347656 104.503906 C 286.882812 106.015625 285.691406 107.785156 285.234375 109.289062 C 286.488281 101.570312 283.90625 92.480469 280.007812 85.691406 C 280.148438 86.980469 278.75 88.59375 277.894531 89.578125 C 277.429688 80.597656 272.589844 71.605469 266.621094 64.902344 C 267.15625 53.042969 260.238281 39.996094 250.207031 33.652344 C 247.65625 25.027344 240.839844 17.765625 232.511719 14.375 C 234.0625 15.6875 235.199219 17.300781 235.863281 19.226562 C 228.636719 8.382812 211.757812 2.046875 198.992188 4.59375 C 190.425781 -0.0351562 181.535156 1.0625 173.71875 6.871094 C 167.992188 4.003906 161.300781 3.523438 154.949219 4.359375 C 148.59375 5.207031 142.925781 7.234375 136.863281 9.316406 C 140.039062 9.175781 142.96875 10.871094 145.910156 12.070312 C 136.070312 11.707031 126.175781 16.378906 120.199219 24.199219 C 114.214844 32.03125 113.980469 43.605469 116.90625 53.007812 C 114.628906 53.90625 112.980469 55.917969 111.710938 58.015625 C 110.445312 60.113281 109.453125 62.382812 107.941406 64.308594 C 106.433594 66.234375 104.234375 67.832031 101.792969 67.847656 C 102.949219 68.695312 104.554688 69.1875 105.925781 68.78125 C 104.921875 72.40625 101.386719 75.429688 97.816406 76.621094 C 99.246094 77.257812 101.671875 76.671875 102.894531 75.703125 C 101.585938 79.417969 103.242188 83.855469 103.40625 87.789062 C 103.613281 92.617188 101.007812 97.460938 96.867188 99.945312 C 98.238281 99.273438 99.757812 98.765625 100.714844 97.5625 C 100.59375 101.007812 97.402344 103.375 96.175781 106.59375 C 94.761719 110.316406 95.195312 114.691406 97.316406 118.058594 C 99.4375 121.417969 103.191406 123.695312 107.15625 124.023438 C 107.097656 126.769531 106.597656 129.953125 107.398438 132.578125 C 108.199219 135.210938 110.011719 137.699219 112.617188 138.570312 C 113.144531 144.320312 110.332031 150.789062 109.433594 156.492188 C 108.527344 162.199219 108.683594 168.597656 112.382812 173.027344 C 110.710938 172.128906 108.761719 170.875 108.207031 169.054688 C 106.921875 179.078125 107.328125 190.128906 112.195312 198.984375 C 118.929688 211.261719 109.320312 226.128906 104.15625 239.140625 C 101.457031 245.933594 102.972656 255.1875 106.984375 261.292969 C 110.996094 267.394531 117.671875 271.679688 124.890625 272.765625 C 133.351562 274.042969 144.796875 277.324219 151.609375 272.152344 C 159.539062 276.3125 167.914062 277.671875 176.859375 277.289062 C 185.792969 276.917969 194.574219 274.632812 202.914062 271.386719 C 207.917969 269.433594 213.09375 266.871094 215.773438 262.21875 C 220.863281 253.394531 223.289062 241.824219 222.527344 231.664062 C 224.332031 234.816406 225.054688 239.332031 224.996094 242.964844 C 230.292969 227.296875 233.066406 208.8125 232.542969 192.289062 C 233.308594 193.917969 234.378906 195.921875 234.5 197.71875 C 236.398438 189.285156 236.761719 180.097656 236.085938 171.472656 C 235.585938 165.042969 239.125 158.179688 240.277344 151.832031 C 241.425781 145.476562 241.296875 138.570312 237.992188 133.03125 C 242.347656 134.144531 246.53125 133.804688 250.644531 131.992188 C 254.761719 130.171875 258.410156 127.460938 262.023438 124.777344 C 264.816406 129.671875 264.636719 135.894531 263.59375 141.429688 C 262.308594 148.300781 258.660156 153.894531 256.789062 156.761719 C 253.777344 161.378906 252.421875 161.871094 250.792969 165.757812 C 249.171875 169.632812 248.957031 172.890625 248.664062 177.765625 C 248.457031 181.359375 248.421875 186.332031 249.242188 192.269531 C 252.386719 191.097656 261.195312 187.332031 267.636719 177.792969 C 273.660156 168.867188 274.175781 159.972656 274.203125 156.546875 C 275.175781 158.367188 275.910156 160.585938 276.089844 162.652344 C 279.964844 151.816406 279.886719 138.867188 275.609375 128.1875 C 281.707031 121.625 286.847656 113.457031 287.347656 104.503906 Z M 170.234375 191.675781 C 160.617188 194.550781 150.371094 195.292969 140.433594 193.824219 C 138.519531 193.546875 136.5 193.125 135.113281 191.769531 C 133.734375 190.414062 134.355469 186.933594 136.261719 186.582031 C 141.195312 185.664062 145.894531 183.507812 149.792969 180.347656 C 157.894531 183.59375 167.0625 185.863281 175.582031 187.730469 C 174.082031 188.824219 172.011719 191.140625 170.234375 191.675781 Z M 215.449219 160.101562 C 215.386719 158.453125 215.335938 156.21875 215.269531 154.570312 C 214.265625 158.546875 212.730469 162.613281 209.886719 165.566406 C 206.609375 168.96875 203.21875 172.4375 198.914062 174.371094 C 194.609375 176.316406 188.8125 176.839844 185.269531 173.726562 C 185.871094 175.160156 186.019531 176.566406 185.8125 178.101562 C 180.621094 171.945312 172.941406 167.378906 165.078125 165.679688 C 166.871094 166.585938 168.839844 169.226562 169.183594 171.214844 C 165.257812 166.300781 158.738281 162.984375 152.457031 162.667969 C 143.539062 162.21875 134 167.371094 130.300781 175.503906 C 130.671875 174.070312 131.578125 172.242188 131.949219 170.800781 C 126.273438 175.976562 121.019531 183.160156 118.285156 190.34375 C 116.59375 183.738281 114.074219 177.515625 114.84375 170.738281 C 116.542969 155.734375 117.414062 140.332031 115.535156 125.335938 C 115.472656 124.808594 115.40625 124.28125 115.335938 123.765625 C 115.066406 121.796875 114.851562 119.792969 114.699219 117.757812 C 113.78125 105.800781 114.785156 92.867188 117.128906 81.445312 C 115.671875 83.734375 115.242188 85.484375 114.664062 88.128906 C 115.519531 82.03125 116.378906 75.894531 118.398438 70.082031 C 120.417969 64.273438 123.695312 58.738281 128.585938 55.019531 C 133.992188 50.910156 141.800781 48.171875 148.535156 47.34375 C 155.398438 51.1875 164.371094 50.917969 170.988281 46.664062 C 182.183594 48.300781 193.53125 47.648438 204.417969 44.546875 C 207.136719 50.789062 211.328125 57.316406 216.285156 62.019531 C 214.714844 60.621094 212.570312 59.371094 211.085938 57.945312 C 211.90625 66.070312 212.277344 74.410156 216.449219 81.417969 C 215.292969 80.53125 214.335938 79.8125 213.636719 78.527344 C 216.25 90.578125 219.917969 104.082031 224.730469 115.433594 C 223.808594 113.914062 222.667969 112.609375 221.753906 111.09375 C 223.730469 115.71875 224.9375 121.675781 225.257812 126.691406 C 225.9375 137.707031 221.582031 150.925781 215.449219 160.101562 Z M 215.449219 160.101562 " fill-opacity="1" fill-rule="nonzero"/><path fill="#ffffff" d="M 109.71875 69.828125 C 110.640625 67.308594 112.660156 64.972656 114.390625 62.953125 C 114.78125 62.492188 115.429688 63.15625 115.050781 63.613281 C 113.316406 65.703125 112.082031 68.125 110.410156 70.230469 C 110.152344 70.554688 109.582031 70.207031 109.71875 69.828125 Z M 114.371094 66.128906 C 112.742188 68.109375 110.957031 70.335938 110.082031 72.773438 C 109.90625 73.257812 110.597656 73.46875 110.859375 73.101562 C 112.328125 71.042969 113.457031 68.789062 115.027344 66.785156 C 115.390625 66.324219 114.753906 65.660156 114.371094 66.128906 Z M 114.195312 71.28125 C 114.527344 70.746094 113.6875 70.261719 113.359375 70.792969 C 112.453125 72.246094 111.449219 73.683594 110.675781 75.214844 C 110.421875 75.726562 111.097656 76.101562 111.429688 75.65625 C 112.460938 74.28125 113.296875 72.742188 114.195312 71.28125 Z M 232.378906 78.59375 C 232.722656 79.082031 233.460938 78.664062 233.183594 78.121094 C 230.855469 73.585938 227.910156 69.148438 224.847656 65.074219 C 224.5 64.613281 223.738281 65.015625 224.050781 65.542969 C 226.6875 69.9375 229.425781 74.402344 232.378906 78.59375 Z M 230.574219 81.890625 C 230.882812 82.285156 231.472656 81.78125 231.25 81.367188 C 229.433594 78.015625 227.046875 74.878906 224.730469 71.855469 C 224.394531 71.421875 223.644531 71.820312 223.96875 72.300781 C 226.128906 75.507812 228.195312 78.84375 230.574219 81.890625 Z M 224.664062 78.707031 C 225.484375 79.894531 226.296875 81.085938 227.226562 82.1875 C 227.496094 82.511719 228.003906 82.097656 227.796875 81.746094 C 227.085938 80.535156 226.253906 79.398438 225.429688 78.261719 C 225.101562 77.800781 224.335938 78.234375 224.664062 78.707031 Z M 250.382812 109.890625 C 250.84375 110 251.167969 109.328125 250.714844 109.097656 C 246.820312 107.101562 242.976562 105.40625 239.363281 102.867188 C 238.949219 102.574219 238.414062 103.253906 238.816406 103.582031 C 242.148438 106.269531 246.167969 108.875 250.382812 109.890625 Z M 241.097656 107.128906 C 240.6875 106.828125 240.140625 107.523438 240.546875 107.84375 C 243.417969 110.089844 246.800781 112.910156 250.652344 112.890625 C 251.167969 112.886719 251.289062 112.113281 250.773438 111.980469 C 247.074219 111.027344 244.167969 109.386719 241.097656 107.128906 Z M 242.351562 111.085938 C 241.941406 110.753906 241.355469 111.320312 241.761719 111.675781 C 243.949219 113.582031 246.574219 115.375 249.421875 116.085938 C 249.859375 116.195312 250.179688 115.539062 249.742188 115.328125 C 247.109375 114.074219 244.636719 112.949219 242.351562 111.085938 Z M 124.214844 188.097656 C 125.316406 185.441406 126.082031 182.75 127.492188 180.210938 C 127.773438 179.707031 127.003906 179.257812 126.71875 179.757812 C 125.3125 182.21875 123.800781 185.03125 123.367188 187.863281 C 123.28125 188.429688 123.996094 188.621094 124.214844 188.097656 Z M 126.371094 187.3125 C 126.9375 186.363281 127.210938 185.242188 127.632812 184.222656 C 128.101562 183.085938 128.621094 181.976562 129.195312 180.886719 C 129.488281 180.324219 128.652344 179.828125 128.339844 180.386719 C 127.234375 182.363281 125.765625 184.796875 125.546875 187.085938 C 125.503906 187.542969 126.160156 187.664062 126.371094 187.3125 Z M 129.980469 184.398438 C 130.96875 182.910156 131.542969 181.054688 132.257812 179.421875 C 132.507812 178.855469 131.6875 178.355469 131.417969 178.929688 C 130.640625 180.582031 129.597656 182.269531 129.117188 184.035156 C 128.96875 184.566406 129.6875 184.839844 129.980469 184.398438 Z M 179.019531 187.113281 C 179.246094 187.628906 180 187.246094 179.890625 186.746094 C 178.964844 182.550781 176.375 178.660156 173.691406 175.390625 C 173.328125 174.949219 172.722656 175.578125 173.066406 176.015625 C 175.753906 179.441406 177.28125 183.175781 179.019531 187.113281 Z M 180.984375 185.640625 C 181.226562 186.148438 181.960938 185.777344 181.855469 185.273438 C 181.113281 181.824219 178.863281 178.507812 176.695312 175.796875 C 176.3125 175.320312 175.660156 175.992188 176.027344 176.46875 C 178.253906 179.328125 179.453125 182.40625 180.984375 185.640625 Z M 182.714844 181.941406 C 183.183594 182.855469 183.492188 183.867188 184.027344 184.738281 C 184.234375 185.078125 184.902344 184.976562 184.84375 184.519531 C 184.574219 182.414062 183.144531 180.335938 181.867188 178.699219 C 181.539062 178.28125 180.828125 178.832031 181.128906 179.273438 C 181.707031 180.132812 182.242188 181.019531 182.714844 181.941406 Z M 113.246094 238.160156 C 113.414062 237.566406 112.503906 237.320312 112.320312 237.90625 C 110.480469 243.78125 110.6875 250.605469 114.074219 255.910156 C 114.402344 256.425781 115.09375 255.980469 114.867188 255.445312 C 112.445312 249.703125 111.480469 244.257812 113.246094 238.160156 Z M 118.359375 256 C 117.050781 252.332031 115.921875 249 116.058594 245.023438 C 116.082031 244.398438 115.125 244.402344 115.09375 245.023438 C 114.898438 248.863281 115.371094 253.0625 117.464844 256.378906 C 117.746094 256.828125 118.554688 256.546875 118.359375 256 Z M 119.640625 252.398438 C 119.167969 250.738281 118.703125 249.28125 118.796875 247.523438 C 118.828125 246.871094 117.828125 246.878906 117.785156 247.523438 C 117.664062 249.261719 117.851562 251.246094 118.808594 252.75 C 119.078125 253.175781 119.789062 252.910156 119.640625 252.398438 Z M 186.390625 261.871094 C 190.359375 255.207031 192.558594 247.507812 193.925781 239.929688 C 194.042969 239.277344 193.050781 238.992188 192.921875 239.652344 C 191.421875 247.328125 188.625 254.214844 185.488281 261.34375 C 185.226562 261.945312 186.039062 262.464844 186.390625 261.871094 Z M 192.027344 256.847656 C 194.066406 253.785156 194.964844 249.65625 195.699219 246.105469 C 195.832031 245.464844 194.871094 245.1875 194.714844 245.832031 C 193.820312 249.5 192.171875 252.886719 191.210938 256.5 C 191.074219 257.003906 191.75 257.261719 192.027344 256.847656 Z M 135.664062 342.191406 C 135.699219 342.027344 135.726562 341.859375 135.765625 341.695312 C 135.898438 341.0625 134.9375 340.789062 134.789062 341.425781 C 134.445312 342.917969 134.125 344.414062 133.820312 345.914062 C 131.605469 349.980469 128.773438 353.769531 126.253906 357.605469 C 122.941406 362.65625 119.78125 367.640625 115.46875 371.921875 C 115.027344 372.363281 115.671875 372.953125 116.136719 372.589844 C 120.929688 368.820312 123.984375 363.226562 127.257812 358.191406 C 129.257812 355.109375 131.390625 352.058594 133.246094 348.867188 C 131.867188 356.398438 131.070312 364.058594 131.207031 371.707031 C 131.21875 372.359375 132.183594 372.355469 132.21875 371.707031 C 132.65625 362.898438 133.402344 354.222656 134.992188 345.578125 C 135.476562 344.585938 135.929688 343.585938 136.324219 342.554688 C 136.484375 342.136719 135.941406 341.941406 135.664062 342.191406 Z M 104.042969 286.316406 C 96.605469 314.640625 92.074219 344.417969 92.414062 373.761719 C 92.421875 374.449219 93.453125 374.445312 93.480469 373.761719 C 94.601562 344.238281 97.875 315.308594 105.0625 286.597656 C 105.230469 285.933594 104.21875 285.65625 104.042969 286.316406 Z M 300.167969 264.601562 C 292.804688 275.835938 282.269531 284.097656 272.371094 292.953125 C 267.003906 297.753906 262.011719 302.941406 256.730469 307.835938 C 251.300781 312.867188 245.390625 317.226562 239.304688 321.417969 C 213.953125 338.882812 188.53125 356.242188 163.230469 373.773438 C 162.707031 374.136719 163.199219 374.996094 163.734375 374.636719 C 190.03125 356.78125 216.398438 338.996094 242.457031 320.792969 C 253.976562 312.742188 263.363281 302.679688 273.816406 293.382812 C 283.640625 284.640625 294.003906 276.382812 301.25 265.234375 C 301.691406 264.554688 300.605469 263.925781 300.167969 264.601562 Z M 300.167969 264.601562 " fill-opacity="1" fill-rule="nonzero"/><path fill="#000000" d="M 202.15625 111.945312 C 202.09375 112.367188 201.820312 112.683594 201.582031 112.898438 C 198.140625 111.226562 191.582031 108.632812 183.105469 108.835938 C 176.457031 108.996094 171.09375 109.125 166.808594 112.800781 C 165.101562 114.269531 163.902344 115.671875 162.597656 116.175781 C 162.585938 116.183594 162.582031 116.195312 162.570312 116.203125 C 158.652344 118.578125 155.109375 112.925781 154.109375 109.871094 C 153.976562 109.464844 154.613281 109.199219 154.800781 109.582031 C 155.460938 110.929688 156.113281 112.253906 157.128906 113.375 C 157.59375 113.886719 158.210938 114.4375 158.898438 114.851562 C 157.546875 113.210938 156.589844 110.507812 155.921875 108.074219 C 172.421875 100.253906 183.449219 102.402344 188.039062 103.765625 C 192.101562 104.976562 202.59375 108.980469 202.15625 111.945312 Z M 138.992188 157.492188 C 138.625 157.789062 139.296875 159.652344 140.671875 160.621094 C 141.4375 161.160156 142.523438 161.492188 142.742188 161.199219 C 143.015625 160.832031 141.898438 159.597656 141.667969 159.339844 C 140.84375 158.425781 139.359375 157.191406 138.992188 157.492188 Z M 151.785156 159.84375 C 152.21875 159.804688 152.625 159.582031 153.035156 159.40625 C 154.984375 158.5625 157.226562 158.742188 159.0625 159.898438 C 159.449219 160.136719 159.890625 160.429688 160.292969 160.230469 C 160.660156 160.046875 160.824219 159.484375 160.742188 159.015625 C 160.660156 158.542969 160.386719 158.15625 160.085938 157.835938 C 158.914062 156.589844 157.265625 156.148438 155.703125 156.265625 C 154.429688 156.367188 152.414062 156.71875 151.332031 157.597656 C 150.453125 158.316406 150.363281 159.960938 151.785156 159.84375 Z M 128.953125 124.246094 C 128.914062 124.5 128.886719 124.757812 128.886719 125.027344 C 128.886719 127.710938 130.886719 129.929688 133.472656 130.257812 C 134.328125 130.171875 135.183594 130.078125 136.035156 129.964844 C 138.027344 129.214844 139.449219 127.277344 139.449219 125.027344 C 139.449219 124.851562 139.425781 124.683594 139.40625 124.515625 C 140.453125 125.265625 141.308594 126.3125 141.835938 127.726562 C 141.972656 128.101562 142.574219 127.949219 142.445312 127.558594 C 141.304688 124.117188 139.066406 122.371094 136.445312 121.839844 C 129.890625 119.640625 124.070312 123.769531 120.070312 129.066406 C 119.792969 129.433594 120.429688 129.929688 120.714844 129.5625 C 122.695312 127.015625 124.84375 125.113281 127.238281 123.941406 C 124.683594 125.519531 122.527344 127.773438 121.449219 130.261719 C 121.246094 130.730469 121.875 131.136719 122.15625 130.671875 C 123.863281 127.898438 126.003906 125.640625 128.953125 124.246094 Z M 129.144531 133.46875 C 126.894531 133.621094 124.652344 133.605469 122.78125 132.183594 C 122.378906 131.878906 121.976562 132.5625 122.382812 132.863281 C 124.367188 134.316406 126.835938 135.324219 129.269531 134.40625 C 129.738281 134.230469 129.71875 133.429688 129.144531 133.46875 Z M 133.183594 164.363281 C 134.421875 162.464844 135.269531 160.265625 135.929688 158.046875 C 136.597656 160.109375 138.074219 161.910156 140.644531 163.226562 C 141.019531 163.417969 141.34375 162.875 140.976562 162.660156 C 131.742188 157.203125 139.992188 146.734375 142.113281 139.382812 C 143.980469 132.902344 144.734375 126.097656 144.214844 119.371094 C 144.15625 118.609375 142.984375 118.589844 143.011719 119.371094 C 143.382812 129.679688 141.53125 139.234375 137.164062 148.582031 C 136.011719 151.054688 135.359375 153.582031 135.515625 155.90625 C 134.695312 158.675781 133.480469 161.199219 132.320312 163.859375 C 132.070312 164.4375 132.824219 164.914062 133.183594 164.363281 Z M 143.570312 161.96875 C 145.640625 164.367188 149.503906 164.140625 151.054688 161.261719 C 151.242188 160.910156 150.757812 160.484375 150.480469 160.816406 C 148.808594 162.8125 146.15625 163.207031 144.175781 161.363281 C 143.765625 160.984375 143.210938 161.554688 143.570312 161.96875 Z M 161.234375 163.296875 C 160.832031 163.621094 161.265625 164.324219 161.734375 164.160156 C 166.535156 162.472656 167.859375 156.585938 166.105469 152.296875 C 165.914062 151.824219 165.144531 152.003906 165.316406 152.515625 C 166.902344 157.175781 164.714844 160.507812 161.234375 163.296875 Z M 168.792969 125.011719 C 168.195312 125.695312 167.890625 126.828125 168.574219 127.566406 C 168.832031 127.84375 169.183594 127.996094 169.566406 127.957031 C 169.941406 127.921875 170.417969 127.511719 170.78125 127.621094 C 171.257812 127.765625 171.441406 127.042969 170.984375 126.878906 C 170.738281 126.789062 170.488281 126.800781 170.242188 126.878906 C 170.023438 126.945312 169.6875 127.191406 169.453125 127.125 C 168.773438 126.929688 169.492188 125.8125 169.621094 125.496094 C 169.804688 125.035156 169.105469 124.652344 168.792969 125.011719 Z M 194.132812 125.769531 C 190.195312 123.785156 187.25 119.324219 182.792969 118.414062 C 181.976562 118.246094 181.171875 118.226562 180.382812 118.308594 C 177.027344 118.289062 173.921875 119.570312 171.109375 121.75 C 170.792969 121.996094 171.21875 122.554688 171.539062 122.308594 C 172.5 121.582031 173.539062 121.007812 174.625 120.554688 C 172.976562 121.574219 171.425781 122.765625 169.984375 123.757812 C 169.492188 124.101562 169.933594 124.894531 170.460938 124.574219 C 173.015625 123.035156 175.714844 121.082031 178.527344 120.210938 C 177.953125 121.058594 177.609375 122.082031 177.609375 123.179688 C 177.609375 125.070312 178.601562 126.726562 180.09375 127.652344 C 181.722656 127.847656 183.363281 128.03125 185 128.011719 C 186.863281 127.203125 188.164062 125.347656 188.164062 123.179688 C 188.164062 123.125 188.15625 123.074219 188.152344 123.023438 C 189.863281 124.480469 191.492188 125.992188 193.667969 126.867188 C 194.296875 127.121094 194.734375 126.074219 194.132812 125.769531 Z M 179.695312 112.015625 C 174.828125 111.222656 170.328125 112.765625 166.566406 115.839844 C 166.265625 116.082031 166.667969 116.617188 166.984375 116.382812 C 171.167969 113.269531 176.738281 112.21875 181.746094 113.835938 C 186.832031 115.476562 191.367188 120.023438 195.734375 123.003906 C 196.132812 123.277344 196.636719 122.636719 196.253906 122.332031 C 191.390625 118.390625 186.113281 113.0625 179.695312 112.015625 Z M 140.808594 119.691406 C 141.015625 120.035156 141.546875 119.726562 141.347656 119.375 C 140.816406 118.449219 140.148438 117.691406 139.386719 117.074219 C 140.398438 117.496094 141.324219 117.695312 142.402344 117.316406 C 145.003906 116.402344 146.207031 112.90625 146.816406 109.761719 C 143.675781 108.867188 140.269531 108.398438 136.585938 108.398438 C 136.578125 108.398438 135.457031 108.183594 133.644531 108.183594 C 131.472656 108.183594 128.296875 108.496094 124.839844 109.882812 C 123.769531 110.308594 122.613281 110.851562 121.425781 111.621094 C 120.785156 112.027344 119.800781 112.707031 118.398438 114.011719 C 117 115.3125 115.644531 116.582031 114.695312 117.757812 C 114.851562 119.796875 115.066406 121.796875 115.335938 123.765625 C 115.402344 124.285156 115.472656 124.8125 115.53125 125.335938 C 116.542969 123.421875 118.300781 120.339844 121.113281 118.171875 C 121.507812 117.871094 126.367188 114.183594 132.578125 114.78125 C 133.03125 114.824219 133.453125 114.890625 133.859375 114.96875 C 133.117188 114.894531 132.355469 114.875 131.597656 114.910156 C 126.816406 115.128906 122.972656 120.382812 119.4375 123.082031 C 119.023438 123.398438 119.378906 124.082031 119.855469 123.800781 C 122.109375 122.464844 124.179688 120.886719 126.160156 119.171875 C 129.703125 116.09375 137.703125 114.511719 140.808594 119.691406 Z M 117.484375 167.015625 C 117.847656 166.53125 118.003906 165.890625 118.214844 165.324219 C 118.445312 164.703125 118.667969 164.082031 118.890625 163.457031 C 119.101562 162.867188 118.1875 162.636719 117.960938 163.199219 C 117.714844 163.816406 117.46875 164.433594 117.226562 165.050781 C 117.007812 165.621094 116.730469 166.183594 116.679688 166.796875 C 116.640625 167.273438 117.257812 167.320312 117.484375 167.015625 Z M 118.394531 166.566406 C 118.0625 167.238281 117.730469 167.910156 117.398438 168.582031 C 117.097656 169.191406 116.730469 169.808594 116.585938 170.476562 C 116.503906 170.851562 117.003906 171.242188 117.292969 170.890625 C 118.160156 169.824219 118.644531 168.296875 119.226562 167.054688 C 119.488281 166.5 118.671875 166.007812 118.394531 166.566406 Z M 118.710938 168.90625 C 118.296875 169.785156 117.777344 170.671875 117.484375 171.597656 C 117.328125 172.085938 118.023438 172.34375 118.285156 171.9375 C 118.785156 171.152344 119.121094 170.21875 119.507812 169.371094 C 119.757812 168.835938 118.96875 168.367188 118.710938 168.90625 Z M 204.640625 164.753906 C 204.328125 165.375 204.019531 165.996094 203.710938 166.617188 C 203.425781 167.183594 203.0625 167.757812 202.9375 168.378906 C 202.855469 168.761719 203.359375 169.160156 203.65625 168.800781 C 204.066406 168.304688 204.292969 167.691406 204.558594 167.113281 C 204.847656 166.480469 205.140625 165.847656 205.429688 165.214844 C 205.675781 164.6875 204.90625 164.21875 204.640625 164.753906 Z M 206.753906 163.882812 C 206.371094 164.839844 205.753906 165.703125 205.390625 166.660156 C 205.21875 167.117188 205.890625 167.488281 206.207031 167.136719 C 206.917969 166.332031 207.316406 165.140625 207.675781 164.136719 C 207.886719 163.550781 206.980469 163.320312 206.753906 163.882812 Z M 209.699219 161.871094 C 209.269531 162.820312 208.738281 163.777344 208.4375 164.777344 C 208.289062 165.28125 209.007812 165.570312 209.273438 165.128906 C 209.789062 164.269531 210.125 163.273438 210.519531 162.351562 C 210.757812 161.800781 209.957031 161.308594 209.699219 161.871094 Z M 258.296875 132.496094 C 258.355469 132.070312 257.714844 131.871094 257.632812 132.3125 C 256.898438 136.394531 257.511719 140.519531 256.960938 144.59375 C 256.097656 151.019531 250.753906 153.605469 245.179688 155.347656 C 244.675781 155.503906 244.882812 156.242188 245.398438 156.136719 C 249.773438 155.253906 254.441406 153.421875 256.804688 149.378906 C 259.824219 144.214844 257.53125 138.0625 258.296875 132.496094 Z M 251.335938 148.5 C 252.785156 146.226562 253.160156 143.308594 252.320312 140.742188 C 251.746094 138.984375 250.550781 136.429688 248.367188 137.148438 C 247.933594 137.289062 248.109375 137.945312 248.558594 137.835938 C 252.03125 136.992188 251.484375 145.046875 250.882812 146.523438 C 250.414062 147.671875 249.734375 148.667969 248.800781 149.503906 C 247.421875 150.738281 244.292969 151.496094 244.53125 148.527344 C 244.570312 148.042969 243.753906 147.921875 243.679688 148.410156 C 242.730469 154.460938 249.34375 151.625 251.335938 148.5 Z M 250.78125 166.0625 C 249.355469 167.703125 249.054688 169.882812 247.824219 171.625 C 245.570312 174.816406 240.796875 175.089844 237.257812 174.539062 C 236.726562 174.457031 236.484375 175.230469 237.03125 175.359375 C 240.1875 176.117188 244.121094 176.277344 246.953125 174.351562 C 249.554688 172.578125 249.726562 168.96875 251.328125 166.484375 C 251.539062 166.15625 251.042969 165.761719 250.78125 166.0625 Z M 148.324219 186.019531 C 147.984375 185.625 147.269531 186.160156 147.589844 186.582031 C 148.398438 187.636719 149.445312 188.277344 150.808594 188.152344 C 152.445312 188.007812 154.367188 187.417969 155.851562 186.734375 C 156.296875 186.53125 156.082031 185.761719 155.601562 185.804688 C 153.382812 186.003906 150.089844 188.078125 148.324219 186.019531 Z M 133.515625 188.894531 C 135.5625 189.152344 137.53125 188.988281 139.519531 188.453125 C 141.097656 188.027344 144.628906 185.753906 146.164062 186.707031 C 146.582031 186.964844 146.964844 186.308594 146.550781 186.046875 C 144.925781 185.027344 143.964844 185.660156 142.257812 186.273438 C 139.410156 187.292969 136.558594 187.976562 133.515625 187.613281 C 132.699219 187.515625 132.710938 188.792969 133.515625 188.894531 Z M 174.988281 187.929688 C 171.136719 187.941406 167.375 187.480469 163.726562 186.207031 C 162.726562 185.859375 161.542969 185.074219 160.488281 184.972656 C 159.195312 184.851562 158.191406 185.429688 156.839844 185.511719 C 156.421875 185.539062 156.273438 186.203125 156.734375 186.289062 C 157.902344 186.515625 158.785156 186.25 159.96875 186.347656 C 161.558594 186.476562 163.074219 187.363281 164.613281 187.84375 C 167.984375 188.890625 171.46875 189.285156 174.988281 189.125 C 175.753906 189.089844 175.761719 187.925781 174.988281 187.929688 Z M 159.816406 300.679688 C 159.359375 292.664062 159.738281 284.65625 160 276.644531 C 160.011719 276.316406 159.710938 276.203125 159.476562 276.289062 C 159.273438 276.128906 158.949219 276.105469 158.773438 276.398438 C 150.378906 290.574219 139.832031 302.605469 127.957031 313.929688 C 127.535156 314.332031 128.152344 314.917969 128.589844 314.558594 C 140.9375 304.445312 151.089844 291.4375 159.121094 277.691406 C 157.765625 293.410156 157.21875 311.007812 163.5625 325.746094 C 163.796875 326.292969 164.6875 325.902344 164.515625 325.34375 C 162.046875 317.195312 160.300781 309.214844 159.816406 300.679688 Z M 170.386719 154.125 C 170.046875 153.707031 169.300781 154.273438 169.628906 154.710938 C 172.394531 158.371094 175.515625 161.898438 179.253906 164.597656 C 179.71875 164.933594 180.277344 164.195312 179.863281 163.804688 C 176.550781 160.695312 173.265625 157.660156 170.386719 154.125 Z M 192.601562 129.972656 C 189.625 131.59375 186.722656 132.804688 183.261719 132.78125 C 182.730469 132.777344 182.738281 133.566406 183.261719 133.597656 C 186.792969 133.8125 190.441406 133.097656 193.226562 130.78125 C 193.6875 130.394531 193.097656 129.703125 192.601562 129.972656 Z M 192.601562 129.972656 " fill-opacity="1" fill-rule="nonzero"/></svg>